G04 #@! TF.GenerationSoftware,KiCad,Pcbnew,(5.0.0)*
G04 #@! TF.CreationDate,2019-08-04T18:22:56+09:00*
G04 #@! TF.ProjectId,ir_read_mod,69725F726561645F6D6F642E6B696361,rev?*
G04 #@! TF.SameCoordinates,Original*
G04 #@! TF.FileFunction,Copper,L1,Top,Signal*
G04 #@! TF.FilePolarity,Positive*
%FSLAX46Y46*%
G04 Gerber Fmt 4.6, Leading zero omitted, Abs format (unit mm)*
G04 Created by KiCad (PCBNEW (5.0.0)) date 08/04/19 18:22:56*
%MOMM*%
%LPD*%
G01*
G04 APERTURE LIST*
G04 #@! TA.AperFunction,ComponentPad*
%ADD10C,1.800000*%
G04 #@! TD*
G04 #@! TA.AperFunction,ComponentPad*
%ADD11R,1.800000X1.800000*%
G04 #@! TD*
G04 #@! TA.AperFunction,ComponentPad*
%ADD12R,1.700000X1.700000*%
G04 #@! TD*
G04 #@! TA.AperFunction,ComponentPad*
%ADD13O,1.700000X1.700000*%
G04 #@! TD*
G04 #@! TA.AperFunction,ComponentPad*
%ADD14C,1.600000*%
G04 #@! TD*
G04 #@! TA.AperFunction,ComponentPad*
%ADD15O,1.600000X1.600000*%
G04 #@! TD*
G04 #@! TA.AperFunction,ComponentPad*
%ADD16C,2.340000*%
G04 #@! TD*
G04 #@! TA.AperFunction,ComponentPad*
%ADD17R,1.600000X1.600000*%
G04 #@! TD*
G04 #@! TA.AperFunction,ComponentPad*
%ADD18R,2.100000X1.900000*%
G04 #@! TD*
G04 #@! TA.AperFunction,ComponentPad*
%ADD19O,2.100000X1.900000*%
G04 #@! TD*
G04 #@! TA.AperFunction,Conductor*
%ADD20C,0.250000*%
G04 #@! TD*
G04 #@! TA.AperFunction,Conductor*
%ADD21C,0.400000*%
G04 #@! TD*
G04 #@! TA.AperFunction,Conductor*
%ADD22C,0.254000*%
G04 #@! TD*
G04 APERTURE END LIST*
D10*
G04 #@! TO.P,D1,2*
G04 #@! TO.N,Net-(D1-Pad2)*
X65440000Y-69000000D03*
D11*
G04 #@! TO.P,D1,1*
G04 #@! TO.N,GND*
X62900000Y-69000000D03*
G04 #@! TD*
G04 #@! TO.P,D2,1*
G04 #@! TO.N,GND*
X56400000Y-69000000D03*
D10*
G04 #@! TO.P,D2,2*
G04 #@! TO.N,Net-(D2-Pad2)*
X58940000Y-69000000D03*
G04 #@! TD*
G04 #@! TO.P,D3,2*
G04 #@! TO.N,Net-(D3-Pad2)*
X52440000Y-69000000D03*
D11*
G04 #@! TO.P,D3,1*
G04 #@! TO.N,GND*
X49900000Y-69000000D03*
G04 #@! TD*
G04 #@! TO.P,D4,1*
G04 #@! TO.N,GND*
X43400000Y-69000000D03*
D10*
G04 #@! TO.P,D4,2*
G04 #@! TO.N,Net-(D4-Pad2)*
X45940000Y-69000000D03*
G04 #@! TD*
G04 #@! TO.P,D5,2*
G04 #@! TO.N,Net-(D5-Pad2)*
X63260000Y-59600000D03*
D11*
G04 #@! TO.P,D5,1*
G04 #@! TO.N,GND*
X65800000Y-59600000D03*
G04 #@! TD*
D12*
G04 #@! TO.P,J1,1*
G04 #@! TO.N,+5V*
X46300000Y-42200000D03*
D13*
G04 #@! TO.P,J1,2*
G04 #@! TO.N,GND*
X48840000Y-42200000D03*
G04 #@! TO.P,J1,3*
G04 #@! TO.N,Net-(J1-Pad3)*
X51380000Y-42200000D03*
G04 #@! TO.P,J1,4*
G04 #@! TO.N,Net-(J1-Pad4)*
X53920000Y-42200000D03*
G04 #@! TD*
D12*
G04 #@! TO.P,J3,1*
G04 #@! TO.N,Net-(J3-Pad1)*
X68200000Y-40050000D03*
G04 #@! TD*
D11*
G04 #@! TO.P,Q1,1*
G04 #@! TO.N,+5V*
X59300000Y-59600000D03*
D10*
G04 #@! TO.P,Q1,2*
G04 #@! TO.N,Net-(Q1-Pad2)*
X56760000Y-59600000D03*
G04 #@! TD*
D14*
G04 #@! TO.P,R1,1*
G04 #@! TO.N,+5V*
X57100000Y-41900000D03*
D15*
G04 #@! TO.P,R1,2*
G04 #@! TO.N,Net-(J1-Pad4)*
X64720000Y-41900000D03*
G04 #@! TD*
G04 #@! TO.P,R2,2*
G04 #@! TO.N,Net-(J1-Pad3)*
X64720000Y-45000000D03*
D14*
G04 #@! TO.P,R2,1*
G04 #@! TO.N,+5V*
X57100000Y-45000000D03*
G04 #@! TD*
D16*
G04 #@! TO.P,RV1,3*
G04 #@! TO.N,Net-(J3-Pad1)*
X64100000Y-53300000D03*
G04 #@! TO.P,RV1,2*
G04 #@! TO.N,GND*
X61600000Y-48300000D03*
G04 #@! TO.P,RV1,1*
G04 #@! TO.N,Net-(Q1-Pad2)*
X59100000Y-53300000D03*
G04 #@! TD*
D17*
G04 #@! TO.P,U1,1*
G04 #@! TO.N,+5V*
X45900000Y-47400000D03*
D15*
G04 #@! TO.P,U1,8*
G04 #@! TO.N,Net-(Q1-Pad2)*
X53520000Y-62640000D03*
G04 #@! TO.P,U1,2*
G04 #@! TO.N,Net-(D4-Pad2)*
X45900000Y-49940000D03*
G04 #@! TO.P,U1,9*
G04 #@! TO.N,Net-(J1-Pad4)*
X53520000Y-60100000D03*
G04 #@! TO.P,U1,3*
G04 #@! TO.N,Net-(D3-Pad2)*
X45900000Y-52480000D03*
G04 #@! TO.P,U1,10*
G04 #@! TO.N,Net-(J1-Pad3)*
X53520000Y-57560000D03*
G04 #@! TO.P,U1,4*
G04 #@! TO.N,Net-(D2-Pad2)*
X45900000Y-55020000D03*
G04 #@! TO.P,U1,11*
G04 #@! TO.N,Net-(D1-Pad2)*
X53520000Y-55020000D03*
G04 #@! TO.P,U1,5*
G04 #@! TO.N,RC5*
X45900000Y-57560000D03*
G04 #@! TO.P,U1,12*
G04 #@! TO.N,Net-(J2-Pad5)*
X53520000Y-52480000D03*
G04 #@! TO.P,U1,6*
G04 #@! TO.N,Net-(D5-Pad2)*
X45900000Y-60100000D03*
G04 #@! TO.P,U1,13*
G04 #@! TO.N,Net-(J2-Pad4)*
X53520000Y-49940000D03*
G04 #@! TO.P,U1,7*
G04 #@! TO.N,RC3*
X45900000Y-62640000D03*
G04 #@! TO.P,U1,14*
G04 #@! TO.N,GND*
X53520000Y-47400000D03*
G04 #@! TD*
D14*
G04 #@! TO.P,R3,1*
G04 #@! TO.N,GND*
X69500000Y-60400000D03*
D15*
G04 #@! TO.P,R3,2*
G04 #@! TO.N,Net-(J2-Pad4)*
X69500000Y-52780000D03*
G04 #@! TD*
G04 #@! TO.P,R4,2*
G04 #@! TO.N,Net-(J2-Pad5)*
X72500000Y-52780000D03*
D14*
G04 #@! TO.P,R4,1*
G04 #@! TO.N,GND*
X72500000Y-60400000D03*
G04 #@! TD*
G04 #@! TO.P,R5,1*
G04 #@! TO.N,GND*
X75500000Y-60400000D03*
D15*
G04 #@! TO.P,R5,2*
G04 #@! TO.N,RC3*
X75500000Y-52780000D03*
G04 #@! TD*
G04 #@! TO.P,R6,2*
G04 #@! TO.N,RC5*
X69500000Y-62780000D03*
D14*
G04 #@! TO.P,R6,1*
G04 #@! TO.N,GND*
X69500000Y-70400000D03*
G04 #@! TD*
G04 #@! TO.P,R7,1*
G04 #@! TO.N,Net-(R7-Pad1)*
X72550000Y-70400000D03*
D15*
G04 #@! TO.P,R7,2*
G04 #@! TO.N,+5V*
X72550000Y-62780000D03*
G04 #@! TD*
D18*
G04 #@! TO.P,SW1,1*
G04 #@! TO.N,Net-(J2-Pad4)*
X68300000Y-44850000D03*
D19*
G04 #@! TO.P,SW1,8*
G04 #@! TO.N,RC5*
X75920000Y-44850000D03*
G04 #@! TO.P,SW1,C*
G04 #@! TO.N,+5V*
X68300000Y-47390000D03*
X75920000Y-47390000D03*
G04 #@! TO.P,SW1,4*
G04 #@! TO.N,RC3*
X68300000Y-49930000D03*
G04 #@! TO.P,SW1,2*
G04 #@! TO.N,Net-(J2-Pad5)*
X75920000Y-49930000D03*
G04 #@! TD*
D12*
G04 #@! TO.P,SW2,1*
G04 #@! TO.N,Net-(SW2-Pad1)*
X42450000Y-48350000D03*
D13*
G04 #@! TO.P,SW2,2*
G04 #@! TO.N,Net-(D2-Pad2)*
X42450000Y-45810000D03*
G04 #@! TO.P,SW2,3*
G04 #@! TO.N,Net-(R7-Pad1)*
X42450000Y-43270000D03*
G04 #@! TD*
D12*
G04 #@! TO.P,J2,1*
G04 #@! TO.N,Net-(D2-Pad2)*
X42450000Y-52350000D03*
D13*
G04 #@! TO.P,J2,2*
G04 #@! TO.N,+5V*
X42450000Y-54890000D03*
G04 #@! TO.P,J2,3*
G04 #@! TO.N,GND*
X42450000Y-57430000D03*
G04 #@! TO.P,J2,4*
G04 #@! TO.N,Net-(J2-Pad4)*
X42450000Y-59970000D03*
G04 #@! TO.P,J2,5*
G04 #@! TO.N,Net-(J2-Pad5)*
X42450000Y-62510000D03*
G04 #@! TD*
D12*
G04 #@! TO.P,J4,1*
G04 #@! TO.N,+5V*
X59600000Y-38300000D03*
D13*
G04 #@! TO.P,J4,2*
G04 #@! TO.N,GND*
X62140000Y-38300000D03*
G04 #@! TD*
D20*
G04 #@! TO.N,Net-(D1-Pad2)*
X53520000Y-55020000D02*
X54645300Y-55020000D01*
X54645300Y-55020000D02*
X58074600Y-58449300D01*
X58074600Y-58449300D02*
X58074600Y-61634600D01*
X58074600Y-61634600D02*
X65440000Y-69000000D01*
D21*
G04 #@! TO.N,GND*
X69500000Y-70400000D02*
X64300000Y-70400000D01*
X64300000Y-70400000D02*
X62900000Y-69000000D01*
X53520000Y-47400000D02*
X54720300Y-47400000D01*
X61600000Y-48300000D02*
X55620300Y-48300000D01*
X55620300Y-48300000D02*
X54720300Y-47400000D01*
X56400000Y-69000000D02*
X55099700Y-69000000D01*
X49900000Y-69000000D02*
X51200300Y-67699700D01*
X51200300Y-67699700D02*
X53799400Y-67699700D01*
X53799400Y-67699700D02*
X55099700Y-69000000D01*
X61599700Y-69000000D02*
X60299400Y-70300300D01*
X60299400Y-70300300D02*
X57700300Y-70300300D01*
X57700300Y-70300300D02*
X56400000Y-69000000D01*
X62900000Y-69000000D02*
X61599700Y-69000000D01*
X65800000Y-59600000D02*
X67100300Y-59600000D01*
X69500000Y-60400000D02*
X67900300Y-60400000D01*
X67900300Y-60400000D02*
X67100300Y-59600000D01*
X72500000Y-60400000D02*
X69500000Y-60400000D01*
D20*
G04 #@! TO.N,Net-(D2-Pad2)*
X44071700Y-55020000D02*
X42931700Y-56160000D01*
X42931700Y-56160000D02*
X42006500Y-56160000D01*
X42006500Y-56160000D02*
X41274600Y-56891900D01*
X41274600Y-56891900D02*
X41274600Y-63055000D01*
X41274600Y-63055000D02*
X44173400Y-65953800D01*
X44173400Y-65953800D02*
X55893800Y-65953800D01*
X55893800Y-65953800D02*
X58940000Y-69000000D01*
X43625300Y-52350000D02*
X43625300Y-54573600D01*
X43625300Y-54573600D02*
X44071700Y-55020000D01*
X44071700Y-55020000D02*
X44774700Y-55020000D01*
X45900000Y-55020000D02*
X44774700Y-55020000D01*
X42450000Y-52350000D02*
X43625300Y-52350000D01*
G04 #@! TO.N,Net-(D4-Pad2)*
X44774700Y-49940000D02*
X43929100Y-50785600D01*
X43929100Y-50785600D02*
X41851800Y-50785600D01*
X41851800Y-50785600D02*
X40824300Y-51813100D01*
X40824300Y-51813100D02*
X40824300Y-63241600D01*
X40824300Y-63241600D02*
X45940000Y-68357300D01*
X45940000Y-68357300D02*
X45940000Y-69000000D01*
X45900000Y-49940000D02*
X44774700Y-49940000D01*
D21*
G04 #@! TO.N,+5V*
X48451600Y-43648100D02*
X47550300Y-42746900D01*
X47550300Y-42746900D02*
X47550300Y-42200000D01*
X57100000Y-45000000D02*
X49803400Y-45000000D01*
X49803400Y-45000000D02*
X48451600Y-43648100D01*
X45900000Y-46199700D02*
X48451600Y-43648100D01*
X45900000Y-47400000D02*
X45900000Y-46199700D01*
X72550000Y-62780000D02*
X71349700Y-62780000D01*
X59300000Y-59600000D02*
X60600300Y-59600000D01*
X60600300Y-59600000D02*
X64982000Y-63981700D01*
X64982000Y-63981700D02*
X70148000Y-63981700D01*
X70148000Y-63981700D02*
X71349700Y-62780000D01*
X68300000Y-47390000D02*
X63139600Y-47390000D01*
X63139600Y-47390000D02*
X60749600Y-45000000D01*
X60749600Y-45000000D02*
X57100000Y-45000000D01*
X46300000Y-42200000D02*
X47550300Y-42200000D01*
X68300000Y-47390000D02*
X75920000Y-47390000D01*
D20*
G04 #@! TO.N,Net-(J1-Pad3)*
X64720000Y-45000000D02*
X63594700Y-45000000D01*
X51380000Y-42200000D02*
X52555300Y-42200000D01*
X52555300Y-42200000D02*
X52555300Y-42567300D01*
X52555300Y-42567300D02*
X53862700Y-43874700D01*
X53862700Y-43874700D02*
X62469400Y-43874700D01*
X62469400Y-43874700D02*
X63594700Y-45000000D01*
G04 #@! TO.N,Net-(J1-Pad4)*
X64720000Y-41900000D02*
X63594700Y-41900000D01*
X53920000Y-42200000D02*
X55095300Y-42200000D01*
X55095300Y-42200000D02*
X55920600Y-43025300D01*
X55920600Y-43025300D02*
X62469400Y-43025300D01*
X62469400Y-43025300D02*
X63594700Y-41900000D01*
G04 #@! TO.N,Net-(J2-Pad4)*
X53520000Y-49940000D02*
X52394700Y-49940000D01*
X42450000Y-59970000D02*
X42450000Y-58794700D01*
X42450000Y-58794700D02*
X43064200Y-58794700D01*
X43064200Y-58794700D02*
X45568900Y-56290000D01*
X45568900Y-56290000D02*
X46326000Y-56290000D01*
X46326000Y-56290000D02*
X52394700Y-50221300D01*
X52394700Y-50221300D02*
X52394700Y-49940000D01*
X69500000Y-52780000D02*
X68374700Y-52780000D01*
X53520000Y-49940000D02*
X54645300Y-49940000D01*
X54645300Y-49940000D02*
X65534700Y-49940000D01*
X65534700Y-49940000D02*
X68374700Y-52780000D01*
G04 #@! TO.N,Net-(J2-Pad5)*
X53520000Y-52480000D02*
X52394700Y-52480000D01*
X42450000Y-62510000D02*
X42450000Y-61334700D01*
X42450000Y-61334700D02*
X43064200Y-61334700D01*
X43064200Y-61334700D02*
X45568900Y-58830000D01*
X45568900Y-58830000D02*
X46326000Y-58830000D01*
X46326000Y-58830000D02*
X52394700Y-52761300D01*
X52394700Y-52761300D02*
X52394700Y-52480000D01*
X72500000Y-52780000D02*
X71374700Y-52780000D01*
X53520000Y-52480000D02*
X54645300Y-52480000D01*
X54645300Y-52480000D02*
X55320700Y-51804600D01*
X55320700Y-51804600D02*
X66133100Y-51804600D01*
X66133100Y-51804600D02*
X68233800Y-53905300D01*
X68233800Y-53905300D02*
X70249400Y-53905300D01*
X70249400Y-53905300D02*
X71374700Y-52780000D01*
X75920000Y-51205300D02*
X75200000Y-51205300D01*
X75200000Y-51205300D02*
X73625300Y-52780000D01*
X72500000Y-52780000D02*
X73625300Y-52780000D01*
X75920000Y-49930000D02*
X75920000Y-51205300D01*
G04 #@! TO.N,Net-(R7-Pad1)*
X42450000Y-44445300D02*
X42817300Y-44445300D01*
X42817300Y-44445300D02*
X43655000Y-45283000D01*
X43655000Y-45283000D02*
X43655000Y-49372000D01*
X43655000Y-49372000D02*
X42807400Y-50219600D01*
X42807400Y-50219600D02*
X41767800Y-50219600D01*
X41767800Y-50219600D02*
X40374000Y-51613400D01*
X40374000Y-51613400D02*
X40374000Y-63672600D01*
X40374000Y-63672600D02*
X44625400Y-67924000D01*
X44625400Y-67924000D02*
X44625400Y-69434300D01*
X44625400Y-69434300D02*
X46763500Y-71572400D01*
X46763500Y-71572400D02*
X71377600Y-71572400D01*
X71377600Y-71572400D02*
X72550000Y-70400000D01*
X42450000Y-43270000D02*
X42450000Y-44445300D01*
G04 #@! TD*
D22*
G04 #@! TO.N,GND*
G36*
X77690001Y-76690000D02*
X37110000Y-76690000D01*
X37110000Y-73955431D01*
X37165000Y-73955431D01*
X37165000Y-74844569D01*
X37505259Y-75666026D01*
X38133974Y-76294741D01*
X38955431Y-76635000D01*
X39844569Y-76635000D01*
X40666026Y-76294741D01*
X41294741Y-75666026D01*
X41635000Y-74844569D01*
X41635000Y-73955431D01*
X73165000Y-73955431D01*
X73165000Y-74844569D01*
X73505259Y-75666026D01*
X74133974Y-76294741D01*
X74955431Y-76635000D01*
X75844569Y-76635000D01*
X76666026Y-76294741D01*
X77294741Y-75666026D01*
X77635000Y-74844569D01*
X77635000Y-73955431D01*
X77294741Y-73133974D01*
X76666026Y-72505259D01*
X75844569Y-72165000D01*
X74955431Y-72165000D01*
X74133974Y-72505259D01*
X73505259Y-73133974D01*
X73165000Y-73955431D01*
X41635000Y-73955431D01*
X41294741Y-73133974D01*
X40666026Y-72505259D01*
X39844569Y-72165000D01*
X38955431Y-72165000D01*
X38133974Y-72505259D01*
X37505259Y-73133974D01*
X37165000Y-73955431D01*
X37110000Y-73955431D01*
X37110000Y-69285750D01*
X41865000Y-69285750D01*
X41865000Y-70026310D01*
X41961673Y-70259699D01*
X42140302Y-70438327D01*
X42373691Y-70535000D01*
X43114250Y-70535000D01*
X43273000Y-70376250D01*
X43273000Y-69127000D01*
X42023750Y-69127000D01*
X41865000Y-69285750D01*
X37110000Y-69285750D01*
X37110000Y-51613400D01*
X39599112Y-51613400D01*
X39614000Y-51688247D01*
X39614001Y-63597748D01*
X39599112Y-63672600D01*
X39614001Y-63747452D01*
X39658097Y-63969137D01*
X39826072Y-64220529D01*
X39889528Y-64262929D01*
X43091598Y-67465000D01*
X42373691Y-67465000D01*
X42140302Y-67561673D01*
X41961673Y-67740301D01*
X41865000Y-67973690D01*
X41865000Y-68714250D01*
X42023750Y-68873000D01*
X43273000Y-68873000D01*
X43273000Y-68853000D01*
X43527000Y-68853000D01*
X43527000Y-68873000D01*
X43547000Y-68873000D01*
X43547000Y-69127000D01*
X43527000Y-69127000D01*
X43527000Y-70376250D01*
X43685750Y-70535000D01*
X44426309Y-70535000D01*
X44585401Y-70469102D01*
X46173171Y-72056873D01*
X46215571Y-72120329D01*
X46466963Y-72288304D01*
X46688648Y-72332400D01*
X46688652Y-72332400D01*
X46763499Y-72347288D01*
X46838346Y-72332400D01*
X71302753Y-72332400D01*
X71377600Y-72347288D01*
X71452447Y-72332400D01*
X71452452Y-72332400D01*
X71674137Y-72288304D01*
X71925529Y-72120329D01*
X71967931Y-72056870D01*
X72211698Y-71813103D01*
X72264561Y-71835000D01*
X72835439Y-71835000D01*
X73362862Y-71616534D01*
X73766534Y-71212862D01*
X73985000Y-70685439D01*
X73985000Y-70114561D01*
X73766534Y-69587138D01*
X73362862Y-69183466D01*
X72835439Y-68965000D01*
X72264561Y-68965000D01*
X71737138Y-69183466D01*
X71333466Y-69587138D01*
X71115000Y-70114561D01*
X71115000Y-70685439D01*
X71136897Y-70738302D01*
X71062799Y-70812400D01*
X70876650Y-70812400D01*
X70946965Y-70616777D01*
X70919778Y-70046546D01*
X70753864Y-69645995D01*
X70507745Y-69571861D01*
X69679605Y-70400000D01*
X69693748Y-70414143D01*
X69514143Y-70593748D01*
X69500000Y-70579605D01*
X69485858Y-70593748D01*
X69306253Y-70414143D01*
X69320395Y-70400000D01*
X68492255Y-69571861D01*
X68246136Y-69645995D01*
X68053035Y-70183223D01*
X68080222Y-70753454D01*
X68104638Y-70812400D01*
X47078302Y-70812400D01*
X46638178Y-70372277D01*
X46809507Y-70301310D01*
X47241310Y-69869507D01*
X47475000Y-69305330D01*
X47475000Y-69285750D01*
X48365000Y-69285750D01*
X48365000Y-70026310D01*
X48461673Y-70259699D01*
X48640302Y-70438327D01*
X48873691Y-70535000D01*
X49614250Y-70535000D01*
X49773000Y-70376250D01*
X49773000Y-69127000D01*
X48523750Y-69127000D01*
X48365000Y-69285750D01*
X47475000Y-69285750D01*
X47475000Y-68694670D01*
X47241310Y-68130493D01*
X47084507Y-67973690D01*
X48365000Y-67973690D01*
X48365000Y-68714250D01*
X48523750Y-68873000D01*
X49773000Y-68873000D01*
X49773000Y-67623750D01*
X50027000Y-67623750D01*
X50027000Y-68873000D01*
X50047000Y-68873000D01*
X50047000Y-69127000D01*
X50027000Y-69127000D01*
X50027000Y-70376250D01*
X50185750Y-70535000D01*
X50926309Y-70535000D01*
X51159698Y-70438327D01*
X51338327Y-70259699D01*
X51394139Y-70124956D01*
X51570493Y-70301310D01*
X52134670Y-70535000D01*
X52745330Y-70535000D01*
X53309507Y-70301310D01*
X53741310Y-69869507D01*
X53975000Y-69305330D01*
X53975000Y-69285750D01*
X54865000Y-69285750D01*
X54865000Y-70026310D01*
X54961673Y-70259699D01*
X55140302Y-70438327D01*
X55373691Y-70535000D01*
X56114250Y-70535000D01*
X56273000Y-70376250D01*
X56273000Y-69127000D01*
X55023750Y-69127000D01*
X54865000Y-69285750D01*
X53975000Y-69285750D01*
X53975000Y-68694670D01*
X53741310Y-68130493D01*
X53309507Y-67698690D01*
X52745330Y-67465000D01*
X52134670Y-67465000D01*
X51570493Y-67698690D01*
X51394139Y-67875044D01*
X51338327Y-67740301D01*
X51159698Y-67561673D01*
X50926309Y-67465000D01*
X50185750Y-67465000D01*
X50027000Y-67623750D01*
X49773000Y-67623750D01*
X49614250Y-67465000D01*
X48873691Y-67465000D01*
X48640302Y-67561673D01*
X48461673Y-67740301D01*
X48365000Y-67973690D01*
X47084507Y-67973690D01*
X46809507Y-67698690D01*
X46245330Y-67465000D01*
X46122503Y-67465000D01*
X45371303Y-66713800D01*
X55578999Y-66713800D01*
X56330198Y-67465000D01*
X56272998Y-67465000D01*
X56272998Y-67623748D01*
X56114250Y-67465000D01*
X55373691Y-67465000D01*
X55140302Y-67561673D01*
X54961673Y-67740301D01*
X54865000Y-67973690D01*
X54865000Y-68714250D01*
X55023750Y-68873000D01*
X56273000Y-68873000D01*
X56273000Y-68853000D01*
X56527000Y-68853000D01*
X56527000Y-68873000D01*
X56547000Y-68873000D01*
X56547000Y-69127000D01*
X56527000Y-69127000D01*
X56527000Y-70376250D01*
X56685750Y-70535000D01*
X57426309Y-70535000D01*
X57659698Y-70438327D01*
X57838327Y-70259699D01*
X57894139Y-70124956D01*
X58070493Y-70301310D01*
X58634670Y-70535000D01*
X59245330Y-70535000D01*
X59809507Y-70301310D01*
X60241310Y-69869507D01*
X60475000Y-69305330D01*
X60475000Y-69285750D01*
X61365000Y-69285750D01*
X61365000Y-70026310D01*
X61461673Y-70259699D01*
X61640302Y-70438327D01*
X61873691Y-70535000D01*
X62614250Y-70535000D01*
X62773000Y-70376250D01*
X62773000Y-69127000D01*
X61523750Y-69127000D01*
X61365000Y-69285750D01*
X60475000Y-69285750D01*
X60475000Y-68694670D01*
X60241310Y-68130493D01*
X59809507Y-67698690D01*
X59245330Y-67465000D01*
X58634670Y-67465000D01*
X58525162Y-67510360D01*
X56484131Y-65469330D01*
X56441729Y-65405871D01*
X56190337Y-65237896D01*
X55968652Y-65193800D01*
X55968647Y-65193800D01*
X55893800Y-65178912D01*
X55818953Y-65193800D01*
X44488202Y-65193800D01*
X43133617Y-63839215D01*
X43520625Y-63580625D01*
X43848839Y-63089418D01*
X43964092Y-62510000D01*
X43848839Y-61930582D01*
X43726385Y-61747316D01*
X44654617Y-60819084D01*
X44865423Y-61134577D01*
X45217758Y-61370000D01*
X44865423Y-61605423D01*
X44548260Y-62080091D01*
X44436887Y-62640000D01*
X44548260Y-63199909D01*
X44865423Y-63674577D01*
X45340091Y-63991740D01*
X45758667Y-64075000D01*
X46041333Y-64075000D01*
X46459909Y-63991740D01*
X46934577Y-63674577D01*
X47251740Y-63199909D01*
X47363113Y-62640000D01*
X47251740Y-62080091D01*
X46934577Y-61605423D01*
X46582242Y-61370000D01*
X46934577Y-61134577D01*
X47251740Y-60659909D01*
X47363113Y-60100000D01*
X47251740Y-59540091D01*
X47027023Y-59203778D01*
X52623779Y-53607023D01*
X52837758Y-53750000D01*
X52485423Y-53985423D01*
X52168260Y-54460091D01*
X52056887Y-55020000D01*
X52168260Y-55579909D01*
X52485423Y-56054577D01*
X52837758Y-56290000D01*
X52485423Y-56525423D01*
X52168260Y-57000091D01*
X52056887Y-57560000D01*
X52168260Y-58119909D01*
X52485423Y-58594577D01*
X52837758Y-58830000D01*
X52485423Y-59065423D01*
X52168260Y-59540091D01*
X52056887Y-60100000D01*
X52168260Y-60659909D01*
X52485423Y-61134577D01*
X52837758Y-61370000D01*
X52485423Y-61605423D01*
X52168260Y-62080091D01*
X52056887Y-62640000D01*
X52168260Y-63199909D01*
X52485423Y-63674577D01*
X52960091Y-63991740D01*
X53378667Y-64075000D01*
X53661333Y-64075000D01*
X54079909Y-63991740D01*
X54554577Y-63674577D01*
X54871740Y-63199909D01*
X54983113Y-62640000D01*
X54871740Y-62080091D01*
X54554577Y-61605423D01*
X54202242Y-61370000D01*
X54554577Y-61134577D01*
X54871740Y-60659909D01*
X54983113Y-60100000D01*
X54871740Y-59540091D01*
X54554577Y-59065423D01*
X54202242Y-58830000D01*
X54554577Y-58594577D01*
X54871740Y-58119909D01*
X54983113Y-57560000D01*
X54871740Y-57000091D01*
X54554577Y-56525423D01*
X54202242Y-56290000D01*
X54554577Y-56054577D01*
X54574804Y-56024305D01*
X56615498Y-58065000D01*
X56454670Y-58065000D01*
X55890493Y-58298690D01*
X55458690Y-58730493D01*
X55225000Y-59294670D01*
X55225000Y-59905330D01*
X55458690Y-60469507D01*
X55890493Y-60901310D01*
X56454670Y-61135000D01*
X57065330Y-61135000D01*
X57314601Y-61031749D01*
X57314601Y-61559748D01*
X57299712Y-61634600D01*
X57314601Y-61709452D01*
X57358697Y-61931137D01*
X57526672Y-62182529D01*
X57590128Y-62224929D01*
X62830198Y-67465000D01*
X62772998Y-67465000D01*
X62772998Y-67623748D01*
X62614250Y-67465000D01*
X61873691Y-67465000D01*
X61640302Y-67561673D01*
X61461673Y-67740301D01*
X61365000Y-67973690D01*
X61365000Y-68714250D01*
X61523750Y-68873000D01*
X62773000Y-68873000D01*
X62773000Y-68853000D01*
X63027000Y-68853000D01*
X63027000Y-68873000D01*
X63047000Y-68873000D01*
X63047000Y-69127000D01*
X63027000Y-69127000D01*
X63027000Y-70376250D01*
X63185750Y-70535000D01*
X63926309Y-70535000D01*
X64159698Y-70438327D01*
X64338327Y-70259699D01*
X64394139Y-70124956D01*
X64570493Y-70301310D01*
X65134670Y-70535000D01*
X65745330Y-70535000D01*
X66309507Y-70301310D01*
X66741310Y-69869507D01*
X66938994Y-69392255D01*
X68671861Y-69392255D01*
X69500000Y-70220395D01*
X70328139Y-69392255D01*
X70254005Y-69146136D01*
X69716777Y-68953035D01*
X69146546Y-68980222D01*
X68745995Y-69146136D01*
X68671861Y-69392255D01*
X66938994Y-69392255D01*
X66975000Y-69305330D01*
X66975000Y-68694670D01*
X66741310Y-68130493D01*
X66309507Y-67698690D01*
X65745330Y-67465000D01*
X65134670Y-67465000D01*
X65025162Y-67510360D01*
X58834600Y-61319799D01*
X58834600Y-61147440D01*
X60200000Y-61147440D01*
X60447765Y-61098157D01*
X60657809Y-60957809D01*
X60705647Y-60886214D01*
X64333415Y-64513983D01*
X64379999Y-64583701D01*
X64656199Y-64768252D01*
X64899763Y-64816700D01*
X64982000Y-64833058D01*
X65064237Y-64816700D01*
X70065767Y-64816700D01*
X70148000Y-64833057D01*
X70230233Y-64816700D01*
X70230237Y-64816700D01*
X70473801Y-64768252D01*
X70750001Y-64583701D01*
X70796587Y-64513980D01*
X71507640Y-63802929D01*
X71515423Y-63814577D01*
X71990091Y-64131740D01*
X72408667Y-64215000D01*
X72691333Y-64215000D01*
X73109909Y-64131740D01*
X73584577Y-63814577D01*
X73901740Y-63339909D01*
X74013113Y-62780000D01*
X73901740Y-62220091D01*
X73584577Y-61745423D01*
X73286432Y-61546209D01*
X73328139Y-61407745D01*
X74671861Y-61407745D01*
X74745995Y-61653864D01*
X75283223Y-61846965D01*
X75853454Y-61819778D01*
X76254005Y-61653864D01*
X76328139Y-61407745D01*
X75500000Y-60579605D01*
X74671861Y-61407745D01*
X73328139Y-61407745D01*
X72500000Y-60579605D01*
X71671861Y-61407745D01*
X71730322Y-61601832D01*
X71515423Y-61745423D01*
X71387920Y-61936245D01*
X71349699Y-61928643D01*
X71267466Y-61945000D01*
X71267463Y-61945000D01*
X71023899Y-61993448D01*
X70872365Y-62094700D01*
X70800183Y-62142930D01*
X70534577Y-61745423D01*
X70278055Y-61574020D01*
X70328139Y-61407745D01*
X69500000Y-60579605D01*
X68671861Y-61407745D01*
X68721945Y-61574020D01*
X68465423Y-61745423D01*
X68148260Y-62220091D01*
X68036887Y-62780000D01*
X68109828Y-63146700D01*
X65327868Y-63146700D01*
X63316167Y-61135000D01*
X63565330Y-61135000D01*
X64129507Y-60901310D01*
X64305861Y-60724956D01*
X64361673Y-60859699D01*
X64540302Y-61038327D01*
X64773691Y-61135000D01*
X65514250Y-61135000D01*
X65673000Y-60976250D01*
X65673000Y-59727000D01*
X65927000Y-59727000D01*
X65927000Y-60976250D01*
X66085750Y-61135000D01*
X66826309Y-61135000D01*
X67059698Y-61038327D01*
X67238327Y-60859699D01*
X67335000Y-60626310D01*
X67335000Y-60183223D01*
X68053035Y-60183223D01*
X68080222Y-60753454D01*
X68246136Y-61154005D01*
X68492255Y-61228139D01*
X69320395Y-60400000D01*
X69679605Y-60400000D01*
X70507745Y-61228139D01*
X70753864Y-61154005D01*
X70946965Y-60616777D01*
X70926295Y-60183223D01*
X71053035Y-60183223D01*
X71080222Y-60753454D01*
X71246136Y-61154005D01*
X71492255Y-61228139D01*
X72320395Y-60400000D01*
X72679605Y-60400000D01*
X73507745Y-61228139D01*
X73753864Y-61154005D01*
X73946965Y-60616777D01*
X73926295Y-60183223D01*
X74053035Y-60183223D01*
X74080222Y-60753454D01*
X74246136Y-61154005D01*
X74492255Y-61228139D01*
X75320395Y-60400000D01*
X75679605Y-60400000D01*
X76507745Y-61228139D01*
X76753864Y-61154005D01*
X76946965Y-60616777D01*
X76919778Y-60046546D01*
X76753864Y-59645995D01*
X76507745Y-59571861D01*
X75679605Y-60400000D01*
X75320395Y-60400000D01*
X74492255Y-59571861D01*
X74246136Y-59645995D01*
X74053035Y-60183223D01*
X73926295Y-60183223D01*
X73919778Y-60046546D01*
X73753864Y-59645995D01*
X73507745Y-59571861D01*
X72679605Y-60400000D01*
X72320395Y-60400000D01*
X71492255Y-59571861D01*
X71246136Y-59645995D01*
X71053035Y-60183223D01*
X70926295Y-60183223D01*
X70919778Y-60046546D01*
X70753864Y-59645995D01*
X70507745Y-59571861D01*
X69679605Y-60400000D01*
X69320395Y-60400000D01*
X68492255Y-59571861D01*
X68246136Y-59645995D01*
X68053035Y-60183223D01*
X67335000Y-60183223D01*
X67335000Y-59885750D01*
X67176250Y-59727000D01*
X65927000Y-59727000D01*
X65673000Y-59727000D01*
X65653000Y-59727000D01*
X65653000Y-59473000D01*
X65673000Y-59473000D01*
X65673000Y-58223750D01*
X65927000Y-58223750D01*
X65927000Y-59473000D01*
X67176250Y-59473000D01*
X67256995Y-59392255D01*
X68671861Y-59392255D01*
X69500000Y-60220395D01*
X70328139Y-59392255D01*
X71671861Y-59392255D01*
X72500000Y-60220395D01*
X73328139Y-59392255D01*
X74671861Y-59392255D01*
X75500000Y-60220395D01*
X76328139Y-59392255D01*
X76254005Y-59146136D01*
X75716777Y-58953035D01*
X75146546Y-58980222D01*
X74745995Y-59146136D01*
X74671861Y-59392255D01*
X73328139Y-59392255D01*
X73254005Y-59146136D01*
X72716777Y-58953035D01*
X72146546Y-58980222D01*
X71745995Y-59146136D01*
X71671861Y-59392255D01*
X70328139Y-59392255D01*
X70254005Y-59146136D01*
X69716777Y-58953035D01*
X69146546Y-58980222D01*
X68745995Y-59146136D01*
X68671861Y-59392255D01*
X67256995Y-59392255D01*
X67335000Y-59314250D01*
X67335000Y-58573690D01*
X67238327Y-58340301D01*
X67059698Y-58161673D01*
X66826309Y-58065000D01*
X66085750Y-58065000D01*
X65927000Y-58223750D01*
X65673000Y-58223750D01*
X65514250Y-58065000D01*
X64773691Y-58065000D01*
X64540302Y-58161673D01*
X64361673Y-58340301D01*
X64305861Y-58475044D01*
X64129507Y-58298690D01*
X63565330Y-58065000D01*
X62954670Y-58065000D01*
X62390493Y-58298690D01*
X61958690Y-58730493D01*
X61725000Y-59294670D01*
X61725000Y-59543833D01*
X61248887Y-59067720D01*
X61202301Y-58997999D01*
X60926101Y-58813448D01*
X60847440Y-58797801D01*
X60847440Y-58700000D01*
X60798157Y-58452235D01*
X60657809Y-58242191D01*
X60447765Y-58101843D01*
X60200000Y-58052560D01*
X58723550Y-58052560D01*
X58622529Y-57901371D01*
X58559073Y-57858971D01*
X55235631Y-54535530D01*
X55193229Y-54472071D01*
X54941837Y-54304096D01*
X54740786Y-54264104D01*
X54554577Y-53985423D01*
X54202242Y-53750000D01*
X54554577Y-53514577D01*
X54740786Y-53235896D01*
X54941837Y-53195904D01*
X55193229Y-53027929D01*
X55235631Y-52964470D01*
X55635502Y-52564600D01*
X57450895Y-52564600D01*
X57295000Y-52940963D01*
X57295000Y-53659037D01*
X57569795Y-54322450D01*
X58077550Y-54830205D01*
X58740963Y-55105000D01*
X59459037Y-55105000D01*
X60122450Y-54830205D01*
X60630205Y-54322450D01*
X60905000Y-53659037D01*
X60905000Y-52940963D01*
X60749105Y-52564600D01*
X62450895Y-52564600D01*
X62295000Y-52940963D01*
X62295000Y-53659037D01*
X62569795Y-54322450D01*
X63077550Y-54830205D01*
X63740963Y-55105000D01*
X64459037Y-55105000D01*
X65122450Y-54830205D01*
X65630205Y-54322450D01*
X65905000Y-53659037D01*
X65905000Y-52940963D01*
X65749105Y-52564600D01*
X65818299Y-52564600D01*
X67643473Y-54389776D01*
X67685871Y-54453229D01*
X67749324Y-54495627D01*
X67749326Y-54495629D01*
X67866019Y-54573600D01*
X67937263Y-54621204D01*
X68158948Y-54665300D01*
X68158952Y-54665300D01*
X68233799Y-54680188D01*
X68308646Y-54665300D01*
X70174553Y-54665300D01*
X70249400Y-54680188D01*
X70324247Y-54665300D01*
X70324252Y-54665300D01*
X70545937Y-54621204D01*
X70797329Y-54453229D01*
X70839731Y-54389770D01*
X71445196Y-53784305D01*
X71465423Y-53814577D01*
X71940091Y-54131740D01*
X72358667Y-54215000D01*
X72641333Y-54215000D01*
X73059909Y-54131740D01*
X73534577Y-53814577D01*
X73720786Y-53535896D01*
X73921837Y-53495904D01*
X74150433Y-53343161D01*
X74465423Y-53814577D01*
X74940091Y-54131740D01*
X75358667Y-54215000D01*
X75641333Y-54215000D01*
X76059909Y-54131740D01*
X76534577Y-53814577D01*
X76851740Y-53339909D01*
X76963113Y-52780000D01*
X76851740Y-52220091D01*
X76534577Y-51745423D01*
X76492106Y-51717045D01*
X76635904Y-51501837D01*
X76653593Y-51412908D01*
X77162721Y-51072721D01*
X77513036Y-50548436D01*
X77636051Y-49930000D01*
X77513036Y-49311564D01*
X77162721Y-48787279D01*
X76972234Y-48660000D01*
X77162721Y-48532721D01*
X77513036Y-48008436D01*
X77636051Y-47390000D01*
X77513036Y-46771564D01*
X77162721Y-46247279D01*
X76972234Y-46120000D01*
X77162721Y-45992721D01*
X77513036Y-45468436D01*
X77636051Y-44850000D01*
X77513036Y-44231564D01*
X77162721Y-43707279D01*
X76638436Y-43356964D01*
X76176103Y-43265000D01*
X75663897Y-43265000D01*
X75201564Y-43356964D01*
X74677279Y-43707279D01*
X74326964Y-44231564D01*
X74203949Y-44850000D01*
X74326964Y-45468436D01*
X74677279Y-45992721D01*
X74867766Y-46120000D01*
X74677279Y-46247279D01*
X74471667Y-46555000D01*
X69748333Y-46555000D01*
X69629407Y-46377014D01*
X69807809Y-46257809D01*
X69948157Y-46047765D01*
X69997440Y-45800000D01*
X69997440Y-43900000D01*
X69948157Y-43652235D01*
X69807809Y-43442191D01*
X69597765Y-43301843D01*
X69350000Y-43252560D01*
X67250000Y-43252560D01*
X67002235Y-43301843D01*
X66792191Y-43442191D01*
X66651843Y-43652235D01*
X66602560Y-43900000D01*
X66602560Y-45800000D01*
X66651843Y-46047765D01*
X66792191Y-46257809D01*
X66970593Y-46377014D01*
X66851667Y-46555000D01*
X63485469Y-46555000D01*
X61565167Y-44634700D01*
X62154599Y-44634700D01*
X63004371Y-45484473D01*
X63046771Y-45547929D01*
X63298163Y-45715904D01*
X63499214Y-45755896D01*
X63685423Y-46034577D01*
X64160091Y-46351740D01*
X64578667Y-46435000D01*
X64861333Y-46435000D01*
X65279909Y-46351740D01*
X65754577Y-46034577D01*
X66071740Y-45559909D01*
X66183113Y-45000000D01*
X66071740Y-44440091D01*
X65754577Y-43965423D01*
X65279909Y-43648260D01*
X64861333Y-43565000D01*
X64578667Y-43565000D01*
X64160091Y-43648260D01*
X63685423Y-43965423D01*
X63665196Y-43995695D01*
X63119501Y-43450000D01*
X63665196Y-42904305D01*
X63685423Y-42934577D01*
X64160091Y-43251740D01*
X64578667Y-43335000D01*
X64861333Y-43335000D01*
X65279909Y-43251740D01*
X65754577Y-42934577D01*
X66071740Y-42459909D01*
X66183113Y-41900000D01*
X66071740Y-41340091D01*
X65754577Y-40865423D01*
X65279909Y-40548260D01*
X64861333Y-40465000D01*
X64578667Y-40465000D01*
X64160091Y-40548260D01*
X63685423Y-40865423D01*
X63499214Y-41144104D01*
X63298163Y-41184096D01*
X63046771Y-41352071D01*
X63004371Y-41415527D01*
X62154599Y-42265300D01*
X58501920Y-42265300D01*
X58535000Y-42185439D01*
X58535000Y-41614561D01*
X58316534Y-41087138D01*
X57912862Y-40683466D01*
X57385439Y-40465000D01*
X56814561Y-40465000D01*
X56287138Y-40683466D01*
X55883466Y-41087138D01*
X55665000Y-41614561D01*
X55665000Y-41684654D01*
X55643229Y-41652071D01*
X55391837Y-41484096D01*
X55202474Y-41446429D01*
X54990625Y-41129375D01*
X54499418Y-40801161D01*
X54066256Y-40715000D01*
X53773744Y-40715000D01*
X53340582Y-40801161D01*
X52849375Y-41129375D01*
X52650000Y-41427761D01*
X52450625Y-41129375D01*
X51959418Y-40801161D01*
X51526256Y-40715000D01*
X51233744Y-40715000D01*
X50800582Y-40801161D01*
X50309375Y-41129375D01*
X50096157Y-41448478D01*
X50035183Y-41318642D01*
X49606924Y-40928355D01*
X49196890Y-40758524D01*
X48967000Y-40879845D01*
X48967000Y-42073000D01*
X48987000Y-42073000D01*
X48987000Y-42327000D01*
X48967000Y-42327000D01*
X48967000Y-42347000D01*
X48713000Y-42347000D01*
X48713000Y-42327000D01*
X48693000Y-42327000D01*
X48693000Y-42073000D01*
X48713000Y-42073000D01*
X48713000Y-40879845D01*
X48483110Y-40758524D01*
X48073076Y-40928355D01*
X47768739Y-41205708D01*
X47748157Y-41102235D01*
X47607809Y-40892191D01*
X47397765Y-40751843D01*
X47150000Y-40702560D01*
X45450000Y-40702560D01*
X45202235Y-40751843D01*
X44992191Y-40892191D01*
X44851843Y-41102235D01*
X44802560Y-41350000D01*
X44802560Y-43050000D01*
X44851843Y-43297765D01*
X44992191Y-43507809D01*
X45202235Y-43648157D01*
X45450000Y-43697440D01*
X47150000Y-43697440D01*
X47239118Y-43679714D01*
X45367718Y-45551115D01*
X45298000Y-45597699D01*
X45251416Y-45667417D01*
X45113448Y-45873900D01*
X45097711Y-45953015D01*
X44852235Y-46001843D01*
X44642191Y-46142191D01*
X44501843Y-46352235D01*
X44452560Y-46600000D01*
X44452560Y-48200000D01*
X44501843Y-48447765D01*
X44642191Y-48657809D01*
X44852235Y-48798157D01*
X44986106Y-48824785D01*
X44865423Y-48905423D01*
X44679214Y-49184104D01*
X44478163Y-49224096D01*
X44415000Y-49266300D01*
X44415000Y-45357848D01*
X44429888Y-45283000D01*
X44415000Y-45208152D01*
X44415000Y-45208148D01*
X44370904Y-44986463D01*
X44370904Y-44986462D01*
X44245329Y-44798527D01*
X44202929Y-44735071D01*
X44139473Y-44692671D01*
X43627491Y-44180689D01*
X43848839Y-43849418D01*
X43964092Y-43270000D01*
X43848839Y-42690582D01*
X43520625Y-42199375D01*
X43029418Y-41871161D01*
X42596256Y-41785000D01*
X42303744Y-41785000D01*
X41870582Y-41871161D01*
X41379375Y-42199375D01*
X41051161Y-42690582D01*
X40935908Y-43270000D01*
X41051161Y-43849418D01*
X41379375Y-44340625D01*
X41677761Y-44540000D01*
X41379375Y-44739375D01*
X41051161Y-45230582D01*
X40935908Y-45810000D01*
X41051161Y-46389418D01*
X41379375Y-46880625D01*
X41397619Y-46892816D01*
X41352235Y-46901843D01*
X41142191Y-47042191D01*
X41001843Y-47252235D01*
X40952560Y-47500000D01*
X40952560Y-49200000D01*
X41001843Y-49447765D01*
X41142191Y-49657809D01*
X41202298Y-49697971D01*
X41177471Y-49735127D01*
X39889530Y-51023069D01*
X39826071Y-51065471D01*
X39658096Y-51316864D01*
X39614000Y-51538549D01*
X39614000Y-51538553D01*
X39599112Y-51613400D01*
X37110000Y-51613400D01*
X37110000Y-37955431D01*
X37165000Y-37955431D01*
X37165000Y-38844569D01*
X37505259Y-39666026D01*
X38133974Y-40294741D01*
X38955431Y-40635000D01*
X39844569Y-40635000D01*
X40666026Y-40294741D01*
X41294741Y-39666026D01*
X41635000Y-38844569D01*
X41635000Y-37955431D01*
X41425644Y-37450000D01*
X58102560Y-37450000D01*
X58102560Y-39150000D01*
X58151843Y-39397765D01*
X58292191Y-39607809D01*
X58502235Y-39748157D01*
X58750000Y-39797440D01*
X60450000Y-39797440D01*
X60697765Y-39748157D01*
X60907809Y-39607809D01*
X61048157Y-39397765D01*
X61068739Y-39294292D01*
X61373076Y-39571645D01*
X61783110Y-39741476D01*
X62013000Y-39620155D01*
X62013000Y-38427000D01*
X62267000Y-38427000D01*
X62267000Y-39620155D01*
X62496890Y-39741476D01*
X62906924Y-39571645D01*
X63314727Y-39200000D01*
X66702560Y-39200000D01*
X66702560Y-40900000D01*
X66751843Y-41147765D01*
X66892191Y-41357809D01*
X67102235Y-41498157D01*
X67350000Y-41547440D01*
X69050000Y-41547440D01*
X69297765Y-41498157D01*
X69507809Y-41357809D01*
X69648157Y-41147765D01*
X69697440Y-40900000D01*
X69697440Y-39200000D01*
X69648157Y-38952235D01*
X69507809Y-38742191D01*
X69297765Y-38601843D01*
X69050000Y-38552560D01*
X67350000Y-38552560D01*
X67102235Y-38601843D01*
X66892191Y-38742191D01*
X66751843Y-38952235D01*
X66702560Y-39200000D01*
X63314727Y-39200000D01*
X63335183Y-39181358D01*
X63581486Y-38656892D01*
X63460819Y-38427000D01*
X62267000Y-38427000D01*
X62013000Y-38427000D01*
X61993000Y-38427000D01*
X61993000Y-38173000D01*
X62013000Y-38173000D01*
X62013000Y-36979845D01*
X62267000Y-36979845D01*
X62267000Y-38173000D01*
X63460819Y-38173000D01*
X63575017Y-37955431D01*
X73165000Y-37955431D01*
X73165000Y-38844569D01*
X73505259Y-39666026D01*
X74133974Y-40294741D01*
X74955431Y-40635000D01*
X75844569Y-40635000D01*
X76666026Y-40294741D01*
X77294741Y-39666026D01*
X77635000Y-38844569D01*
X77635000Y-37955431D01*
X77294741Y-37133974D01*
X76666026Y-36505259D01*
X75844569Y-36165000D01*
X74955431Y-36165000D01*
X74133974Y-36505259D01*
X73505259Y-37133974D01*
X73165000Y-37955431D01*
X63575017Y-37955431D01*
X63581486Y-37943108D01*
X63335183Y-37418642D01*
X62906924Y-37028355D01*
X62496890Y-36858524D01*
X62267000Y-36979845D01*
X62013000Y-36979845D01*
X61783110Y-36858524D01*
X61373076Y-37028355D01*
X61068739Y-37305708D01*
X61048157Y-37202235D01*
X60907809Y-36992191D01*
X60697765Y-36851843D01*
X60450000Y-36802560D01*
X58750000Y-36802560D01*
X58502235Y-36851843D01*
X58292191Y-36992191D01*
X58151843Y-37202235D01*
X58102560Y-37450000D01*
X41425644Y-37450000D01*
X41294741Y-37133974D01*
X40666026Y-36505259D01*
X39844569Y-36165000D01*
X38955431Y-36165000D01*
X38133974Y-36505259D01*
X37505259Y-37133974D01*
X37165000Y-37955431D01*
X37110000Y-37955431D01*
X37110000Y-36110000D01*
X77690000Y-36110000D01*
X77690001Y-76690000D01*
X77690001Y-76690000D01*
G37*
X77690001Y-76690000D02*
X37110000Y-76690000D01*
X37110000Y-73955431D01*
X37165000Y-73955431D01*
X37165000Y-74844569D01*
X37505259Y-75666026D01*
X38133974Y-76294741D01*
X38955431Y-76635000D01*
X39844569Y-76635000D01*
X40666026Y-76294741D01*
X41294741Y-75666026D01*
X41635000Y-74844569D01*
X41635000Y-73955431D01*
X73165000Y-73955431D01*
X73165000Y-74844569D01*
X73505259Y-75666026D01*
X74133974Y-76294741D01*
X74955431Y-76635000D01*
X75844569Y-76635000D01*
X76666026Y-76294741D01*
X77294741Y-75666026D01*
X77635000Y-74844569D01*
X77635000Y-73955431D01*
X77294741Y-73133974D01*
X76666026Y-72505259D01*
X75844569Y-72165000D01*
X74955431Y-72165000D01*
X74133974Y-72505259D01*
X73505259Y-73133974D01*
X73165000Y-73955431D01*
X41635000Y-73955431D01*
X41294741Y-73133974D01*
X40666026Y-72505259D01*
X39844569Y-72165000D01*
X38955431Y-72165000D01*
X38133974Y-72505259D01*
X37505259Y-73133974D01*
X37165000Y-73955431D01*
X37110000Y-73955431D01*
X37110000Y-69285750D01*
X41865000Y-69285750D01*
X41865000Y-70026310D01*
X41961673Y-70259699D01*
X42140302Y-70438327D01*
X42373691Y-70535000D01*
X43114250Y-70535000D01*
X43273000Y-70376250D01*
X43273000Y-69127000D01*
X42023750Y-69127000D01*
X41865000Y-69285750D01*
X37110000Y-69285750D01*
X37110000Y-51613400D01*
X39599112Y-51613400D01*
X39614000Y-51688247D01*
X39614001Y-63597748D01*
X39599112Y-63672600D01*
X39614001Y-63747452D01*
X39658097Y-63969137D01*
X39826072Y-64220529D01*
X39889528Y-64262929D01*
X43091598Y-67465000D01*
X42373691Y-67465000D01*
X42140302Y-67561673D01*
X41961673Y-67740301D01*
X41865000Y-67973690D01*
X41865000Y-68714250D01*
X42023750Y-68873000D01*
X43273000Y-68873000D01*
X43273000Y-68853000D01*
X43527000Y-68853000D01*
X43527000Y-68873000D01*
X43547000Y-68873000D01*
X43547000Y-69127000D01*
X43527000Y-69127000D01*
X43527000Y-70376250D01*
X43685750Y-70535000D01*
X44426309Y-70535000D01*
X44585401Y-70469102D01*
X46173171Y-72056873D01*
X46215571Y-72120329D01*
X46466963Y-72288304D01*
X46688648Y-72332400D01*
X46688652Y-72332400D01*
X46763499Y-72347288D01*
X46838346Y-72332400D01*
X71302753Y-72332400D01*
X71377600Y-72347288D01*
X71452447Y-72332400D01*
X71452452Y-72332400D01*
X71674137Y-72288304D01*
X71925529Y-72120329D01*
X71967931Y-72056870D01*
X72211698Y-71813103D01*
X72264561Y-71835000D01*
X72835439Y-71835000D01*
X73362862Y-71616534D01*
X73766534Y-71212862D01*
X73985000Y-70685439D01*
X73985000Y-70114561D01*
X73766534Y-69587138D01*
X73362862Y-69183466D01*
X72835439Y-68965000D01*
X72264561Y-68965000D01*
X71737138Y-69183466D01*
X71333466Y-69587138D01*
X71115000Y-70114561D01*
X71115000Y-70685439D01*
X71136897Y-70738302D01*
X71062799Y-70812400D01*
X70876650Y-70812400D01*
X70946965Y-70616777D01*
X70919778Y-70046546D01*
X70753864Y-69645995D01*
X70507745Y-69571861D01*
X69679605Y-70400000D01*
X69693748Y-70414143D01*
X69514143Y-70593748D01*
X69500000Y-70579605D01*
X69485858Y-70593748D01*
X69306253Y-70414143D01*
X69320395Y-70400000D01*
X68492255Y-69571861D01*
X68246136Y-69645995D01*
X68053035Y-70183223D01*
X68080222Y-70753454D01*
X68104638Y-70812400D01*
X47078302Y-70812400D01*
X46638178Y-70372277D01*
X46809507Y-70301310D01*
X47241310Y-69869507D01*
X47475000Y-69305330D01*
X47475000Y-69285750D01*
X48365000Y-69285750D01*
X48365000Y-70026310D01*
X48461673Y-70259699D01*
X48640302Y-70438327D01*
X48873691Y-70535000D01*
X49614250Y-70535000D01*
X49773000Y-70376250D01*
X49773000Y-69127000D01*
X48523750Y-69127000D01*
X48365000Y-69285750D01*
X47475000Y-69285750D01*
X47475000Y-68694670D01*
X47241310Y-68130493D01*
X47084507Y-67973690D01*
X48365000Y-67973690D01*
X48365000Y-68714250D01*
X48523750Y-68873000D01*
X49773000Y-68873000D01*
X49773000Y-67623750D01*
X50027000Y-67623750D01*
X50027000Y-68873000D01*
X50047000Y-68873000D01*
X50047000Y-69127000D01*
X50027000Y-69127000D01*
X50027000Y-70376250D01*
X50185750Y-70535000D01*
X50926309Y-70535000D01*
X51159698Y-70438327D01*
X51338327Y-70259699D01*
X51394139Y-70124956D01*
X51570493Y-70301310D01*
X52134670Y-70535000D01*
X52745330Y-70535000D01*
X53309507Y-70301310D01*
X53741310Y-69869507D01*
X53975000Y-69305330D01*
X53975000Y-69285750D01*
X54865000Y-69285750D01*
X54865000Y-70026310D01*
X54961673Y-70259699D01*
X55140302Y-70438327D01*
X55373691Y-70535000D01*
X56114250Y-70535000D01*
X56273000Y-70376250D01*
X56273000Y-69127000D01*
X55023750Y-69127000D01*
X54865000Y-69285750D01*
X53975000Y-69285750D01*
X53975000Y-68694670D01*
X53741310Y-68130493D01*
X53309507Y-67698690D01*
X52745330Y-67465000D01*
X52134670Y-67465000D01*
X51570493Y-67698690D01*
X51394139Y-67875044D01*
X51338327Y-67740301D01*
X51159698Y-67561673D01*
X50926309Y-67465000D01*
X50185750Y-67465000D01*
X50027000Y-67623750D01*
X49773000Y-67623750D01*
X49614250Y-67465000D01*
X48873691Y-67465000D01*
X48640302Y-67561673D01*
X48461673Y-67740301D01*
X48365000Y-67973690D01*
X47084507Y-67973690D01*
X46809507Y-67698690D01*
X46245330Y-67465000D01*
X46122503Y-67465000D01*
X45371303Y-66713800D01*
X55578999Y-66713800D01*
X56330198Y-67465000D01*
X56272998Y-67465000D01*
X56272998Y-67623748D01*
X56114250Y-67465000D01*
X55373691Y-67465000D01*
X55140302Y-67561673D01*
X54961673Y-67740301D01*
X54865000Y-67973690D01*
X54865000Y-68714250D01*
X55023750Y-68873000D01*
X56273000Y-68873000D01*
X56273000Y-68853000D01*
X56527000Y-68853000D01*
X56527000Y-68873000D01*
X56547000Y-68873000D01*
X56547000Y-69127000D01*
X56527000Y-69127000D01*
X56527000Y-70376250D01*
X56685750Y-70535000D01*
X57426309Y-70535000D01*
X57659698Y-70438327D01*
X57838327Y-70259699D01*
X57894139Y-70124956D01*
X58070493Y-70301310D01*
X58634670Y-70535000D01*
X59245330Y-70535000D01*
X59809507Y-70301310D01*
X60241310Y-69869507D01*
X60475000Y-69305330D01*
X60475000Y-69285750D01*
X61365000Y-69285750D01*
X61365000Y-70026310D01*
X61461673Y-70259699D01*
X61640302Y-70438327D01*
X61873691Y-70535000D01*
X62614250Y-70535000D01*
X62773000Y-70376250D01*
X62773000Y-69127000D01*
X61523750Y-69127000D01*
X61365000Y-69285750D01*
X60475000Y-69285750D01*
X60475000Y-68694670D01*
X60241310Y-68130493D01*
X59809507Y-67698690D01*
X59245330Y-67465000D01*
X58634670Y-67465000D01*
X58525162Y-67510360D01*
X56484131Y-65469330D01*
X56441729Y-65405871D01*
X56190337Y-65237896D01*
X55968652Y-65193800D01*
X55968647Y-65193800D01*
X55893800Y-65178912D01*
X55818953Y-65193800D01*
X44488202Y-65193800D01*
X43133617Y-63839215D01*
X43520625Y-63580625D01*
X43848839Y-63089418D01*
X43964092Y-62510000D01*
X43848839Y-61930582D01*
X43726385Y-61747316D01*
X44654617Y-60819084D01*
X44865423Y-61134577D01*
X45217758Y-61370000D01*
X44865423Y-61605423D01*
X44548260Y-62080091D01*
X44436887Y-62640000D01*
X44548260Y-63199909D01*
X44865423Y-63674577D01*
X45340091Y-63991740D01*
X45758667Y-64075000D01*
X46041333Y-64075000D01*
X46459909Y-63991740D01*
X46934577Y-63674577D01*
X47251740Y-63199909D01*
X47363113Y-62640000D01*
X47251740Y-62080091D01*
X46934577Y-61605423D01*
X46582242Y-61370000D01*
X46934577Y-61134577D01*
X47251740Y-60659909D01*
X47363113Y-60100000D01*
X47251740Y-59540091D01*
X47027023Y-59203778D01*
X52623779Y-53607023D01*
X52837758Y-53750000D01*
X52485423Y-53985423D01*
X52168260Y-54460091D01*
X52056887Y-55020000D01*
X52168260Y-55579909D01*
X52485423Y-56054577D01*
X52837758Y-56290000D01*
X52485423Y-56525423D01*
X52168260Y-57000091D01*
X52056887Y-57560000D01*
X52168260Y-58119909D01*
X52485423Y-58594577D01*
X52837758Y-58830000D01*
X52485423Y-59065423D01*
X52168260Y-59540091D01*
X52056887Y-60100000D01*
X52168260Y-60659909D01*
X52485423Y-61134577D01*
X52837758Y-61370000D01*
X52485423Y-61605423D01*
X52168260Y-62080091D01*
X52056887Y-62640000D01*
X52168260Y-63199909D01*
X52485423Y-63674577D01*
X52960091Y-63991740D01*
X53378667Y-64075000D01*
X53661333Y-64075000D01*
X54079909Y-63991740D01*
X54554577Y-63674577D01*
X54871740Y-63199909D01*
X54983113Y-62640000D01*
X54871740Y-62080091D01*
X54554577Y-61605423D01*
X54202242Y-61370000D01*
X54554577Y-61134577D01*
X54871740Y-60659909D01*
X54983113Y-60100000D01*
X54871740Y-59540091D01*
X54554577Y-59065423D01*
X54202242Y-58830000D01*
X54554577Y-58594577D01*
X54871740Y-58119909D01*
X54983113Y-57560000D01*
X54871740Y-57000091D01*
X54554577Y-56525423D01*
X54202242Y-56290000D01*
X54554577Y-56054577D01*
X54574804Y-56024305D01*
X56615498Y-58065000D01*
X56454670Y-58065000D01*
X55890493Y-58298690D01*
X55458690Y-58730493D01*
X55225000Y-59294670D01*
X55225000Y-59905330D01*
X55458690Y-60469507D01*
X55890493Y-60901310D01*
X56454670Y-61135000D01*
X57065330Y-61135000D01*
X57314601Y-61031749D01*
X57314601Y-61559748D01*
X57299712Y-61634600D01*
X57314601Y-61709452D01*
X57358697Y-61931137D01*
X57526672Y-62182529D01*
X57590128Y-62224929D01*
X62830198Y-67465000D01*
X62772998Y-67465000D01*
X62772998Y-67623748D01*
X62614250Y-67465000D01*
X61873691Y-67465000D01*
X61640302Y-67561673D01*
X61461673Y-67740301D01*
X61365000Y-67973690D01*
X61365000Y-68714250D01*
X61523750Y-68873000D01*
X62773000Y-68873000D01*
X62773000Y-68853000D01*
X63027000Y-68853000D01*
X63027000Y-68873000D01*
X63047000Y-68873000D01*
X63047000Y-69127000D01*
X63027000Y-69127000D01*
X63027000Y-70376250D01*
X63185750Y-70535000D01*
X63926309Y-70535000D01*
X64159698Y-70438327D01*
X64338327Y-70259699D01*
X64394139Y-70124956D01*
X64570493Y-70301310D01*
X65134670Y-70535000D01*
X65745330Y-70535000D01*
X66309507Y-70301310D01*
X66741310Y-69869507D01*
X66938994Y-69392255D01*
X68671861Y-69392255D01*
X69500000Y-70220395D01*
X70328139Y-69392255D01*
X70254005Y-69146136D01*
X69716777Y-68953035D01*
X69146546Y-68980222D01*
X68745995Y-69146136D01*
X68671861Y-69392255D01*
X66938994Y-69392255D01*
X66975000Y-69305330D01*
X66975000Y-68694670D01*
X66741310Y-68130493D01*
X66309507Y-67698690D01*
X65745330Y-67465000D01*
X65134670Y-67465000D01*
X65025162Y-67510360D01*
X58834600Y-61319799D01*
X58834600Y-61147440D01*
X60200000Y-61147440D01*
X60447765Y-61098157D01*
X60657809Y-60957809D01*
X60705647Y-60886214D01*
X64333415Y-64513983D01*
X64379999Y-64583701D01*
X64656199Y-64768252D01*
X64899763Y-64816700D01*
X64982000Y-64833058D01*
X65064237Y-64816700D01*
X70065767Y-64816700D01*
X70148000Y-64833057D01*
X70230233Y-64816700D01*
X70230237Y-64816700D01*
X70473801Y-64768252D01*
X70750001Y-64583701D01*
X70796587Y-64513980D01*
X71507640Y-63802929D01*
X71515423Y-63814577D01*
X71990091Y-64131740D01*
X72408667Y-64215000D01*
X72691333Y-64215000D01*
X73109909Y-64131740D01*
X73584577Y-63814577D01*
X73901740Y-63339909D01*
X74013113Y-62780000D01*
X73901740Y-62220091D01*
X73584577Y-61745423D01*
X73286432Y-61546209D01*
X73328139Y-61407745D01*
X74671861Y-61407745D01*
X74745995Y-61653864D01*
X75283223Y-61846965D01*
X75853454Y-61819778D01*
X76254005Y-61653864D01*
X76328139Y-61407745D01*
X75500000Y-60579605D01*
X74671861Y-61407745D01*
X73328139Y-61407745D01*
X72500000Y-60579605D01*
X71671861Y-61407745D01*
X71730322Y-61601832D01*
X71515423Y-61745423D01*
X71387920Y-61936245D01*
X71349699Y-61928643D01*
X71267466Y-61945000D01*
X71267463Y-61945000D01*
X71023899Y-61993448D01*
X70872365Y-62094700D01*
X70800183Y-62142930D01*
X70534577Y-61745423D01*
X70278055Y-61574020D01*
X70328139Y-61407745D01*
X69500000Y-60579605D01*
X68671861Y-61407745D01*
X68721945Y-61574020D01*
X68465423Y-61745423D01*
X68148260Y-62220091D01*
X68036887Y-62780000D01*
X68109828Y-63146700D01*
X65327868Y-63146700D01*
X63316167Y-61135000D01*
X63565330Y-61135000D01*
X64129507Y-60901310D01*
X64305861Y-60724956D01*
X64361673Y-60859699D01*
X64540302Y-61038327D01*
X64773691Y-61135000D01*
X65514250Y-61135000D01*
X65673000Y-60976250D01*
X65673000Y-59727000D01*
X65927000Y-59727000D01*
X65927000Y-60976250D01*
X66085750Y-61135000D01*
X66826309Y-61135000D01*
X67059698Y-61038327D01*
X67238327Y-60859699D01*
X67335000Y-60626310D01*
X67335000Y-60183223D01*
X68053035Y-60183223D01*
X68080222Y-60753454D01*
X68246136Y-61154005D01*
X68492255Y-61228139D01*
X69320395Y-60400000D01*
X69679605Y-60400000D01*
X70507745Y-61228139D01*
X70753864Y-61154005D01*
X70946965Y-60616777D01*
X70926295Y-60183223D01*
X71053035Y-60183223D01*
X71080222Y-60753454D01*
X71246136Y-61154005D01*
X71492255Y-61228139D01*
X72320395Y-60400000D01*
X72679605Y-60400000D01*
X73507745Y-61228139D01*
X73753864Y-61154005D01*
X73946965Y-60616777D01*
X73926295Y-60183223D01*
X74053035Y-60183223D01*
X74080222Y-60753454D01*
X74246136Y-61154005D01*
X74492255Y-61228139D01*
X75320395Y-60400000D01*
X75679605Y-60400000D01*
X76507745Y-61228139D01*
X76753864Y-61154005D01*
X76946965Y-60616777D01*
X76919778Y-60046546D01*
X76753864Y-59645995D01*
X76507745Y-59571861D01*
X75679605Y-60400000D01*
X75320395Y-60400000D01*
X74492255Y-59571861D01*
X74246136Y-59645995D01*
X74053035Y-60183223D01*
X73926295Y-60183223D01*
X73919778Y-60046546D01*
X73753864Y-59645995D01*
X73507745Y-59571861D01*
X72679605Y-60400000D01*
X72320395Y-60400000D01*
X71492255Y-59571861D01*
X71246136Y-59645995D01*
X71053035Y-60183223D01*
X70926295Y-60183223D01*
X70919778Y-60046546D01*
X70753864Y-59645995D01*
X70507745Y-59571861D01*
X69679605Y-60400000D01*
X69320395Y-60400000D01*
X68492255Y-59571861D01*
X68246136Y-59645995D01*
X68053035Y-60183223D01*
X67335000Y-60183223D01*
X67335000Y-59885750D01*
X67176250Y-59727000D01*
X65927000Y-59727000D01*
X65673000Y-59727000D01*
X65653000Y-59727000D01*
X65653000Y-59473000D01*
X65673000Y-59473000D01*
X65673000Y-58223750D01*
X65927000Y-58223750D01*
X65927000Y-59473000D01*
X67176250Y-59473000D01*
X67256995Y-59392255D01*
X68671861Y-59392255D01*
X69500000Y-60220395D01*
X70328139Y-59392255D01*
X71671861Y-59392255D01*
X72500000Y-60220395D01*
X73328139Y-59392255D01*
X74671861Y-59392255D01*
X75500000Y-60220395D01*
X76328139Y-59392255D01*
X76254005Y-59146136D01*
X75716777Y-58953035D01*
X75146546Y-58980222D01*
X74745995Y-59146136D01*
X74671861Y-59392255D01*
X73328139Y-59392255D01*
X73254005Y-59146136D01*
X72716777Y-58953035D01*
X72146546Y-58980222D01*
X71745995Y-59146136D01*
X71671861Y-59392255D01*
X70328139Y-59392255D01*
X70254005Y-59146136D01*
X69716777Y-58953035D01*
X69146546Y-58980222D01*
X68745995Y-59146136D01*
X68671861Y-59392255D01*
X67256995Y-59392255D01*
X67335000Y-59314250D01*
X67335000Y-58573690D01*
X67238327Y-58340301D01*
X67059698Y-58161673D01*
X66826309Y-58065000D01*
X66085750Y-58065000D01*
X65927000Y-58223750D01*
X65673000Y-58223750D01*
X65514250Y-58065000D01*
X64773691Y-58065000D01*
X64540302Y-58161673D01*
X64361673Y-58340301D01*
X64305861Y-58475044D01*
X64129507Y-58298690D01*
X63565330Y-58065000D01*
X62954670Y-58065000D01*
X62390493Y-58298690D01*
X61958690Y-58730493D01*
X61725000Y-59294670D01*
X61725000Y-59543833D01*
X61248887Y-59067720D01*
X61202301Y-58997999D01*
X60926101Y-58813448D01*
X60847440Y-58797801D01*
X60847440Y-58700000D01*
X60798157Y-58452235D01*
X60657809Y-58242191D01*
X60447765Y-58101843D01*
X60200000Y-58052560D01*
X58723550Y-58052560D01*
X58622529Y-57901371D01*
X58559073Y-57858971D01*
X55235631Y-54535530D01*
X55193229Y-54472071D01*
X54941837Y-54304096D01*
X54740786Y-54264104D01*
X54554577Y-53985423D01*
X54202242Y-53750000D01*
X54554577Y-53514577D01*
X54740786Y-53235896D01*
X54941837Y-53195904D01*
X55193229Y-53027929D01*
X55235631Y-52964470D01*
X55635502Y-52564600D01*
X57450895Y-52564600D01*
X57295000Y-52940963D01*
X57295000Y-53659037D01*
X57569795Y-54322450D01*
X58077550Y-54830205D01*
X58740963Y-55105000D01*
X59459037Y-55105000D01*
X60122450Y-54830205D01*
X60630205Y-54322450D01*
X60905000Y-53659037D01*
X60905000Y-52940963D01*
X60749105Y-52564600D01*
X62450895Y-52564600D01*
X62295000Y-52940963D01*
X62295000Y-53659037D01*
X62569795Y-54322450D01*
X63077550Y-54830205D01*
X63740963Y-55105000D01*
X64459037Y-55105000D01*
X65122450Y-54830205D01*
X65630205Y-54322450D01*
X65905000Y-53659037D01*
X65905000Y-52940963D01*
X65749105Y-52564600D01*
X65818299Y-52564600D01*
X67643473Y-54389776D01*
X67685871Y-54453229D01*
X67749324Y-54495627D01*
X67749326Y-54495629D01*
X67866019Y-54573600D01*
X67937263Y-54621204D01*
X68158948Y-54665300D01*
X68158952Y-54665300D01*
X68233799Y-54680188D01*
X68308646Y-54665300D01*
X70174553Y-54665300D01*
X70249400Y-54680188D01*
X70324247Y-54665300D01*
X70324252Y-54665300D01*
X70545937Y-54621204D01*
X70797329Y-54453229D01*
X70839731Y-54389770D01*
X71445196Y-53784305D01*
X71465423Y-53814577D01*
X71940091Y-54131740D01*
X72358667Y-54215000D01*
X72641333Y-54215000D01*
X73059909Y-54131740D01*
X73534577Y-53814577D01*
X73720786Y-53535896D01*
X73921837Y-53495904D01*
X74150433Y-53343161D01*
X74465423Y-53814577D01*
X74940091Y-54131740D01*
X75358667Y-54215000D01*
X75641333Y-54215000D01*
X76059909Y-54131740D01*
X76534577Y-53814577D01*
X76851740Y-53339909D01*
X76963113Y-52780000D01*
X76851740Y-52220091D01*
X76534577Y-51745423D01*
X76492106Y-51717045D01*
X76635904Y-51501837D01*
X76653593Y-51412908D01*
X77162721Y-51072721D01*
X77513036Y-50548436D01*
X77636051Y-49930000D01*
X77513036Y-49311564D01*
X77162721Y-48787279D01*
X76972234Y-48660000D01*
X77162721Y-48532721D01*
X77513036Y-48008436D01*
X77636051Y-47390000D01*
X77513036Y-46771564D01*
X77162721Y-46247279D01*
X76972234Y-46120000D01*
X77162721Y-45992721D01*
X77513036Y-45468436D01*
X77636051Y-44850000D01*
X77513036Y-44231564D01*
X77162721Y-43707279D01*
X76638436Y-43356964D01*
X76176103Y-43265000D01*
X75663897Y-43265000D01*
X75201564Y-43356964D01*
X74677279Y-43707279D01*
X74326964Y-44231564D01*
X74203949Y-44850000D01*
X74326964Y-45468436D01*
X74677279Y-45992721D01*
X74867766Y-46120000D01*
X74677279Y-46247279D01*
X74471667Y-46555000D01*
X69748333Y-46555000D01*
X69629407Y-46377014D01*
X69807809Y-46257809D01*
X69948157Y-46047765D01*
X69997440Y-45800000D01*
X69997440Y-43900000D01*
X69948157Y-43652235D01*
X69807809Y-43442191D01*
X69597765Y-43301843D01*
X69350000Y-43252560D01*
X67250000Y-43252560D01*
X67002235Y-43301843D01*
X66792191Y-43442191D01*
X66651843Y-43652235D01*
X66602560Y-43900000D01*
X66602560Y-45800000D01*
X66651843Y-46047765D01*
X66792191Y-46257809D01*
X66970593Y-46377014D01*
X66851667Y-46555000D01*
X63485469Y-46555000D01*
X61565167Y-44634700D01*
X62154599Y-44634700D01*
X63004371Y-45484473D01*
X63046771Y-45547929D01*
X63298163Y-45715904D01*
X63499214Y-45755896D01*
X63685423Y-46034577D01*
X64160091Y-46351740D01*
X64578667Y-46435000D01*
X64861333Y-46435000D01*
X65279909Y-46351740D01*
X65754577Y-46034577D01*
X66071740Y-45559909D01*
X66183113Y-45000000D01*
X66071740Y-44440091D01*
X65754577Y-43965423D01*
X65279909Y-43648260D01*
X64861333Y-43565000D01*
X64578667Y-43565000D01*
X64160091Y-43648260D01*
X63685423Y-43965423D01*
X63665196Y-43995695D01*
X63119501Y-43450000D01*
X63665196Y-42904305D01*
X63685423Y-42934577D01*
X64160091Y-43251740D01*
X64578667Y-43335000D01*
X64861333Y-43335000D01*
X65279909Y-43251740D01*
X65754577Y-42934577D01*
X66071740Y-42459909D01*
X66183113Y-41900000D01*
X66071740Y-41340091D01*
X65754577Y-40865423D01*
X65279909Y-40548260D01*
X64861333Y-40465000D01*
X64578667Y-40465000D01*
X64160091Y-40548260D01*
X63685423Y-40865423D01*
X63499214Y-41144104D01*
X63298163Y-41184096D01*
X63046771Y-41352071D01*
X63004371Y-41415527D01*
X62154599Y-42265300D01*
X58501920Y-42265300D01*
X58535000Y-42185439D01*
X58535000Y-41614561D01*
X58316534Y-41087138D01*
X57912862Y-40683466D01*
X57385439Y-40465000D01*
X56814561Y-40465000D01*
X56287138Y-40683466D01*
X55883466Y-41087138D01*
X55665000Y-41614561D01*
X55665000Y-41684654D01*
X55643229Y-41652071D01*
X55391837Y-41484096D01*
X55202474Y-41446429D01*
X54990625Y-41129375D01*
X54499418Y-40801161D01*
X54066256Y-40715000D01*
X53773744Y-40715000D01*
X53340582Y-40801161D01*
X52849375Y-41129375D01*
X52650000Y-41427761D01*
X52450625Y-41129375D01*
X51959418Y-40801161D01*
X51526256Y-40715000D01*
X51233744Y-40715000D01*
X50800582Y-40801161D01*
X50309375Y-41129375D01*
X50096157Y-41448478D01*
X50035183Y-41318642D01*
X49606924Y-40928355D01*
X49196890Y-40758524D01*
X48967000Y-40879845D01*
X48967000Y-42073000D01*
X48987000Y-42073000D01*
X48987000Y-42327000D01*
X48967000Y-42327000D01*
X48967000Y-42347000D01*
X48713000Y-42347000D01*
X48713000Y-42327000D01*
X48693000Y-42327000D01*
X48693000Y-42073000D01*
X48713000Y-42073000D01*
X48713000Y-40879845D01*
X48483110Y-40758524D01*
X48073076Y-40928355D01*
X47768739Y-41205708D01*
X47748157Y-41102235D01*
X47607809Y-40892191D01*
X47397765Y-40751843D01*
X47150000Y-40702560D01*
X45450000Y-40702560D01*
X45202235Y-40751843D01*
X44992191Y-40892191D01*
X44851843Y-41102235D01*
X44802560Y-41350000D01*
X44802560Y-43050000D01*
X44851843Y-43297765D01*
X44992191Y-43507809D01*
X45202235Y-43648157D01*
X45450000Y-43697440D01*
X47150000Y-43697440D01*
X47239118Y-43679714D01*
X45367718Y-45551115D01*
X45298000Y-45597699D01*
X45251416Y-45667417D01*
X45113448Y-45873900D01*
X45097711Y-45953015D01*
X44852235Y-46001843D01*
X44642191Y-46142191D01*
X44501843Y-46352235D01*
X44452560Y-46600000D01*
X44452560Y-48200000D01*
X44501843Y-48447765D01*
X44642191Y-48657809D01*
X44852235Y-48798157D01*
X44986106Y-48824785D01*
X44865423Y-48905423D01*
X44679214Y-49184104D01*
X44478163Y-49224096D01*
X44415000Y-49266300D01*
X44415000Y-45357848D01*
X44429888Y-45283000D01*
X44415000Y-45208152D01*
X44415000Y-45208148D01*
X44370904Y-44986463D01*
X44370904Y-44986462D01*
X44245329Y-44798527D01*
X44202929Y-44735071D01*
X44139473Y-44692671D01*
X43627491Y-44180689D01*
X43848839Y-43849418D01*
X43964092Y-43270000D01*
X43848839Y-42690582D01*
X43520625Y-42199375D01*
X43029418Y-41871161D01*
X42596256Y-41785000D01*
X42303744Y-41785000D01*
X41870582Y-41871161D01*
X41379375Y-42199375D01*
X41051161Y-42690582D01*
X40935908Y-43270000D01*
X41051161Y-43849418D01*
X41379375Y-44340625D01*
X41677761Y-44540000D01*
X41379375Y-44739375D01*
X41051161Y-45230582D01*
X40935908Y-45810000D01*
X41051161Y-46389418D01*
X41379375Y-46880625D01*
X41397619Y-46892816D01*
X41352235Y-46901843D01*
X41142191Y-47042191D01*
X41001843Y-47252235D01*
X40952560Y-47500000D01*
X40952560Y-49200000D01*
X41001843Y-49447765D01*
X41142191Y-49657809D01*
X41202298Y-49697971D01*
X41177471Y-49735127D01*
X39889530Y-51023069D01*
X39826071Y-51065471D01*
X39658096Y-51316864D01*
X39614000Y-51538549D01*
X39614000Y-51538553D01*
X39599112Y-51613400D01*
X37110000Y-51613400D01*
X37110000Y-37955431D01*
X37165000Y-37955431D01*
X37165000Y-38844569D01*
X37505259Y-39666026D01*
X38133974Y-40294741D01*
X38955431Y-40635000D01*
X39844569Y-40635000D01*
X40666026Y-40294741D01*
X41294741Y-39666026D01*
X41635000Y-38844569D01*
X41635000Y-37955431D01*
X41425644Y-37450000D01*
X58102560Y-37450000D01*
X58102560Y-39150000D01*
X58151843Y-39397765D01*
X58292191Y-39607809D01*
X58502235Y-39748157D01*
X58750000Y-39797440D01*
X60450000Y-39797440D01*
X60697765Y-39748157D01*
X60907809Y-39607809D01*
X61048157Y-39397765D01*
X61068739Y-39294292D01*
X61373076Y-39571645D01*
X61783110Y-39741476D01*
X62013000Y-39620155D01*
X62013000Y-38427000D01*
X62267000Y-38427000D01*
X62267000Y-39620155D01*
X62496890Y-39741476D01*
X62906924Y-39571645D01*
X63314727Y-39200000D01*
X66702560Y-39200000D01*
X66702560Y-40900000D01*
X66751843Y-41147765D01*
X66892191Y-41357809D01*
X67102235Y-41498157D01*
X67350000Y-41547440D01*
X69050000Y-41547440D01*
X69297765Y-41498157D01*
X69507809Y-41357809D01*
X69648157Y-41147765D01*
X69697440Y-40900000D01*
X69697440Y-39200000D01*
X69648157Y-38952235D01*
X69507809Y-38742191D01*
X69297765Y-38601843D01*
X69050000Y-38552560D01*
X67350000Y-38552560D01*
X67102235Y-38601843D01*
X66892191Y-38742191D01*
X66751843Y-38952235D01*
X66702560Y-39200000D01*
X63314727Y-39200000D01*
X63335183Y-39181358D01*
X63581486Y-38656892D01*
X63460819Y-38427000D01*
X62267000Y-38427000D01*
X62013000Y-38427000D01*
X61993000Y-38427000D01*
X61993000Y-38173000D01*
X62013000Y-38173000D01*
X62013000Y-36979845D01*
X62267000Y-36979845D01*
X62267000Y-38173000D01*
X63460819Y-38173000D01*
X63575017Y-37955431D01*
X73165000Y-37955431D01*
X73165000Y-38844569D01*
X73505259Y-39666026D01*
X74133974Y-40294741D01*
X74955431Y-40635000D01*
X75844569Y-40635000D01*
X76666026Y-40294741D01*
X77294741Y-39666026D01*
X77635000Y-38844569D01*
X77635000Y-37955431D01*
X77294741Y-37133974D01*
X76666026Y-36505259D01*
X75844569Y-36165000D01*
X74955431Y-36165000D01*
X74133974Y-36505259D01*
X73505259Y-37133974D01*
X73165000Y-37955431D01*
X63575017Y-37955431D01*
X63581486Y-37943108D01*
X63335183Y-37418642D01*
X62906924Y-37028355D01*
X62496890Y-36858524D01*
X62267000Y-36979845D01*
X62013000Y-36979845D01*
X61783110Y-36858524D01*
X61373076Y-37028355D01*
X61068739Y-37305708D01*
X61048157Y-37202235D01*
X60907809Y-36992191D01*
X60697765Y-36851843D01*
X60450000Y-36802560D01*
X58750000Y-36802560D01*
X58502235Y-36851843D01*
X58292191Y-36992191D01*
X58151843Y-37202235D01*
X58102560Y-37450000D01*
X41425644Y-37450000D01*
X41294741Y-37133974D01*
X40666026Y-36505259D01*
X39844569Y-36165000D01*
X38955431Y-36165000D01*
X38133974Y-36505259D01*
X37505259Y-37133974D01*
X37165000Y-37955431D01*
X37110000Y-37955431D01*
X37110000Y-36110000D01*
X77690000Y-36110000D01*
X77690001Y-76690000D01*
G36*
X42577000Y-57303000D02*
X42597000Y-57303000D01*
X42597000Y-57557000D01*
X42577000Y-57557000D01*
X42577000Y-57577000D01*
X42323000Y-57577000D01*
X42323000Y-57557000D01*
X42303000Y-57557000D01*
X42303000Y-57303000D01*
X42323000Y-57303000D01*
X42323000Y-57283000D01*
X42577000Y-57283000D01*
X42577000Y-57303000D01*
X42577000Y-57303000D01*
G37*
X42577000Y-57303000D02*
X42597000Y-57303000D01*
X42597000Y-57557000D01*
X42577000Y-57557000D01*
X42577000Y-57577000D01*
X42323000Y-57577000D01*
X42323000Y-57557000D01*
X42303000Y-57557000D01*
X42303000Y-57303000D01*
X42323000Y-57303000D01*
X42323000Y-57283000D01*
X42577000Y-57283000D01*
X42577000Y-57303000D01*
G36*
X49154807Y-45532272D02*
X49201399Y-45602001D01*
X49340389Y-45694871D01*
X49477571Y-45786540D01*
X49477585Y-45786543D01*
X49477599Y-45786552D01*
X49641209Y-45819096D01*
X49803368Y-45851358D01*
X49885621Y-45835000D01*
X55905604Y-45835000D01*
X56287138Y-46216534D01*
X56814561Y-46435000D01*
X57385439Y-46435000D01*
X57912862Y-46216534D01*
X58294396Y-45835000D01*
X60403733Y-45835000D01*
X61108069Y-46539337D01*
X60623586Y-46740016D01*
X60504120Y-47024514D01*
X61600000Y-48120395D01*
X61614143Y-48106253D01*
X61793748Y-48285858D01*
X61779605Y-48300000D01*
X61793748Y-48314142D01*
X61614142Y-48493748D01*
X61600000Y-48479605D01*
X61585858Y-48493748D01*
X61406252Y-48314142D01*
X61420395Y-48300000D01*
X60324514Y-47204120D01*
X60040016Y-47323586D01*
X59785106Y-47994890D01*
X59806496Y-48712646D01*
X60000080Y-49180000D01*
X54738043Y-49180000D01*
X54554577Y-48905423D01*
X54170892Y-48649053D01*
X54375134Y-48552389D01*
X54751041Y-48137423D01*
X54911904Y-47749039D01*
X54789915Y-47527000D01*
X53647000Y-47527000D01*
X53647000Y-47547000D01*
X53393000Y-47547000D01*
X53393000Y-47527000D01*
X52250085Y-47527000D01*
X52128096Y-47749039D01*
X52288959Y-48137423D01*
X52664866Y-48552389D01*
X52869108Y-48649053D01*
X52485423Y-48905423D01*
X52299214Y-49184104D01*
X52098163Y-49224096D01*
X51846771Y-49392071D01*
X51678796Y-49643463D01*
X51624433Y-49916765D01*
X47183394Y-54357804D01*
X46934577Y-53985423D01*
X46582242Y-53750000D01*
X46934577Y-53514577D01*
X47251740Y-53039909D01*
X47363113Y-52480000D01*
X47251740Y-51920091D01*
X46934577Y-51445423D01*
X46582242Y-51210000D01*
X46934577Y-50974577D01*
X47251740Y-50499909D01*
X47363113Y-49940000D01*
X47251740Y-49380091D01*
X46934577Y-48905423D01*
X46813894Y-48824785D01*
X46947765Y-48798157D01*
X47157809Y-48657809D01*
X47298157Y-48447765D01*
X47347440Y-48200000D01*
X47347440Y-47050961D01*
X52128096Y-47050961D01*
X52250085Y-47273000D01*
X53393000Y-47273000D01*
X53393000Y-46129371D01*
X53647000Y-46129371D01*
X53647000Y-47273000D01*
X54789915Y-47273000D01*
X54911904Y-47050961D01*
X54751041Y-46662577D01*
X54375134Y-46247611D01*
X53869041Y-46008086D01*
X53647000Y-46129371D01*
X53393000Y-46129371D01*
X53170959Y-46008086D01*
X52664866Y-46247611D01*
X52288959Y-46662577D01*
X52128096Y-47050961D01*
X47347440Y-47050961D01*
X47347440Y-46600000D01*
X47298157Y-46352235D01*
X47157809Y-46142191D01*
X47146160Y-46134407D01*
X48451578Y-44828990D01*
X49154807Y-45532272D01*
X49154807Y-45532272D01*
G37*
X49154807Y-45532272D02*
X49201399Y-45602001D01*
X49340389Y-45694871D01*
X49477571Y-45786540D01*
X49477585Y-45786543D01*
X49477599Y-45786552D01*
X49641209Y-45819096D01*
X49803368Y-45851358D01*
X49885621Y-45835000D01*
X55905604Y-45835000D01*
X56287138Y-46216534D01*
X56814561Y-46435000D01*
X57385439Y-46435000D01*
X57912862Y-46216534D01*
X58294396Y-45835000D01*
X60403733Y-45835000D01*
X61108069Y-46539337D01*
X60623586Y-46740016D01*
X60504120Y-47024514D01*
X61600000Y-48120395D01*
X61614143Y-48106253D01*
X61793748Y-48285858D01*
X61779605Y-48300000D01*
X61793748Y-48314142D01*
X61614142Y-48493748D01*
X61600000Y-48479605D01*
X61585858Y-48493748D01*
X61406252Y-48314142D01*
X61420395Y-48300000D01*
X60324514Y-47204120D01*
X60040016Y-47323586D01*
X59785106Y-47994890D01*
X59806496Y-48712646D01*
X60000080Y-49180000D01*
X54738043Y-49180000D01*
X54554577Y-48905423D01*
X54170892Y-48649053D01*
X54375134Y-48552389D01*
X54751041Y-48137423D01*
X54911904Y-47749039D01*
X54789915Y-47527000D01*
X53647000Y-47527000D01*
X53647000Y-47547000D01*
X53393000Y-47547000D01*
X53393000Y-47527000D01*
X52250085Y-47527000D01*
X52128096Y-47749039D01*
X52288959Y-48137423D01*
X52664866Y-48552389D01*
X52869108Y-48649053D01*
X52485423Y-48905423D01*
X52299214Y-49184104D01*
X52098163Y-49224096D01*
X51846771Y-49392071D01*
X51678796Y-49643463D01*
X51624433Y-49916765D01*
X47183394Y-54357804D01*
X46934577Y-53985423D01*
X46582242Y-53750000D01*
X46934577Y-53514577D01*
X47251740Y-53039909D01*
X47363113Y-52480000D01*
X47251740Y-51920091D01*
X46934577Y-51445423D01*
X46582242Y-51210000D01*
X46934577Y-50974577D01*
X47251740Y-50499909D01*
X47363113Y-49940000D01*
X47251740Y-49380091D01*
X46934577Y-48905423D01*
X46813894Y-48824785D01*
X46947765Y-48798157D01*
X47157809Y-48657809D01*
X47298157Y-48447765D01*
X47347440Y-48200000D01*
X47347440Y-47050961D01*
X52128096Y-47050961D01*
X52250085Y-47273000D01*
X53393000Y-47273000D01*
X53393000Y-46129371D01*
X53647000Y-46129371D01*
X53647000Y-47273000D01*
X54789915Y-47273000D01*
X54911904Y-47050961D01*
X54751041Y-46662577D01*
X54375134Y-46247611D01*
X53869041Y-46008086D01*
X53647000Y-46129371D01*
X53393000Y-46129371D01*
X53170959Y-46008086D01*
X52664866Y-46247611D01*
X52288959Y-46662577D01*
X52128096Y-47050961D01*
X47347440Y-47050961D01*
X47347440Y-46600000D01*
X47298157Y-46352235D01*
X47157809Y-46142191D01*
X47146160Y-46134407D01*
X48451578Y-44828990D01*
X49154807Y-45532272D01*
G04 #@! TD*
M02*
