G04 #@! TF.GenerationSoftware,KiCad,Pcbnew,(5.0.0)*
G04 #@! TF.CreationDate,2019-08-04T18:22:56+09:00*
G04 #@! TF.ProjectId,ir_read_mod,69725F726561645F6D6F642E6B696361,rev?*
G04 #@! TF.SameCoordinates,Original*
G04 #@! TF.FileFunction,Soldermask,Bot*
G04 #@! TF.FilePolarity,Negative*
%FSLAX46Y46*%
G04 Gerber Fmt 4.6, Leading zero omitted, Abs format (unit mm)*
G04 Created by KiCad (PCBNEW (5.0.0)) date 08/04/19 18:22:56*
%MOMM*%
%LPD*%
G01*
G04 APERTURE LIST*
%ADD10C,3.600000*%
%ADD11C,2.200000*%
%ADD12R,2.200000X2.200000*%
%ADD13R,2.100000X2.100000*%
%ADD14O,2.100000X2.100000*%
%ADD15C,2.000000*%
%ADD16O,2.000000X2.000000*%
%ADD17C,2.740000*%
%ADD18R,2.000000X2.000000*%
%ADD19R,2.500000X2.300000*%
%ADD20O,2.500000X2.300000*%
G04 APERTURE END LIST*
D10*
G04 #@! TO.C,hole2*
X75400000Y-38400000D03*
G04 #@! TD*
G04 #@! TO.C,hole4*
X75400000Y-74400000D03*
G04 #@! TD*
G04 #@! TO.C,hole3*
X39400000Y-74400000D03*
G04 #@! TD*
D11*
G04 #@! TO.C,D1*
X65440000Y-69000000D03*
D12*
X62900000Y-69000000D03*
G04 #@! TD*
G04 #@! TO.C,D2*
X56400000Y-69000000D03*
D11*
X58940000Y-69000000D03*
G04 #@! TD*
G04 #@! TO.C,D3*
X52440000Y-69000000D03*
D12*
X49900000Y-69000000D03*
G04 #@! TD*
G04 #@! TO.C,D4*
X43400000Y-69000000D03*
D11*
X45940000Y-69000000D03*
G04 #@! TD*
G04 #@! TO.C,D5*
X63260000Y-59600000D03*
D12*
X65800000Y-59600000D03*
G04 #@! TD*
D13*
G04 #@! TO.C,J1*
X46300000Y-42200000D03*
D14*
X48840000Y-42200000D03*
X51380000Y-42200000D03*
X53920000Y-42200000D03*
G04 #@! TD*
D13*
G04 #@! TO.C,J3*
X68200000Y-40050000D03*
G04 #@! TD*
D12*
G04 #@! TO.C,Q1*
X59300000Y-59600000D03*
D11*
X56760000Y-59600000D03*
G04 #@! TD*
D15*
G04 #@! TO.C,R1*
X57100000Y-41900000D03*
D16*
X64720000Y-41900000D03*
G04 #@! TD*
G04 #@! TO.C,R2*
X64720000Y-45000000D03*
D15*
X57100000Y-45000000D03*
G04 #@! TD*
D17*
G04 #@! TO.C,RV1*
X64100000Y-53300000D03*
X61600000Y-48300000D03*
X59100000Y-53300000D03*
G04 #@! TD*
D18*
G04 #@! TO.C,U1*
X45900000Y-47400000D03*
D16*
X53520000Y-62640000D03*
X45900000Y-49940000D03*
X53520000Y-60100000D03*
X45900000Y-52480000D03*
X53520000Y-57560000D03*
X45900000Y-55020000D03*
X53520000Y-55020000D03*
X45900000Y-57560000D03*
X53520000Y-52480000D03*
X45900000Y-60100000D03*
X53520000Y-49940000D03*
X45900000Y-62640000D03*
X53520000Y-47400000D03*
G04 #@! TD*
D10*
G04 #@! TO.C,hole1*
X39400000Y-38400000D03*
G04 #@! TD*
D15*
G04 #@! TO.C,R3*
X69500000Y-60400000D03*
D16*
X69500000Y-52780000D03*
G04 #@! TD*
G04 #@! TO.C,R4*
X72500000Y-52780000D03*
D15*
X72500000Y-60400000D03*
G04 #@! TD*
G04 #@! TO.C,R5*
X75500000Y-60400000D03*
D16*
X75500000Y-52780000D03*
G04 #@! TD*
G04 #@! TO.C,R6*
X69500000Y-62780000D03*
D15*
X69500000Y-70400000D03*
G04 #@! TD*
G04 #@! TO.C,R7*
X72550000Y-70400000D03*
D16*
X72550000Y-62780000D03*
G04 #@! TD*
D19*
G04 #@! TO.C,SW1*
X68300000Y-44850000D03*
D20*
X75920000Y-44850000D03*
X68300000Y-47390000D03*
X75920000Y-47390000D03*
X68300000Y-49930000D03*
X75920000Y-49930000D03*
G04 #@! TD*
D13*
G04 #@! TO.C,SW2*
X42450000Y-48350000D03*
D14*
X42450000Y-45810000D03*
X42450000Y-43270000D03*
G04 #@! TD*
D13*
G04 #@! TO.C,J2*
X42450000Y-52350000D03*
D14*
X42450000Y-54890000D03*
X42450000Y-57430000D03*
X42450000Y-59970000D03*
X42450000Y-62510000D03*
G04 #@! TD*
D13*
G04 #@! TO.C,J4*
X59600000Y-38300000D03*
D14*
X62140000Y-38300000D03*
G04 #@! TD*
M02*
