G04 #@! TF.GenerationSoftware,KiCad,Pcbnew,(5.0.0)*
G04 #@! TF.CreationDate,2019-08-04T18:22:56+09:00*
G04 #@! TF.ProjectId,ir_read_mod,69725F726561645F6D6F642E6B696361,rev?*
G04 #@! TF.SameCoordinates,Original*
G04 #@! TF.FileFunction,Legend,Bot*
G04 #@! TF.FilePolarity,Positive*
%FSLAX46Y46*%
G04 Gerber Fmt 4.6, Leading zero omitted, Abs format (unit mm)*
G04 Created by KiCad (PCBNEW (5.0.0)) date 08/04/19 18:22:56*
%MOMM*%
%LPD*%
G01*
G04 APERTURE LIST*
%ADD10C,0.100000*%
%ADD11C,0.150000*%
%ADD12C,0.120000*%
%ADD13C,3.600000*%
%ADD14C,2.200000*%
%ADD15R,2.200000X2.200000*%
%ADD16R,2.100000X2.100000*%
%ADD17O,2.100000X2.100000*%
%ADD18C,2.000000*%
%ADD19O,2.000000X2.000000*%
%ADD20C,2.740000*%
%ADD21R,2.000000X2.000000*%
%ADD22R,2.500000X2.300000*%
%ADD23O,2.500000X2.300000*%
G04 APERTURE END LIST*
D10*
X63321428Y-74857142D02*
X63321428Y-74257142D01*
X63321428Y-73957142D02*
X63364285Y-74000000D01*
X63321428Y-74042857D01*
X63278571Y-74000000D01*
X63321428Y-73957142D01*
X63321428Y-74042857D01*
X62892857Y-74857142D02*
X62892857Y-74257142D01*
X62892857Y-74428571D02*
X62850000Y-74342857D01*
X62807142Y-74300000D01*
X62721428Y-74257142D01*
X62635714Y-74257142D01*
X62550000Y-74942857D02*
X61864285Y-74942857D01*
X61650000Y-74857142D02*
X61650000Y-74257142D01*
X61650000Y-74428571D02*
X61607142Y-74342857D01*
X61564285Y-74300000D01*
X61478571Y-74257142D01*
X61392857Y-74257142D01*
X60750000Y-74814285D02*
X60835714Y-74857142D01*
X61007142Y-74857142D01*
X61092857Y-74814285D01*
X61135714Y-74728571D01*
X61135714Y-74385714D01*
X61092857Y-74300000D01*
X61007142Y-74257142D01*
X60835714Y-74257142D01*
X60750000Y-74300000D01*
X60707142Y-74385714D01*
X60707142Y-74471428D01*
X61135714Y-74557142D01*
X59935714Y-74814285D02*
X60021428Y-74857142D01*
X60192857Y-74857142D01*
X60278571Y-74814285D01*
X60321428Y-74771428D01*
X60364285Y-74685714D01*
X60364285Y-74428571D01*
X60321428Y-74342857D01*
X60278571Y-74300000D01*
X60192857Y-74257142D01*
X60021428Y-74257142D01*
X59935714Y-74300000D01*
X59635714Y-74257142D02*
X59421428Y-74857142D01*
X59207142Y-74257142D01*
X59078571Y-74942857D02*
X58392857Y-74942857D01*
X58178571Y-74857142D02*
X58178571Y-73957142D01*
X58178571Y-74300000D02*
X58092857Y-74257142D01*
X57921428Y-74257142D01*
X57835714Y-74300000D01*
X57792857Y-74342857D01*
X57750000Y-74428571D01*
X57750000Y-74685714D01*
X57792857Y-74771428D01*
X57835714Y-74814285D01*
X57921428Y-74857142D01*
X58092857Y-74857142D01*
X58178571Y-74814285D01*
X57235714Y-74857142D02*
X57321428Y-74814285D01*
X57364285Y-74771428D01*
X57407142Y-74685714D01*
X57407142Y-74428571D01*
X57364285Y-74342857D01*
X57321428Y-74300000D01*
X57235714Y-74257142D01*
X57107142Y-74257142D01*
X57021428Y-74300000D01*
X56978571Y-74342857D01*
X56935714Y-74428571D01*
X56935714Y-74685714D01*
X56978571Y-74771428D01*
X57021428Y-74814285D01*
X57107142Y-74857142D01*
X57235714Y-74857142D01*
X56164285Y-74857142D02*
X56164285Y-74385714D01*
X56207142Y-74300000D01*
X56292857Y-74257142D01*
X56464285Y-74257142D01*
X56550000Y-74300000D01*
X56164285Y-74814285D02*
X56250000Y-74857142D01*
X56464285Y-74857142D01*
X56550000Y-74814285D01*
X56592857Y-74728571D01*
X56592857Y-74642857D01*
X56550000Y-74557142D01*
X56464285Y-74514285D01*
X56250000Y-74514285D01*
X56164285Y-74471428D01*
X55735714Y-74857142D02*
X55735714Y-74257142D01*
X55735714Y-74428571D02*
X55692857Y-74342857D01*
X55650000Y-74300000D01*
X55564285Y-74257142D01*
X55478571Y-74257142D01*
X54792857Y-74857142D02*
X54792857Y-73957142D01*
X54792857Y-74814285D02*
X54878571Y-74857142D01*
X55050000Y-74857142D01*
X55135714Y-74814285D01*
X55178571Y-74771428D01*
X55221428Y-74685714D01*
X55221428Y-74428571D01*
X55178571Y-74342857D01*
X55135714Y-74300000D01*
X55050000Y-74257142D01*
X54878571Y-74257142D01*
X54792857Y-74300000D01*
X53764285Y-74257142D02*
X53550000Y-74857142D01*
X53335714Y-74257142D01*
X52521428Y-74857142D02*
X53035714Y-74857142D01*
X52778571Y-74857142D02*
X52778571Y-73957142D01*
X52864285Y-74085714D01*
X52950000Y-74171428D01*
X53035714Y-74214285D01*
X52135714Y-74771428D02*
X52092857Y-74814285D01*
X52135714Y-74857142D01*
X52178571Y-74814285D01*
X52135714Y-74771428D01*
X52135714Y-74857142D01*
X51235714Y-74857142D02*
X51750000Y-74857142D01*
X51492857Y-74857142D02*
X51492857Y-73957142D01*
X51578571Y-74085714D01*
X51664285Y-74171428D01*
X51750000Y-74214285D01*
D11*
X59857142Y-63485714D02*
X59857142Y-64485714D01*
X59857142Y-63533333D02*
X59761904Y-63485714D01*
X59571428Y-63485714D01*
X59476190Y-63533333D01*
X59428571Y-63580952D01*
X59380952Y-63676190D01*
X59380952Y-63961904D01*
X59428571Y-64057142D01*
X59476190Y-64104761D01*
X59571428Y-64152380D01*
X59761904Y-64152380D01*
X59857142Y-64104761D01*
X58952380Y-64152380D02*
X58952380Y-63152380D01*
X58523809Y-64152380D02*
X58523809Y-63628571D01*
X58571428Y-63533333D01*
X58666666Y-63485714D01*
X58809523Y-63485714D01*
X58904761Y-63533333D01*
X58952380Y-63580952D01*
X57904761Y-64152380D02*
X58000000Y-64104761D01*
X58047619Y-64057142D01*
X58095238Y-63961904D01*
X58095238Y-63676190D01*
X58047619Y-63580952D01*
X58000000Y-63533333D01*
X57904761Y-63485714D01*
X57761904Y-63485714D01*
X57666666Y-63533333D01*
X57619047Y-63580952D01*
X57571428Y-63676190D01*
X57571428Y-63961904D01*
X57619047Y-64057142D01*
X57666666Y-64104761D01*
X57761904Y-64152380D01*
X57904761Y-64152380D01*
X57285714Y-63485714D02*
X56904761Y-63485714D01*
X57142857Y-63152380D02*
X57142857Y-64009523D01*
X57095238Y-64104761D01*
X57000000Y-64152380D01*
X56904761Y-64152380D01*
X56428571Y-64152380D02*
X56523809Y-64104761D01*
X56571428Y-64057142D01*
X56619047Y-63961904D01*
X56619047Y-63676190D01*
X56571428Y-63580952D01*
X56523809Y-63533333D01*
X56428571Y-63485714D01*
X56285714Y-63485714D01*
X56190476Y-63533333D01*
X56142857Y-63580952D01*
X56095238Y-63676190D01*
X56095238Y-63961904D01*
X56142857Y-64057142D01*
X56190476Y-64104761D01*
X56285714Y-64152380D01*
X56428571Y-64152380D01*
D12*
G04 #@! TO.C,Q1*
X55040000Y-59600462D02*
G75*
G02X60590000Y-58055170I2990000J462D01*
G01*
X55040000Y-59599538D02*
G75*
G03X60590000Y-61144830I2990000J-462D01*
G01*
X60530000Y-59600000D02*
G75*
G03X60530000Y-59600000I-2500000J0D01*
G01*
X60590000Y-58055000D02*
X60590000Y-61145000D01*
D11*
X58125238Y-56187619D02*
X58220476Y-56140000D01*
X58315714Y-56044761D01*
X58458571Y-55901904D01*
X58553809Y-55854285D01*
X58649047Y-55854285D01*
X58601428Y-56092380D02*
X58696666Y-56044761D01*
X58791904Y-55949523D01*
X58839523Y-55759047D01*
X58839523Y-55425714D01*
X58791904Y-55235238D01*
X58696666Y-55140000D01*
X58601428Y-55092380D01*
X58410952Y-55092380D01*
X58315714Y-55140000D01*
X58220476Y-55235238D01*
X58172857Y-55425714D01*
X58172857Y-55759047D01*
X58220476Y-55949523D01*
X58315714Y-56044761D01*
X58410952Y-56092380D01*
X58601428Y-56092380D01*
X57220476Y-56092380D02*
X57791904Y-56092380D01*
X57506190Y-56092380D02*
X57506190Y-55092380D01*
X57601428Y-55235238D01*
X57696666Y-55330476D01*
X57791904Y-55378095D01*
G04 #@! TD*
%LPC*%
D13*
G04 #@! TO.C,hole2*
X75400000Y-38400000D03*
G04 #@! TD*
G04 #@! TO.C,hole4*
X75400000Y-74400000D03*
G04 #@! TD*
G04 #@! TO.C,hole3*
X39400000Y-74400000D03*
G04 #@! TD*
D14*
G04 #@! TO.C,D1*
X65440000Y-69000000D03*
D15*
X62900000Y-69000000D03*
G04 #@! TD*
G04 #@! TO.C,D2*
X56400000Y-69000000D03*
D14*
X58940000Y-69000000D03*
G04 #@! TD*
G04 #@! TO.C,D3*
X52440000Y-69000000D03*
D15*
X49900000Y-69000000D03*
G04 #@! TD*
G04 #@! TO.C,D4*
X43400000Y-69000000D03*
D14*
X45940000Y-69000000D03*
G04 #@! TD*
G04 #@! TO.C,D5*
X63260000Y-59600000D03*
D15*
X65800000Y-59600000D03*
G04 #@! TD*
D16*
G04 #@! TO.C,J1*
X46300000Y-42200000D03*
D17*
X48840000Y-42200000D03*
X51380000Y-42200000D03*
X53920000Y-42200000D03*
G04 #@! TD*
D16*
G04 #@! TO.C,J3*
X68200000Y-40050000D03*
G04 #@! TD*
D15*
G04 #@! TO.C,Q1*
X59300000Y-59600000D03*
D14*
X56760000Y-59600000D03*
G04 #@! TD*
D18*
G04 #@! TO.C,R1*
X57100000Y-41900000D03*
D19*
X64720000Y-41900000D03*
G04 #@! TD*
G04 #@! TO.C,R2*
X64720000Y-45000000D03*
D18*
X57100000Y-45000000D03*
G04 #@! TD*
D20*
G04 #@! TO.C,RV1*
X64100000Y-53300000D03*
X61600000Y-48300000D03*
X59100000Y-53300000D03*
G04 #@! TD*
D21*
G04 #@! TO.C,U1*
X45900000Y-47400000D03*
D19*
X53520000Y-62640000D03*
X45900000Y-49940000D03*
X53520000Y-60100000D03*
X45900000Y-52480000D03*
X53520000Y-57560000D03*
X45900000Y-55020000D03*
X53520000Y-55020000D03*
X45900000Y-57560000D03*
X53520000Y-52480000D03*
X45900000Y-60100000D03*
X53520000Y-49940000D03*
X45900000Y-62640000D03*
X53520000Y-47400000D03*
G04 #@! TD*
D13*
G04 #@! TO.C,hole1*
X39400000Y-38400000D03*
G04 #@! TD*
D18*
G04 #@! TO.C,R3*
X69500000Y-60400000D03*
D19*
X69500000Y-52780000D03*
G04 #@! TD*
G04 #@! TO.C,R4*
X72500000Y-52780000D03*
D18*
X72500000Y-60400000D03*
G04 #@! TD*
G04 #@! TO.C,R5*
X75500000Y-60400000D03*
D19*
X75500000Y-52780000D03*
G04 #@! TD*
G04 #@! TO.C,R6*
X69500000Y-62780000D03*
D18*
X69500000Y-70400000D03*
G04 #@! TD*
G04 #@! TO.C,R7*
X72550000Y-70400000D03*
D19*
X72550000Y-62780000D03*
G04 #@! TD*
D22*
G04 #@! TO.C,SW1*
X68300000Y-44850000D03*
D23*
X75920000Y-44850000D03*
X68300000Y-47390000D03*
X75920000Y-47390000D03*
X68300000Y-49930000D03*
X75920000Y-49930000D03*
G04 #@! TD*
D16*
G04 #@! TO.C,SW2*
X42450000Y-48350000D03*
D17*
X42450000Y-45810000D03*
X42450000Y-43270000D03*
G04 #@! TD*
D16*
G04 #@! TO.C,J2*
X42450000Y-52350000D03*
D17*
X42450000Y-54890000D03*
X42450000Y-57430000D03*
X42450000Y-59970000D03*
X42450000Y-62510000D03*
G04 #@! TD*
D16*
G04 #@! TO.C,J4*
X59600000Y-38300000D03*
D17*
X62140000Y-38300000D03*
G04 #@! TD*
M02*
