G04 #@! TF.GenerationSoftware,KiCad,Pcbnew,(5.0.0)*
G04 #@! TF.CreationDate,2019-08-04T18:22:56+09:00*
G04 #@! TF.ProjectId,ir_read_mod,69725F726561645F6D6F642E6B696361,rev?*
G04 #@! TF.SameCoordinates,Original*
G04 #@! TF.FileFunction,Legend,Top*
G04 #@! TF.FilePolarity,Positive*
%FSLAX46Y46*%
G04 Gerber Fmt 4.6, Leading zero omitted, Abs format (unit mm)*
G04 Created by KiCad (PCBNEW (5.0.0)) date 08/04/19 18:22:56*
%MOMM*%
%LPD*%
G01*
G04 APERTURE LIST*
%ADD10C,0.120000*%
%ADD11C,0.100000*%
%ADD12C,0.150000*%
%ADD13C,3.600000*%
%ADD14C,2.200000*%
%ADD15R,2.200000X2.200000*%
%ADD16R,2.100000X2.100000*%
%ADD17O,2.100000X2.100000*%
%ADD18C,2.000000*%
%ADD19O,2.000000X2.000000*%
%ADD20C,2.740000*%
%ADD21R,2.000000X2.000000*%
%ADD22R,2.500000X2.300000*%
%ADD23O,2.500000X2.300000*%
G04 APERTURE END LIST*
D10*
X64150000Y-39085714D02*
X64107142Y-39171428D01*
X64107142Y-39300000D01*
X64150000Y-39428571D01*
X64235714Y-39514285D01*
X64321428Y-39557142D01*
X64492857Y-39600000D01*
X64621428Y-39600000D01*
X64792857Y-39557142D01*
X64878571Y-39514285D01*
X64964285Y-39428571D01*
X65007142Y-39300000D01*
X65007142Y-39214285D01*
X64964285Y-39085714D01*
X64921428Y-39042857D01*
X64621428Y-39042857D01*
X64621428Y-39214285D01*
X65007142Y-38657142D02*
X64107142Y-38657142D01*
X65007142Y-38142857D01*
X64107142Y-38142857D01*
X65007142Y-37714285D02*
X64107142Y-37714285D01*
X64107142Y-37500000D01*
X64150000Y-37371428D01*
X64235714Y-37285714D01*
X64321428Y-37242857D01*
X64492857Y-37200000D01*
X64621428Y-37200000D01*
X64792857Y-37242857D01*
X64878571Y-37285714D01*
X64964285Y-37371428D01*
X65007142Y-37500000D01*
X65007142Y-37714285D01*
X57264285Y-39657142D02*
X57264285Y-38971428D01*
X57607142Y-39314285D02*
X56921428Y-39314285D01*
X56707142Y-38114285D02*
X56707142Y-38542857D01*
X57135714Y-38585714D01*
X57092857Y-38542857D01*
X57050000Y-38457142D01*
X57050000Y-38242857D01*
X57092857Y-38157142D01*
X57135714Y-38114285D01*
X57221428Y-38071428D01*
X57435714Y-38071428D01*
X57521428Y-38114285D01*
X57564285Y-38157142D01*
X57607142Y-38242857D01*
X57607142Y-38457142D01*
X57564285Y-38542857D01*
X57521428Y-38585714D01*
X56707142Y-37814285D02*
X57607142Y-37514285D01*
X56707142Y-37214285D01*
X67485714Y-43014285D02*
X67614285Y-43057142D01*
X67828571Y-43057142D01*
X67914285Y-43014285D01*
X67957142Y-42971428D01*
X68000000Y-42885714D01*
X68000000Y-42800000D01*
X67957142Y-42714285D01*
X67914285Y-42671428D01*
X67828571Y-42628571D01*
X67657142Y-42585714D01*
X67571428Y-42542857D01*
X67528571Y-42500000D01*
X67485714Y-42414285D01*
X67485714Y-42328571D01*
X67528571Y-42242857D01*
X67571428Y-42200000D01*
X67657142Y-42157142D01*
X67871428Y-42157142D01*
X68000000Y-42200000D01*
X68514285Y-43057142D02*
X68428571Y-43014285D01*
X68385714Y-42928571D01*
X68385714Y-42157142D01*
X69242857Y-43057142D02*
X69242857Y-42585714D01*
X69200000Y-42500000D01*
X69114285Y-42457142D01*
X68942857Y-42457142D01*
X68857142Y-42500000D01*
X69242857Y-43014285D02*
X69157142Y-43057142D01*
X68942857Y-43057142D01*
X68857142Y-43014285D01*
X68814285Y-42928571D01*
X68814285Y-42842857D01*
X68857142Y-42757142D01*
X68942857Y-42714285D01*
X69157142Y-42714285D01*
X69242857Y-42671428D01*
X69585714Y-42457142D02*
X69800000Y-43057142D01*
X70014285Y-42457142D01*
X70700000Y-43014285D02*
X70614285Y-43057142D01*
X70442857Y-43057142D01*
X70357142Y-43014285D01*
X70314285Y-42928571D01*
X70314285Y-42585714D01*
X70357142Y-42500000D01*
X70442857Y-42457142D01*
X70614285Y-42457142D01*
X70700000Y-42500000D01*
X70742857Y-42585714D01*
X70742857Y-42671428D01*
X70314285Y-42757142D01*
X71771428Y-42800000D02*
X72200000Y-42800000D01*
X71685714Y-43057142D02*
X71985714Y-42157142D01*
X72285714Y-43057142D01*
X72971428Y-43057142D02*
X72971428Y-42157142D01*
X72971428Y-43014285D02*
X72885714Y-43057142D01*
X72714285Y-43057142D01*
X72628571Y-43014285D01*
X72585714Y-42971428D01*
X72542857Y-42885714D01*
X72542857Y-42628571D01*
X72585714Y-42542857D01*
X72628571Y-42500000D01*
X72714285Y-42457142D01*
X72885714Y-42457142D01*
X72971428Y-42500000D01*
X73785714Y-43057142D02*
X73785714Y-42157142D01*
X73785714Y-43014285D02*
X73700000Y-43057142D01*
X73528571Y-43057142D01*
X73442857Y-43014285D01*
X73400000Y-42971428D01*
X73357142Y-42885714D01*
X73357142Y-42628571D01*
X73400000Y-42542857D01*
X73442857Y-42500000D01*
X73528571Y-42457142D01*
X73700000Y-42457142D01*
X73785714Y-42500000D01*
X74214285Y-43057142D02*
X74214285Y-42457142D01*
X74214285Y-42628571D02*
X74257142Y-42542857D01*
X74300000Y-42500000D01*
X74385714Y-42457142D01*
X74471428Y-42457142D01*
X75114285Y-43014285D02*
X75028571Y-43057142D01*
X74857142Y-43057142D01*
X74771428Y-43014285D01*
X74728571Y-42928571D01*
X74728571Y-42585714D01*
X74771428Y-42500000D01*
X74857142Y-42457142D01*
X75028571Y-42457142D01*
X75114285Y-42500000D01*
X75157142Y-42585714D01*
X75157142Y-42671428D01*
X74728571Y-42757142D01*
X75500000Y-43014285D02*
X75585714Y-43057142D01*
X75757142Y-43057142D01*
X75842857Y-43014285D01*
X75885714Y-42928571D01*
X75885714Y-42885714D01*
X75842857Y-42800000D01*
X75757142Y-42757142D01*
X75628571Y-42757142D01*
X75542857Y-42714285D01*
X75500000Y-42628571D01*
X75500000Y-42585714D01*
X75542857Y-42500000D01*
X75628571Y-42457142D01*
X75757142Y-42457142D01*
X75842857Y-42500000D01*
X76228571Y-43014285D02*
X76314285Y-43057142D01*
X76485714Y-43057142D01*
X76571428Y-43014285D01*
X76614285Y-42928571D01*
X76614285Y-42885714D01*
X76571428Y-42800000D01*
X76485714Y-42757142D01*
X76357142Y-42757142D01*
X76271428Y-42714285D01*
X76228571Y-42628571D01*
X76228571Y-42585714D01*
X76271428Y-42500000D01*
X76357142Y-42457142D01*
X76485714Y-42457142D01*
X76571428Y-42500000D01*
X46057142Y-37907142D02*
X46057142Y-37007142D01*
X46485714Y-37307142D02*
X46485714Y-37907142D01*
X46485714Y-37392857D02*
X46528571Y-37350000D01*
X46614285Y-37307142D01*
X46742857Y-37307142D01*
X46828571Y-37350000D01*
X46871428Y-37435714D01*
X46871428Y-37907142D01*
X47942857Y-36964285D02*
X47171428Y-38121428D01*
X48414285Y-37007142D02*
X48585714Y-37007142D01*
X48671428Y-37050000D01*
X48757142Y-37135714D01*
X48800000Y-37307142D01*
X48800000Y-37607142D01*
X48757142Y-37778571D01*
X48671428Y-37864285D01*
X48585714Y-37907142D01*
X48414285Y-37907142D01*
X48328571Y-37864285D01*
X48242857Y-37778571D01*
X48200000Y-37607142D01*
X48200000Y-37307142D01*
X48242857Y-37135714D01*
X48328571Y-37050000D01*
X48414285Y-37007142D01*
X49571428Y-37307142D02*
X49571428Y-37907142D01*
X49185714Y-37307142D02*
X49185714Y-37778571D01*
X49228571Y-37864285D01*
X49314285Y-37907142D01*
X49442857Y-37907142D01*
X49528571Y-37864285D01*
X49571428Y-37821428D01*
X49871428Y-37307142D02*
X50214285Y-37307142D01*
X50000000Y-37007142D02*
X50000000Y-37778571D01*
X50042857Y-37864285D01*
X50128571Y-37907142D01*
X50214285Y-37907142D01*
X51200000Y-37907142D02*
X51200000Y-37007142D01*
X51542857Y-37007142D01*
X51628571Y-37050000D01*
X51671428Y-37092857D01*
X51714285Y-37178571D01*
X51714285Y-37307142D01*
X51671428Y-37392857D01*
X51628571Y-37435714D01*
X51542857Y-37478571D01*
X51200000Y-37478571D01*
X52100000Y-37907142D02*
X52100000Y-37307142D01*
X52100000Y-37007142D02*
X52057142Y-37050000D01*
X52100000Y-37092857D01*
X52142857Y-37050000D01*
X52100000Y-37007142D01*
X52100000Y-37092857D01*
X52528571Y-37307142D02*
X52528571Y-37907142D01*
X52528571Y-37392857D02*
X52571428Y-37350000D01*
X52657142Y-37307142D01*
X52785714Y-37307142D01*
X52871428Y-37350000D01*
X52914285Y-37435714D01*
X52914285Y-37907142D01*
X53300000Y-37864285D02*
X53385714Y-37907142D01*
X53557142Y-37907142D01*
X53642857Y-37864285D01*
X53685714Y-37778571D01*
X53685714Y-37735714D01*
X53642857Y-37650000D01*
X53557142Y-37607142D01*
X53428571Y-37607142D01*
X53342857Y-37564285D01*
X53300000Y-37478571D01*
X53300000Y-37435714D01*
X53342857Y-37350000D01*
X53428571Y-37307142D01*
X53557142Y-37307142D01*
X53642857Y-37350000D01*
X38557142Y-62978571D02*
X37657142Y-62978571D01*
X37657142Y-62635714D01*
X37700000Y-62550000D01*
X37742857Y-62507142D01*
X37828571Y-62464285D01*
X37957142Y-62464285D01*
X38042857Y-62507142D01*
X38085714Y-62550000D01*
X38128571Y-62635714D01*
X38128571Y-62978571D01*
X38557142Y-62078571D02*
X37957142Y-62078571D01*
X37657142Y-62078571D02*
X37700000Y-62121428D01*
X37742857Y-62078571D01*
X37700000Y-62035714D01*
X37657142Y-62078571D01*
X37742857Y-62078571D01*
X37957142Y-61650000D02*
X38557142Y-61650000D01*
X38042857Y-61650000D02*
X38000000Y-61607142D01*
X37957142Y-61521428D01*
X37957142Y-61392857D01*
X38000000Y-61307142D01*
X38085714Y-61264285D01*
X38557142Y-61264285D01*
X38514285Y-60878571D02*
X38557142Y-60792857D01*
X38557142Y-60621428D01*
X38514285Y-60535714D01*
X38428571Y-60492857D01*
X38385714Y-60492857D01*
X38300000Y-60535714D01*
X38257142Y-60621428D01*
X38257142Y-60750000D01*
X38214285Y-60835714D01*
X38128571Y-60878571D01*
X38085714Y-60878571D01*
X38000000Y-60835714D01*
X37957142Y-60750000D01*
X37957142Y-60621428D01*
X38000000Y-60535714D01*
X38085714Y-59121428D02*
X38085714Y-59421428D01*
X38557142Y-59421428D02*
X37657142Y-59421428D01*
X37657142Y-58992857D01*
X38557142Y-58521428D02*
X38514285Y-58607142D01*
X38471428Y-58650000D01*
X38385714Y-58692857D01*
X38128571Y-58692857D01*
X38042857Y-58650000D01*
X38000000Y-58607142D01*
X37957142Y-58521428D01*
X37957142Y-58392857D01*
X38000000Y-58307142D01*
X38042857Y-58264285D01*
X38128571Y-58221428D01*
X38385714Y-58221428D01*
X38471428Y-58264285D01*
X38514285Y-58307142D01*
X38557142Y-58392857D01*
X38557142Y-58521428D01*
X38557142Y-57835714D02*
X37957142Y-57835714D01*
X38128571Y-57835714D02*
X38042857Y-57792857D01*
X38000000Y-57750000D01*
X37957142Y-57664285D01*
X37957142Y-57578571D01*
X38557142Y-56592857D02*
X37657142Y-56592857D01*
X37657142Y-56250000D01*
X37700000Y-56164285D01*
X37742857Y-56121428D01*
X37828571Y-56078571D01*
X37957142Y-56078571D01*
X38042857Y-56121428D01*
X38085714Y-56164285D01*
X38128571Y-56250000D01*
X38128571Y-56592857D01*
X38557142Y-55692857D02*
X37957142Y-55692857D01*
X37657142Y-55692857D02*
X37700000Y-55735714D01*
X37742857Y-55692857D01*
X37700000Y-55650000D01*
X37657142Y-55692857D01*
X37742857Y-55692857D01*
X38514285Y-54878571D02*
X38557142Y-54964285D01*
X38557142Y-55135714D01*
X38514285Y-55221428D01*
X38471428Y-55264285D01*
X38385714Y-55307142D01*
X38128571Y-55307142D01*
X38042857Y-55264285D01*
X38000000Y-55221428D01*
X37957142Y-55135714D01*
X37957142Y-54964285D01*
X38000000Y-54878571D01*
X38557142Y-54492857D02*
X37657142Y-54492857D01*
X38557142Y-53978571D02*
X38042857Y-54364285D01*
X37657142Y-53978571D02*
X38171428Y-54492857D01*
X38557142Y-53592857D02*
X37957142Y-53592857D01*
X37657142Y-53592857D02*
X37700000Y-53635714D01*
X37742857Y-53592857D01*
X37700000Y-53550000D01*
X37657142Y-53592857D01*
X37742857Y-53592857D01*
X37957142Y-53292857D02*
X37957142Y-52950000D01*
X37657142Y-53164285D02*
X38428571Y-53164285D01*
X38514285Y-53121428D01*
X38557142Y-53035714D01*
X38557142Y-52950000D01*
X37657142Y-52735714D02*
X37657142Y-52178571D01*
X38000000Y-52478571D01*
X38000000Y-52350000D01*
X38042857Y-52264285D01*
X38085714Y-52221428D01*
X38171428Y-52178571D01*
X38385714Y-52178571D01*
X38471428Y-52221428D01*
X38514285Y-52264285D01*
X38557142Y-52350000D01*
X38557142Y-52607142D01*
X38514285Y-52692857D01*
X38471428Y-52735714D01*
X38557142Y-49757142D02*
X37657142Y-49757142D01*
X38300000Y-49457142D01*
X37657142Y-49157142D01*
X38557142Y-49157142D01*
X38557142Y-48600000D02*
X38514285Y-48685714D01*
X38471428Y-48728571D01*
X38385714Y-48771428D01*
X38128571Y-48771428D01*
X38042857Y-48728571D01*
X38000000Y-48685714D01*
X37957142Y-48600000D01*
X37957142Y-48471428D01*
X38000000Y-48385714D01*
X38042857Y-48342857D01*
X38128571Y-48300000D01*
X38385714Y-48300000D01*
X38471428Y-48342857D01*
X38514285Y-48385714D01*
X38557142Y-48471428D01*
X38557142Y-48600000D01*
X38557142Y-47528571D02*
X37657142Y-47528571D01*
X38514285Y-47528571D02*
X38557142Y-47614285D01*
X38557142Y-47785714D01*
X38514285Y-47871428D01*
X38471428Y-47914285D01*
X38385714Y-47957142D01*
X38128571Y-47957142D01*
X38042857Y-47914285D01*
X38000000Y-47871428D01*
X37957142Y-47785714D01*
X37957142Y-47614285D01*
X38000000Y-47528571D01*
X38514285Y-46757142D02*
X38557142Y-46842857D01*
X38557142Y-47014285D01*
X38514285Y-47100000D01*
X38428571Y-47142857D01*
X38085714Y-47142857D01*
X38000000Y-47100000D01*
X37957142Y-47014285D01*
X37957142Y-46842857D01*
X38000000Y-46757142D01*
X38085714Y-46714285D01*
X38171428Y-46714285D01*
X38257142Y-47142857D01*
X38514285Y-45685714D02*
X38557142Y-45557142D01*
X38557142Y-45342857D01*
X38514285Y-45257142D01*
X38471428Y-45214285D01*
X38385714Y-45171428D01*
X38300000Y-45171428D01*
X38214285Y-45214285D01*
X38171428Y-45257142D01*
X38128571Y-45342857D01*
X38085714Y-45514285D01*
X38042857Y-45600000D01*
X38000000Y-45642857D01*
X37914285Y-45685714D01*
X37828571Y-45685714D01*
X37742857Y-45642857D01*
X37700000Y-45600000D01*
X37657142Y-45514285D01*
X37657142Y-45300000D01*
X37700000Y-45171428D01*
X37957142Y-44871428D02*
X38557142Y-44700000D01*
X38128571Y-44528571D01*
X38557142Y-44357142D01*
X37957142Y-44185714D01*
X38557142Y-43842857D02*
X37957142Y-43842857D01*
X37657142Y-43842857D02*
X37700000Y-43885714D01*
X37742857Y-43842857D01*
X37700000Y-43800000D01*
X37657142Y-43842857D01*
X37742857Y-43842857D01*
X37957142Y-43542857D02*
X37957142Y-43200000D01*
X37657142Y-43414285D02*
X38428571Y-43414285D01*
X38514285Y-43371428D01*
X38557142Y-43285714D01*
X38557142Y-43200000D01*
X38514285Y-42514285D02*
X38557142Y-42600000D01*
X38557142Y-42771428D01*
X38514285Y-42857142D01*
X38471428Y-42900000D01*
X38385714Y-42942857D01*
X38128571Y-42942857D01*
X38042857Y-42900000D01*
X38000000Y-42857142D01*
X37957142Y-42771428D01*
X37957142Y-42600000D01*
X38000000Y-42514285D01*
X38557142Y-42128571D02*
X37657142Y-42128571D01*
X38557142Y-41742857D02*
X38085714Y-41742857D01*
X38000000Y-41785714D01*
X37957142Y-41871428D01*
X37957142Y-42000000D01*
X38000000Y-42085714D01*
X38042857Y-42128571D01*
D11*
X40061904Y-49145238D02*
X39528571Y-49145238D01*
X39680952Y-49145238D02*
X39604761Y-49107142D01*
X39566666Y-49069047D01*
X39528571Y-48992857D01*
X39528571Y-48916666D01*
X39528571Y-48307142D02*
X40061904Y-48307142D01*
X39528571Y-48650000D02*
X39947619Y-48650000D01*
X40023809Y-48611904D01*
X40061904Y-48535714D01*
X40061904Y-48421428D01*
X40023809Y-48345238D01*
X39985714Y-48307142D01*
X39528571Y-47926190D02*
X40061904Y-47926190D01*
X39604761Y-47926190D02*
X39566666Y-47888095D01*
X39528571Y-47811904D01*
X39528571Y-47697619D01*
X39566666Y-47621428D01*
X39642857Y-47583333D01*
X40061904Y-47583333D01*
X39871428Y-47088095D02*
X39871428Y-46707142D01*
X39642857Y-47088095D02*
X39642857Y-46707142D01*
X39947619Y-47011904D02*
X39757142Y-47202380D01*
X39566666Y-47011904D01*
X39566666Y-46783333D02*
X39757142Y-46592857D01*
X39947619Y-46783333D01*
X39528571Y-45869047D02*
X40061904Y-45869047D01*
X39528571Y-46211904D02*
X39947619Y-46211904D01*
X40023809Y-46173809D01*
X40061904Y-46097619D01*
X40061904Y-45983333D01*
X40023809Y-45907142D01*
X39985714Y-45869047D01*
X39528571Y-45488095D02*
X40328571Y-45488095D01*
X39566666Y-45488095D02*
X39528571Y-45411904D01*
X39528571Y-45259523D01*
X39566666Y-45183333D01*
X39604761Y-45145238D01*
X39680952Y-45107142D01*
X39909523Y-45107142D01*
X39985714Y-45145238D01*
X40023809Y-45183333D01*
X40061904Y-45259523D01*
X40061904Y-45411904D01*
X40023809Y-45488095D01*
X40061904Y-44650000D02*
X40023809Y-44726190D01*
X39947619Y-44764285D01*
X39261904Y-44764285D01*
X40061904Y-44230952D02*
X40023809Y-44307142D01*
X39985714Y-44345238D01*
X39909523Y-44383333D01*
X39680952Y-44383333D01*
X39604761Y-44345238D01*
X39566666Y-44307142D01*
X39528571Y-44230952D01*
X39528571Y-44116666D01*
X39566666Y-44040476D01*
X39604761Y-44002380D01*
X39680952Y-43964285D01*
X39909523Y-43964285D01*
X39985714Y-44002380D01*
X40023809Y-44040476D01*
X40061904Y-44116666D01*
X40061904Y-44230952D01*
X40061904Y-43278571D02*
X39642857Y-43278571D01*
X39566666Y-43316666D01*
X39528571Y-43392857D01*
X39528571Y-43545238D01*
X39566666Y-43621428D01*
X40023809Y-43278571D02*
X40061904Y-43354761D01*
X40061904Y-43545238D01*
X40023809Y-43621428D01*
X39947619Y-43659523D01*
X39871428Y-43659523D01*
X39795238Y-43621428D01*
X39757142Y-43545238D01*
X39757142Y-43354761D01*
X39719047Y-43278571D01*
X40061904Y-42554761D02*
X39261904Y-42554761D01*
X40023809Y-42554761D02*
X40061904Y-42630952D01*
X40061904Y-42783333D01*
X40023809Y-42859523D01*
X39985714Y-42897619D01*
X39909523Y-42935714D01*
X39680952Y-42935714D01*
X39604761Y-42897619D01*
X39566666Y-42859523D01*
X39528571Y-42783333D01*
X39528571Y-42630952D01*
X39566666Y-42554761D01*
X40135714Y-63721428D02*
X40173809Y-63759523D01*
X40211904Y-63873809D01*
X40211904Y-63950000D01*
X40173809Y-64064285D01*
X40097619Y-64140476D01*
X40021428Y-64178571D01*
X39869047Y-64216666D01*
X39754761Y-64216666D01*
X39602380Y-64178571D01*
X39526190Y-64140476D01*
X39450000Y-64064285D01*
X39411904Y-63950000D01*
X39411904Y-63873809D01*
X39450000Y-63759523D01*
X39488095Y-63721428D01*
X40211904Y-62997619D02*
X40211904Y-63378571D01*
X39411904Y-63378571D01*
X40211904Y-62730952D02*
X39411904Y-62730952D01*
X40211904Y-62273809D02*
X39754761Y-62616666D01*
X39411904Y-62273809D02*
X39869047Y-62730952D01*
X40211904Y-61321428D02*
X39411904Y-61321428D01*
X39411904Y-61130952D01*
X39450000Y-61016666D01*
X39526190Y-60940476D01*
X39602380Y-60902380D01*
X39754761Y-60864285D01*
X39869047Y-60864285D01*
X40021428Y-60902380D01*
X40097619Y-60940476D01*
X40173809Y-61016666D01*
X40211904Y-61130952D01*
X40211904Y-61321428D01*
X39983333Y-60559523D02*
X39983333Y-60178571D01*
X40211904Y-60635714D02*
X39411904Y-60369047D01*
X40211904Y-60102380D01*
X39411904Y-59950000D02*
X39411904Y-59492857D01*
X40211904Y-59721428D02*
X39411904Y-59721428D01*
X39411904Y-58730952D02*
X40211904Y-58464285D01*
X39411904Y-58197619D01*
X40173809Y-57969047D02*
X40211904Y-57854761D01*
X40211904Y-57664285D01*
X40173809Y-57588095D01*
X40135714Y-57550000D01*
X40059523Y-57511904D01*
X39983333Y-57511904D01*
X39907142Y-57550000D01*
X39869047Y-57588095D01*
X39830952Y-57664285D01*
X39792857Y-57816666D01*
X39754761Y-57892857D01*
X39716666Y-57930952D01*
X39640476Y-57969047D01*
X39564285Y-57969047D01*
X39488095Y-57930952D01*
X39450000Y-57892857D01*
X39411904Y-57816666D01*
X39411904Y-57626190D01*
X39450000Y-57511904D01*
X40173809Y-57207142D02*
X40211904Y-57092857D01*
X40211904Y-56902380D01*
X40173809Y-56826190D01*
X40135714Y-56788095D01*
X40059523Y-56750000D01*
X39983333Y-56750000D01*
X39907142Y-56788095D01*
X39869047Y-56826190D01*
X39830952Y-56902380D01*
X39792857Y-57054761D01*
X39754761Y-57130952D01*
X39716666Y-57169047D01*
X39640476Y-57207142D01*
X39564285Y-57207142D01*
X39488095Y-57169047D01*
X39450000Y-57130952D01*
X39411904Y-57054761D01*
X39411904Y-56864285D01*
X39450000Y-56750000D01*
X39411904Y-55911904D02*
X40211904Y-55645238D01*
X39411904Y-55378571D01*
X40211904Y-55111904D02*
X39411904Y-55111904D01*
X39411904Y-54921428D01*
X39450000Y-54807142D01*
X39526190Y-54730952D01*
X39602380Y-54692857D01*
X39754761Y-54654761D01*
X39869047Y-54654761D01*
X40021428Y-54692857D01*
X40097619Y-54730952D01*
X40173809Y-54807142D01*
X40211904Y-54921428D01*
X40211904Y-55111904D01*
X40211904Y-54311904D02*
X39411904Y-54311904D01*
X39411904Y-54121428D01*
X39450000Y-54007142D01*
X39526190Y-53930952D01*
X39602380Y-53892857D01*
X39754761Y-53854761D01*
X39869047Y-53854761D01*
X40021428Y-53892857D01*
X40097619Y-53930952D01*
X40173809Y-54007142D01*
X40211904Y-54121428D01*
X40211904Y-54311904D01*
X40211904Y-52902380D02*
X39411904Y-52902380D01*
X39983333Y-52635714D01*
X39411904Y-52369047D01*
X40211904Y-52369047D01*
X40135714Y-51530952D02*
X40173809Y-51569047D01*
X40211904Y-51683333D01*
X40211904Y-51759523D01*
X40173809Y-51873809D01*
X40097619Y-51950000D01*
X40021428Y-51988095D01*
X39869047Y-52026190D01*
X39754761Y-52026190D01*
X39602380Y-51988095D01*
X39526190Y-51950000D01*
X39450000Y-51873809D01*
X39411904Y-51759523D01*
X39411904Y-51683333D01*
X39450000Y-51569047D01*
X39488095Y-51530952D01*
X40211904Y-50807142D02*
X40211904Y-51188095D01*
X39411904Y-51188095D01*
D12*
X44157142Y-38952380D02*
X43680952Y-38952380D01*
X43633333Y-39428571D01*
X43680952Y-39380952D01*
X43776190Y-39333333D01*
X44014285Y-39333333D01*
X44109523Y-39380952D01*
X44157142Y-39428571D01*
X44204761Y-39523809D01*
X44204761Y-39761904D01*
X44157142Y-39857142D01*
X44109523Y-39904761D01*
X44014285Y-39952380D01*
X43776190Y-39952380D01*
X43680952Y-39904761D01*
X43633333Y-39857142D01*
X44490476Y-38952380D02*
X44823809Y-39952380D01*
X45157142Y-38952380D01*
X46776190Y-39000000D02*
X46680952Y-38952380D01*
X46538095Y-38952380D01*
X46395238Y-39000000D01*
X46300000Y-39095238D01*
X46252380Y-39190476D01*
X46204761Y-39380952D01*
X46204761Y-39523809D01*
X46252380Y-39714285D01*
X46300000Y-39809523D01*
X46395238Y-39904761D01*
X46538095Y-39952380D01*
X46633333Y-39952380D01*
X46776190Y-39904761D01*
X46823809Y-39857142D01*
X46823809Y-39523809D01*
X46633333Y-39523809D01*
X47252380Y-39952380D02*
X47252380Y-38952380D01*
X47823809Y-39952380D01*
X47823809Y-38952380D01*
X48300000Y-39952380D02*
X48300000Y-38952380D01*
X48538095Y-38952380D01*
X48680952Y-39000000D01*
X48776190Y-39095238D01*
X48823809Y-39190476D01*
X48871428Y-39380952D01*
X48871428Y-39523809D01*
X48823809Y-39714285D01*
X48776190Y-39809523D01*
X48680952Y-39904761D01*
X48538095Y-39952380D01*
X48300000Y-39952380D01*
X50014285Y-39904761D02*
X50157142Y-39952380D01*
X50395238Y-39952380D01*
X50490476Y-39904761D01*
X50538095Y-39857142D01*
X50585714Y-39761904D01*
X50585714Y-39666666D01*
X50538095Y-39571428D01*
X50490476Y-39523809D01*
X50395238Y-39476190D01*
X50204761Y-39428571D01*
X50109523Y-39380952D01*
X50061904Y-39333333D01*
X50014285Y-39238095D01*
X50014285Y-39142857D01*
X50061904Y-39047619D01*
X50109523Y-39000000D01*
X50204761Y-38952380D01*
X50442857Y-38952380D01*
X50585714Y-39000000D01*
X51585714Y-39857142D02*
X51538095Y-39904761D01*
X51395238Y-39952380D01*
X51300000Y-39952380D01*
X51157142Y-39904761D01*
X51061904Y-39809523D01*
X51014285Y-39714285D01*
X50966666Y-39523809D01*
X50966666Y-39380952D01*
X51014285Y-39190476D01*
X51061904Y-39095238D01*
X51157142Y-39000000D01*
X51300000Y-38952380D01*
X51395238Y-38952380D01*
X51538095Y-39000000D01*
X51585714Y-39047619D01*
X52490476Y-39952380D02*
X52014285Y-39952380D01*
X52014285Y-38952380D01*
X53538095Y-39904761D02*
X53680952Y-39952380D01*
X53919047Y-39952380D01*
X54014285Y-39904761D01*
X54061904Y-39857142D01*
X54109523Y-39761904D01*
X54109523Y-39666666D01*
X54061904Y-39571428D01*
X54014285Y-39523809D01*
X53919047Y-39476190D01*
X53728571Y-39428571D01*
X53633333Y-39380952D01*
X53585714Y-39333333D01*
X53538095Y-39238095D01*
X53538095Y-39142857D01*
X53585714Y-39047619D01*
X53633333Y-39000000D01*
X53728571Y-38952380D01*
X53966666Y-38952380D01*
X54109523Y-39000000D01*
X54538095Y-39952380D02*
X54538095Y-38952380D01*
X54776190Y-38952380D01*
X54919047Y-39000000D01*
X55014285Y-39095238D01*
X55061904Y-39190476D01*
X55109523Y-39380952D01*
X55109523Y-39523809D01*
X55061904Y-39714285D01*
X55014285Y-39809523D01*
X54919047Y-39904761D01*
X54776190Y-39952380D01*
X54538095Y-39952380D01*
X55490476Y-39666666D02*
X55966666Y-39666666D01*
X55395238Y-39952380D02*
X55728571Y-38952380D01*
X56061904Y-39952380D01*
X62852380Y-56004761D02*
X62947619Y-56052380D01*
X63138095Y-56052380D01*
X63233333Y-56004761D01*
X63280952Y-55909523D01*
X63280952Y-55861904D01*
X63233333Y-55766666D01*
X63138095Y-55719047D01*
X62995238Y-55719047D01*
X62900000Y-55671428D01*
X62852380Y-55576190D01*
X62852380Y-55528571D01*
X62900000Y-55433333D01*
X62995238Y-55385714D01*
X63138095Y-55385714D01*
X63233333Y-55433333D01*
X63566666Y-55385714D02*
X63947619Y-55385714D01*
X63709523Y-55052380D02*
X63709523Y-55909523D01*
X63757142Y-56004761D01*
X63852380Y-56052380D01*
X63947619Y-56052380D01*
X64709523Y-56052380D02*
X64709523Y-55528571D01*
X64661904Y-55433333D01*
X64566666Y-55385714D01*
X64376190Y-55385714D01*
X64280952Y-55433333D01*
X64709523Y-56004761D02*
X64614285Y-56052380D01*
X64376190Y-56052380D01*
X64280952Y-56004761D01*
X64233333Y-55909523D01*
X64233333Y-55814285D01*
X64280952Y-55719047D01*
X64376190Y-55671428D01*
X64614285Y-55671428D01*
X64709523Y-55623809D01*
X65185714Y-56052380D02*
X65185714Y-55385714D01*
X65185714Y-55576190D02*
X65233333Y-55480952D01*
X65280952Y-55433333D01*
X65376190Y-55385714D01*
X65471428Y-55385714D01*
X65661904Y-55385714D02*
X66042857Y-55385714D01*
X65804761Y-55052380D02*
X65804761Y-55909523D01*
X65852380Y-56004761D01*
X65947619Y-56052380D01*
X66042857Y-56052380D01*
X50185714Y-74304761D02*
X50328571Y-74352380D01*
X50566666Y-74352380D01*
X50661904Y-74304761D01*
X50709523Y-74257142D01*
X50757142Y-74161904D01*
X50757142Y-74066666D01*
X50709523Y-73971428D01*
X50661904Y-73923809D01*
X50566666Y-73876190D01*
X50376190Y-73828571D01*
X50280952Y-73780952D01*
X50233333Y-73733333D01*
X50185714Y-73638095D01*
X50185714Y-73542857D01*
X50233333Y-73447619D01*
X50280952Y-73400000D01*
X50376190Y-73352380D01*
X50614285Y-73352380D01*
X50757142Y-73400000D01*
X51042857Y-73352380D02*
X51614285Y-73352380D01*
X51328571Y-74352380D02*
X51328571Y-73352380D01*
X51900000Y-74066666D02*
X52376190Y-74066666D01*
X51804761Y-74352380D02*
X52138095Y-73352380D01*
X52471428Y-74352380D01*
X52661904Y-73352380D02*
X53233333Y-73352380D01*
X52947619Y-74352380D02*
X52947619Y-73352380D01*
X53566666Y-73352380D02*
X53566666Y-74161904D01*
X53614285Y-74257142D01*
X53661904Y-74304761D01*
X53757142Y-74352380D01*
X53947619Y-74352380D01*
X54042857Y-74304761D01*
X54090476Y-74257142D01*
X54138095Y-74161904D01*
X54138095Y-73352380D01*
X54566666Y-74304761D02*
X54709523Y-74352380D01*
X54947619Y-74352380D01*
X55042857Y-74304761D01*
X55090476Y-74257142D01*
X55138095Y-74161904D01*
X55138095Y-74066666D01*
X55090476Y-73971428D01*
X55042857Y-73923809D01*
X54947619Y-73876190D01*
X54757142Y-73828571D01*
X54661904Y-73780952D01*
X54614285Y-73733333D01*
X54566666Y-73638095D01*
X54566666Y-73542857D01*
X54614285Y-73447619D01*
X54661904Y-73400000D01*
X54757142Y-73352380D01*
X54995238Y-73352380D01*
X55138095Y-73400000D01*
X56804761Y-74352380D02*
X56328571Y-74352380D01*
X56328571Y-73352380D01*
X57138095Y-73828571D02*
X57471428Y-73828571D01*
X57614285Y-74352380D02*
X57138095Y-74352380D01*
X57138095Y-73352380D01*
X57614285Y-73352380D01*
X58042857Y-74352380D02*
X58042857Y-73352380D01*
X58280952Y-73352380D01*
X58423809Y-73400000D01*
X58519047Y-73495238D01*
X58566666Y-73590476D01*
X58614285Y-73780952D01*
X58614285Y-73923809D01*
X58566666Y-74114285D01*
X58519047Y-74209523D01*
X58423809Y-74304761D01*
X58280952Y-74352380D01*
X58042857Y-74352380D01*
D10*
G04 #@! TO.C,D1*
X61610000Y-67455000D02*
X61610000Y-70545000D01*
X66670000Y-69000000D02*
G75*
G03X66670000Y-69000000I-2500000J0D01*
G01*
X67160000Y-68999538D02*
G75*
G02X61610000Y-70544830I-2990000J-462D01*
G01*
X67160000Y-69000462D02*
G75*
G03X61610000Y-67455170I-2990000J462D01*
G01*
G04 #@! TO.C,D2*
X60660000Y-69000462D02*
G75*
G03X55110000Y-67455170I-2990000J462D01*
G01*
X60660000Y-68999538D02*
G75*
G02X55110000Y-70544830I-2990000J-462D01*
G01*
X60170000Y-69000000D02*
G75*
G03X60170000Y-69000000I-2500000J0D01*
G01*
X55110000Y-67455000D02*
X55110000Y-70545000D01*
G04 #@! TO.C,D3*
X48610000Y-67455000D02*
X48610000Y-70545000D01*
X53670000Y-69000000D02*
G75*
G03X53670000Y-69000000I-2500000J0D01*
G01*
X54160000Y-68999538D02*
G75*
G02X48610000Y-70544830I-2990000J-462D01*
G01*
X54160000Y-69000462D02*
G75*
G03X48610000Y-67455170I-2990000J462D01*
G01*
G04 #@! TO.C,D4*
X47660000Y-69000462D02*
G75*
G03X42110000Y-67455170I-2990000J462D01*
G01*
X47660000Y-68999538D02*
G75*
G02X42110000Y-70544830I-2990000J-462D01*
G01*
X47170000Y-69000000D02*
G75*
G03X47170000Y-69000000I-2500000J0D01*
G01*
X42110000Y-67455000D02*
X42110000Y-70545000D01*
G04 #@! TO.C,D5*
X67090000Y-61145000D02*
X67090000Y-58055000D01*
X67030000Y-59600000D02*
G75*
G03X67030000Y-59600000I-2500000J0D01*
G01*
X61540000Y-59600462D02*
G75*
G02X67090000Y-58055170I2990000J462D01*
G01*
X61540000Y-59599538D02*
G75*
G03X67090000Y-61144830I2990000J-462D01*
G01*
G04 #@! TO.C,J1*
X47570000Y-43530000D02*
X47570000Y-40870000D01*
X47570000Y-43530000D02*
X55250000Y-43530000D01*
X55250000Y-43530000D02*
X55250000Y-40870000D01*
X47570000Y-40870000D02*
X55250000Y-40870000D01*
X44970000Y-40870000D02*
X46300000Y-40870000D01*
X44970000Y-42200000D02*
X44970000Y-40870000D01*
G04 #@! TO.C,J3*
X66870000Y-41380000D02*
X69530000Y-41380000D01*
X66870000Y-41260000D02*
X66870000Y-41380000D01*
X69530000Y-41260000D02*
X69530000Y-41380000D01*
X69530000Y-38720000D02*
X69530000Y-40050000D01*
X68200000Y-38720000D02*
X69530000Y-38720000D01*
G04 #@! TO.C,R1*
X57640000Y-40860000D02*
X57640000Y-40530000D01*
X57640000Y-40530000D02*
X64180000Y-40530000D01*
X64180000Y-40530000D02*
X64180000Y-40860000D01*
X57640000Y-42940000D02*
X57640000Y-43270000D01*
X57640000Y-43270000D02*
X64180000Y-43270000D01*
X64180000Y-43270000D02*
X64180000Y-42940000D01*
G04 #@! TO.C,R2*
X64180000Y-46370000D02*
X64180000Y-46040000D01*
X57640000Y-46370000D02*
X64180000Y-46370000D01*
X57640000Y-46040000D02*
X57640000Y-46370000D01*
X64180000Y-43630000D02*
X64180000Y-43960000D01*
X57640000Y-43630000D02*
X64180000Y-43630000D01*
X57640000Y-43960000D02*
X57640000Y-43630000D01*
G04 #@! TO.C,RV1*
X56579000Y-53421000D02*
X56579000Y-48380000D01*
X66620000Y-53421000D02*
X66620000Y-48380000D01*
X56579000Y-48380000D02*
X60175000Y-48380000D01*
X63025000Y-48380000D02*
X66620000Y-48380000D01*
X65525000Y-53421000D02*
X66620000Y-53421000D01*
X56579000Y-53421000D02*
X57674000Y-53421000D01*
X60526000Y-53421000D02*
X62675000Y-53421000D01*
X59980000Y-52063000D02*
X59980000Y-48380000D01*
X63220000Y-52063000D02*
X63220000Y-48380000D01*
X60526000Y-53421000D02*
X62675000Y-53421000D01*
X59980000Y-48380000D02*
X60175000Y-48380000D01*
X63025000Y-48380000D02*
X63220000Y-48380000D01*
G04 #@! TO.C,U1*
X50710000Y-46070000D02*
G75*
G02X48710000Y-46070000I-1000000J0D01*
G01*
X48710000Y-46070000D02*
X47060000Y-46070000D01*
X47060000Y-46070000D02*
X47060000Y-63970000D01*
X47060000Y-63970000D02*
X52360000Y-63970000D01*
X52360000Y-63970000D02*
X52360000Y-46070000D01*
X52360000Y-46070000D02*
X50710000Y-46070000D01*
G04 #@! TO.C,R3*
X68460000Y-59860000D02*
X68130000Y-59860000D01*
X68130000Y-59860000D02*
X68130000Y-53320000D01*
X68130000Y-53320000D02*
X68460000Y-53320000D01*
X70540000Y-59860000D02*
X70870000Y-59860000D01*
X70870000Y-59860000D02*
X70870000Y-53320000D01*
X70870000Y-53320000D02*
X70540000Y-53320000D01*
G04 #@! TO.C,R4*
X73870000Y-53320000D02*
X73540000Y-53320000D01*
X73870000Y-59860000D02*
X73870000Y-53320000D01*
X73540000Y-59860000D02*
X73870000Y-59860000D01*
X71130000Y-53320000D02*
X71460000Y-53320000D01*
X71130000Y-59860000D02*
X71130000Y-53320000D01*
X71460000Y-59860000D02*
X71130000Y-59860000D01*
G04 #@! TO.C,R5*
X74460000Y-59860000D02*
X74130000Y-59860000D01*
X74130000Y-59860000D02*
X74130000Y-53320000D01*
X74130000Y-53320000D02*
X74460000Y-53320000D01*
X76540000Y-59860000D02*
X76870000Y-59860000D01*
X76870000Y-59860000D02*
X76870000Y-53320000D01*
X76870000Y-53320000D02*
X76540000Y-53320000D01*
G04 #@! TO.C,R6*
X70870000Y-63320000D02*
X70540000Y-63320000D01*
X70870000Y-69860000D02*
X70870000Y-63320000D01*
X70540000Y-69860000D02*
X70870000Y-69860000D01*
X68130000Y-63320000D02*
X68460000Y-63320000D01*
X68130000Y-69860000D02*
X68130000Y-63320000D01*
X68460000Y-69860000D02*
X68130000Y-69860000D01*
G04 #@! TO.C,R7*
X71510000Y-69860000D02*
X71180000Y-69860000D01*
X71180000Y-69860000D02*
X71180000Y-63320000D01*
X71180000Y-63320000D02*
X71510000Y-63320000D01*
X73590000Y-69860000D02*
X73920000Y-69860000D01*
X73920000Y-69860000D02*
X73920000Y-63320000D01*
X73920000Y-63320000D02*
X73590000Y-63320000D01*
G04 #@! TO.C,SW1*
X74670000Y-47390000D02*
G75*
G03X74670000Y-47390000I-2560000J0D01*
G01*
X68440000Y-43700000D02*
X68440000Y-43620000D01*
X68440000Y-43620000D02*
X75780000Y-43620000D01*
X75780000Y-43620000D02*
X75780000Y-43700000D01*
X68440000Y-51080000D02*
X68440000Y-51160000D01*
X68440000Y-51160000D02*
X75780000Y-51160000D01*
X75780000Y-51160000D02*
X75780000Y-51080000D01*
X68440000Y-46000000D02*
X68440000Y-46240000D01*
X68440000Y-48540000D02*
X68440000Y-48780000D01*
X75780000Y-46000000D02*
X75780000Y-46240000D01*
X75780000Y-48540000D02*
X75780000Y-48780000D01*
X66880000Y-44740000D02*
X66880000Y-43370000D01*
X66880000Y-43370000D02*
X68250000Y-43370000D01*
X72110000Y-45470000D02*
X72110000Y-49310000D01*
X70830000Y-46750000D02*
X72110000Y-45470000D01*
X72110000Y-45470000D02*
X73390000Y-46750000D01*
G04 #@! TO.C,SW2*
X43780000Y-41940000D02*
X41120000Y-41940000D01*
X43780000Y-47080000D02*
X43780000Y-41940000D01*
X41120000Y-47080000D02*
X41120000Y-41940000D01*
X43780000Y-47080000D02*
X41120000Y-47080000D01*
X43780000Y-48350000D02*
X43780000Y-49680000D01*
X43780000Y-49680000D02*
X42450000Y-49680000D01*
G04 #@! TO.C,J2*
X41120000Y-53620000D02*
X43780000Y-53620000D01*
X41120000Y-53620000D02*
X41120000Y-63840000D01*
X41120000Y-63840000D02*
X43780000Y-63840000D01*
X43780000Y-53620000D02*
X43780000Y-63840000D01*
X43780000Y-51020000D02*
X43780000Y-52350000D01*
X42450000Y-51020000D02*
X43780000Y-51020000D01*
G04 #@! TO.C,J4*
X60870000Y-39630000D02*
X60870000Y-36970000D01*
X60870000Y-39630000D02*
X63470000Y-39630000D01*
X63470000Y-39630000D02*
X63470000Y-36970000D01*
X60870000Y-36970000D02*
X63470000Y-36970000D01*
X58270000Y-36970000D02*
X59600000Y-36970000D01*
X58270000Y-38300000D02*
X58270000Y-36970000D01*
G04 #@! TO.C,D1*
D12*
X63431904Y-65492380D02*
X63431904Y-64492380D01*
X63670000Y-64492380D01*
X63812857Y-64540000D01*
X63908095Y-64635238D01*
X63955714Y-64730476D01*
X64003333Y-64920952D01*
X64003333Y-65063809D01*
X63955714Y-65254285D01*
X63908095Y-65349523D01*
X63812857Y-65444761D01*
X63670000Y-65492380D01*
X63431904Y-65492380D01*
X64955714Y-65492380D02*
X64384285Y-65492380D01*
X64670000Y-65492380D02*
X64670000Y-64492380D01*
X64574761Y-64635238D01*
X64479523Y-64730476D01*
X64384285Y-64778095D01*
G04 #@! TO.C,D2*
X56931904Y-65492380D02*
X56931904Y-64492380D01*
X57170000Y-64492380D01*
X57312857Y-64540000D01*
X57408095Y-64635238D01*
X57455714Y-64730476D01*
X57503333Y-64920952D01*
X57503333Y-65063809D01*
X57455714Y-65254285D01*
X57408095Y-65349523D01*
X57312857Y-65444761D01*
X57170000Y-65492380D01*
X56931904Y-65492380D01*
X57884285Y-64587619D02*
X57931904Y-64540000D01*
X58027142Y-64492380D01*
X58265238Y-64492380D01*
X58360476Y-64540000D01*
X58408095Y-64587619D01*
X58455714Y-64682857D01*
X58455714Y-64778095D01*
X58408095Y-64920952D01*
X57836666Y-65492380D01*
X58455714Y-65492380D01*
G04 #@! TO.C,D3*
X50431904Y-65492380D02*
X50431904Y-64492380D01*
X50670000Y-64492380D01*
X50812857Y-64540000D01*
X50908095Y-64635238D01*
X50955714Y-64730476D01*
X51003333Y-64920952D01*
X51003333Y-65063809D01*
X50955714Y-65254285D01*
X50908095Y-65349523D01*
X50812857Y-65444761D01*
X50670000Y-65492380D01*
X50431904Y-65492380D01*
X51336666Y-64492380D02*
X51955714Y-64492380D01*
X51622380Y-64873333D01*
X51765238Y-64873333D01*
X51860476Y-64920952D01*
X51908095Y-64968571D01*
X51955714Y-65063809D01*
X51955714Y-65301904D01*
X51908095Y-65397142D01*
X51860476Y-65444761D01*
X51765238Y-65492380D01*
X51479523Y-65492380D01*
X51384285Y-65444761D01*
X51336666Y-65397142D01*
G04 #@! TO.C,D4*
X43931904Y-65492380D02*
X43931904Y-64492380D01*
X44170000Y-64492380D01*
X44312857Y-64540000D01*
X44408095Y-64635238D01*
X44455714Y-64730476D01*
X44503333Y-64920952D01*
X44503333Y-65063809D01*
X44455714Y-65254285D01*
X44408095Y-65349523D01*
X44312857Y-65444761D01*
X44170000Y-65492380D01*
X43931904Y-65492380D01*
X45360476Y-64825714D02*
X45360476Y-65492380D01*
X45122380Y-64444761D02*
X44884285Y-65159047D01*
X45503333Y-65159047D01*
G04 #@! TO.C,D5*
X63791904Y-64012380D02*
X63791904Y-63012380D01*
X64030000Y-63012380D01*
X64172857Y-63060000D01*
X64268095Y-63155238D01*
X64315714Y-63250476D01*
X64363333Y-63440952D01*
X64363333Y-63583809D01*
X64315714Y-63774285D01*
X64268095Y-63869523D01*
X64172857Y-63964761D01*
X64030000Y-64012380D01*
X63791904Y-64012380D01*
X65268095Y-63012380D02*
X64791904Y-63012380D01*
X64744285Y-63488571D01*
X64791904Y-63440952D01*
X64887142Y-63393333D01*
X65125238Y-63393333D01*
X65220476Y-63440952D01*
X65268095Y-63488571D01*
X65315714Y-63583809D01*
X65315714Y-63821904D01*
X65268095Y-63917142D01*
X65220476Y-63964761D01*
X65125238Y-64012380D01*
X64887142Y-64012380D01*
X64791904Y-63964761D01*
X64744285Y-63917142D01*
G04 #@! TO.C,J1*
X46716666Y-43852380D02*
X46716666Y-44566666D01*
X46669047Y-44709523D01*
X46573809Y-44804761D01*
X46430952Y-44852380D01*
X46335714Y-44852380D01*
X47716666Y-44852380D02*
X47145238Y-44852380D01*
X47430952Y-44852380D02*
X47430952Y-43852380D01*
X47335714Y-43995238D01*
X47240476Y-44090476D01*
X47145238Y-44138095D01*
G04 #@! TO.C,J3*
X67866666Y-36732380D02*
X67866666Y-37446666D01*
X67819047Y-37589523D01*
X67723809Y-37684761D01*
X67580952Y-37732380D01*
X67485714Y-37732380D01*
X68247619Y-36732380D02*
X68866666Y-36732380D01*
X68533333Y-37113333D01*
X68676190Y-37113333D01*
X68771428Y-37160952D01*
X68819047Y-37208571D01*
X68866666Y-37303809D01*
X68866666Y-37541904D01*
X68819047Y-37637142D01*
X68771428Y-37684761D01*
X68676190Y-37732380D01*
X68390476Y-37732380D01*
X68295238Y-37684761D01*
X68247619Y-37637142D01*
G04 #@! TO.C,R1*
X62633333Y-40852380D02*
X62300000Y-40376190D01*
X62061904Y-40852380D02*
X62061904Y-39852380D01*
X62442857Y-39852380D01*
X62538095Y-39900000D01*
X62585714Y-39947619D01*
X62633333Y-40042857D01*
X62633333Y-40185714D01*
X62585714Y-40280952D01*
X62538095Y-40328571D01*
X62442857Y-40376190D01*
X62061904Y-40376190D01*
X63585714Y-40852380D02*
X63014285Y-40852380D01*
X63300000Y-40852380D02*
X63300000Y-39852380D01*
X63204761Y-39995238D01*
X63109523Y-40090476D01*
X63014285Y-40138095D01*
X60304761Y-42452380D02*
X59733333Y-42452380D01*
X60019047Y-42452380D02*
X60019047Y-41452380D01*
X59923809Y-41595238D01*
X59828571Y-41690476D01*
X59733333Y-41738095D01*
X60923809Y-41452380D02*
X61019047Y-41452380D01*
X61114285Y-41500000D01*
X61161904Y-41547619D01*
X61209523Y-41642857D01*
X61257142Y-41833333D01*
X61257142Y-42071428D01*
X61209523Y-42261904D01*
X61161904Y-42357142D01*
X61114285Y-42404761D01*
X61019047Y-42452380D01*
X60923809Y-42452380D01*
X60828571Y-42404761D01*
X60780952Y-42357142D01*
X60733333Y-42261904D01*
X60685714Y-42071428D01*
X60685714Y-41833333D01*
X60733333Y-41642857D01*
X60780952Y-41547619D01*
X60828571Y-41500000D01*
X60923809Y-41452380D01*
X61685714Y-42452380D02*
X61685714Y-41452380D01*
X61780952Y-42071428D02*
X62066666Y-42452380D01*
X62066666Y-41785714D02*
X61685714Y-42166666D01*
G04 #@! TO.C,R2*
X62633333Y-43852380D02*
X62300000Y-43376190D01*
X62061904Y-43852380D02*
X62061904Y-42852380D01*
X62442857Y-42852380D01*
X62538095Y-42900000D01*
X62585714Y-42947619D01*
X62633333Y-43042857D01*
X62633333Y-43185714D01*
X62585714Y-43280952D01*
X62538095Y-43328571D01*
X62442857Y-43376190D01*
X62061904Y-43376190D01*
X63014285Y-42947619D02*
X63061904Y-42900000D01*
X63157142Y-42852380D01*
X63395238Y-42852380D01*
X63490476Y-42900000D01*
X63538095Y-42947619D01*
X63585714Y-43042857D01*
X63585714Y-43138095D01*
X63538095Y-43280952D01*
X62966666Y-43852380D01*
X63585714Y-43852380D01*
X60314761Y-45452380D02*
X59743333Y-45452380D01*
X60029047Y-45452380D02*
X60029047Y-44452380D01*
X59933809Y-44595238D01*
X59838571Y-44690476D01*
X59743333Y-44738095D01*
X60933809Y-44452380D02*
X61029047Y-44452380D01*
X61124285Y-44500000D01*
X61171904Y-44547619D01*
X61219523Y-44642857D01*
X61267142Y-44833333D01*
X61267142Y-45071428D01*
X61219523Y-45261904D01*
X61171904Y-45357142D01*
X61124285Y-45404761D01*
X61029047Y-45452380D01*
X60933809Y-45452380D01*
X60838571Y-45404761D01*
X60790952Y-45357142D01*
X60743333Y-45261904D01*
X60695714Y-45071428D01*
X60695714Y-44833333D01*
X60743333Y-44642857D01*
X60790952Y-44547619D01*
X60838571Y-44500000D01*
X60933809Y-44452380D01*
X61695714Y-45452380D02*
X61695714Y-44452380D01*
X61790952Y-45071428D02*
X62076666Y-45452380D01*
X62076666Y-44785714D02*
X61695714Y-45166666D01*
G04 #@! TO.C,RV1*
X56052380Y-52745238D02*
X55576190Y-53078571D01*
X56052380Y-53316666D02*
X55052380Y-53316666D01*
X55052380Y-52935714D01*
X55100000Y-52840476D01*
X55147619Y-52792857D01*
X55242857Y-52745238D01*
X55385714Y-52745238D01*
X55480952Y-52792857D01*
X55528571Y-52840476D01*
X55576190Y-52935714D01*
X55576190Y-53316666D01*
X55052380Y-52459523D02*
X56052380Y-52126190D01*
X55052380Y-51792857D01*
X56052380Y-50935714D02*
X56052380Y-51507142D01*
X56052380Y-51221428D02*
X55052380Y-51221428D01*
X55195238Y-51316666D01*
X55290476Y-51411904D01*
X55338095Y-51507142D01*
G04 #@! TO.C,U1*
X48948095Y-44522380D02*
X48948095Y-45331904D01*
X48995714Y-45427142D01*
X49043333Y-45474761D01*
X49138571Y-45522380D01*
X49329047Y-45522380D01*
X49424285Y-45474761D01*
X49471904Y-45427142D01*
X49519523Y-45331904D01*
X49519523Y-44522380D01*
X50519523Y-45522380D02*
X49948095Y-45522380D01*
X50233809Y-45522380D02*
X50233809Y-44522380D01*
X50138571Y-44665238D01*
X50043333Y-44760476D01*
X49948095Y-44808095D01*
G04 #@! TO.C,R3*
X67902380Y-55416666D02*
X67426190Y-55750000D01*
X67902380Y-55988095D02*
X66902380Y-55988095D01*
X66902380Y-55607142D01*
X66950000Y-55511904D01*
X66997619Y-55464285D01*
X67092857Y-55416666D01*
X67235714Y-55416666D01*
X67330952Y-55464285D01*
X67378571Y-55511904D01*
X67426190Y-55607142D01*
X67426190Y-55988095D01*
X66902380Y-55083333D02*
X66902380Y-54464285D01*
X67283333Y-54797619D01*
X67283333Y-54654761D01*
X67330952Y-54559523D01*
X67378571Y-54511904D01*
X67473809Y-54464285D01*
X67711904Y-54464285D01*
X67807142Y-54511904D01*
X67854761Y-54559523D01*
X67902380Y-54654761D01*
X67902380Y-54940476D01*
X67854761Y-55035714D01*
X67807142Y-55083333D01*
X69952380Y-57185238D02*
X69952380Y-57756666D01*
X69952380Y-57470952D02*
X68952380Y-57470952D01*
X69095238Y-57566190D01*
X69190476Y-57661428D01*
X69238095Y-57756666D01*
X68952380Y-56566190D02*
X68952380Y-56470952D01*
X69000000Y-56375714D01*
X69047619Y-56328095D01*
X69142857Y-56280476D01*
X69333333Y-56232857D01*
X69571428Y-56232857D01*
X69761904Y-56280476D01*
X69857142Y-56328095D01*
X69904761Y-56375714D01*
X69952380Y-56470952D01*
X69952380Y-56566190D01*
X69904761Y-56661428D01*
X69857142Y-56709047D01*
X69761904Y-56756666D01*
X69571428Y-56804285D01*
X69333333Y-56804285D01*
X69142857Y-56756666D01*
X69047619Y-56709047D01*
X69000000Y-56661428D01*
X68952380Y-56566190D01*
X69952380Y-55804285D02*
X68952380Y-55804285D01*
X69571428Y-55709047D02*
X69952380Y-55423333D01*
X69285714Y-55423333D02*
X69666666Y-55804285D01*
G04 #@! TO.C,R4*
X72952380Y-55166666D02*
X72476190Y-55500000D01*
X72952380Y-55738095D02*
X71952380Y-55738095D01*
X71952380Y-55357142D01*
X72000000Y-55261904D01*
X72047619Y-55214285D01*
X72142857Y-55166666D01*
X72285714Y-55166666D01*
X72380952Y-55214285D01*
X72428571Y-55261904D01*
X72476190Y-55357142D01*
X72476190Y-55738095D01*
X72285714Y-54309523D02*
X72952380Y-54309523D01*
X71904761Y-54547619D02*
X72619047Y-54785714D01*
X72619047Y-54166666D01*
X72952380Y-58295238D02*
X72952380Y-58866666D01*
X72952380Y-58580952D02*
X71952380Y-58580952D01*
X72095238Y-58676190D01*
X72190476Y-58771428D01*
X72238095Y-58866666D01*
X71952380Y-57676190D02*
X71952380Y-57580952D01*
X72000000Y-57485714D01*
X72047619Y-57438095D01*
X72142857Y-57390476D01*
X72333333Y-57342857D01*
X72571428Y-57342857D01*
X72761904Y-57390476D01*
X72857142Y-57438095D01*
X72904761Y-57485714D01*
X72952380Y-57580952D01*
X72952380Y-57676190D01*
X72904761Y-57771428D01*
X72857142Y-57819047D01*
X72761904Y-57866666D01*
X72571428Y-57914285D01*
X72333333Y-57914285D01*
X72142857Y-57866666D01*
X72047619Y-57819047D01*
X72000000Y-57771428D01*
X71952380Y-57676190D01*
X72952380Y-56914285D02*
X71952380Y-56914285D01*
X72571428Y-56819047D02*
X72952380Y-56533333D01*
X72285714Y-56533333D02*
X72666666Y-56914285D01*
G04 #@! TO.C,R5*
X75952380Y-55166666D02*
X75476190Y-55500000D01*
X75952380Y-55738095D02*
X74952380Y-55738095D01*
X74952380Y-55357142D01*
X75000000Y-55261904D01*
X75047619Y-55214285D01*
X75142857Y-55166666D01*
X75285714Y-55166666D01*
X75380952Y-55214285D01*
X75428571Y-55261904D01*
X75476190Y-55357142D01*
X75476190Y-55738095D01*
X74952380Y-54261904D02*
X74952380Y-54738095D01*
X75428571Y-54785714D01*
X75380952Y-54738095D01*
X75333333Y-54642857D01*
X75333333Y-54404761D01*
X75380952Y-54309523D01*
X75428571Y-54261904D01*
X75523809Y-54214285D01*
X75761904Y-54214285D01*
X75857142Y-54261904D01*
X75904761Y-54309523D01*
X75952380Y-54404761D01*
X75952380Y-54642857D01*
X75904761Y-54738095D01*
X75857142Y-54785714D01*
X75952380Y-58295238D02*
X75952380Y-58866666D01*
X75952380Y-58580952D02*
X74952380Y-58580952D01*
X75095238Y-58676190D01*
X75190476Y-58771428D01*
X75238095Y-58866666D01*
X74952380Y-57676190D02*
X74952380Y-57580952D01*
X75000000Y-57485714D01*
X75047619Y-57438095D01*
X75142857Y-57390476D01*
X75333333Y-57342857D01*
X75571428Y-57342857D01*
X75761904Y-57390476D01*
X75857142Y-57438095D01*
X75904761Y-57485714D01*
X75952380Y-57580952D01*
X75952380Y-57676190D01*
X75904761Y-57771428D01*
X75857142Y-57819047D01*
X75761904Y-57866666D01*
X75571428Y-57914285D01*
X75333333Y-57914285D01*
X75142857Y-57866666D01*
X75047619Y-57819047D01*
X75000000Y-57771428D01*
X74952380Y-57676190D01*
X75952380Y-56914285D02*
X74952380Y-56914285D01*
X75571428Y-56819047D02*
X75952380Y-56533333D01*
X75285714Y-56533333D02*
X75666666Y-56914285D01*
G04 #@! TO.C,R6*
X67802380Y-64866666D02*
X67326190Y-65200000D01*
X67802380Y-65438095D02*
X66802380Y-65438095D01*
X66802380Y-65057142D01*
X66850000Y-64961904D01*
X66897619Y-64914285D01*
X66992857Y-64866666D01*
X67135714Y-64866666D01*
X67230952Y-64914285D01*
X67278571Y-64961904D01*
X67326190Y-65057142D01*
X67326190Y-65438095D01*
X66802380Y-64009523D02*
X66802380Y-64200000D01*
X66850000Y-64295238D01*
X66897619Y-64342857D01*
X67040476Y-64438095D01*
X67230952Y-64485714D01*
X67611904Y-64485714D01*
X67707142Y-64438095D01*
X67754761Y-64390476D01*
X67802380Y-64295238D01*
X67802380Y-64104761D01*
X67754761Y-64009523D01*
X67707142Y-63961904D01*
X67611904Y-63914285D01*
X67373809Y-63914285D01*
X67278571Y-63961904D01*
X67230952Y-64009523D01*
X67183333Y-64104761D01*
X67183333Y-64295238D01*
X67230952Y-64390476D01*
X67278571Y-64438095D01*
X67373809Y-64485714D01*
X69952380Y-67185238D02*
X69952380Y-67756666D01*
X69952380Y-67470952D02*
X68952380Y-67470952D01*
X69095238Y-67566190D01*
X69190476Y-67661428D01*
X69238095Y-67756666D01*
X68952380Y-66566190D02*
X68952380Y-66470952D01*
X69000000Y-66375714D01*
X69047619Y-66328095D01*
X69142857Y-66280476D01*
X69333333Y-66232857D01*
X69571428Y-66232857D01*
X69761904Y-66280476D01*
X69857142Y-66328095D01*
X69904761Y-66375714D01*
X69952380Y-66470952D01*
X69952380Y-66566190D01*
X69904761Y-66661428D01*
X69857142Y-66709047D01*
X69761904Y-66756666D01*
X69571428Y-66804285D01*
X69333333Y-66804285D01*
X69142857Y-66756666D01*
X69047619Y-66709047D01*
X69000000Y-66661428D01*
X68952380Y-66566190D01*
X69952380Y-65804285D02*
X68952380Y-65804285D01*
X69571428Y-65709047D02*
X69952380Y-65423333D01*
X69285714Y-65423333D02*
X69666666Y-65804285D01*
G04 #@! TO.C,R7*
X75352380Y-64866666D02*
X74876190Y-65200000D01*
X75352380Y-65438095D02*
X74352380Y-65438095D01*
X74352380Y-65057142D01*
X74400000Y-64961904D01*
X74447619Y-64914285D01*
X74542857Y-64866666D01*
X74685714Y-64866666D01*
X74780952Y-64914285D01*
X74828571Y-64961904D01*
X74876190Y-65057142D01*
X74876190Y-65438095D01*
X74352380Y-64533333D02*
X74352380Y-63866666D01*
X75352380Y-64295238D01*
X73052380Y-67185238D02*
X73052380Y-67756666D01*
X73052380Y-67470952D02*
X72052380Y-67470952D01*
X72195238Y-67566190D01*
X72290476Y-67661428D01*
X72338095Y-67756666D01*
X72052380Y-66566190D02*
X72052380Y-66470952D01*
X72100000Y-66375714D01*
X72147619Y-66328095D01*
X72242857Y-66280476D01*
X72433333Y-66232857D01*
X72671428Y-66232857D01*
X72861904Y-66280476D01*
X72957142Y-66328095D01*
X73004761Y-66375714D01*
X73052380Y-66470952D01*
X73052380Y-66566190D01*
X73004761Y-66661428D01*
X72957142Y-66709047D01*
X72861904Y-66756666D01*
X72671428Y-66804285D01*
X72433333Y-66804285D01*
X72242857Y-66756666D01*
X72147619Y-66709047D01*
X72100000Y-66661428D01*
X72052380Y-66566190D01*
X73052380Y-65804285D02*
X72052380Y-65804285D01*
X72671428Y-65709047D02*
X73052380Y-65423333D01*
X72385714Y-65423333D02*
X72766666Y-65804285D01*
G04 #@! TO.C,SW1*
X66704761Y-48133333D02*
X66752380Y-47990476D01*
X66752380Y-47752380D01*
X66704761Y-47657142D01*
X66657142Y-47609523D01*
X66561904Y-47561904D01*
X66466666Y-47561904D01*
X66371428Y-47609523D01*
X66323809Y-47657142D01*
X66276190Y-47752380D01*
X66228571Y-47942857D01*
X66180952Y-48038095D01*
X66133333Y-48085714D01*
X66038095Y-48133333D01*
X65942857Y-48133333D01*
X65847619Y-48085714D01*
X65800000Y-48038095D01*
X65752380Y-47942857D01*
X65752380Y-47704761D01*
X65800000Y-47561904D01*
X65752380Y-47228571D02*
X66752380Y-46990476D01*
X66038095Y-46800000D01*
X66752380Y-46609523D01*
X65752380Y-46371428D01*
X66752380Y-45466666D02*
X66752380Y-46038095D01*
X66752380Y-45752380D02*
X65752380Y-45752380D01*
X65895238Y-45847619D01*
X65990476Y-45942857D01*
X66038095Y-46038095D01*
G04 #@! TO.C,SW2*
D11*
X45173809Y-46016666D02*
X45211904Y-45902380D01*
X45211904Y-45711904D01*
X45173809Y-45635714D01*
X45135714Y-45597619D01*
X45059523Y-45559523D01*
X44983333Y-45559523D01*
X44907142Y-45597619D01*
X44869047Y-45635714D01*
X44830952Y-45711904D01*
X44792857Y-45864285D01*
X44754761Y-45940476D01*
X44716666Y-45978571D01*
X44640476Y-46016666D01*
X44564285Y-46016666D01*
X44488095Y-45978571D01*
X44450000Y-45940476D01*
X44411904Y-45864285D01*
X44411904Y-45673809D01*
X44450000Y-45559523D01*
X44411904Y-45292857D02*
X45211904Y-45102380D01*
X44640476Y-44950000D01*
X45211904Y-44797619D01*
X44411904Y-44607142D01*
X44488095Y-44340476D02*
X44450000Y-44302380D01*
X44411904Y-44226190D01*
X44411904Y-44035714D01*
X44450000Y-43959523D01*
X44488095Y-43921428D01*
X44564285Y-43883333D01*
X44640476Y-43883333D01*
X44754761Y-43921428D01*
X45211904Y-44378571D01*
X45211904Y-43883333D01*
G04 #@! TO.C,J2*
D12*
X42116666Y-49852380D02*
X42116666Y-50566666D01*
X42069047Y-50709523D01*
X41973809Y-50804761D01*
X41830952Y-50852380D01*
X41735714Y-50852380D01*
X42545238Y-49947619D02*
X42592857Y-49900000D01*
X42688095Y-49852380D01*
X42926190Y-49852380D01*
X43021428Y-49900000D01*
X43069047Y-49947619D01*
X43116666Y-50042857D01*
X43116666Y-50138095D01*
X43069047Y-50280952D01*
X42497619Y-50852380D01*
X43116666Y-50852380D01*
G04 #@! TO.C,J4*
D11*
X60633333Y-35861904D02*
X60633333Y-36433333D01*
X60595238Y-36547619D01*
X60519047Y-36623809D01*
X60404761Y-36661904D01*
X60328571Y-36661904D01*
X61357142Y-36128571D02*
X61357142Y-36661904D01*
X61166666Y-35823809D02*
X60976190Y-36395238D01*
X61471428Y-36395238D01*
G04 #@! TD*
%LPC*%
D13*
G04 #@! TO.C,hole2*
X75400000Y-38400000D03*
G04 #@! TD*
G04 #@! TO.C,hole4*
X75400000Y-74400000D03*
G04 #@! TD*
G04 #@! TO.C,hole3*
X39400000Y-74400000D03*
G04 #@! TD*
D14*
G04 #@! TO.C,D1*
X65440000Y-69000000D03*
D15*
X62900000Y-69000000D03*
G04 #@! TD*
G04 #@! TO.C,D2*
X56400000Y-69000000D03*
D14*
X58940000Y-69000000D03*
G04 #@! TD*
G04 #@! TO.C,D3*
X52440000Y-69000000D03*
D15*
X49900000Y-69000000D03*
G04 #@! TD*
G04 #@! TO.C,D4*
X43400000Y-69000000D03*
D14*
X45940000Y-69000000D03*
G04 #@! TD*
G04 #@! TO.C,D5*
X63260000Y-59600000D03*
D15*
X65800000Y-59600000D03*
G04 #@! TD*
D16*
G04 #@! TO.C,J1*
X46300000Y-42200000D03*
D17*
X48840000Y-42200000D03*
X51380000Y-42200000D03*
X53920000Y-42200000D03*
G04 #@! TD*
D16*
G04 #@! TO.C,J3*
X68200000Y-40050000D03*
G04 #@! TD*
D15*
G04 #@! TO.C,Q1*
X59300000Y-59600000D03*
D14*
X56760000Y-59600000D03*
G04 #@! TD*
D18*
G04 #@! TO.C,R1*
X57100000Y-41900000D03*
D19*
X64720000Y-41900000D03*
G04 #@! TD*
G04 #@! TO.C,R2*
X64720000Y-45000000D03*
D18*
X57100000Y-45000000D03*
G04 #@! TD*
D20*
G04 #@! TO.C,RV1*
X64100000Y-53300000D03*
X61600000Y-48300000D03*
X59100000Y-53300000D03*
G04 #@! TD*
D21*
G04 #@! TO.C,U1*
X45900000Y-47400000D03*
D19*
X53520000Y-62640000D03*
X45900000Y-49940000D03*
X53520000Y-60100000D03*
X45900000Y-52480000D03*
X53520000Y-57560000D03*
X45900000Y-55020000D03*
X53520000Y-55020000D03*
X45900000Y-57560000D03*
X53520000Y-52480000D03*
X45900000Y-60100000D03*
X53520000Y-49940000D03*
X45900000Y-62640000D03*
X53520000Y-47400000D03*
G04 #@! TD*
D13*
G04 #@! TO.C,hole1*
X39400000Y-38400000D03*
G04 #@! TD*
D18*
G04 #@! TO.C,R3*
X69500000Y-60400000D03*
D19*
X69500000Y-52780000D03*
G04 #@! TD*
G04 #@! TO.C,R4*
X72500000Y-52780000D03*
D18*
X72500000Y-60400000D03*
G04 #@! TD*
G04 #@! TO.C,R5*
X75500000Y-60400000D03*
D19*
X75500000Y-52780000D03*
G04 #@! TD*
G04 #@! TO.C,R6*
X69500000Y-62780000D03*
D18*
X69500000Y-70400000D03*
G04 #@! TD*
G04 #@! TO.C,R7*
X72550000Y-70400000D03*
D19*
X72550000Y-62780000D03*
G04 #@! TD*
D22*
G04 #@! TO.C,SW1*
X68300000Y-44850000D03*
D23*
X75920000Y-44850000D03*
X68300000Y-47390000D03*
X75920000Y-47390000D03*
X68300000Y-49930000D03*
X75920000Y-49930000D03*
G04 #@! TD*
D16*
G04 #@! TO.C,SW2*
X42450000Y-48350000D03*
D17*
X42450000Y-45810000D03*
X42450000Y-43270000D03*
G04 #@! TD*
D16*
G04 #@! TO.C,J2*
X42450000Y-52350000D03*
D17*
X42450000Y-54890000D03*
X42450000Y-57430000D03*
X42450000Y-59970000D03*
X42450000Y-62510000D03*
G04 #@! TD*
D16*
G04 #@! TO.C,J4*
X59600000Y-38300000D03*
D17*
X62140000Y-38300000D03*
G04 #@! TD*
M02*
