M48
;DRILL file {KiCad (5.0.0)} date 09/23/19 14:44:08
;FORMAT={-:-/ absolute / metric / decimal}
FMAT,2
METRIC,TZ
T1C0.400
T2C0.800
T3C0.900
T4C1.000
T5C1.300
T6C3.200
%
G90
G05
M71
T1
X46.377Y-67.165
X48.252Y-67.629
X48.871Y-72.52
X49.87Y-67.173
X51.056Y-72.52
X51.992Y-69.01
T2
X46.1Y-46.38
X46.1Y-54.
X48.64Y-46.38
X48.64Y-54.
X51.18Y-46.38
X51.18Y-54.
X53.72Y-46.38
X53.72Y-54.
X56.26Y-46.38
X56.26Y-54.
X58.8Y-46.38
X58.8Y-54.
X61.34Y-46.38
X61.34Y-54.
T3
X52.235Y-61.5
X54.775Y-61.5
T4
X40.9Y-52.72
X40.9Y-55.26
X40.9Y-57.8
X67.3Y-56.
X67.3Y-58.54
X67.3Y-61.08
X67.3Y-63.62
X67.3Y-66.16
X40.9Y-62.28
X40.9Y-64.82
X40.9Y-67.36
X40.9Y-69.9
X55.18Y-69.22
X55.18Y-71.76
X55.18Y-74.3
X62.8Y-69.22
X62.8Y-71.76
X62.8Y-74.3
T5
X58.7Y-58.5
X58.7Y-63.5
X63.7Y-61.
T6
X68.Y-76.
X39.Y-76.
X68.Y-47.
X39.Y-47.
T0
M30
