G04 #@! TF.GenerationSoftware,KiCad,Pcbnew,(5.0.0)*
G04 #@! TF.CreationDate,2019-08-04T18:22:56+09:00*
G04 #@! TF.ProjectId,ir_read_mod,69725F726561645F6D6F642E6B696361,rev?*
G04 #@! TF.SameCoordinates,Original*
G04 #@! TF.FileFunction,Copper,L2,Bot,Signal*
G04 #@! TF.FilePolarity,Positive*
%FSLAX46Y46*%
G04 Gerber Fmt 4.6, Leading zero omitted, Abs format (unit mm)*
G04 Created by KiCad (PCBNEW (5.0.0)) date 08/04/19 18:22:56*
%MOMM*%
%LPD*%
G01*
G04 APERTURE LIST*
G04 #@! TA.AperFunction,ComponentPad*
%ADD10C,1.800000*%
G04 #@! TD*
G04 #@! TA.AperFunction,ComponentPad*
%ADD11R,1.800000X1.800000*%
G04 #@! TD*
G04 #@! TA.AperFunction,ComponentPad*
%ADD12R,1.700000X1.700000*%
G04 #@! TD*
G04 #@! TA.AperFunction,ComponentPad*
%ADD13O,1.700000X1.700000*%
G04 #@! TD*
G04 #@! TA.AperFunction,ComponentPad*
%ADD14C,1.600000*%
G04 #@! TD*
G04 #@! TA.AperFunction,ComponentPad*
%ADD15O,1.600000X1.600000*%
G04 #@! TD*
G04 #@! TA.AperFunction,ComponentPad*
%ADD16C,2.340000*%
G04 #@! TD*
G04 #@! TA.AperFunction,ComponentPad*
%ADD17R,1.600000X1.600000*%
G04 #@! TD*
G04 #@! TA.AperFunction,ComponentPad*
%ADD18R,2.100000X1.900000*%
G04 #@! TD*
G04 #@! TA.AperFunction,ComponentPad*
%ADD19O,2.100000X1.900000*%
G04 #@! TD*
G04 #@! TA.AperFunction,Conductor*
%ADD20C,0.400000*%
G04 #@! TD*
G04 #@! TA.AperFunction,Conductor*
%ADD21C,0.250000*%
G04 #@! TD*
G04 #@! TA.AperFunction,Conductor*
%ADD22C,0.254000*%
G04 #@! TD*
G04 APERTURE END LIST*
D10*
G04 #@! TO.P,D1,2*
G04 #@! TO.N,Net-(D1-Pad2)*
X65440000Y-69000000D03*
D11*
G04 #@! TO.P,D1,1*
G04 #@! TO.N,GND*
X62900000Y-69000000D03*
G04 #@! TD*
G04 #@! TO.P,D2,1*
G04 #@! TO.N,GND*
X56400000Y-69000000D03*
D10*
G04 #@! TO.P,D2,2*
G04 #@! TO.N,Net-(D2-Pad2)*
X58940000Y-69000000D03*
G04 #@! TD*
G04 #@! TO.P,D3,2*
G04 #@! TO.N,Net-(D3-Pad2)*
X52440000Y-69000000D03*
D11*
G04 #@! TO.P,D3,1*
G04 #@! TO.N,GND*
X49900000Y-69000000D03*
G04 #@! TD*
G04 #@! TO.P,D4,1*
G04 #@! TO.N,GND*
X43400000Y-69000000D03*
D10*
G04 #@! TO.P,D4,2*
G04 #@! TO.N,Net-(D4-Pad2)*
X45940000Y-69000000D03*
G04 #@! TD*
G04 #@! TO.P,D5,2*
G04 #@! TO.N,Net-(D5-Pad2)*
X63260000Y-59600000D03*
D11*
G04 #@! TO.P,D5,1*
G04 #@! TO.N,GND*
X65800000Y-59600000D03*
G04 #@! TD*
D12*
G04 #@! TO.P,J1,1*
G04 #@! TO.N,+5V*
X46300000Y-42200000D03*
D13*
G04 #@! TO.P,J1,2*
G04 #@! TO.N,GND*
X48840000Y-42200000D03*
G04 #@! TO.P,J1,3*
G04 #@! TO.N,Net-(J1-Pad3)*
X51380000Y-42200000D03*
G04 #@! TO.P,J1,4*
G04 #@! TO.N,Net-(J1-Pad4)*
X53920000Y-42200000D03*
G04 #@! TD*
D12*
G04 #@! TO.P,J3,1*
G04 #@! TO.N,Net-(J3-Pad1)*
X68200000Y-40050000D03*
G04 #@! TD*
D11*
G04 #@! TO.P,Q1,1*
G04 #@! TO.N,+5V*
X59300000Y-59600000D03*
D10*
G04 #@! TO.P,Q1,2*
G04 #@! TO.N,Net-(Q1-Pad2)*
X56760000Y-59600000D03*
G04 #@! TD*
D14*
G04 #@! TO.P,R1,1*
G04 #@! TO.N,+5V*
X57100000Y-41900000D03*
D15*
G04 #@! TO.P,R1,2*
G04 #@! TO.N,Net-(J1-Pad4)*
X64720000Y-41900000D03*
G04 #@! TD*
G04 #@! TO.P,R2,2*
G04 #@! TO.N,Net-(J1-Pad3)*
X64720000Y-45000000D03*
D14*
G04 #@! TO.P,R2,1*
G04 #@! TO.N,+5V*
X57100000Y-45000000D03*
G04 #@! TD*
D16*
G04 #@! TO.P,RV1,3*
G04 #@! TO.N,Net-(J3-Pad1)*
X64100000Y-53300000D03*
G04 #@! TO.P,RV1,2*
G04 #@! TO.N,GND*
X61600000Y-48300000D03*
G04 #@! TO.P,RV1,1*
G04 #@! TO.N,Net-(Q1-Pad2)*
X59100000Y-53300000D03*
G04 #@! TD*
D17*
G04 #@! TO.P,U1,1*
G04 #@! TO.N,+5V*
X45900000Y-47400000D03*
D15*
G04 #@! TO.P,U1,8*
G04 #@! TO.N,Net-(Q1-Pad2)*
X53520000Y-62640000D03*
G04 #@! TO.P,U1,2*
G04 #@! TO.N,Net-(D4-Pad2)*
X45900000Y-49940000D03*
G04 #@! TO.P,U1,9*
G04 #@! TO.N,Net-(J1-Pad4)*
X53520000Y-60100000D03*
G04 #@! TO.P,U1,3*
G04 #@! TO.N,Net-(D3-Pad2)*
X45900000Y-52480000D03*
G04 #@! TO.P,U1,10*
G04 #@! TO.N,Net-(J1-Pad3)*
X53520000Y-57560000D03*
G04 #@! TO.P,U1,4*
G04 #@! TO.N,Net-(D2-Pad2)*
X45900000Y-55020000D03*
G04 #@! TO.P,U1,11*
G04 #@! TO.N,Net-(D1-Pad2)*
X53520000Y-55020000D03*
G04 #@! TO.P,U1,5*
G04 #@! TO.N,RC5*
X45900000Y-57560000D03*
G04 #@! TO.P,U1,12*
G04 #@! TO.N,Net-(J2-Pad5)*
X53520000Y-52480000D03*
G04 #@! TO.P,U1,6*
G04 #@! TO.N,Net-(D5-Pad2)*
X45900000Y-60100000D03*
G04 #@! TO.P,U1,13*
G04 #@! TO.N,Net-(J2-Pad4)*
X53520000Y-49940000D03*
G04 #@! TO.P,U1,7*
G04 #@! TO.N,RC3*
X45900000Y-62640000D03*
G04 #@! TO.P,U1,14*
G04 #@! TO.N,GND*
X53520000Y-47400000D03*
G04 #@! TD*
D14*
G04 #@! TO.P,R3,1*
G04 #@! TO.N,GND*
X69500000Y-60400000D03*
D15*
G04 #@! TO.P,R3,2*
G04 #@! TO.N,Net-(J2-Pad4)*
X69500000Y-52780000D03*
G04 #@! TD*
G04 #@! TO.P,R4,2*
G04 #@! TO.N,Net-(J2-Pad5)*
X72500000Y-52780000D03*
D14*
G04 #@! TO.P,R4,1*
G04 #@! TO.N,GND*
X72500000Y-60400000D03*
G04 #@! TD*
G04 #@! TO.P,R5,1*
G04 #@! TO.N,GND*
X75500000Y-60400000D03*
D15*
G04 #@! TO.P,R5,2*
G04 #@! TO.N,RC3*
X75500000Y-52780000D03*
G04 #@! TD*
G04 #@! TO.P,R6,2*
G04 #@! TO.N,RC5*
X69500000Y-62780000D03*
D14*
G04 #@! TO.P,R6,1*
G04 #@! TO.N,GND*
X69500000Y-70400000D03*
G04 #@! TD*
G04 #@! TO.P,R7,1*
G04 #@! TO.N,Net-(R7-Pad1)*
X72550000Y-70400000D03*
D15*
G04 #@! TO.P,R7,2*
G04 #@! TO.N,+5V*
X72550000Y-62780000D03*
G04 #@! TD*
D18*
G04 #@! TO.P,SW1,1*
G04 #@! TO.N,Net-(J2-Pad4)*
X68300000Y-44850000D03*
D19*
G04 #@! TO.P,SW1,8*
G04 #@! TO.N,RC5*
X75920000Y-44850000D03*
G04 #@! TO.P,SW1,C*
G04 #@! TO.N,+5V*
X68300000Y-47390000D03*
X75920000Y-47390000D03*
G04 #@! TO.P,SW1,4*
G04 #@! TO.N,RC3*
X68300000Y-49930000D03*
G04 #@! TO.P,SW1,2*
G04 #@! TO.N,Net-(J2-Pad5)*
X75920000Y-49930000D03*
G04 #@! TD*
D12*
G04 #@! TO.P,SW2,1*
G04 #@! TO.N,Net-(SW2-Pad1)*
X42450000Y-48350000D03*
D13*
G04 #@! TO.P,SW2,2*
G04 #@! TO.N,Net-(D2-Pad2)*
X42450000Y-45810000D03*
G04 #@! TO.P,SW2,3*
G04 #@! TO.N,Net-(R7-Pad1)*
X42450000Y-43270000D03*
G04 #@! TD*
D12*
G04 #@! TO.P,J2,1*
G04 #@! TO.N,Net-(D2-Pad2)*
X42450000Y-52350000D03*
D13*
G04 #@! TO.P,J2,2*
G04 #@! TO.N,+5V*
X42450000Y-54890000D03*
G04 #@! TO.P,J2,3*
G04 #@! TO.N,GND*
X42450000Y-57430000D03*
G04 #@! TO.P,J2,4*
G04 #@! TO.N,Net-(J2-Pad4)*
X42450000Y-59970000D03*
G04 #@! TO.P,J2,5*
G04 #@! TO.N,Net-(J2-Pad5)*
X42450000Y-62510000D03*
G04 #@! TD*
D12*
G04 #@! TO.P,J4,1*
G04 #@! TO.N,+5V*
X59600000Y-38300000D03*
D13*
G04 #@! TO.P,J4,2*
G04 #@! TO.N,GND*
X62140000Y-38300000D03*
G04 #@! TD*
D20*
G04 #@! TO.N,GND*
X72500000Y-60400000D02*
X71025000Y-61875000D01*
X71025000Y-61875000D02*
X71025000Y-68875000D01*
X71025000Y-68875000D02*
X69500000Y-70400000D01*
X72500000Y-60400000D02*
X75500000Y-60400000D01*
X62140000Y-38300000D02*
X62140000Y-39550300D01*
X62140000Y-39550300D02*
X61600000Y-40090300D01*
X61600000Y-40090300D02*
X61600000Y-48300000D01*
X65800000Y-59600000D02*
X65800000Y-58299700D01*
X65800000Y-58299700D02*
X61600000Y-54099700D01*
X61600000Y-54099700D02*
X61600000Y-48300000D01*
X53520000Y-47400000D02*
X52319700Y-47400000D01*
X48840000Y-42200000D02*
X48840000Y-43450300D01*
X52319700Y-47400000D02*
X52319700Y-46930000D01*
X52319700Y-46930000D02*
X48840000Y-43450300D01*
X49900000Y-69000000D02*
X48599700Y-69000000D01*
X48599700Y-69000000D02*
X47299400Y-67699700D01*
X47299400Y-67699700D02*
X43400000Y-67699700D01*
X43400000Y-69000000D02*
X43400000Y-67699700D01*
X42450000Y-57430000D02*
X41179900Y-58700100D01*
X41179900Y-58700100D02*
X41179900Y-65479600D01*
X41179900Y-65479600D02*
X43400000Y-67699700D01*
D21*
G04 #@! TO.N,Net-(D2-Pad2)*
X42450000Y-52350000D02*
X42450000Y-51174700D01*
X42450000Y-45810000D02*
X42450000Y-46985300D01*
X42450000Y-46985300D02*
X43258000Y-46985300D01*
X43258000Y-46985300D02*
X43625300Y-47352600D01*
X43625300Y-47352600D02*
X43625300Y-49999400D01*
X43625300Y-49999400D02*
X42450000Y-51174700D01*
G04 #@! TO.N,Net-(D3-Pad2)*
X45900000Y-52480000D02*
X45900000Y-53605300D01*
X45900000Y-53605300D02*
X46181300Y-53605300D01*
X46181300Y-53605300D02*
X47029000Y-54453000D01*
X47029000Y-54453000D02*
X47029000Y-55519800D01*
X47029000Y-55519800D02*
X46258800Y-56290000D01*
X46258800Y-56290000D02*
X45548600Y-56290000D01*
X45548600Y-56290000D02*
X44270600Y-57568000D01*
X44270600Y-57568000D02*
X44270600Y-63335300D01*
X44270600Y-63335300D02*
X47398700Y-66463400D01*
X47398700Y-66463400D02*
X49903400Y-66463400D01*
X49903400Y-66463400D02*
X52440000Y-69000000D01*
G04 #@! TO.N,Net-(D5-Pad2)*
X63260000Y-59600000D02*
X59073100Y-63786900D01*
X59073100Y-63786900D02*
X50712200Y-63786900D01*
X50712200Y-63786900D02*
X47025300Y-60100000D01*
X45900000Y-60100000D02*
X47025300Y-60100000D01*
D20*
G04 #@! TO.N,+5V*
X57100000Y-45000000D02*
X57100000Y-46300000D01*
X57100000Y-46300000D02*
X60722400Y-49922400D01*
X60722400Y-49922400D02*
X60722400Y-56877300D01*
X60722400Y-56877300D02*
X59300000Y-58299700D01*
X57100000Y-41900000D02*
X57100000Y-45000000D01*
X59300000Y-59600000D02*
X59300000Y-58299700D01*
X59600000Y-38300000D02*
X59600000Y-39550300D01*
X59600000Y-39550300D02*
X59449700Y-39550300D01*
X59449700Y-39550300D02*
X57100000Y-41900000D01*
X45900000Y-47400000D02*
X45900000Y-48600300D01*
X42450000Y-54890000D02*
X42450000Y-53639700D01*
X42450000Y-53639700D02*
X43465900Y-53639700D01*
X43465900Y-53639700D02*
X44699700Y-52405900D01*
X44699700Y-52405900D02*
X44699700Y-49425400D01*
X44699700Y-49425400D02*
X45524800Y-48600300D01*
X45524800Y-48600300D02*
X45900000Y-48600300D01*
D21*
G04 #@! TO.N,Net-(J1-Pad3)*
X51380000Y-43375300D02*
X54668800Y-46664100D01*
X54668800Y-46664100D02*
X54668800Y-55567200D01*
X54668800Y-55567200D02*
X53801300Y-56434700D01*
X53801300Y-56434700D02*
X53520000Y-56434700D01*
X51380000Y-42200000D02*
X51380000Y-43375300D01*
X53520000Y-57560000D02*
X53520000Y-56434700D01*
G04 #@! TO.N,Net-(J1-Pad4)*
X53920000Y-42200000D02*
X53920000Y-43375300D01*
X53520000Y-60100000D02*
X53520000Y-58974700D01*
X53520000Y-58974700D02*
X53801300Y-58974700D01*
X53801300Y-58974700D02*
X55121400Y-57654600D01*
X55121400Y-57654600D02*
X55121400Y-44576700D01*
X55121400Y-44576700D02*
X53920000Y-43375300D01*
G04 #@! TO.N,Net-(J2-Pad4)*
X69500000Y-52780000D02*
X68374700Y-52780000D01*
X68374700Y-52780000D02*
X66876000Y-51281300D01*
X66876000Y-51281300D02*
X66876000Y-46274000D01*
X66876000Y-46274000D02*
X68300000Y-44850000D01*
G04 #@! TO.N,Net-(J3-Pad1)*
X68200000Y-40050000D02*
X68200000Y-41225300D01*
X64100000Y-53300000D02*
X66425600Y-50974400D01*
X66425600Y-50974400D02*
X66425600Y-42999700D01*
X66425600Y-42999700D02*
X68200000Y-41225300D01*
G04 #@! TO.N,Net-(Q1-Pad2)*
X56760000Y-59600000D02*
X56760000Y-55640000D01*
X56760000Y-55640000D02*
X59100000Y-53300000D01*
X54645300Y-62640000D02*
X54645300Y-61714700D01*
X54645300Y-61714700D02*
X56760000Y-59600000D01*
X53520000Y-62640000D02*
X54645300Y-62640000D01*
G04 #@! TO.N,RC3*
X68300000Y-49930000D02*
X69675300Y-49930000D01*
X70962400Y-51622200D02*
X70962400Y-56737600D01*
X70962400Y-56737600D02*
X63448500Y-64251500D01*
X63448500Y-64251500D02*
X48636800Y-64251500D01*
X48636800Y-64251500D02*
X47025300Y-62640000D01*
X69675300Y-49930000D02*
X69675300Y-50335100D01*
X69675300Y-50335100D02*
X70962400Y-51622200D01*
X70962400Y-51622200D02*
X73216900Y-51622200D01*
X73216900Y-51622200D02*
X74374700Y-52780000D01*
X45900000Y-62640000D02*
X47025300Y-62640000D01*
X75500000Y-52780000D02*
X74374700Y-52780000D01*
G04 #@! TO.N,RC5*
X45900000Y-58685300D02*
X45618700Y-58685300D01*
X45618700Y-58685300D02*
X44732900Y-59571100D01*
X44732900Y-59571100D02*
X44732900Y-63144900D01*
X44732900Y-63144900D02*
X46289900Y-64701900D01*
X46289900Y-64701900D02*
X66452800Y-64701900D01*
X66452800Y-64701900D02*
X68374700Y-62780000D01*
X69500000Y-62780000D02*
X68374700Y-62780000D01*
X45900000Y-57560000D02*
X45900000Y-58685300D01*
X69500000Y-62780000D02*
X69500000Y-61654700D01*
X75920000Y-44850000D02*
X77345700Y-46275700D01*
X77345700Y-46275700D02*
X77345700Y-52599000D01*
X77345700Y-52599000D02*
X70625300Y-59319400D01*
X70625300Y-59319400D02*
X70625300Y-60951500D01*
X70625300Y-60951500D02*
X69922100Y-61654700D01*
X69922100Y-61654700D02*
X69500000Y-61654700D01*
G04 #@! TD*
D22*
G04 #@! TO.N,GND*
G36*
X77690000Y-45545198D02*
X77529661Y-45384859D01*
X77636051Y-44850000D01*
X77513036Y-44231564D01*
X77162721Y-43707279D01*
X76638436Y-43356964D01*
X76176103Y-43265000D01*
X75663897Y-43265000D01*
X75201564Y-43356964D01*
X74677279Y-43707279D01*
X74326964Y-44231564D01*
X74203949Y-44850000D01*
X74326964Y-45468436D01*
X74677279Y-45992721D01*
X74867766Y-46120000D01*
X74677279Y-46247279D01*
X74326964Y-46771564D01*
X74203949Y-47390000D01*
X74326964Y-48008436D01*
X74677279Y-48532721D01*
X74867766Y-48660000D01*
X74677279Y-48787279D01*
X74326964Y-49311564D01*
X74203949Y-49930000D01*
X74326964Y-50548436D01*
X74677279Y-51072721D01*
X75147606Y-51386983D01*
X74940091Y-51428260D01*
X74465423Y-51745423D01*
X74445196Y-51775694D01*
X73807231Y-51137730D01*
X73764829Y-51074271D01*
X73513437Y-50906296D01*
X73291752Y-50862200D01*
X73291747Y-50862200D01*
X73216900Y-50847312D01*
X73142053Y-50862200D01*
X71277202Y-50862200D01*
X70435300Y-50020299D01*
X70435300Y-50004852D01*
X70450189Y-49930000D01*
X70391204Y-49633463D01*
X70223229Y-49382071D01*
X69971837Y-49214096D01*
X69805849Y-49181079D01*
X69542721Y-48787279D01*
X69352234Y-48660000D01*
X69542721Y-48532721D01*
X69893036Y-48008436D01*
X70016051Y-47390000D01*
X69893036Y-46771564D01*
X69629407Y-46377014D01*
X69807809Y-46257809D01*
X69948157Y-46047765D01*
X69997440Y-45800000D01*
X69997440Y-43900000D01*
X69948157Y-43652235D01*
X69807809Y-43442191D01*
X69597765Y-43301843D01*
X69350000Y-43252560D01*
X67250000Y-43252560D01*
X67246931Y-43253171D01*
X68684473Y-41815629D01*
X68747929Y-41773229D01*
X68898797Y-41547440D01*
X69050000Y-41547440D01*
X69297765Y-41498157D01*
X69507809Y-41357809D01*
X69648157Y-41147765D01*
X69697440Y-40900000D01*
X69697440Y-39200000D01*
X69648157Y-38952235D01*
X69507809Y-38742191D01*
X69297765Y-38601843D01*
X69050000Y-38552560D01*
X67350000Y-38552560D01*
X67102235Y-38601843D01*
X66892191Y-38742191D01*
X66751843Y-38952235D01*
X66702560Y-39200000D01*
X66702560Y-40900000D01*
X66751843Y-41147765D01*
X66892191Y-41357809D01*
X66952435Y-41398063D01*
X66116720Y-42233779D01*
X66183113Y-41900000D01*
X66071740Y-41340091D01*
X65754577Y-40865423D01*
X65279909Y-40548260D01*
X64861333Y-40465000D01*
X64578667Y-40465000D01*
X64160091Y-40548260D01*
X63685423Y-40865423D01*
X63368260Y-41340091D01*
X63256887Y-41900000D01*
X63368260Y-42459909D01*
X63685423Y-42934577D01*
X64160091Y-43251740D01*
X64578667Y-43335000D01*
X64861333Y-43335000D01*
X65279909Y-43251740D01*
X65651463Y-43003476D01*
X65665601Y-43074552D01*
X65665601Y-43905971D01*
X65279909Y-43648260D01*
X64861333Y-43565000D01*
X64578667Y-43565000D01*
X64160091Y-43648260D01*
X63685423Y-43965423D01*
X63368260Y-44440091D01*
X63256887Y-45000000D01*
X63368260Y-45559909D01*
X63685423Y-46034577D01*
X64160091Y-46351740D01*
X64578667Y-46435000D01*
X64861333Y-46435000D01*
X65279909Y-46351740D01*
X65665601Y-46094029D01*
X65665600Y-50659598D01*
X64721488Y-51603711D01*
X64459037Y-51495000D01*
X63740963Y-51495000D01*
X63077550Y-51769795D01*
X62569795Y-52277550D01*
X62295000Y-52940963D01*
X62295000Y-53659037D01*
X62569795Y-54322450D01*
X63077550Y-54830205D01*
X63740963Y-55105000D01*
X64459037Y-55105000D01*
X65122450Y-54830205D01*
X65630205Y-54322450D01*
X65905000Y-53659037D01*
X65905000Y-52940963D01*
X65796289Y-52678512D01*
X66497350Y-51977451D01*
X67784371Y-53264473D01*
X67826771Y-53327929D01*
X68078163Y-53495904D01*
X68279214Y-53535896D01*
X68465423Y-53814577D01*
X68940091Y-54131740D01*
X69358667Y-54215000D01*
X69641333Y-54215000D01*
X70059909Y-54131740D01*
X70202400Y-54036530D01*
X70202401Y-56422797D01*
X67335000Y-59290198D01*
X67335000Y-58573690D01*
X67238327Y-58340301D01*
X67059698Y-58161673D01*
X66826309Y-58065000D01*
X66085750Y-58065000D01*
X65927000Y-58223750D01*
X65927000Y-59473000D01*
X65947000Y-59473000D01*
X65947000Y-59727000D01*
X65927000Y-59727000D01*
X65927000Y-59747000D01*
X65673000Y-59747000D01*
X65673000Y-59727000D01*
X65653000Y-59727000D01*
X65653000Y-59473000D01*
X65673000Y-59473000D01*
X65673000Y-58223750D01*
X65514250Y-58065000D01*
X64773691Y-58065000D01*
X64540302Y-58161673D01*
X64361673Y-58340301D01*
X64305861Y-58475044D01*
X64129507Y-58298690D01*
X63565330Y-58065000D01*
X62954670Y-58065000D01*
X62390493Y-58298690D01*
X61958690Y-58730493D01*
X61725000Y-59294670D01*
X61725000Y-59905330D01*
X61770360Y-60014838D01*
X58758299Y-63026900D01*
X55300825Y-63026900D01*
X55361204Y-62936537D01*
X55420189Y-62640000D01*
X55405300Y-62565148D01*
X55405300Y-62029501D01*
X56345162Y-61089640D01*
X56454670Y-61135000D01*
X57065330Y-61135000D01*
X57629507Y-60901310D01*
X57798725Y-60732092D01*
X57801843Y-60747765D01*
X57942191Y-60957809D01*
X58152235Y-61098157D01*
X58400000Y-61147440D01*
X60200000Y-61147440D01*
X60447765Y-61098157D01*
X60657809Y-60957809D01*
X60798157Y-60747765D01*
X60847440Y-60500000D01*
X60847440Y-58700000D01*
X60798157Y-58452235D01*
X60657809Y-58242191D01*
X60586215Y-58194353D01*
X61254685Y-57525884D01*
X61324401Y-57479301D01*
X61508952Y-57203101D01*
X61557400Y-56959537D01*
X61557400Y-56959534D01*
X61573757Y-56877301D01*
X61557400Y-56795068D01*
X61557400Y-50107071D01*
X62012646Y-50093504D01*
X62576414Y-49859984D01*
X62695880Y-49575486D01*
X61600000Y-48479605D01*
X61585858Y-48493748D01*
X61406252Y-48314142D01*
X61420395Y-48300000D01*
X61779605Y-48300000D01*
X62875486Y-49395880D01*
X63159984Y-49276414D01*
X63414894Y-48605110D01*
X63393504Y-47887354D01*
X63159984Y-47323586D01*
X62875486Y-47204120D01*
X61779605Y-48300000D01*
X61420395Y-48300000D01*
X60324514Y-47204120D01*
X60040016Y-47323586D01*
X59837577Y-47856709D01*
X59005382Y-47024514D01*
X60504120Y-47024514D01*
X61600000Y-48120395D01*
X62695880Y-47024514D01*
X62576414Y-46740016D01*
X61905110Y-46485106D01*
X61187354Y-46506496D01*
X60623586Y-46740016D01*
X60504120Y-47024514D01*
X59005382Y-47024514D01*
X58055132Y-46074264D01*
X58316534Y-45812862D01*
X58535000Y-45285439D01*
X58535000Y-44714561D01*
X58316534Y-44187138D01*
X57935000Y-43805604D01*
X57935000Y-43094396D01*
X58316534Y-42712862D01*
X58535000Y-42185439D01*
X58535000Y-41645867D01*
X59823708Y-40357160D01*
X59925801Y-40336852D01*
X60202001Y-40152301D01*
X60386552Y-39876101D01*
X60402199Y-39797440D01*
X60450000Y-39797440D01*
X60697765Y-39748157D01*
X60907809Y-39607809D01*
X61048157Y-39397765D01*
X61068739Y-39294292D01*
X61373076Y-39571645D01*
X61783110Y-39741476D01*
X62013000Y-39620155D01*
X62013000Y-38427000D01*
X62267000Y-38427000D01*
X62267000Y-39620155D01*
X62496890Y-39741476D01*
X62906924Y-39571645D01*
X63335183Y-39181358D01*
X63581486Y-38656892D01*
X63460819Y-38427000D01*
X62267000Y-38427000D01*
X62013000Y-38427000D01*
X61993000Y-38427000D01*
X61993000Y-38173000D01*
X62013000Y-38173000D01*
X62013000Y-36979845D01*
X62267000Y-36979845D01*
X62267000Y-38173000D01*
X63460819Y-38173000D01*
X63575017Y-37955431D01*
X73165000Y-37955431D01*
X73165000Y-38844569D01*
X73505259Y-39666026D01*
X74133974Y-40294741D01*
X74955431Y-40635000D01*
X75844569Y-40635000D01*
X76666026Y-40294741D01*
X77294741Y-39666026D01*
X77635000Y-38844569D01*
X77635000Y-37955431D01*
X77294741Y-37133974D01*
X76666026Y-36505259D01*
X75844569Y-36165000D01*
X74955431Y-36165000D01*
X74133974Y-36505259D01*
X73505259Y-37133974D01*
X73165000Y-37955431D01*
X63575017Y-37955431D01*
X63581486Y-37943108D01*
X63335183Y-37418642D01*
X62906924Y-37028355D01*
X62496890Y-36858524D01*
X62267000Y-36979845D01*
X62013000Y-36979845D01*
X61783110Y-36858524D01*
X61373076Y-37028355D01*
X61068739Y-37305708D01*
X61048157Y-37202235D01*
X60907809Y-36992191D01*
X60697765Y-36851843D01*
X60450000Y-36802560D01*
X58750000Y-36802560D01*
X58502235Y-36851843D01*
X58292191Y-36992191D01*
X58151843Y-37202235D01*
X58102560Y-37450000D01*
X58102560Y-39150000D01*
X58151843Y-39397765D01*
X58259800Y-39559332D01*
X57354133Y-40465000D01*
X56814561Y-40465000D01*
X56287138Y-40683466D01*
X55883466Y-41087138D01*
X55665000Y-41614561D01*
X55665000Y-42185439D01*
X55883466Y-42712862D01*
X56265000Y-43094396D01*
X56265001Y-43805603D01*
X55883466Y-44187138D01*
X55839779Y-44292607D01*
X55837304Y-44280163D01*
X55669329Y-44028771D01*
X55605873Y-43986371D01*
X54930380Y-43310879D01*
X54990625Y-43270625D01*
X55318839Y-42779418D01*
X55434092Y-42200000D01*
X55318839Y-41620582D01*
X54990625Y-41129375D01*
X54499418Y-40801161D01*
X54066256Y-40715000D01*
X53773744Y-40715000D01*
X53340582Y-40801161D01*
X52849375Y-41129375D01*
X52650000Y-41427761D01*
X52450625Y-41129375D01*
X51959418Y-40801161D01*
X51526256Y-40715000D01*
X51233744Y-40715000D01*
X50800582Y-40801161D01*
X50309375Y-41129375D01*
X50096157Y-41448478D01*
X50035183Y-41318642D01*
X49606924Y-40928355D01*
X49196890Y-40758524D01*
X48967000Y-40879845D01*
X48967000Y-42073000D01*
X48987000Y-42073000D01*
X48987000Y-42327000D01*
X48967000Y-42327000D01*
X48967000Y-43520155D01*
X49196890Y-43641476D01*
X49606924Y-43471645D01*
X50035183Y-43081358D01*
X50096157Y-42951522D01*
X50309375Y-43270625D01*
X50626430Y-43482475D01*
X50639390Y-43547629D01*
X50664097Y-43671837D01*
X50693341Y-43715603D01*
X50832072Y-43923229D01*
X50895528Y-43965629D01*
X53012826Y-46082928D01*
X52664866Y-46247611D01*
X52288959Y-46662577D01*
X52128096Y-47050961D01*
X52250085Y-47273000D01*
X53393000Y-47273000D01*
X53393000Y-47253000D01*
X53647000Y-47253000D01*
X53647000Y-47273000D01*
X53667000Y-47273000D01*
X53667000Y-47527000D01*
X53647000Y-47527000D01*
X53647000Y-47547000D01*
X53393000Y-47547000D01*
X53393000Y-47527000D01*
X52250085Y-47527000D01*
X52128096Y-47749039D01*
X52288959Y-48137423D01*
X52664866Y-48552389D01*
X52869108Y-48649053D01*
X52485423Y-48905423D01*
X52168260Y-49380091D01*
X52056887Y-49940000D01*
X52168260Y-50499909D01*
X52485423Y-50974577D01*
X52837758Y-51210000D01*
X52485423Y-51445423D01*
X52168260Y-51920091D01*
X52056887Y-52480000D01*
X52168260Y-53039909D01*
X52485423Y-53514577D01*
X52837758Y-53750000D01*
X52485423Y-53985423D01*
X52168260Y-54460091D01*
X52056887Y-55020000D01*
X52168260Y-55579909D01*
X52485423Y-56054577D01*
X52781386Y-56252333D01*
X52764104Y-56339214D01*
X52485423Y-56525423D01*
X52168260Y-57000091D01*
X52056887Y-57560000D01*
X52168260Y-58119909D01*
X52485423Y-58594577D01*
X52781386Y-58792333D01*
X52764104Y-58879214D01*
X52485423Y-59065423D01*
X52168260Y-59540091D01*
X52056887Y-60100000D01*
X52168260Y-60659909D01*
X52485423Y-61134577D01*
X52837758Y-61370000D01*
X52485423Y-61605423D01*
X52168260Y-62080091D01*
X52056887Y-62640000D01*
X52133846Y-63026900D01*
X51027002Y-63026900D01*
X47615631Y-59615530D01*
X47573229Y-59552071D01*
X47321837Y-59384096D01*
X47120786Y-59344104D01*
X46934577Y-59065423D01*
X46638614Y-58867667D01*
X46655896Y-58780786D01*
X46934577Y-58594577D01*
X47251740Y-58119909D01*
X47363113Y-57560000D01*
X47251740Y-57000091D01*
X47000106Y-56623495D01*
X47513473Y-56110129D01*
X47576929Y-56067729D01*
X47744904Y-55816337D01*
X47789000Y-55594652D01*
X47789000Y-55594648D01*
X47803888Y-55519801D01*
X47789000Y-55444954D01*
X47789000Y-54527848D01*
X47803888Y-54453000D01*
X47789000Y-54378152D01*
X47789000Y-54378148D01*
X47744904Y-54156463D01*
X47744904Y-54156462D01*
X47619329Y-53968527D01*
X47576929Y-53905071D01*
X47513473Y-53862671D01*
X47027023Y-53376222D01*
X47251740Y-53039909D01*
X47363113Y-52480000D01*
X47251740Y-51920091D01*
X46934577Y-51445423D01*
X46582242Y-51210000D01*
X46934577Y-50974577D01*
X47251740Y-50499909D01*
X47363113Y-49940000D01*
X47251740Y-49380091D01*
X46934577Y-48905423D01*
X46813894Y-48824785D01*
X46947765Y-48798157D01*
X47157809Y-48657809D01*
X47298157Y-48447765D01*
X47347440Y-48200000D01*
X47347440Y-46600000D01*
X47298157Y-46352235D01*
X47157809Y-46142191D01*
X46947765Y-46001843D01*
X46700000Y-45952560D01*
X45100000Y-45952560D01*
X44852235Y-46001843D01*
X44642191Y-46142191D01*
X44501843Y-46352235D01*
X44452560Y-46600000D01*
X44452560Y-48200000D01*
X44500951Y-48443281D01*
X44385300Y-48558933D01*
X44385300Y-47427448D01*
X44400188Y-47352600D01*
X44385300Y-47277752D01*
X44385300Y-47277748D01*
X44341204Y-47056063D01*
X44173229Y-46804671D01*
X44109770Y-46762269D01*
X43848331Y-46500830D01*
X43811363Y-46445504D01*
X43848839Y-46389418D01*
X43964092Y-45810000D01*
X43848839Y-45230582D01*
X43520625Y-44739375D01*
X43222239Y-44540000D01*
X43520625Y-44340625D01*
X43848839Y-43849418D01*
X43964092Y-43270000D01*
X43848839Y-42690582D01*
X43520625Y-42199375D01*
X43029418Y-41871161D01*
X42596256Y-41785000D01*
X42303744Y-41785000D01*
X41870582Y-41871161D01*
X41379375Y-42199375D01*
X41051161Y-42690582D01*
X40935908Y-43270000D01*
X41051161Y-43849418D01*
X41379375Y-44340625D01*
X41677761Y-44540000D01*
X41379375Y-44739375D01*
X41051161Y-45230582D01*
X40935908Y-45810000D01*
X41051161Y-46389418D01*
X41379375Y-46880625D01*
X41397619Y-46892816D01*
X41352235Y-46901843D01*
X41142191Y-47042191D01*
X41001843Y-47252235D01*
X40952560Y-47500000D01*
X40952560Y-49200000D01*
X41001843Y-49447765D01*
X41142191Y-49657809D01*
X41352235Y-49798157D01*
X41600000Y-49847440D01*
X42702458Y-49847440D01*
X41965528Y-50584371D01*
X41902072Y-50626771D01*
X41859672Y-50690227D01*
X41859671Y-50690228D01*
X41751204Y-50852560D01*
X41600000Y-50852560D01*
X41352235Y-50901843D01*
X41142191Y-51042191D01*
X41001843Y-51252235D01*
X40952560Y-51500000D01*
X40952560Y-53200000D01*
X41001843Y-53447765D01*
X41142191Y-53657809D01*
X41352235Y-53798157D01*
X41397619Y-53807184D01*
X41379375Y-53819375D01*
X41051161Y-54310582D01*
X40935908Y-54890000D01*
X41051161Y-55469418D01*
X41379375Y-55960625D01*
X41698478Y-56173843D01*
X41568642Y-56234817D01*
X41178355Y-56663076D01*
X41008524Y-57073110D01*
X41129845Y-57303000D01*
X42323000Y-57303000D01*
X42323000Y-57283000D01*
X42577000Y-57283000D01*
X42577000Y-57303000D01*
X42597000Y-57303000D01*
X42597000Y-57557000D01*
X42577000Y-57557000D01*
X42577000Y-57577000D01*
X42323000Y-57577000D01*
X42323000Y-57557000D01*
X41129845Y-57557000D01*
X41008524Y-57786890D01*
X41178355Y-58196924D01*
X41568642Y-58625183D01*
X41698478Y-58686157D01*
X41379375Y-58899375D01*
X41051161Y-59390582D01*
X40935908Y-59970000D01*
X41051161Y-60549418D01*
X41379375Y-61040625D01*
X41677761Y-61240000D01*
X41379375Y-61439375D01*
X41051161Y-61930582D01*
X40935908Y-62510000D01*
X41051161Y-63089418D01*
X41379375Y-63580625D01*
X41870582Y-63908839D01*
X42303744Y-63995000D01*
X42596256Y-63995000D01*
X43029418Y-63908839D01*
X43520625Y-63580625D01*
X43539031Y-63553079D01*
X43554697Y-63631837D01*
X43722672Y-63883229D01*
X43786128Y-63925629D01*
X46808373Y-66947876D01*
X46850771Y-67011329D01*
X46914224Y-67053727D01*
X46914226Y-67053729D01*
X47039602Y-67137502D01*
X47102163Y-67179304D01*
X47323848Y-67223400D01*
X47323852Y-67223400D01*
X47398699Y-67238288D01*
X47473546Y-67223400D01*
X49588599Y-67223400D01*
X49830199Y-67465000D01*
X49772998Y-67465000D01*
X49772998Y-67623748D01*
X49614250Y-67465000D01*
X48873691Y-67465000D01*
X48640302Y-67561673D01*
X48461673Y-67740301D01*
X48365000Y-67973690D01*
X48365000Y-68714250D01*
X48523750Y-68873000D01*
X49773000Y-68873000D01*
X49773000Y-68853000D01*
X50027000Y-68853000D01*
X50027000Y-68873000D01*
X50047000Y-68873000D01*
X50047000Y-69127000D01*
X50027000Y-69127000D01*
X50027000Y-70376250D01*
X50185750Y-70535000D01*
X50926309Y-70535000D01*
X51159698Y-70438327D01*
X51338327Y-70259699D01*
X51394139Y-70124956D01*
X51570493Y-70301310D01*
X52134670Y-70535000D01*
X52745330Y-70535000D01*
X53309507Y-70301310D01*
X53741310Y-69869507D01*
X53975000Y-69305330D01*
X53975000Y-69285750D01*
X54865000Y-69285750D01*
X54865000Y-70026310D01*
X54961673Y-70259699D01*
X55140302Y-70438327D01*
X55373691Y-70535000D01*
X56114250Y-70535000D01*
X56273000Y-70376250D01*
X56273000Y-69127000D01*
X55023750Y-69127000D01*
X54865000Y-69285750D01*
X53975000Y-69285750D01*
X53975000Y-68694670D01*
X53741310Y-68130493D01*
X53584507Y-67973690D01*
X54865000Y-67973690D01*
X54865000Y-68714250D01*
X55023750Y-68873000D01*
X56273000Y-68873000D01*
X56273000Y-67623750D01*
X56527000Y-67623750D01*
X56527000Y-68873000D01*
X56547000Y-68873000D01*
X56547000Y-69127000D01*
X56527000Y-69127000D01*
X56527000Y-70376250D01*
X56685750Y-70535000D01*
X57426309Y-70535000D01*
X57659698Y-70438327D01*
X57838327Y-70259699D01*
X57894139Y-70124956D01*
X58070493Y-70301310D01*
X58634670Y-70535000D01*
X59245330Y-70535000D01*
X59809507Y-70301310D01*
X60241310Y-69869507D01*
X60475000Y-69305330D01*
X60475000Y-69285750D01*
X61365000Y-69285750D01*
X61365000Y-70026310D01*
X61461673Y-70259699D01*
X61640302Y-70438327D01*
X61873691Y-70535000D01*
X62614250Y-70535000D01*
X62773000Y-70376250D01*
X62773000Y-69127000D01*
X61523750Y-69127000D01*
X61365000Y-69285750D01*
X60475000Y-69285750D01*
X60475000Y-68694670D01*
X60241310Y-68130493D01*
X60084507Y-67973690D01*
X61365000Y-67973690D01*
X61365000Y-68714250D01*
X61523750Y-68873000D01*
X62773000Y-68873000D01*
X62773000Y-67623750D01*
X63027000Y-67623750D01*
X63027000Y-68873000D01*
X63047000Y-68873000D01*
X63047000Y-69127000D01*
X63027000Y-69127000D01*
X63027000Y-70376250D01*
X63185750Y-70535000D01*
X63926309Y-70535000D01*
X64159698Y-70438327D01*
X64338327Y-70259699D01*
X64394139Y-70124956D01*
X64570493Y-70301310D01*
X65134670Y-70535000D01*
X65745330Y-70535000D01*
X66309507Y-70301310D01*
X66427594Y-70183223D01*
X68053035Y-70183223D01*
X68080222Y-70753454D01*
X68246136Y-71154005D01*
X68492255Y-71228139D01*
X69320395Y-70400000D01*
X69679605Y-70400000D01*
X70507745Y-71228139D01*
X70753864Y-71154005D01*
X70946965Y-70616777D01*
X70923021Y-70114561D01*
X71115000Y-70114561D01*
X71115000Y-70685439D01*
X71333466Y-71212862D01*
X71737138Y-71616534D01*
X72264561Y-71835000D01*
X72835439Y-71835000D01*
X73362862Y-71616534D01*
X73766534Y-71212862D01*
X73985000Y-70685439D01*
X73985000Y-70114561D01*
X73766534Y-69587138D01*
X73362862Y-69183466D01*
X72835439Y-68965000D01*
X72264561Y-68965000D01*
X71737138Y-69183466D01*
X71333466Y-69587138D01*
X71115000Y-70114561D01*
X70923021Y-70114561D01*
X70919778Y-70046546D01*
X70753864Y-69645995D01*
X70507745Y-69571861D01*
X69679605Y-70400000D01*
X69320395Y-70400000D01*
X68492255Y-69571861D01*
X68246136Y-69645995D01*
X68053035Y-70183223D01*
X66427594Y-70183223D01*
X66741310Y-69869507D01*
X66938994Y-69392255D01*
X68671861Y-69392255D01*
X69500000Y-70220395D01*
X70328139Y-69392255D01*
X70254005Y-69146136D01*
X69716777Y-68953035D01*
X69146546Y-68980222D01*
X68745995Y-69146136D01*
X68671861Y-69392255D01*
X66938994Y-69392255D01*
X66975000Y-69305330D01*
X66975000Y-68694670D01*
X66741310Y-68130493D01*
X66309507Y-67698690D01*
X65745330Y-67465000D01*
X65134670Y-67465000D01*
X64570493Y-67698690D01*
X64394139Y-67875044D01*
X64338327Y-67740301D01*
X64159698Y-67561673D01*
X63926309Y-67465000D01*
X63185750Y-67465000D01*
X63027000Y-67623750D01*
X62773000Y-67623750D01*
X62614250Y-67465000D01*
X61873691Y-67465000D01*
X61640302Y-67561673D01*
X61461673Y-67740301D01*
X61365000Y-67973690D01*
X60084507Y-67973690D01*
X59809507Y-67698690D01*
X59245330Y-67465000D01*
X58634670Y-67465000D01*
X58070493Y-67698690D01*
X57894139Y-67875044D01*
X57838327Y-67740301D01*
X57659698Y-67561673D01*
X57426309Y-67465000D01*
X56685750Y-67465000D01*
X56527000Y-67623750D01*
X56273000Y-67623750D01*
X56114250Y-67465000D01*
X55373691Y-67465000D01*
X55140302Y-67561673D01*
X54961673Y-67740301D01*
X54865000Y-67973690D01*
X53584507Y-67973690D01*
X53309507Y-67698690D01*
X52745330Y-67465000D01*
X52134670Y-67465000D01*
X52025162Y-67510360D01*
X50493731Y-65978930D01*
X50451329Y-65915471D01*
X50199937Y-65747496D01*
X49978252Y-65703400D01*
X49978247Y-65703400D01*
X49903400Y-65688512D01*
X49828553Y-65703400D01*
X47713503Y-65703400D01*
X47472003Y-65461900D01*
X66377953Y-65461900D01*
X66452800Y-65476788D01*
X66527647Y-65461900D01*
X66527652Y-65461900D01*
X66749337Y-65417804D01*
X67000729Y-65249829D01*
X67043131Y-65186370D01*
X68445196Y-63784306D01*
X68465423Y-63814577D01*
X68940091Y-64131740D01*
X69358667Y-64215000D01*
X69641333Y-64215000D01*
X70059909Y-64131740D01*
X70534577Y-63814577D01*
X70851740Y-63339909D01*
X70963113Y-62780000D01*
X71086887Y-62780000D01*
X71198260Y-63339909D01*
X71515423Y-63814577D01*
X71990091Y-64131740D01*
X72408667Y-64215000D01*
X72691333Y-64215000D01*
X73109909Y-64131740D01*
X73584577Y-63814577D01*
X73901740Y-63339909D01*
X74013113Y-62780000D01*
X73901740Y-62220091D01*
X73584577Y-61745423D01*
X73286432Y-61546209D01*
X73328139Y-61407745D01*
X74671861Y-61407745D01*
X74745995Y-61653864D01*
X75283223Y-61846965D01*
X75853454Y-61819778D01*
X76254005Y-61653864D01*
X76328139Y-61407745D01*
X75500000Y-60579605D01*
X74671861Y-61407745D01*
X73328139Y-61407745D01*
X72500000Y-60579605D01*
X71671861Y-61407745D01*
X71730322Y-61601832D01*
X71515423Y-61745423D01*
X71198260Y-62220091D01*
X71086887Y-62780000D01*
X70963113Y-62780000D01*
X70851740Y-62220091D01*
X70683420Y-61968182D01*
X71109773Y-61541829D01*
X71173229Y-61499429D01*
X71341204Y-61248037D01*
X71353477Y-61186337D01*
X71492255Y-61228139D01*
X72320395Y-60400000D01*
X72679605Y-60400000D01*
X73507745Y-61228139D01*
X73753864Y-61154005D01*
X73946965Y-60616777D01*
X73926295Y-60183223D01*
X74053035Y-60183223D01*
X74080222Y-60753454D01*
X74246136Y-61154005D01*
X74492255Y-61228139D01*
X75320395Y-60400000D01*
X75679605Y-60400000D01*
X76507745Y-61228139D01*
X76753864Y-61154005D01*
X76946965Y-60616777D01*
X76919778Y-60046546D01*
X76753864Y-59645995D01*
X76507745Y-59571861D01*
X75679605Y-60400000D01*
X75320395Y-60400000D01*
X74492255Y-59571861D01*
X74246136Y-59645995D01*
X74053035Y-60183223D01*
X73926295Y-60183223D01*
X73919778Y-60046546D01*
X73753864Y-59645995D01*
X73507745Y-59571861D01*
X72679605Y-60400000D01*
X72320395Y-60400000D01*
X72306252Y-60385858D01*
X72485858Y-60206252D01*
X72500000Y-60220395D01*
X73328139Y-59392255D01*
X74671861Y-59392255D01*
X75500000Y-60220395D01*
X76328139Y-59392255D01*
X76254005Y-59146136D01*
X75716777Y-58953035D01*
X75146546Y-58980222D01*
X74745995Y-59146136D01*
X74671861Y-59392255D01*
X73328139Y-59392255D01*
X73254005Y-59146136D01*
X72716777Y-58953035D01*
X72146546Y-58980222D01*
X71963430Y-59056071D01*
X77690000Y-53329502D01*
X77690001Y-76690000D01*
X37110000Y-76690000D01*
X37110000Y-73955431D01*
X37165000Y-73955431D01*
X37165000Y-74844569D01*
X37505259Y-75666026D01*
X38133974Y-76294741D01*
X38955431Y-76635000D01*
X39844569Y-76635000D01*
X40666026Y-76294741D01*
X41294741Y-75666026D01*
X41635000Y-74844569D01*
X41635000Y-73955431D01*
X73165000Y-73955431D01*
X73165000Y-74844569D01*
X73505259Y-75666026D01*
X74133974Y-76294741D01*
X74955431Y-76635000D01*
X75844569Y-76635000D01*
X76666026Y-76294741D01*
X77294741Y-75666026D01*
X77635000Y-74844569D01*
X77635000Y-73955431D01*
X77294741Y-73133974D01*
X76666026Y-72505259D01*
X75844569Y-72165000D01*
X74955431Y-72165000D01*
X74133974Y-72505259D01*
X73505259Y-73133974D01*
X73165000Y-73955431D01*
X41635000Y-73955431D01*
X41294741Y-73133974D01*
X40666026Y-72505259D01*
X39844569Y-72165000D01*
X38955431Y-72165000D01*
X38133974Y-72505259D01*
X37505259Y-73133974D01*
X37165000Y-73955431D01*
X37110000Y-73955431D01*
X37110000Y-71407745D01*
X68671861Y-71407745D01*
X68745995Y-71653864D01*
X69283223Y-71846965D01*
X69853454Y-71819778D01*
X70254005Y-71653864D01*
X70328139Y-71407745D01*
X69500000Y-70579605D01*
X68671861Y-71407745D01*
X37110000Y-71407745D01*
X37110000Y-69285750D01*
X41865000Y-69285750D01*
X41865000Y-70026310D01*
X41961673Y-70259699D01*
X42140302Y-70438327D01*
X42373691Y-70535000D01*
X43114250Y-70535000D01*
X43273000Y-70376250D01*
X43273000Y-69127000D01*
X42023750Y-69127000D01*
X41865000Y-69285750D01*
X37110000Y-69285750D01*
X37110000Y-67973690D01*
X41865000Y-67973690D01*
X41865000Y-68714250D01*
X42023750Y-68873000D01*
X43273000Y-68873000D01*
X43273000Y-67623750D01*
X43527000Y-67623750D01*
X43527000Y-68873000D01*
X43547000Y-68873000D01*
X43547000Y-69127000D01*
X43527000Y-69127000D01*
X43527000Y-70376250D01*
X43685750Y-70535000D01*
X44426309Y-70535000D01*
X44659698Y-70438327D01*
X44838327Y-70259699D01*
X44894139Y-70124956D01*
X45070493Y-70301310D01*
X45634670Y-70535000D01*
X46245330Y-70535000D01*
X46809507Y-70301310D01*
X47241310Y-69869507D01*
X47475000Y-69305330D01*
X47475000Y-69285750D01*
X48365000Y-69285750D01*
X48365000Y-70026310D01*
X48461673Y-70259699D01*
X48640302Y-70438327D01*
X48873691Y-70535000D01*
X49614250Y-70535000D01*
X49773000Y-70376250D01*
X49773000Y-69127000D01*
X48523750Y-69127000D01*
X48365000Y-69285750D01*
X47475000Y-69285750D01*
X47475000Y-68694670D01*
X47241310Y-68130493D01*
X46809507Y-67698690D01*
X46245330Y-67465000D01*
X45634670Y-67465000D01*
X45070493Y-67698690D01*
X44894139Y-67875044D01*
X44838327Y-67740301D01*
X44659698Y-67561673D01*
X44426309Y-67465000D01*
X43685750Y-67465000D01*
X43527000Y-67623750D01*
X43273000Y-67623750D01*
X43114250Y-67465000D01*
X42373691Y-67465000D01*
X42140302Y-67561673D01*
X41961673Y-67740301D01*
X41865000Y-67973690D01*
X37110000Y-67973690D01*
X37110000Y-41350000D01*
X44802560Y-41350000D01*
X44802560Y-43050000D01*
X44851843Y-43297765D01*
X44992191Y-43507809D01*
X45202235Y-43648157D01*
X45450000Y-43697440D01*
X47150000Y-43697440D01*
X47397765Y-43648157D01*
X47607809Y-43507809D01*
X47748157Y-43297765D01*
X47768739Y-43194292D01*
X48073076Y-43471645D01*
X48483110Y-43641476D01*
X48713000Y-43520155D01*
X48713000Y-42327000D01*
X48693000Y-42327000D01*
X48693000Y-42073000D01*
X48713000Y-42073000D01*
X48713000Y-40879845D01*
X48483110Y-40758524D01*
X48073076Y-40928355D01*
X47768739Y-41205708D01*
X47748157Y-41102235D01*
X47607809Y-40892191D01*
X47397765Y-40751843D01*
X47150000Y-40702560D01*
X45450000Y-40702560D01*
X45202235Y-40751843D01*
X44992191Y-40892191D01*
X44851843Y-41102235D01*
X44802560Y-41350000D01*
X37110000Y-41350000D01*
X37110000Y-37955431D01*
X37165000Y-37955431D01*
X37165000Y-38844569D01*
X37505259Y-39666026D01*
X38133974Y-40294741D01*
X38955431Y-40635000D01*
X39844569Y-40635000D01*
X40666026Y-40294741D01*
X41294741Y-39666026D01*
X41635000Y-38844569D01*
X41635000Y-37955431D01*
X41294741Y-37133974D01*
X40666026Y-36505259D01*
X39844569Y-36165000D01*
X38955431Y-36165000D01*
X38133974Y-36505259D01*
X37505259Y-37133974D01*
X37165000Y-37955431D01*
X37110000Y-37955431D01*
X37110000Y-36110000D01*
X77690000Y-36110000D01*
X77690000Y-45545198D01*
X77690000Y-45545198D01*
G37*
X77690000Y-45545198D02*
X77529661Y-45384859D01*
X77636051Y-44850000D01*
X77513036Y-44231564D01*
X77162721Y-43707279D01*
X76638436Y-43356964D01*
X76176103Y-43265000D01*
X75663897Y-43265000D01*
X75201564Y-43356964D01*
X74677279Y-43707279D01*
X74326964Y-44231564D01*
X74203949Y-44850000D01*
X74326964Y-45468436D01*
X74677279Y-45992721D01*
X74867766Y-46120000D01*
X74677279Y-46247279D01*
X74326964Y-46771564D01*
X74203949Y-47390000D01*
X74326964Y-48008436D01*
X74677279Y-48532721D01*
X74867766Y-48660000D01*
X74677279Y-48787279D01*
X74326964Y-49311564D01*
X74203949Y-49930000D01*
X74326964Y-50548436D01*
X74677279Y-51072721D01*
X75147606Y-51386983D01*
X74940091Y-51428260D01*
X74465423Y-51745423D01*
X74445196Y-51775694D01*
X73807231Y-51137730D01*
X73764829Y-51074271D01*
X73513437Y-50906296D01*
X73291752Y-50862200D01*
X73291747Y-50862200D01*
X73216900Y-50847312D01*
X73142053Y-50862200D01*
X71277202Y-50862200D01*
X70435300Y-50020299D01*
X70435300Y-50004852D01*
X70450189Y-49930000D01*
X70391204Y-49633463D01*
X70223229Y-49382071D01*
X69971837Y-49214096D01*
X69805849Y-49181079D01*
X69542721Y-48787279D01*
X69352234Y-48660000D01*
X69542721Y-48532721D01*
X69893036Y-48008436D01*
X70016051Y-47390000D01*
X69893036Y-46771564D01*
X69629407Y-46377014D01*
X69807809Y-46257809D01*
X69948157Y-46047765D01*
X69997440Y-45800000D01*
X69997440Y-43900000D01*
X69948157Y-43652235D01*
X69807809Y-43442191D01*
X69597765Y-43301843D01*
X69350000Y-43252560D01*
X67250000Y-43252560D01*
X67246931Y-43253171D01*
X68684473Y-41815629D01*
X68747929Y-41773229D01*
X68898797Y-41547440D01*
X69050000Y-41547440D01*
X69297765Y-41498157D01*
X69507809Y-41357809D01*
X69648157Y-41147765D01*
X69697440Y-40900000D01*
X69697440Y-39200000D01*
X69648157Y-38952235D01*
X69507809Y-38742191D01*
X69297765Y-38601843D01*
X69050000Y-38552560D01*
X67350000Y-38552560D01*
X67102235Y-38601843D01*
X66892191Y-38742191D01*
X66751843Y-38952235D01*
X66702560Y-39200000D01*
X66702560Y-40900000D01*
X66751843Y-41147765D01*
X66892191Y-41357809D01*
X66952435Y-41398063D01*
X66116720Y-42233779D01*
X66183113Y-41900000D01*
X66071740Y-41340091D01*
X65754577Y-40865423D01*
X65279909Y-40548260D01*
X64861333Y-40465000D01*
X64578667Y-40465000D01*
X64160091Y-40548260D01*
X63685423Y-40865423D01*
X63368260Y-41340091D01*
X63256887Y-41900000D01*
X63368260Y-42459909D01*
X63685423Y-42934577D01*
X64160091Y-43251740D01*
X64578667Y-43335000D01*
X64861333Y-43335000D01*
X65279909Y-43251740D01*
X65651463Y-43003476D01*
X65665601Y-43074552D01*
X65665601Y-43905971D01*
X65279909Y-43648260D01*
X64861333Y-43565000D01*
X64578667Y-43565000D01*
X64160091Y-43648260D01*
X63685423Y-43965423D01*
X63368260Y-44440091D01*
X63256887Y-45000000D01*
X63368260Y-45559909D01*
X63685423Y-46034577D01*
X64160091Y-46351740D01*
X64578667Y-46435000D01*
X64861333Y-46435000D01*
X65279909Y-46351740D01*
X65665601Y-46094029D01*
X65665600Y-50659598D01*
X64721488Y-51603711D01*
X64459037Y-51495000D01*
X63740963Y-51495000D01*
X63077550Y-51769795D01*
X62569795Y-52277550D01*
X62295000Y-52940963D01*
X62295000Y-53659037D01*
X62569795Y-54322450D01*
X63077550Y-54830205D01*
X63740963Y-55105000D01*
X64459037Y-55105000D01*
X65122450Y-54830205D01*
X65630205Y-54322450D01*
X65905000Y-53659037D01*
X65905000Y-52940963D01*
X65796289Y-52678512D01*
X66497350Y-51977451D01*
X67784371Y-53264473D01*
X67826771Y-53327929D01*
X68078163Y-53495904D01*
X68279214Y-53535896D01*
X68465423Y-53814577D01*
X68940091Y-54131740D01*
X69358667Y-54215000D01*
X69641333Y-54215000D01*
X70059909Y-54131740D01*
X70202400Y-54036530D01*
X70202401Y-56422797D01*
X67335000Y-59290198D01*
X67335000Y-58573690D01*
X67238327Y-58340301D01*
X67059698Y-58161673D01*
X66826309Y-58065000D01*
X66085750Y-58065000D01*
X65927000Y-58223750D01*
X65927000Y-59473000D01*
X65947000Y-59473000D01*
X65947000Y-59727000D01*
X65927000Y-59727000D01*
X65927000Y-59747000D01*
X65673000Y-59747000D01*
X65673000Y-59727000D01*
X65653000Y-59727000D01*
X65653000Y-59473000D01*
X65673000Y-59473000D01*
X65673000Y-58223750D01*
X65514250Y-58065000D01*
X64773691Y-58065000D01*
X64540302Y-58161673D01*
X64361673Y-58340301D01*
X64305861Y-58475044D01*
X64129507Y-58298690D01*
X63565330Y-58065000D01*
X62954670Y-58065000D01*
X62390493Y-58298690D01*
X61958690Y-58730493D01*
X61725000Y-59294670D01*
X61725000Y-59905330D01*
X61770360Y-60014838D01*
X58758299Y-63026900D01*
X55300825Y-63026900D01*
X55361204Y-62936537D01*
X55420189Y-62640000D01*
X55405300Y-62565148D01*
X55405300Y-62029501D01*
X56345162Y-61089640D01*
X56454670Y-61135000D01*
X57065330Y-61135000D01*
X57629507Y-60901310D01*
X57798725Y-60732092D01*
X57801843Y-60747765D01*
X57942191Y-60957809D01*
X58152235Y-61098157D01*
X58400000Y-61147440D01*
X60200000Y-61147440D01*
X60447765Y-61098157D01*
X60657809Y-60957809D01*
X60798157Y-60747765D01*
X60847440Y-60500000D01*
X60847440Y-58700000D01*
X60798157Y-58452235D01*
X60657809Y-58242191D01*
X60586215Y-58194353D01*
X61254685Y-57525884D01*
X61324401Y-57479301D01*
X61508952Y-57203101D01*
X61557400Y-56959537D01*
X61557400Y-56959534D01*
X61573757Y-56877301D01*
X61557400Y-56795068D01*
X61557400Y-50107071D01*
X62012646Y-50093504D01*
X62576414Y-49859984D01*
X62695880Y-49575486D01*
X61600000Y-48479605D01*
X61585858Y-48493748D01*
X61406252Y-48314142D01*
X61420395Y-48300000D01*
X61779605Y-48300000D01*
X62875486Y-49395880D01*
X63159984Y-49276414D01*
X63414894Y-48605110D01*
X63393504Y-47887354D01*
X63159984Y-47323586D01*
X62875486Y-47204120D01*
X61779605Y-48300000D01*
X61420395Y-48300000D01*
X60324514Y-47204120D01*
X60040016Y-47323586D01*
X59837577Y-47856709D01*
X59005382Y-47024514D01*
X60504120Y-47024514D01*
X61600000Y-48120395D01*
X62695880Y-47024514D01*
X62576414Y-46740016D01*
X61905110Y-46485106D01*
X61187354Y-46506496D01*
X60623586Y-46740016D01*
X60504120Y-47024514D01*
X59005382Y-47024514D01*
X58055132Y-46074264D01*
X58316534Y-45812862D01*
X58535000Y-45285439D01*
X58535000Y-44714561D01*
X58316534Y-44187138D01*
X57935000Y-43805604D01*
X57935000Y-43094396D01*
X58316534Y-42712862D01*
X58535000Y-42185439D01*
X58535000Y-41645867D01*
X59823708Y-40357160D01*
X59925801Y-40336852D01*
X60202001Y-40152301D01*
X60386552Y-39876101D01*
X60402199Y-39797440D01*
X60450000Y-39797440D01*
X60697765Y-39748157D01*
X60907809Y-39607809D01*
X61048157Y-39397765D01*
X61068739Y-39294292D01*
X61373076Y-39571645D01*
X61783110Y-39741476D01*
X62013000Y-39620155D01*
X62013000Y-38427000D01*
X62267000Y-38427000D01*
X62267000Y-39620155D01*
X62496890Y-39741476D01*
X62906924Y-39571645D01*
X63335183Y-39181358D01*
X63581486Y-38656892D01*
X63460819Y-38427000D01*
X62267000Y-38427000D01*
X62013000Y-38427000D01*
X61993000Y-38427000D01*
X61993000Y-38173000D01*
X62013000Y-38173000D01*
X62013000Y-36979845D01*
X62267000Y-36979845D01*
X62267000Y-38173000D01*
X63460819Y-38173000D01*
X63575017Y-37955431D01*
X73165000Y-37955431D01*
X73165000Y-38844569D01*
X73505259Y-39666026D01*
X74133974Y-40294741D01*
X74955431Y-40635000D01*
X75844569Y-40635000D01*
X76666026Y-40294741D01*
X77294741Y-39666026D01*
X77635000Y-38844569D01*
X77635000Y-37955431D01*
X77294741Y-37133974D01*
X76666026Y-36505259D01*
X75844569Y-36165000D01*
X74955431Y-36165000D01*
X74133974Y-36505259D01*
X73505259Y-37133974D01*
X73165000Y-37955431D01*
X63575017Y-37955431D01*
X63581486Y-37943108D01*
X63335183Y-37418642D01*
X62906924Y-37028355D01*
X62496890Y-36858524D01*
X62267000Y-36979845D01*
X62013000Y-36979845D01*
X61783110Y-36858524D01*
X61373076Y-37028355D01*
X61068739Y-37305708D01*
X61048157Y-37202235D01*
X60907809Y-36992191D01*
X60697765Y-36851843D01*
X60450000Y-36802560D01*
X58750000Y-36802560D01*
X58502235Y-36851843D01*
X58292191Y-36992191D01*
X58151843Y-37202235D01*
X58102560Y-37450000D01*
X58102560Y-39150000D01*
X58151843Y-39397765D01*
X58259800Y-39559332D01*
X57354133Y-40465000D01*
X56814561Y-40465000D01*
X56287138Y-40683466D01*
X55883466Y-41087138D01*
X55665000Y-41614561D01*
X55665000Y-42185439D01*
X55883466Y-42712862D01*
X56265000Y-43094396D01*
X56265001Y-43805603D01*
X55883466Y-44187138D01*
X55839779Y-44292607D01*
X55837304Y-44280163D01*
X55669329Y-44028771D01*
X55605873Y-43986371D01*
X54930380Y-43310879D01*
X54990625Y-43270625D01*
X55318839Y-42779418D01*
X55434092Y-42200000D01*
X55318839Y-41620582D01*
X54990625Y-41129375D01*
X54499418Y-40801161D01*
X54066256Y-40715000D01*
X53773744Y-40715000D01*
X53340582Y-40801161D01*
X52849375Y-41129375D01*
X52650000Y-41427761D01*
X52450625Y-41129375D01*
X51959418Y-40801161D01*
X51526256Y-40715000D01*
X51233744Y-40715000D01*
X50800582Y-40801161D01*
X50309375Y-41129375D01*
X50096157Y-41448478D01*
X50035183Y-41318642D01*
X49606924Y-40928355D01*
X49196890Y-40758524D01*
X48967000Y-40879845D01*
X48967000Y-42073000D01*
X48987000Y-42073000D01*
X48987000Y-42327000D01*
X48967000Y-42327000D01*
X48967000Y-43520155D01*
X49196890Y-43641476D01*
X49606924Y-43471645D01*
X50035183Y-43081358D01*
X50096157Y-42951522D01*
X50309375Y-43270625D01*
X50626430Y-43482475D01*
X50639390Y-43547629D01*
X50664097Y-43671837D01*
X50693341Y-43715603D01*
X50832072Y-43923229D01*
X50895528Y-43965629D01*
X53012826Y-46082928D01*
X52664866Y-46247611D01*
X52288959Y-46662577D01*
X52128096Y-47050961D01*
X52250085Y-47273000D01*
X53393000Y-47273000D01*
X53393000Y-47253000D01*
X53647000Y-47253000D01*
X53647000Y-47273000D01*
X53667000Y-47273000D01*
X53667000Y-47527000D01*
X53647000Y-47527000D01*
X53647000Y-47547000D01*
X53393000Y-47547000D01*
X53393000Y-47527000D01*
X52250085Y-47527000D01*
X52128096Y-47749039D01*
X52288959Y-48137423D01*
X52664866Y-48552389D01*
X52869108Y-48649053D01*
X52485423Y-48905423D01*
X52168260Y-49380091D01*
X52056887Y-49940000D01*
X52168260Y-50499909D01*
X52485423Y-50974577D01*
X52837758Y-51210000D01*
X52485423Y-51445423D01*
X52168260Y-51920091D01*
X52056887Y-52480000D01*
X52168260Y-53039909D01*
X52485423Y-53514577D01*
X52837758Y-53750000D01*
X52485423Y-53985423D01*
X52168260Y-54460091D01*
X52056887Y-55020000D01*
X52168260Y-55579909D01*
X52485423Y-56054577D01*
X52781386Y-56252333D01*
X52764104Y-56339214D01*
X52485423Y-56525423D01*
X52168260Y-57000091D01*
X52056887Y-57560000D01*
X52168260Y-58119909D01*
X52485423Y-58594577D01*
X52781386Y-58792333D01*
X52764104Y-58879214D01*
X52485423Y-59065423D01*
X52168260Y-59540091D01*
X52056887Y-60100000D01*
X52168260Y-60659909D01*
X52485423Y-61134577D01*
X52837758Y-61370000D01*
X52485423Y-61605423D01*
X52168260Y-62080091D01*
X52056887Y-62640000D01*
X52133846Y-63026900D01*
X51027002Y-63026900D01*
X47615631Y-59615530D01*
X47573229Y-59552071D01*
X47321837Y-59384096D01*
X47120786Y-59344104D01*
X46934577Y-59065423D01*
X46638614Y-58867667D01*
X46655896Y-58780786D01*
X46934577Y-58594577D01*
X47251740Y-58119909D01*
X47363113Y-57560000D01*
X47251740Y-57000091D01*
X47000106Y-56623495D01*
X47513473Y-56110129D01*
X47576929Y-56067729D01*
X47744904Y-55816337D01*
X47789000Y-55594652D01*
X47789000Y-55594648D01*
X47803888Y-55519801D01*
X47789000Y-55444954D01*
X47789000Y-54527848D01*
X47803888Y-54453000D01*
X47789000Y-54378152D01*
X47789000Y-54378148D01*
X47744904Y-54156463D01*
X47744904Y-54156462D01*
X47619329Y-53968527D01*
X47576929Y-53905071D01*
X47513473Y-53862671D01*
X47027023Y-53376222D01*
X47251740Y-53039909D01*
X47363113Y-52480000D01*
X47251740Y-51920091D01*
X46934577Y-51445423D01*
X46582242Y-51210000D01*
X46934577Y-50974577D01*
X47251740Y-50499909D01*
X47363113Y-49940000D01*
X47251740Y-49380091D01*
X46934577Y-48905423D01*
X46813894Y-48824785D01*
X46947765Y-48798157D01*
X47157809Y-48657809D01*
X47298157Y-48447765D01*
X47347440Y-48200000D01*
X47347440Y-46600000D01*
X47298157Y-46352235D01*
X47157809Y-46142191D01*
X46947765Y-46001843D01*
X46700000Y-45952560D01*
X45100000Y-45952560D01*
X44852235Y-46001843D01*
X44642191Y-46142191D01*
X44501843Y-46352235D01*
X44452560Y-46600000D01*
X44452560Y-48200000D01*
X44500951Y-48443281D01*
X44385300Y-48558933D01*
X44385300Y-47427448D01*
X44400188Y-47352600D01*
X44385300Y-47277752D01*
X44385300Y-47277748D01*
X44341204Y-47056063D01*
X44173229Y-46804671D01*
X44109770Y-46762269D01*
X43848331Y-46500830D01*
X43811363Y-46445504D01*
X43848839Y-46389418D01*
X43964092Y-45810000D01*
X43848839Y-45230582D01*
X43520625Y-44739375D01*
X43222239Y-44540000D01*
X43520625Y-44340625D01*
X43848839Y-43849418D01*
X43964092Y-43270000D01*
X43848839Y-42690582D01*
X43520625Y-42199375D01*
X43029418Y-41871161D01*
X42596256Y-41785000D01*
X42303744Y-41785000D01*
X41870582Y-41871161D01*
X41379375Y-42199375D01*
X41051161Y-42690582D01*
X40935908Y-43270000D01*
X41051161Y-43849418D01*
X41379375Y-44340625D01*
X41677761Y-44540000D01*
X41379375Y-44739375D01*
X41051161Y-45230582D01*
X40935908Y-45810000D01*
X41051161Y-46389418D01*
X41379375Y-46880625D01*
X41397619Y-46892816D01*
X41352235Y-46901843D01*
X41142191Y-47042191D01*
X41001843Y-47252235D01*
X40952560Y-47500000D01*
X40952560Y-49200000D01*
X41001843Y-49447765D01*
X41142191Y-49657809D01*
X41352235Y-49798157D01*
X41600000Y-49847440D01*
X42702458Y-49847440D01*
X41965528Y-50584371D01*
X41902072Y-50626771D01*
X41859672Y-50690227D01*
X41859671Y-50690228D01*
X41751204Y-50852560D01*
X41600000Y-50852560D01*
X41352235Y-50901843D01*
X41142191Y-51042191D01*
X41001843Y-51252235D01*
X40952560Y-51500000D01*
X40952560Y-53200000D01*
X41001843Y-53447765D01*
X41142191Y-53657809D01*
X41352235Y-53798157D01*
X41397619Y-53807184D01*
X41379375Y-53819375D01*
X41051161Y-54310582D01*
X40935908Y-54890000D01*
X41051161Y-55469418D01*
X41379375Y-55960625D01*
X41698478Y-56173843D01*
X41568642Y-56234817D01*
X41178355Y-56663076D01*
X41008524Y-57073110D01*
X41129845Y-57303000D01*
X42323000Y-57303000D01*
X42323000Y-57283000D01*
X42577000Y-57283000D01*
X42577000Y-57303000D01*
X42597000Y-57303000D01*
X42597000Y-57557000D01*
X42577000Y-57557000D01*
X42577000Y-57577000D01*
X42323000Y-57577000D01*
X42323000Y-57557000D01*
X41129845Y-57557000D01*
X41008524Y-57786890D01*
X41178355Y-58196924D01*
X41568642Y-58625183D01*
X41698478Y-58686157D01*
X41379375Y-58899375D01*
X41051161Y-59390582D01*
X40935908Y-59970000D01*
X41051161Y-60549418D01*
X41379375Y-61040625D01*
X41677761Y-61240000D01*
X41379375Y-61439375D01*
X41051161Y-61930582D01*
X40935908Y-62510000D01*
X41051161Y-63089418D01*
X41379375Y-63580625D01*
X41870582Y-63908839D01*
X42303744Y-63995000D01*
X42596256Y-63995000D01*
X43029418Y-63908839D01*
X43520625Y-63580625D01*
X43539031Y-63553079D01*
X43554697Y-63631837D01*
X43722672Y-63883229D01*
X43786128Y-63925629D01*
X46808373Y-66947876D01*
X46850771Y-67011329D01*
X46914224Y-67053727D01*
X46914226Y-67053729D01*
X47039602Y-67137502D01*
X47102163Y-67179304D01*
X47323848Y-67223400D01*
X47323852Y-67223400D01*
X47398699Y-67238288D01*
X47473546Y-67223400D01*
X49588599Y-67223400D01*
X49830199Y-67465000D01*
X49772998Y-67465000D01*
X49772998Y-67623748D01*
X49614250Y-67465000D01*
X48873691Y-67465000D01*
X48640302Y-67561673D01*
X48461673Y-67740301D01*
X48365000Y-67973690D01*
X48365000Y-68714250D01*
X48523750Y-68873000D01*
X49773000Y-68873000D01*
X49773000Y-68853000D01*
X50027000Y-68853000D01*
X50027000Y-68873000D01*
X50047000Y-68873000D01*
X50047000Y-69127000D01*
X50027000Y-69127000D01*
X50027000Y-70376250D01*
X50185750Y-70535000D01*
X50926309Y-70535000D01*
X51159698Y-70438327D01*
X51338327Y-70259699D01*
X51394139Y-70124956D01*
X51570493Y-70301310D01*
X52134670Y-70535000D01*
X52745330Y-70535000D01*
X53309507Y-70301310D01*
X53741310Y-69869507D01*
X53975000Y-69305330D01*
X53975000Y-69285750D01*
X54865000Y-69285750D01*
X54865000Y-70026310D01*
X54961673Y-70259699D01*
X55140302Y-70438327D01*
X55373691Y-70535000D01*
X56114250Y-70535000D01*
X56273000Y-70376250D01*
X56273000Y-69127000D01*
X55023750Y-69127000D01*
X54865000Y-69285750D01*
X53975000Y-69285750D01*
X53975000Y-68694670D01*
X53741310Y-68130493D01*
X53584507Y-67973690D01*
X54865000Y-67973690D01*
X54865000Y-68714250D01*
X55023750Y-68873000D01*
X56273000Y-68873000D01*
X56273000Y-67623750D01*
X56527000Y-67623750D01*
X56527000Y-68873000D01*
X56547000Y-68873000D01*
X56547000Y-69127000D01*
X56527000Y-69127000D01*
X56527000Y-70376250D01*
X56685750Y-70535000D01*
X57426309Y-70535000D01*
X57659698Y-70438327D01*
X57838327Y-70259699D01*
X57894139Y-70124956D01*
X58070493Y-70301310D01*
X58634670Y-70535000D01*
X59245330Y-70535000D01*
X59809507Y-70301310D01*
X60241310Y-69869507D01*
X60475000Y-69305330D01*
X60475000Y-69285750D01*
X61365000Y-69285750D01*
X61365000Y-70026310D01*
X61461673Y-70259699D01*
X61640302Y-70438327D01*
X61873691Y-70535000D01*
X62614250Y-70535000D01*
X62773000Y-70376250D01*
X62773000Y-69127000D01*
X61523750Y-69127000D01*
X61365000Y-69285750D01*
X60475000Y-69285750D01*
X60475000Y-68694670D01*
X60241310Y-68130493D01*
X60084507Y-67973690D01*
X61365000Y-67973690D01*
X61365000Y-68714250D01*
X61523750Y-68873000D01*
X62773000Y-68873000D01*
X62773000Y-67623750D01*
X63027000Y-67623750D01*
X63027000Y-68873000D01*
X63047000Y-68873000D01*
X63047000Y-69127000D01*
X63027000Y-69127000D01*
X63027000Y-70376250D01*
X63185750Y-70535000D01*
X63926309Y-70535000D01*
X64159698Y-70438327D01*
X64338327Y-70259699D01*
X64394139Y-70124956D01*
X64570493Y-70301310D01*
X65134670Y-70535000D01*
X65745330Y-70535000D01*
X66309507Y-70301310D01*
X66427594Y-70183223D01*
X68053035Y-70183223D01*
X68080222Y-70753454D01*
X68246136Y-71154005D01*
X68492255Y-71228139D01*
X69320395Y-70400000D01*
X69679605Y-70400000D01*
X70507745Y-71228139D01*
X70753864Y-71154005D01*
X70946965Y-70616777D01*
X70923021Y-70114561D01*
X71115000Y-70114561D01*
X71115000Y-70685439D01*
X71333466Y-71212862D01*
X71737138Y-71616534D01*
X72264561Y-71835000D01*
X72835439Y-71835000D01*
X73362862Y-71616534D01*
X73766534Y-71212862D01*
X73985000Y-70685439D01*
X73985000Y-70114561D01*
X73766534Y-69587138D01*
X73362862Y-69183466D01*
X72835439Y-68965000D01*
X72264561Y-68965000D01*
X71737138Y-69183466D01*
X71333466Y-69587138D01*
X71115000Y-70114561D01*
X70923021Y-70114561D01*
X70919778Y-70046546D01*
X70753864Y-69645995D01*
X70507745Y-69571861D01*
X69679605Y-70400000D01*
X69320395Y-70400000D01*
X68492255Y-69571861D01*
X68246136Y-69645995D01*
X68053035Y-70183223D01*
X66427594Y-70183223D01*
X66741310Y-69869507D01*
X66938994Y-69392255D01*
X68671861Y-69392255D01*
X69500000Y-70220395D01*
X70328139Y-69392255D01*
X70254005Y-69146136D01*
X69716777Y-68953035D01*
X69146546Y-68980222D01*
X68745995Y-69146136D01*
X68671861Y-69392255D01*
X66938994Y-69392255D01*
X66975000Y-69305330D01*
X66975000Y-68694670D01*
X66741310Y-68130493D01*
X66309507Y-67698690D01*
X65745330Y-67465000D01*
X65134670Y-67465000D01*
X64570493Y-67698690D01*
X64394139Y-67875044D01*
X64338327Y-67740301D01*
X64159698Y-67561673D01*
X63926309Y-67465000D01*
X63185750Y-67465000D01*
X63027000Y-67623750D01*
X62773000Y-67623750D01*
X62614250Y-67465000D01*
X61873691Y-67465000D01*
X61640302Y-67561673D01*
X61461673Y-67740301D01*
X61365000Y-67973690D01*
X60084507Y-67973690D01*
X59809507Y-67698690D01*
X59245330Y-67465000D01*
X58634670Y-67465000D01*
X58070493Y-67698690D01*
X57894139Y-67875044D01*
X57838327Y-67740301D01*
X57659698Y-67561673D01*
X57426309Y-67465000D01*
X56685750Y-67465000D01*
X56527000Y-67623750D01*
X56273000Y-67623750D01*
X56114250Y-67465000D01*
X55373691Y-67465000D01*
X55140302Y-67561673D01*
X54961673Y-67740301D01*
X54865000Y-67973690D01*
X53584507Y-67973690D01*
X53309507Y-67698690D01*
X52745330Y-67465000D01*
X52134670Y-67465000D01*
X52025162Y-67510360D01*
X50493731Y-65978930D01*
X50451329Y-65915471D01*
X50199937Y-65747496D01*
X49978252Y-65703400D01*
X49978247Y-65703400D01*
X49903400Y-65688512D01*
X49828553Y-65703400D01*
X47713503Y-65703400D01*
X47472003Y-65461900D01*
X66377953Y-65461900D01*
X66452800Y-65476788D01*
X66527647Y-65461900D01*
X66527652Y-65461900D01*
X66749337Y-65417804D01*
X67000729Y-65249829D01*
X67043131Y-65186370D01*
X68445196Y-63784306D01*
X68465423Y-63814577D01*
X68940091Y-64131740D01*
X69358667Y-64215000D01*
X69641333Y-64215000D01*
X70059909Y-64131740D01*
X70534577Y-63814577D01*
X70851740Y-63339909D01*
X70963113Y-62780000D01*
X71086887Y-62780000D01*
X71198260Y-63339909D01*
X71515423Y-63814577D01*
X71990091Y-64131740D01*
X72408667Y-64215000D01*
X72691333Y-64215000D01*
X73109909Y-64131740D01*
X73584577Y-63814577D01*
X73901740Y-63339909D01*
X74013113Y-62780000D01*
X73901740Y-62220091D01*
X73584577Y-61745423D01*
X73286432Y-61546209D01*
X73328139Y-61407745D01*
X74671861Y-61407745D01*
X74745995Y-61653864D01*
X75283223Y-61846965D01*
X75853454Y-61819778D01*
X76254005Y-61653864D01*
X76328139Y-61407745D01*
X75500000Y-60579605D01*
X74671861Y-61407745D01*
X73328139Y-61407745D01*
X72500000Y-60579605D01*
X71671861Y-61407745D01*
X71730322Y-61601832D01*
X71515423Y-61745423D01*
X71198260Y-62220091D01*
X71086887Y-62780000D01*
X70963113Y-62780000D01*
X70851740Y-62220091D01*
X70683420Y-61968182D01*
X71109773Y-61541829D01*
X71173229Y-61499429D01*
X71341204Y-61248037D01*
X71353477Y-61186337D01*
X71492255Y-61228139D01*
X72320395Y-60400000D01*
X72679605Y-60400000D01*
X73507745Y-61228139D01*
X73753864Y-61154005D01*
X73946965Y-60616777D01*
X73926295Y-60183223D01*
X74053035Y-60183223D01*
X74080222Y-60753454D01*
X74246136Y-61154005D01*
X74492255Y-61228139D01*
X75320395Y-60400000D01*
X75679605Y-60400000D01*
X76507745Y-61228139D01*
X76753864Y-61154005D01*
X76946965Y-60616777D01*
X76919778Y-60046546D01*
X76753864Y-59645995D01*
X76507745Y-59571861D01*
X75679605Y-60400000D01*
X75320395Y-60400000D01*
X74492255Y-59571861D01*
X74246136Y-59645995D01*
X74053035Y-60183223D01*
X73926295Y-60183223D01*
X73919778Y-60046546D01*
X73753864Y-59645995D01*
X73507745Y-59571861D01*
X72679605Y-60400000D01*
X72320395Y-60400000D01*
X72306252Y-60385858D01*
X72485858Y-60206252D01*
X72500000Y-60220395D01*
X73328139Y-59392255D01*
X74671861Y-59392255D01*
X75500000Y-60220395D01*
X76328139Y-59392255D01*
X76254005Y-59146136D01*
X75716777Y-58953035D01*
X75146546Y-58980222D01*
X74745995Y-59146136D01*
X74671861Y-59392255D01*
X73328139Y-59392255D01*
X73254005Y-59146136D01*
X72716777Y-58953035D01*
X72146546Y-58980222D01*
X71963430Y-59056071D01*
X77690000Y-53329502D01*
X77690001Y-76690000D01*
X37110000Y-76690000D01*
X37110000Y-73955431D01*
X37165000Y-73955431D01*
X37165000Y-74844569D01*
X37505259Y-75666026D01*
X38133974Y-76294741D01*
X38955431Y-76635000D01*
X39844569Y-76635000D01*
X40666026Y-76294741D01*
X41294741Y-75666026D01*
X41635000Y-74844569D01*
X41635000Y-73955431D01*
X73165000Y-73955431D01*
X73165000Y-74844569D01*
X73505259Y-75666026D01*
X74133974Y-76294741D01*
X74955431Y-76635000D01*
X75844569Y-76635000D01*
X76666026Y-76294741D01*
X77294741Y-75666026D01*
X77635000Y-74844569D01*
X77635000Y-73955431D01*
X77294741Y-73133974D01*
X76666026Y-72505259D01*
X75844569Y-72165000D01*
X74955431Y-72165000D01*
X74133974Y-72505259D01*
X73505259Y-73133974D01*
X73165000Y-73955431D01*
X41635000Y-73955431D01*
X41294741Y-73133974D01*
X40666026Y-72505259D01*
X39844569Y-72165000D01*
X38955431Y-72165000D01*
X38133974Y-72505259D01*
X37505259Y-73133974D01*
X37165000Y-73955431D01*
X37110000Y-73955431D01*
X37110000Y-71407745D01*
X68671861Y-71407745D01*
X68745995Y-71653864D01*
X69283223Y-71846965D01*
X69853454Y-71819778D01*
X70254005Y-71653864D01*
X70328139Y-71407745D01*
X69500000Y-70579605D01*
X68671861Y-71407745D01*
X37110000Y-71407745D01*
X37110000Y-69285750D01*
X41865000Y-69285750D01*
X41865000Y-70026310D01*
X41961673Y-70259699D01*
X42140302Y-70438327D01*
X42373691Y-70535000D01*
X43114250Y-70535000D01*
X43273000Y-70376250D01*
X43273000Y-69127000D01*
X42023750Y-69127000D01*
X41865000Y-69285750D01*
X37110000Y-69285750D01*
X37110000Y-67973690D01*
X41865000Y-67973690D01*
X41865000Y-68714250D01*
X42023750Y-68873000D01*
X43273000Y-68873000D01*
X43273000Y-67623750D01*
X43527000Y-67623750D01*
X43527000Y-68873000D01*
X43547000Y-68873000D01*
X43547000Y-69127000D01*
X43527000Y-69127000D01*
X43527000Y-70376250D01*
X43685750Y-70535000D01*
X44426309Y-70535000D01*
X44659698Y-70438327D01*
X44838327Y-70259699D01*
X44894139Y-70124956D01*
X45070493Y-70301310D01*
X45634670Y-70535000D01*
X46245330Y-70535000D01*
X46809507Y-70301310D01*
X47241310Y-69869507D01*
X47475000Y-69305330D01*
X47475000Y-69285750D01*
X48365000Y-69285750D01*
X48365000Y-70026310D01*
X48461673Y-70259699D01*
X48640302Y-70438327D01*
X48873691Y-70535000D01*
X49614250Y-70535000D01*
X49773000Y-70376250D01*
X49773000Y-69127000D01*
X48523750Y-69127000D01*
X48365000Y-69285750D01*
X47475000Y-69285750D01*
X47475000Y-68694670D01*
X47241310Y-68130493D01*
X46809507Y-67698690D01*
X46245330Y-67465000D01*
X45634670Y-67465000D01*
X45070493Y-67698690D01*
X44894139Y-67875044D01*
X44838327Y-67740301D01*
X44659698Y-67561673D01*
X44426309Y-67465000D01*
X43685750Y-67465000D01*
X43527000Y-67623750D01*
X43273000Y-67623750D01*
X43114250Y-67465000D01*
X42373691Y-67465000D01*
X42140302Y-67561673D01*
X41961673Y-67740301D01*
X41865000Y-67973690D01*
X37110000Y-67973690D01*
X37110000Y-41350000D01*
X44802560Y-41350000D01*
X44802560Y-43050000D01*
X44851843Y-43297765D01*
X44992191Y-43507809D01*
X45202235Y-43648157D01*
X45450000Y-43697440D01*
X47150000Y-43697440D01*
X47397765Y-43648157D01*
X47607809Y-43507809D01*
X47748157Y-43297765D01*
X47768739Y-43194292D01*
X48073076Y-43471645D01*
X48483110Y-43641476D01*
X48713000Y-43520155D01*
X48713000Y-42327000D01*
X48693000Y-42327000D01*
X48693000Y-42073000D01*
X48713000Y-42073000D01*
X48713000Y-40879845D01*
X48483110Y-40758524D01*
X48073076Y-40928355D01*
X47768739Y-41205708D01*
X47748157Y-41102235D01*
X47607809Y-40892191D01*
X47397765Y-40751843D01*
X47150000Y-40702560D01*
X45450000Y-40702560D01*
X45202235Y-40751843D01*
X44992191Y-40892191D01*
X44851843Y-41102235D01*
X44802560Y-41350000D01*
X37110000Y-41350000D01*
X37110000Y-37955431D01*
X37165000Y-37955431D01*
X37165000Y-38844569D01*
X37505259Y-39666026D01*
X38133974Y-40294741D01*
X38955431Y-40635000D01*
X39844569Y-40635000D01*
X40666026Y-40294741D01*
X41294741Y-39666026D01*
X41635000Y-38844569D01*
X41635000Y-37955431D01*
X41294741Y-37133974D01*
X40666026Y-36505259D01*
X39844569Y-36165000D01*
X38955431Y-36165000D01*
X38133974Y-36505259D01*
X37505259Y-37133974D01*
X37165000Y-37955431D01*
X37110000Y-37955431D01*
X37110000Y-36110000D01*
X77690000Y-36110000D01*
X77690000Y-45545198D01*
G36*
X69693748Y-60385858D02*
X69679605Y-60400000D01*
X69693748Y-60414143D01*
X69514143Y-60593748D01*
X69500000Y-60579605D01*
X69014646Y-61064960D01*
X68952071Y-61106771D01*
X68910260Y-61169346D01*
X68671861Y-61407745D01*
X68721945Y-61574020D01*
X68465423Y-61745423D01*
X68279214Y-62024104D01*
X68078163Y-62064096D01*
X67826771Y-62232071D01*
X67784371Y-62295527D01*
X66137999Y-63941900D01*
X64832901Y-63941900D01*
X68077543Y-60697259D01*
X68080222Y-60753454D01*
X68246136Y-61154005D01*
X68492255Y-61228139D01*
X69320395Y-60400000D01*
X69306252Y-60385858D01*
X69485858Y-60206252D01*
X69500000Y-60220395D01*
X69514142Y-60206252D01*
X69693748Y-60385858D01*
X69693748Y-60385858D01*
G37*
X69693748Y-60385858D02*
X69679605Y-60400000D01*
X69693748Y-60414143D01*
X69514143Y-60593748D01*
X69500000Y-60579605D01*
X69014646Y-61064960D01*
X68952071Y-61106771D01*
X68910260Y-61169346D01*
X68671861Y-61407745D01*
X68721945Y-61574020D01*
X68465423Y-61745423D01*
X68279214Y-62024104D01*
X68078163Y-62064096D01*
X67826771Y-62232071D01*
X67784371Y-62295527D01*
X66137999Y-63941900D01*
X64832901Y-63941900D01*
X68077543Y-60697259D01*
X68080222Y-60753454D01*
X68246136Y-61154005D01*
X68492255Y-61228139D01*
X69320395Y-60400000D01*
X69306252Y-60385858D01*
X69485858Y-60206252D01*
X69500000Y-60220395D01*
X69514142Y-60206252D01*
X69693748Y-60385858D01*
G04 #@! TD*
M02*
