G04 #@! TF.GenerationSoftware,KiCad,Pcbnew,(5.0.0)*
G04 #@! TF.CreationDate,2019-09-23T14:44:06+09:00*
G04 #@! TF.ProjectId,ir_read_mod,69725F726561645F6D6F642E6B696361,rev?*
G04 #@! TF.SameCoordinates,Original*
G04 #@! TF.FileFunction,Copper,L1,Top,Signal*
G04 #@! TF.FilePolarity,Positive*
%FSLAX46Y46*%
G04 Gerber Fmt 4.6, Leading zero omitted, Abs format (unit mm)*
G04 Created by KiCad (PCBNEW (5.0.0)) date 09/23/19 14:44:06*
%MOMM*%
%LPD*%
G01*
G04 APERTURE LIST*
G04 #@! TA.AperFunction,ComponentPad*
%ADD10C,1.800000*%
G04 #@! TD*
G04 #@! TA.AperFunction,ComponentPad*
%ADD11R,1.800000X1.800000*%
G04 #@! TD*
G04 #@! TA.AperFunction,ComponentPad*
%ADD12C,2.340000*%
G04 #@! TD*
G04 #@! TA.AperFunction,ComponentPad*
%ADD13O,1.600000X1.600000*%
G04 #@! TD*
G04 #@! TA.AperFunction,ComponentPad*
%ADD14R,1.600000X1.600000*%
G04 #@! TD*
G04 #@! TA.AperFunction,ComponentPad*
%ADD15O,2.100000X1.900000*%
G04 #@! TD*
G04 #@! TA.AperFunction,ComponentPad*
%ADD16R,2.100000X1.900000*%
G04 #@! TD*
G04 #@! TA.AperFunction,ComponentPad*
%ADD17O,1.700000X1.700000*%
G04 #@! TD*
G04 #@! TA.AperFunction,ComponentPad*
%ADD18R,1.700000X1.700000*%
G04 #@! TD*
G04 #@! TA.AperFunction,Conductor*
%ADD19C,0.100000*%
G04 #@! TD*
G04 #@! TA.AperFunction,SMDPad,CuDef*
%ADD20C,0.950000*%
G04 #@! TD*
G04 #@! TA.AperFunction,SMDPad,CuDef*
%ADD21C,0.850000*%
G04 #@! TD*
G04 #@! TA.AperFunction,SMDPad,CuDef*
%ADD22C,1.150000*%
G04 #@! TD*
G04 #@! TA.AperFunction,ViaPad*
%ADD23C,0.800000*%
G04 #@! TD*
G04 #@! TA.AperFunction,Conductor*
%ADD24C,0.250000*%
G04 #@! TD*
G04 #@! TA.AperFunction,Conductor*
%ADD25C,0.400000*%
G04 #@! TD*
G04 #@! TA.AperFunction,Conductor*
%ADD26C,0.254000*%
G04 #@! TD*
G04 APERTURE END LIST*
D10*
G04 #@! TO.P,Q1,2*
G04 #@! TO.N,Net-(Q1-Pad2)*
X52235000Y-61500000D03*
D11*
G04 #@! TO.P,Q1,1*
G04 #@! TO.N,+5V*
X54775000Y-61500000D03*
G04 #@! TD*
D12*
G04 #@! TO.P,RV1,1*
G04 #@! TO.N,Net-(Q1-Pad2)*
X58700000Y-58500000D03*
G04 #@! TO.P,RV1,2*
G04 #@! TO.N,GND*
X63700000Y-61000000D03*
G04 #@! TO.P,RV1,3*
G04 #@! TO.N,N/C*
X58700000Y-63500000D03*
G04 #@! TD*
D13*
G04 #@! TO.P,U1,14*
G04 #@! TO.N,GND*
X46100000Y-46380000D03*
G04 #@! TO.P,U1,7*
G04 #@! TO.N,RC3*
X61340000Y-54000000D03*
G04 #@! TO.P,U1,13*
G04 #@! TO.N,Net-(J2-Pad4)*
X48640000Y-46380000D03*
G04 #@! TO.P,U1,6*
G04 #@! TO.N,Net-(R11-Pad1)*
X58800000Y-54000000D03*
G04 #@! TO.P,U1,12*
G04 #@! TO.N,Net-(J2-Pad5)*
X51180000Y-46380000D03*
G04 #@! TO.P,U1,5*
G04 #@! TO.N,RC5*
X56260000Y-54000000D03*
G04 #@! TO.P,U1,11*
G04 #@! TO.N,Net-(R8-Pad1)*
X53720000Y-46380000D03*
G04 #@! TO.P,U1,4*
G04 #@! TO.N,Net-(J2-Pad1)*
X53720000Y-54000000D03*
G04 #@! TO.P,U1,10*
G04 #@! TO.N,Net-(J3-Pad3)*
X56260000Y-46380000D03*
G04 #@! TO.P,U1,3*
G04 #@! TO.N,Net-(R9-Pad1)*
X51180000Y-54000000D03*
G04 #@! TO.P,U1,9*
G04 #@! TO.N,Net-(J3-Pad4)*
X58800000Y-46380000D03*
G04 #@! TO.P,U1,2*
G04 #@! TO.N,Net-(R10-Pad1)*
X48640000Y-54000000D03*
G04 #@! TO.P,U1,8*
G04 #@! TO.N,Net-(Q1-Pad2)*
X61340000Y-46380000D03*
D14*
G04 #@! TO.P,U1,1*
G04 #@! TO.N,+5V*
X46100000Y-54000000D03*
G04 #@! TD*
D15*
G04 #@! TO.P,SW1,2*
G04 #@! TO.N,Net-(J2-Pad5)*
X55180000Y-69220000D03*
G04 #@! TO.P,SW1,4*
G04 #@! TO.N,RC3*
X62800000Y-69220000D03*
G04 #@! TO.P,SW1,C*
G04 #@! TO.N,+5V*
X55180000Y-71760000D03*
X62800000Y-71760000D03*
G04 #@! TO.P,SW1,8*
G04 #@! TO.N,RC5*
X55180000Y-74300000D03*
D16*
G04 #@! TO.P,SW1,1*
G04 #@! TO.N,Net-(J2-Pad4)*
X62800000Y-74300000D03*
G04 #@! TD*
D17*
G04 #@! TO.P,SW2,3*
G04 #@! TO.N,Net-(R5-Pad1)*
X40900000Y-52720000D03*
G04 #@! TO.P,SW2,2*
G04 #@! TO.N,Net-(J2-Pad1)*
X40900000Y-55260000D03*
D18*
G04 #@! TO.P,SW2,1*
G04 #@! TO.N,N/C*
X40900000Y-57800000D03*
G04 #@! TD*
D17*
G04 #@! TO.P,J2,5*
G04 #@! TO.N,Net-(J2-Pad5)*
X67300000Y-66160000D03*
G04 #@! TO.P,J2,4*
G04 #@! TO.N,Net-(J2-Pad4)*
X67300000Y-63620000D03*
G04 #@! TO.P,J2,3*
G04 #@! TO.N,GND*
X67300000Y-61080000D03*
G04 #@! TO.P,J2,2*
G04 #@! TO.N,+5V*
X67300000Y-58540000D03*
D18*
G04 #@! TO.P,J2,1*
G04 #@! TO.N,Net-(J2-Pad1)*
X67300000Y-56000000D03*
G04 #@! TD*
D17*
G04 #@! TO.P,J3,4*
G04 #@! TO.N,Net-(J3-Pad4)*
X40900000Y-62280000D03*
G04 #@! TO.P,J3,3*
G04 #@! TO.N,Net-(J3-Pad3)*
X40900000Y-64820000D03*
G04 #@! TO.P,J3,2*
G04 #@! TO.N,GND*
X40900000Y-67360000D03*
D18*
G04 #@! TO.P,J3,1*
G04 #@! TO.N,+5V*
X40900000Y-69900000D03*
G04 #@! TD*
D19*
G04 #@! TO.N,Net-(D1-Pad2)*
G04 #@! TO.C,R8*
G36*
X50926779Y-69881144D02*
X50949834Y-69884563D01*
X50972443Y-69890227D01*
X50994387Y-69898079D01*
X51015457Y-69908044D01*
X51035448Y-69920026D01*
X51054168Y-69933910D01*
X51071438Y-69949562D01*
X51087090Y-69966832D01*
X51100974Y-69985552D01*
X51112956Y-70005543D01*
X51122921Y-70026613D01*
X51130773Y-70048557D01*
X51136437Y-70071166D01*
X51139856Y-70094221D01*
X51141000Y-70117500D01*
X51141000Y-70692500D01*
X51139856Y-70715779D01*
X51136437Y-70738834D01*
X51130773Y-70761443D01*
X51122921Y-70783387D01*
X51112956Y-70804457D01*
X51100974Y-70824448D01*
X51087090Y-70843168D01*
X51071438Y-70860438D01*
X51054168Y-70876090D01*
X51035448Y-70889974D01*
X51015457Y-70901956D01*
X50994387Y-70911921D01*
X50972443Y-70919773D01*
X50949834Y-70925437D01*
X50926779Y-70928856D01*
X50903500Y-70930000D01*
X50428500Y-70930000D01*
X50405221Y-70928856D01*
X50382166Y-70925437D01*
X50359557Y-70919773D01*
X50337613Y-70911921D01*
X50316543Y-70901956D01*
X50296552Y-70889974D01*
X50277832Y-70876090D01*
X50260562Y-70860438D01*
X50244910Y-70843168D01*
X50231026Y-70824448D01*
X50219044Y-70804457D01*
X50209079Y-70783387D01*
X50201227Y-70761443D01*
X50195563Y-70738834D01*
X50192144Y-70715779D01*
X50191000Y-70692500D01*
X50191000Y-70117500D01*
X50192144Y-70094221D01*
X50195563Y-70071166D01*
X50201227Y-70048557D01*
X50209079Y-70026613D01*
X50219044Y-70005543D01*
X50231026Y-69985552D01*
X50244910Y-69966832D01*
X50260562Y-69949562D01*
X50277832Y-69933910D01*
X50296552Y-69920026D01*
X50316543Y-69908044D01*
X50337613Y-69898079D01*
X50359557Y-69890227D01*
X50382166Y-69884563D01*
X50405221Y-69881144D01*
X50428500Y-69880000D01*
X50903500Y-69880000D01*
X50926779Y-69881144D01*
X50926779Y-69881144D01*
G37*
D20*
G04 #@! TD*
G04 #@! TO.P,R8,2*
G04 #@! TO.N,Net-(D1-Pad2)*
X50666000Y-70405000D03*
D19*
G04 #@! TO.N,Net-(R8-Pad1)*
G04 #@! TO.C,R8*
G36*
X50926779Y-68131144D02*
X50949834Y-68134563D01*
X50972443Y-68140227D01*
X50994387Y-68148079D01*
X51015457Y-68158044D01*
X51035448Y-68170026D01*
X51054168Y-68183910D01*
X51071438Y-68199562D01*
X51087090Y-68216832D01*
X51100974Y-68235552D01*
X51112956Y-68255543D01*
X51122921Y-68276613D01*
X51130773Y-68298557D01*
X51136437Y-68321166D01*
X51139856Y-68344221D01*
X51141000Y-68367500D01*
X51141000Y-68942500D01*
X51139856Y-68965779D01*
X51136437Y-68988834D01*
X51130773Y-69011443D01*
X51122921Y-69033387D01*
X51112956Y-69054457D01*
X51100974Y-69074448D01*
X51087090Y-69093168D01*
X51071438Y-69110438D01*
X51054168Y-69126090D01*
X51035448Y-69139974D01*
X51015457Y-69151956D01*
X50994387Y-69161921D01*
X50972443Y-69169773D01*
X50949834Y-69175437D01*
X50926779Y-69178856D01*
X50903500Y-69180000D01*
X50428500Y-69180000D01*
X50405221Y-69178856D01*
X50382166Y-69175437D01*
X50359557Y-69169773D01*
X50337613Y-69161921D01*
X50316543Y-69151956D01*
X50296552Y-69139974D01*
X50277832Y-69126090D01*
X50260562Y-69110438D01*
X50244910Y-69093168D01*
X50231026Y-69074448D01*
X50219044Y-69054457D01*
X50209079Y-69033387D01*
X50201227Y-69011443D01*
X50195563Y-68988834D01*
X50192144Y-68965779D01*
X50191000Y-68942500D01*
X50191000Y-68367500D01*
X50192144Y-68344221D01*
X50195563Y-68321166D01*
X50201227Y-68298557D01*
X50209079Y-68276613D01*
X50219044Y-68255543D01*
X50231026Y-68235552D01*
X50244910Y-68216832D01*
X50260562Y-68199562D01*
X50277832Y-68183910D01*
X50296552Y-68170026D01*
X50316543Y-68158044D01*
X50337613Y-68148079D01*
X50359557Y-68140227D01*
X50382166Y-68134563D01*
X50405221Y-68131144D01*
X50428500Y-68130000D01*
X50903500Y-68130000D01*
X50926779Y-68131144D01*
X50926779Y-68131144D01*
G37*
D20*
G04 #@! TD*
G04 #@! TO.P,R8,1*
G04 #@! TO.N,Net-(R8-Pad1)*
X50666000Y-68655000D03*
D19*
G04 #@! TO.N,Net-(D2-Pad2)*
G04 #@! TO.C,R9*
G36*
X49326779Y-69881144D02*
X49349834Y-69884563D01*
X49372443Y-69890227D01*
X49394387Y-69898079D01*
X49415457Y-69908044D01*
X49435448Y-69920026D01*
X49454168Y-69933910D01*
X49471438Y-69949562D01*
X49487090Y-69966832D01*
X49500974Y-69985552D01*
X49512956Y-70005543D01*
X49522921Y-70026613D01*
X49530773Y-70048557D01*
X49536437Y-70071166D01*
X49539856Y-70094221D01*
X49541000Y-70117500D01*
X49541000Y-70692500D01*
X49539856Y-70715779D01*
X49536437Y-70738834D01*
X49530773Y-70761443D01*
X49522921Y-70783387D01*
X49512956Y-70804457D01*
X49500974Y-70824448D01*
X49487090Y-70843168D01*
X49471438Y-70860438D01*
X49454168Y-70876090D01*
X49435448Y-70889974D01*
X49415457Y-70901956D01*
X49394387Y-70911921D01*
X49372443Y-70919773D01*
X49349834Y-70925437D01*
X49326779Y-70928856D01*
X49303500Y-70930000D01*
X48828500Y-70930000D01*
X48805221Y-70928856D01*
X48782166Y-70925437D01*
X48759557Y-70919773D01*
X48737613Y-70911921D01*
X48716543Y-70901956D01*
X48696552Y-70889974D01*
X48677832Y-70876090D01*
X48660562Y-70860438D01*
X48644910Y-70843168D01*
X48631026Y-70824448D01*
X48619044Y-70804457D01*
X48609079Y-70783387D01*
X48601227Y-70761443D01*
X48595563Y-70738834D01*
X48592144Y-70715779D01*
X48591000Y-70692500D01*
X48591000Y-70117500D01*
X48592144Y-70094221D01*
X48595563Y-70071166D01*
X48601227Y-70048557D01*
X48609079Y-70026613D01*
X48619044Y-70005543D01*
X48631026Y-69985552D01*
X48644910Y-69966832D01*
X48660562Y-69949562D01*
X48677832Y-69933910D01*
X48696552Y-69920026D01*
X48716543Y-69908044D01*
X48737613Y-69898079D01*
X48759557Y-69890227D01*
X48782166Y-69884563D01*
X48805221Y-69881144D01*
X48828500Y-69880000D01*
X49303500Y-69880000D01*
X49326779Y-69881144D01*
X49326779Y-69881144D01*
G37*
D20*
G04 #@! TD*
G04 #@! TO.P,R9,2*
G04 #@! TO.N,Net-(D2-Pad2)*
X49066000Y-70405000D03*
D19*
G04 #@! TO.N,Net-(R9-Pad1)*
G04 #@! TO.C,R9*
G36*
X49326779Y-68131144D02*
X49349834Y-68134563D01*
X49372443Y-68140227D01*
X49394387Y-68148079D01*
X49415457Y-68158044D01*
X49435448Y-68170026D01*
X49454168Y-68183910D01*
X49471438Y-68199562D01*
X49487090Y-68216832D01*
X49500974Y-68235552D01*
X49512956Y-68255543D01*
X49522921Y-68276613D01*
X49530773Y-68298557D01*
X49536437Y-68321166D01*
X49539856Y-68344221D01*
X49541000Y-68367500D01*
X49541000Y-68942500D01*
X49539856Y-68965779D01*
X49536437Y-68988834D01*
X49530773Y-69011443D01*
X49522921Y-69033387D01*
X49512956Y-69054457D01*
X49500974Y-69074448D01*
X49487090Y-69093168D01*
X49471438Y-69110438D01*
X49454168Y-69126090D01*
X49435448Y-69139974D01*
X49415457Y-69151956D01*
X49394387Y-69161921D01*
X49372443Y-69169773D01*
X49349834Y-69175437D01*
X49326779Y-69178856D01*
X49303500Y-69180000D01*
X48828500Y-69180000D01*
X48805221Y-69178856D01*
X48782166Y-69175437D01*
X48759557Y-69169773D01*
X48737613Y-69161921D01*
X48716543Y-69151956D01*
X48696552Y-69139974D01*
X48677832Y-69126090D01*
X48660562Y-69110438D01*
X48644910Y-69093168D01*
X48631026Y-69074448D01*
X48619044Y-69054457D01*
X48609079Y-69033387D01*
X48601227Y-69011443D01*
X48595563Y-68988834D01*
X48592144Y-68965779D01*
X48591000Y-68942500D01*
X48591000Y-68367500D01*
X48592144Y-68344221D01*
X48595563Y-68321166D01*
X48601227Y-68298557D01*
X48609079Y-68276613D01*
X48619044Y-68255543D01*
X48631026Y-68235552D01*
X48644910Y-68216832D01*
X48660562Y-68199562D01*
X48677832Y-68183910D01*
X48696552Y-68170026D01*
X48716543Y-68158044D01*
X48737613Y-68148079D01*
X48759557Y-68140227D01*
X48782166Y-68134563D01*
X48805221Y-68131144D01*
X48828500Y-68130000D01*
X49303500Y-68130000D01*
X49326779Y-68131144D01*
X49326779Y-68131144D01*
G37*
D20*
G04 #@! TD*
G04 #@! TO.P,R9,1*
G04 #@! TO.N,Net-(R9-Pad1)*
X49066000Y-68655000D03*
D19*
G04 #@! TO.N,Net-(D3-Pad2)*
G04 #@! TO.C,R10*
G36*
X47726779Y-69881144D02*
X47749834Y-69884563D01*
X47772443Y-69890227D01*
X47794387Y-69898079D01*
X47815457Y-69908044D01*
X47835448Y-69920026D01*
X47854168Y-69933910D01*
X47871438Y-69949562D01*
X47887090Y-69966832D01*
X47900974Y-69985552D01*
X47912956Y-70005543D01*
X47922921Y-70026613D01*
X47930773Y-70048557D01*
X47936437Y-70071166D01*
X47939856Y-70094221D01*
X47941000Y-70117500D01*
X47941000Y-70692500D01*
X47939856Y-70715779D01*
X47936437Y-70738834D01*
X47930773Y-70761443D01*
X47922921Y-70783387D01*
X47912956Y-70804457D01*
X47900974Y-70824448D01*
X47887090Y-70843168D01*
X47871438Y-70860438D01*
X47854168Y-70876090D01*
X47835448Y-70889974D01*
X47815457Y-70901956D01*
X47794387Y-70911921D01*
X47772443Y-70919773D01*
X47749834Y-70925437D01*
X47726779Y-70928856D01*
X47703500Y-70930000D01*
X47228500Y-70930000D01*
X47205221Y-70928856D01*
X47182166Y-70925437D01*
X47159557Y-70919773D01*
X47137613Y-70911921D01*
X47116543Y-70901956D01*
X47096552Y-70889974D01*
X47077832Y-70876090D01*
X47060562Y-70860438D01*
X47044910Y-70843168D01*
X47031026Y-70824448D01*
X47019044Y-70804457D01*
X47009079Y-70783387D01*
X47001227Y-70761443D01*
X46995563Y-70738834D01*
X46992144Y-70715779D01*
X46991000Y-70692500D01*
X46991000Y-70117500D01*
X46992144Y-70094221D01*
X46995563Y-70071166D01*
X47001227Y-70048557D01*
X47009079Y-70026613D01*
X47019044Y-70005543D01*
X47031026Y-69985552D01*
X47044910Y-69966832D01*
X47060562Y-69949562D01*
X47077832Y-69933910D01*
X47096552Y-69920026D01*
X47116543Y-69908044D01*
X47137613Y-69898079D01*
X47159557Y-69890227D01*
X47182166Y-69884563D01*
X47205221Y-69881144D01*
X47228500Y-69880000D01*
X47703500Y-69880000D01*
X47726779Y-69881144D01*
X47726779Y-69881144D01*
G37*
D20*
G04 #@! TD*
G04 #@! TO.P,R10,2*
G04 #@! TO.N,Net-(D3-Pad2)*
X47466000Y-70405000D03*
D19*
G04 #@! TO.N,Net-(R10-Pad1)*
G04 #@! TO.C,R10*
G36*
X47726779Y-68131144D02*
X47749834Y-68134563D01*
X47772443Y-68140227D01*
X47794387Y-68148079D01*
X47815457Y-68158044D01*
X47835448Y-68170026D01*
X47854168Y-68183910D01*
X47871438Y-68199562D01*
X47887090Y-68216832D01*
X47900974Y-68235552D01*
X47912956Y-68255543D01*
X47922921Y-68276613D01*
X47930773Y-68298557D01*
X47936437Y-68321166D01*
X47939856Y-68344221D01*
X47941000Y-68367500D01*
X47941000Y-68942500D01*
X47939856Y-68965779D01*
X47936437Y-68988834D01*
X47930773Y-69011443D01*
X47922921Y-69033387D01*
X47912956Y-69054457D01*
X47900974Y-69074448D01*
X47887090Y-69093168D01*
X47871438Y-69110438D01*
X47854168Y-69126090D01*
X47835448Y-69139974D01*
X47815457Y-69151956D01*
X47794387Y-69161921D01*
X47772443Y-69169773D01*
X47749834Y-69175437D01*
X47726779Y-69178856D01*
X47703500Y-69180000D01*
X47228500Y-69180000D01*
X47205221Y-69178856D01*
X47182166Y-69175437D01*
X47159557Y-69169773D01*
X47137613Y-69161921D01*
X47116543Y-69151956D01*
X47096552Y-69139974D01*
X47077832Y-69126090D01*
X47060562Y-69110438D01*
X47044910Y-69093168D01*
X47031026Y-69074448D01*
X47019044Y-69054457D01*
X47009079Y-69033387D01*
X47001227Y-69011443D01*
X46995563Y-68988834D01*
X46992144Y-68965779D01*
X46991000Y-68942500D01*
X46991000Y-68367500D01*
X46992144Y-68344221D01*
X46995563Y-68321166D01*
X47001227Y-68298557D01*
X47009079Y-68276613D01*
X47019044Y-68255543D01*
X47031026Y-68235552D01*
X47044910Y-68216832D01*
X47060562Y-68199562D01*
X47077832Y-68183910D01*
X47096552Y-68170026D01*
X47116543Y-68158044D01*
X47137613Y-68148079D01*
X47159557Y-68140227D01*
X47182166Y-68134563D01*
X47205221Y-68131144D01*
X47228500Y-68130000D01*
X47703500Y-68130000D01*
X47726779Y-68131144D01*
X47726779Y-68131144D01*
G37*
D20*
G04 #@! TD*
G04 #@! TO.P,R10,1*
G04 #@! TO.N,Net-(R10-Pad1)*
X47466000Y-68655000D03*
D19*
G04 #@! TO.N,Net-(D4-Pad2)*
G04 #@! TO.C,R11*
G36*
X46126779Y-69881144D02*
X46149834Y-69884563D01*
X46172443Y-69890227D01*
X46194387Y-69898079D01*
X46215457Y-69908044D01*
X46235448Y-69920026D01*
X46254168Y-69933910D01*
X46271438Y-69949562D01*
X46287090Y-69966832D01*
X46300974Y-69985552D01*
X46312956Y-70005543D01*
X46322921Y-70026613D01*
X46330773Y-70048557D01*
X46336437Y-70071166D01*
X46339856Y-70094221D01*
X46341000Y-70117500D01*
X46341000Y-70692500D01*
X46339856Y-70715779D01*
X46336437Y-70738834D01*
X46330773Y-70761443D01*
X46322921Y-70783387D01*
X46312956Y-70804457D01*
X46300974Y-70824448D01*
X46287090Y-70843168D01*
X46271438Y-70860438D01*
X46254168Y-70876090D01*
X46235448Y-70889974D01*
X46215457Y-70901956D01*
X46194387Y-70911921D01*
X46172443Y-70919773D01*
X46149834Y-70925437D01*
X46126779Y-70928856D01*
X46103500Y-70930000D01*
X45628500Y-70930000D01*
X45605221Y-70928856D01*
X45582166Y-70925437D01*
X45559557Y-70919773D01*
X45537613Y-70911921D01*
X45516543Y-70901956D01*
X45496552Y-70889974D01*
X45477832Y-70876090D01*
X45460562Y-70860438D01*
X45444910Y-70843168D01*
X45431026Y-70824448D01*
X45419044Y-70804457D01*
X45409079Y-70783387D01*
X45401227Y-70761443D01*
X45395563Y-70738834D01*
X45392144Y-70715779D01*
X45391000Y-70692500D01*
X45391000Y-70117500D01*
X45392144Y-70094221D01*
X45395563Y-70071166D01*
X45401227Y-70048557D01*
X45409079Y-70026613D01*
X45419044Y-70005543D01*
X45431026Y-69985552D01*
X45444910Y-69966832D01*
X45460562Y-69949562D01*
X45477832Y-69933910D01*
X45496552Y-69920026D01*
X45516543Y-69908044D01*
X45537613Y-69898079D01*
X45559557Y-69890227D01*
X45582166Y-69884563D01*
X45605221Y-69881144D01*
X45628500Y-69880000D01*
X46103500Y-69880000D01*
X46126779Y-69881144D01*
X46126779Y-69881144D01*
G37*
D20*
G04 #@! TD*
G04 #@! TO.P,R11,2*
G04 #@! TO.N,Net-(D4-Pad2)*
X45866000Y-70405000D03*
D19*
G04 #@! TO.N,Net-(R11-Pad1)*
G04 #@! TO.C,R11*
G36*
X46126779Y-68131144D02*
X46149834Y-68134563D01*
X46172443Y-68140227D01*
X46194387Y-68148079D01*
X46215457Y-68158044D01*
X46235448Y-68170026D01*
X46254168Y-68183910D01*
X46271438Y-68199562D01*
X46287090Y-68216832D01*
X46300974Y-68235552D01*
X46312956Y-68255543D01*
X46322921Y-68276613D01*
X46330773Y-68298557D01*
X46336437Y-68321166D01*
X46339856Y-68344221D01*
X46341000Y-68367500D01*
X46341000Y-68942500D01*
X46339856Y-68965779D01*
X46336437Y-68988834D01*
X46330773Y-69011443D01*
X46322921Y-69033387D01*
X46312956Y-69054457D01*
X46300974Y-69074448D01*
X46287090Y-69093168D01*
X46271438Y-69110438D01*
X46254168Y-69126090D01*
X46235448Y-69139974D01*
X46215457Y-69151956D01*
X46194387Y-69161921D01*
X46172443Y-69169773D01*
X46149834Y-69175437D01*
X46126779Y-69178856D01*
X46103500Y-69180000D01*
X45628500Y-69180000D01*
X45605221Y-69178856D01*
X45582166Y-69175437D01*
X45559557Y-69169773D01*
X45537613Y-69161921D01*
X45516543Y-69151956D01*
X45496552Y-69139974D01*
X45477832Y-69126090D01*
X45460562Y-69110438D01*
X45444910Y-69093168D01*
X45431026Y-69074448D01*
X45419044Y-69054457D01*
X45409079Y-69033387D01*
X45401227Y-69011443D01*
X45395563Y-68988834D01*
X45392144Y-68965779D01*
X45391000Y-68942500D01*
X45391000Y-68367500D01*
X45392144Y-68344221D01*
X45395563Y-68321166D01*
X45401227Y-68298557D01*
X45409079Y-68276613D01*
X45419044Y-68255543D01*
X45431026Y-68235552D01*
X45444910Y-68216832D01*
X45460562Y-68199562D01*
X45477832Y-68183910D01*
X45496552Y-68170026D01*
X45516543Y-68158044D01*
X45537613Y-68148079D01*
X45559557Y-68140227D01*
X45582166Y-68134563D01*
X45605221Y-68131144D01*
X45628500Y-68130000D01*
X46103500Y-68130000D01*
X46126779Y-68131144D01*
X46126779Y-68131144D01*
G37*
D20*
G04 #@! TD*
G04 #@! TO.P,R11,1*
G04 #@! TO.N,Net-(R11-Pad1)*
X45866000Y-68655000D03*
D19*
G04 #@! TO.N,Net-(D1-Pad2)*
G04 #@! TO.C,D1*
G36*
X51289329Y-74767023D02*
X51309957Y-74770083D01*
X51330185Y-74775150D01*
X51349820Y-74782176D01*
X51368672Y-74791092D01*
X51386559Y-74801813D01*
X51403309Y-74814235D01*
X51418760Y-74828240D01*
X51432765Y-74843691D01*
X51445187Y-74860441D01*
X51455908Y-74878328D01*
X51464824Y-74897180D01*
X51471850Y-74916815D01*
X51476917Y-74937043D01*
X51479977Y-74957671D01*
X51481000Y-74978500D01*
X51481000Y-75778500D01*
X51479977Y-75799329D01*
X51476917Y-75819957D01*
X51471850Y-75840185D01*
X51464824Y-75859820D01*
X51455908Y-75878672D01*
X51445187Y-75896559D01*
X51432765Y-75913309D01*
X51418760Y-75928760D01*
X51403309Y-75942765D01*
X51386559Y-75955187D01*
X51368672Y-75965908D01*
X51349820Y-75974824D01*
X51330185Y-75981850D01*
X51309957Y-75986917D01*
X51289329Y-75989977D01*
X51268500Y-75991000D01*
X50843500Y-75991000D01*
X50822671Y-75989977D01*
X50802043Y-75986917D01*
X50781815Y-75981850D01*
X50762180Y-75974824D01*
X50743328Y-75965908D01*
X50725441Y-75955187D01*
X50708691Y-75942765D01*
X50693240Y-75928760D01*
X50679235Y-75913309D01*
X50666813Y-75896559D01*
X50656092Y-75878672D01*
X50647176Y-75859820D01*
X50640150Y-75840185D01*
X50635083Y-75819957D01*
X50632023Y-75799329D01*
X50631000Y-75778500D01*
X50631000Y-74978500D01*
X50632023Y-74957671D01*
X50635083Y-74937043D01*
X50640150Y-74916815D01*
X50647176Y-74897180D01*
X50656092Y-74878328D01*
X50666813Y-74860441D01*
X50679235Y-74843691D01*
X50693240Y-74828240D01*
X50708691Y-74814235D01*
X50725441Y-74801813D01*
X50743328Y-74791092D01*
X50762180Y-74782176D01*
X50781815Y-74775150D01*
X50802043Y-74770083D01*
X50822671Y-74767023D01*
X50843500Y-74766000D01*
X51268500Y-74766000D01*
X51289329Y-74767023D01*
X51289329Y-74767023D01*
G37*
D21*
G04 #@! TD*
G04 #@! TO.P,D1,2*
G04 #@! TO.N,Net-(D1-Pad2)*
X51056000Y-75378500D03*
D19*
G04 #@! TO.N,GND*
G04 #@! TO.C,D1*
G36*
X51289329Y-73142023D02*
X51309957Y-73145083D01*
X51330185Y-73150150D01*
X51349820Y-73157176D01*
X51368672Y-73166092D01*
X51386559Y-73176813D01*
X51403309Y-73189235D01*
X51418760Y-73203240D01*
X51432765Y-73218691D01*
X51445187Y-73235441D01*
X51455908Y-73253328D01*
X51464824Y-73272180D01*
X51471850Y-73291815D01*
X51476917Y-73312043D01*
X51479977Y-73332671D01*
X51481000Y-73353500D01*
X51481000Y-74153500D01*
X51479977Y-74174329D01*
X51476917Y-74194957D01*
X51471850Y-74215185D01*
X51464824Y-74234820D01*
X51455908Y-74253672D01*
X51445187Y-74271559D01*
X51432765Y-74288309D01*
X51418760Y-74303760D01*
X51403309Y-74317765D01*
X51386559Y-74330187D01*
X51368672Y-74340908D01*
X51349820Y-74349824D01*
X51330185Y-74356850D01*
X51309957Y-74361917D01*
X51289329Y-74364977D01*
X51268500Y-74366000D01*
X50843500Y-74366000D01*
X50822671Y-74364977D01*
X50802043Y-74361917D01*
X50781815Y-74356850D01*
X50762180Y-74349824D01*
X50743328Y-74340908D01*
X50725441Y-74330187D01*
X50708691Y-74317765D01*
X50693240Y-74303760D01*
X50679235Y-74288309D01*
X50666813Y-74271559D01*
X50656092Y-74253672D01*
X50647176Y-74234820D01*
X50640150Y-74215185D01*
X50635083Y-74194957D01*
X50632023Y-74174329D01*
X50631000Y-74153500D01*
X50631000Y-73353500D01*
X50632023Y-73332671D01*
X50635083Y-73312043D01*
X50640150Y-73291815D01*
X50647176Y-73272180D01*
X50656092Y-73253328D01*
X50666813Y-73235441D01*
X50679235Y-73218691D01*
X50693240Y-73203240D01*
X50708691Y-73189235D01*
X50725441Y-73176813D01*
X50743328Y-73166092D01*
X50762180Y-73157176D01*
X50781815Y-73150150D01*
X50802043Y-73145083D01*
X50822671Y-73142023D01*
X50843500Y-73141000D01*
X51268500Y-73141000D01*
X51289329Y-73142023D01*
X51289329Y-73142023D01*
G37*
D21*
G04 #@! TD*
G04 #@! TO.P,D1,1*
G04 #@! TO.N,GND*
X51056000Y-73753500D03*
D19*
G04 #@! TO.N,GND*
G04 #@! TO.C,D2*
G36*
X49389329Y-73142023D02*
X49409957Y-73145083D01*
X49430185Y-73150150D01*
X49449820Y-73157176D01*
X49468672Y-73166092D01*
X49486559Y-73176813D01*
X49503309Y-73189235D01*
X49518760Y-73203240D01*
X49532765Y-73218691D01*
X49545187Y-73235441D01*
X49555908Y-73253328D01*
X49564824Y-73272180D01*
X49571850Y-73291815D01*
X49576917Y-73312043D01*
X49579977Y-73332671D01*
X49581000Y-73353500D01*
X49581000Y-74153500D01*
X49579977Y-74174329D01*
X49576917Y-74194957D01*
X49571850Y-74215185D01*
X49564824Y-74234820D01*
X49555908Y-74253672D01*
X49545187Y-74271559D01*
X49532765Y-74288309D01*
X49518760Y-74303760D01*
X49503309Y-74317765D01*
X49486559Y-74330187D01*
X49468672Y-74340908D01*
X49449820Y-74349824D01*
X49430185Y-74356850D01*
X49409957Y-74361917D01*
X49389329Y-74364977D01*
X49368500Y-74366000D01*
X48943500Y-74366000D01*
X48922671Y-74364977D01*
X48902043Y-74361917D01*
X48881815Y-74356850D01*
X48862180Y-74349824D01*
X48843328Y-74340908D01*
X48825441Y-74330187D01*
X48808691Y-74317765D01*
X48793240Y-74303760D01*
X48779235Y-74288309D01*
X48766813Y-74271559D01*
X48756092Y-74253672D01*
X48747176Y-74234820D01*
X48740150Y-74215185D01*
X48735083Y-74194957D01*
X48732023Y-74174329D01*
X48731000Y-74153500D01*
X48731000Y-73353500D01*
X48732023Y-73332671D01*
X48735083Y-73312043D01*
X48740150Y-73291815D01*
X48747176Y-73272180D01*
X48756092Y-73253328D01*
X48766813Y-73235441D01*
X48779235Y-73218691D01*
X48793240Y-73203240D01*
X48808691Y-73189235D01*
X48825441Y-73176813D01*
X48843328Y-73166092D01*
X48862180Y-73157176D01*
X48881815Y-73150150D01*
X48902043Y-73145083D01*
X48922671Y-73142023D01*
X48943500Y-73141000D01*
X49368500Y-73141000D01*
X49389329Y-73142023D01*
X49389329Y-73142023D01*
G37*
D21*
G04 #@! TD*
G04 #@! TO.P,D2,1*
G04 #@! TO.N,GND*
X49156000Y-73753500D03*
D19*
G04 #@! TO.N,Net-(D2-Pad2)*
G04 #@! TO.C,D2*
G36*
X49389329Y-74767023D02*
X49409957Y-74770083D01*
X49430185Y-74775150D01*
X49449820Y-74782176D01*
X49468672Y-74791092D01*
X49486559Y-74801813D01*
X49503309Y-74814235D01*
X49518760Y-74828240D01*
X49532765Y-74843691D01*
X49545187Y-74860441D01*
X49555908Y-74878328D01*
X49564824Y-74897180D01*
X49571850Y-74916815D01*
X49576917Y-74937043D01*
X49579977Y-74957671D01*
X49581000Y-74978500D01*
X49581000Y-75778500D01*
X49579977Y-75799329D01*
X49576917Y-75819957D01*
X49571850Y-75840185D01*
X49564824Y-75859820D01*
X49555908Y-75878672D01*
X49545187Y-75896559D01*
X49532765Y-75913309D01*
X49518760Y-75928760D01*
X49503309Y-75942765D01*
X49486559Y-75955187D01*
X49468672Y-75965908D01*
X49449820Y-75974824D01*
X49430185Y-75981850D01*
X49409957Y-75986917D01*
X49389329Y-75989977D01*
X49368500Y-75991000D01*
X48943500Y-75991000D01*
X48922671Y-75989977D01*
X48902043Y-75986917D01*
X48881815Y-75981850D01*
X48862180Y-75974824D01*
X48843328Y-75965908D01*
X48825441Y-75955187D01*
X48808691Y-75942765D01*
X48793240Y-75928760D01*
X48779235Y-75913309D01*
X48766813Y-75896559D01*
X48756092Y-75878672D01*
X48747176Y-75859820D01*
X48740150Y-75840185D01*
X48735083Y-75819957D01*
X48732023Y-75799329D01*
X48731000Y-75778500D01*
X48731000Y-74978500D01*
X48732023Y-74957671D01*
X48735083Y-74937043D01*
X48740150Y-74916815D01*
X48747176Y-74897180D01*
X48756092Y-74878328D01*
X48766813Y-74860441D01*
X48779235Y-74843691D01*
X48793240Y-74828240D01*
X48808691Y-74814235D01*
X48825441Y-74801813D01*
X48843328Y-74791092D01*
X48862180Y-74782176D01*
X48881815Y-74775150D01*
X48902043Y-74770083D01*
X48922671Y-74767023D01*
X48943500Y-74766000D01*
X49368500Y-74766000D01*
X49389329Y-74767023D01*
X49389329Y-74767023D01*
G37*
D21*
G04 #@! TD*
G04 #@! TO.P,D2,2*
G04 #@! TO.N,Net-(D2-Pad2)*
X49156000Y-75378500D03*
D19*
G04 #@! TO.N,Net-(D3-Pad2)*
G04 #@! TO.C,D3*
G36*
X47489329Y-74767023D02*
X47509957Y-74770083D01*
X47530185Y-74775150D01*
X47549820Y-74782176D01*
X47568672Y-74791092D01*
X47586559Y-74801813D01*
X47603309Y-74814235D01*
X47618760Y-74828240D01*
X47632765Y-74843691D01*
X47645187Y-74860441D01*
X47655908Y-74878328D01*
X47664824Y-74897180D01*
X47671850Y-74916815D01*
X47676917Y-74937043D01*
X47679977Y-74957671D01*
X47681000Y-74978500D01*
X47681000Y-75778500D01*
X47679977Y-75799329D01*
X47676917Y-75819957D01*
X47671850Y-75840185D01*
X47664824Y-75859820D01*
X47655908Y-75878672D01*
X47645187Y-75896559D01*
X47632765Y-75913309D01*
X47618760Y-75928760D01*
X47603309Y-75942765D01*
X47586559Y-75955187D01*
X47568672Y-75965908D01*
X47549820Y-75974824D01*
X47530185Y-75981850D01*
X47509957Y-75986917D01*
X47489329Y-75989977D01*
X47468500Y-75991000D01*
X47043500Y-75991000D01*
X47022671Y-75989977D01*
X47002043Y-75986917D01*
X46981815Y-75981850D01*
X46962180Y-75974824D01*
X46943328Y-75965908D01*
X46925441Y-75955187D01*
X46908691Y-75942765D01*
X46893240Y-75928760D01*
X46879235Y-75913309D01*
X46866813Y-75896559D01*
X46856092Y-75878672D01*
X46847176Y-75859820D01*
X46840150Y-75840185D01*
X46835083Y-75819957D01*
X46832023Y-75799329D01*
X46831000Y-75778500D01*
X46831000Y-74978500D01*
X46832023Y-74957671D01*
X46835083Y-74937043D01*
X46840150Y-74916815D01*
X46847176Y-74897180D01*
X46856092Y-74878328D01*
X46866813Y-74860441D01*
X46879235Y-74843691D01*
X46893240Y-74828240D01*
X46908691Y-74814235D01*
X46925441Y-74801813D01*
X46943328Y-74791092D01*
X46962180Y-74782176D01*
X46981815Y-74775150D01*
X47002043Y-74770083D01*
X47022671Y-74767023D01*
X47043500Y-74766000D01*
X47468500Y-74766000D01*
X47489329Y-74767023D01*
X47489329Y-74767023D01*
G37*
D21*
G04 #@! TD*
G04 #@! TO.P,D3,2*
G04 #@! TO.N,Net-(D3-Pad2)*
X47256000Y-75378500D03*
D19*
G04 #@! TO.N,GND*
G04 #@! TO.C,D3*
G36*
X47489329Y-73142023D02*
X47509957Y-73145083D01*
X47530185Y-73150150D01*
X47549820Y-73157176D01*
X47568672Y-73166092D01*
X47586559Y-73176813D01*
X47603309Y-73189235D01*
X47618760Y-73203240D01*
X47632765Y-73218691D01*
X47645187Y-73235441D01*
X47655908Y-73253328D01*
X47664824Y-73272180D01*
X47671850Y-73291815D01*
X47676917Y-73312043D01*
X47679977Y-73332671D01*
X47681000Y-73353500D01*
X47681000Y-74153500D01*
X47679977Y-74174329D01*
X47676917Y-74194957D01*
X47671850Y-74215185D01*
X47664824Y-74234820D01*
X47655908Y-74253672D01*
X47645187Y-74271559D01*
X47632765Y-74288309D01*
X47618760Y-74303760D01*
X47603309Y-74317765D01*
X47586559Y-74330187D01*
X47568672Y-74340908D01*
X47549820Y-74349824D01*
X47530185Y-74356850D01*
X47509957Y-74361917D01*
X47489329Y-74364977D01*
X47468500Y-74366000D01*
X47043500Y-74366000D01*
X47022671Y-74364977D01*
X47002043Y-74361917D01*
X46981815Y-74356850D01*
X46962180Y-74349824D01*
X46943328Y-74340908D01*
X46925441Y-74330187D01*
X46908691Y-74317765D01*
X46893240Y-74303760D01*
X46879235Y-74288309D01*
X46866813Y-74271559D01*
X46856092Y-74253672D01*
X46847176Y-74234820D01*
X46840150Y-74215185D01*
X46835083Y-74194957D01*
X46832023Y-74174329D01*
X46831000Y-74153500D01*
X46831000Y-73353500D01*
X46832023Y-73332671D01*
X46835083Y-73312043D01*
X46840150Y-73291815D01*
X46847176Y-73272180D01*
X46856092Y-73253328D01*
X46866813Y-73235441D01*
X46879235Y-73218691D01*
X46893240Y-73203240D01*
X46908691Y-73189235D01*
X46925441Y-73176813D01*
X46943328Y-73166092D01*
X46962180Y-73157176D01*
X46981815Y-73150150D01*
X47002043Y-73145083D01*
X47022671Y-73142023D01*
X47043500Y-73141000D01*
X47468500Y-73141000D01*
X47489329Y-73142023D01*
X47489329Y-73142023D01*
G37*
D21*
G04 #@! TD*
G04 #@! TO.P,D3,1*
G04 #@! TO.N,GND*
X47256000Y-73753500D03*
D19*
G04 #@! TO.N,GND*
G04 #@! TO.C,D4*
G36*
X45539329Y-73142023D02*
X45559957Y-73145083D01*
X45580185Y-73150150D01*
X45599820Y-73157176D01*
X45618672Y-73166092D01*
X45636559Y-73176813D01*
X45653309Y-73189235D01*
X45668760Y-73203240D01*
X45682765Y-73218691D01*
X45695187Y-73235441D01*
X45705908Y-73253328D01*
X45714824Y-73272180D01*
X45721850Y-73291815D01*
X45726917Y-73312043D01*
X45729977Y-73332671D01*
X45731000Y-73353500D01*
X45731000Y-74153500D01*
X45729977Y-74174329D01*
X45726917Y-74194957D01*
X45721850Y-74215185D01*
X45714824Y-74234820D01*
X45705908Y-74253672D01*
X45695187Y-74271559D01*
X45682765Y-74288309D01*
X45668760Y-74303760D01*
X45653309Y-74317765D01*
X45636559Y-74330187D01*
X45618672Y-74340908D01*
X45599820Y-74349824D01*
X45580185Y-74356850D01*
X45559957Y-74361917D01*
X45539329Y-74364977D01*
X45518500Y-74366000D01*
X45093500Y-74366000D01*
X45072671Y-74364977D01*
X45052043Y-74361917D01*
X45031815Y-74356850D01*
X45012180Y-74349824D01*
X44993328Y-74340908D01*
X44975441Y-74330187D01*
X44958691Y-74317765D01*
X44943240Y-74303760D01*
X44929235Y-74288309D01*
X44916813Y-74271559D01*
X44906092Y-74253672D01*
X44897176Y-74234820D01*
X44890150Y-74215185D01*
X44885083Y-74194957D01*
X44882023Y-74174329D01*
X44881000Y-74153500D01*
X44881000Y-73353500D01*
X44882023Y-73332671D01*
X44885083Y-73312043D01*
X44890150Y-73291815D01*
X44897176Y-73272180D01*
X44906092Y-73253328D01*
X44916813Y-73235441D01*
X44929235Y-73218691D01*
X44943240Y-73203240D01*
X44958691Y-73189235D01*
X44975441Y-73176813D01*
X44993328Y-73166092D01*
X45012180Y-73157176D01*
X45031815Y-73150150D01*
X45052043Y-73145083D01*
X45072671Y-73142023D01*
X45093500Y-73141000D01*
X45518500Y-73141000D01*
X45539329Y-73142023D01*
X45539329Y-73142023D01*
G37*
D21*
G04 #@! TD*
G04 #@! TO.P,D4,1*
G04 #@! TO.N,GND*
X45306000Y-73753500D03*
D19*
G04 #@! TO.N,Net-(D4-Pad2)*
G04 #@! TO.C,D4*
G36*
X45539329Y-74767023D02*
X45559957Y-74770083D01*
X45580185Y-74775150D01*
X45599820Y-74782176D01*
X45618672Y-74791092D01*
X45636559Y-74801813D01*
X45653309Y-74814235D01*
X45668760Y-74828240D01*
X45682765Y-74843691D01*
X45695187Y-74860441D01*
X45705908Y-74878328D01*
X45714824Y-74897180D01*
X45721850Y-74916815D01*
X45726917Y-74937043D01*
X45729977Y-74957671D01*
X45731000Y-74978500D01*
X45731000Y-75778500D01*
X45729977Y-75799329D01*
X45726917Y-75819957D01*
X45721850Y-75840185D01*
X45714824Y-75859820D01*
X45705908Y-75878672D01*
X45695187Y-75896559D01*
X45682765Y-75913309D01*
X45668760Y-75928760D01*
X45653309Y-75942765D01*
X45636559Y-75955187D01*
X45618672Y-75965908D01*
X45599820Y-75974824D01*
X45580185Y-75981850D01*
X45559957Y-75986917D01*
X45539329Y-75989977D01*
X45518500Y-75991000D01*
X45093500Y-75991000D01*
X45072671Y-75989977D01*
X45052043Y-75986917D01*
X45031815Y-75981850D01*
X45012180Y-75974824D01*
X44993328Y-75965908D01*
X44975441Y-75955187D01*
X44958691Y-75942765D01*
X44943240Y-75928760D01*
X44929235Y-75913309D01*
X44916813Y-75896559D01*
X44906092Y-75878672D01*
X44897176Y-75859820D01*
X44890150Y-75840185D01*
X44885083Y-75819957D01*
X44882023Y-75799329D01*
X44881000Y-75778500D01*
X44881000Y-74978500D01*
X44882023Y-74957671D01*
X44885083Y-74937043D01*
X44890150Y-74916815D01*
X44897176Y-74897180D01*
X44906092Y-74878328D01*
X44916813Y-74860441D01*
X44929235Y-74843691D01*
X44943240Y-74828240D01*
X44958691Y-74814235D01*
X44975441Y-74801813D01*
X44993328Y-74791092D01*
X45012180Y-74782176D01*
X45031815Y-74775150D01*
X45052043Y-74770083D01*
X45072671Y-74767023D01*
X45093500Y-74766000D01*
X45518500Y-74766000D01*
X45539329Y-74767023D01*
X45539329Y-74767023D01*
G37*
D21*
G04 #@! TD*
G04 #@! TO.P,D4,2*
G04 #@! TO.N,Net-(D4-Pad2)*
X45306000Y-75378500D03*
D19*
G04 #@! TO.N,GND*
G04 #@! TO.C,R1*
G36*
X45724505Y-57101204D02*
X45748773Y-57104804D01*
X45772572Y-57110765D01*
X45795671Y-57119030D01*
X45817850Y-57129520D01*
X45838893Y-57142132D01*
X45858599Y-57156747D01*
X45876777Y-57173223D01*
X45893253Y-57191401D01*
X45907868Y-57211107D01*
X45920480Y-57232150D01*
X45930970Y-57254329D01*
X45939235Y-57277428D01*
X45945196Y-57301227D01*
X45948796Y-57325495D01*
X45950000Y-57349999D01*
X45950000Y-58250001D01*
X45948796Y-58274505D01*
X45945196Y-58298773D01*
X45939235Y-58322572D01*
X45930970Y-58345671D01*
X45920480Y-58367850D01*
X45907868Y-58388893D01*
X45893253Y-58408599D01*
X45876777Y-58426777D01*
X45858599Y-58443253D01*
X45838893Y-58457868D01*
X45817850Y-58470480D01*
X45795671Y-58480970D01*
X45772572Y-58489235D01*
X45748773Y-58495196D01*
X45724505Y-58498796D01*
X45700001Y-58500000D01*
X45049999Y-58500000D01*
X45025495Y-58498796D01*
X45001227Y-58495196D01*
X44977428Y-58489235D01*
X44954329Y-58480970D01*
X44932150Y-58470480D01*
X44911107Y-58457868D01*
X44891401Y-58443253D01*
X44873223Y-58426777D01*
X44856747Y-58408599D01*
X44842132Y-58388893D01*
X44829520Y-58367850D01*
X44819030Y-58345671D01*
X44810765Y-58322572D01*
X44804804Y-58298773D01*
X44801204Y-58274505D01*
X44800000Y-58250001D01*
X44800000Y-57349999D01*
X44801204Y-57325495D01*
X44804804Y-57301227D01*
X44810765Y-57277428D01*
X44819030Y-57254329D01*
X44829520Y-57232150D01*
X44842132Y-57211107D01*
X44856747Y-57191401D01*
X44873223Y-57173223D01*
X44891401Y-57156747D01*
X44911107Y-57142132D01*
X44932150Y-57129520D01*
X44954329Y-57119030D01*
X44977428Y-57110765D01*
X45001227Y-57104804D01*
X45025495Y-57101204D01*
X45049999Y-57100000D01*
X45700001Y-57100000D01*
X45724505Y-57101204D01*
X45724505Y-57101204D01*
G37*
D22*
G04 #@! TD*
G04 #@! TO.P,R1,1*
G04 #@! TO.N,GND*
X45375000Y-57800000D03*
D19*
G04 #@! TO.N,Net-(J2-Pad4)*
G04 #@! TO.C,R1*
G36*
X47774505Y-57101204D02*
X47798773Y-57104804D01*
X47822572Y-57110765D01*
X47845671Y-57119030D01*
X47867850Y-57129520D01*
X47888893Y-57142132D01*
X47908599Y-57156747D01*
X47926777Y-57173223D01*
X47943253Y-57191401D01*
X47957868Y-57211107D01*
X47970480Y-57232150D01*
X47980970Y-57254329D01*
X47989235Y-57277428D01*
X47995196Y-57301227D01*
X47998796Y-57325495D01*
X48000000Y-57349999D01*
X48000000Y-58250001D01*
X47998796Y-58274505D01*
X47995196Y-58298773D01*
X47989235Y-58322572D01*
X47980970Y-58345671D01*
X47970480Y-58367850D01*
X47957868Y-58388893D01*
X47943253Y-58408599D01*
X47926777Y-58426777D01*
X47908599Y-58443253D01*
X47888893Y-58457868D01*
X47867850Y-58470480D01*
X47845671Y-58480970D01*
X47822572Y-58489235D01*
X47798773Y-58495196D01*
X47774505Y-58498796D01*
X47750001Y-58500000D01*
X47099999Y-58500000D01*
X47075495Y-58498796D01*
X47051227Y-58495196D01*
X47027428Y-58489235D01*
X47004329Y-58480970D01*
X46982150Y-58470480D01*
X46961107Y-58457868D01*
X46941401Y-58443253D01*
X46923223Y-58426777D01*
X46906747Y-58408599D01*
X46892132Y-58388893D01*
X46879520Y-58367850D01*
X46869030Y-58345671D01*
X46860765Y-58322572D01*
X46854804Y-58298773D01*
X46851204Y-58274505D01*
X46850000Y-58250001D01*
X46850000Y-57349999D01*
X46851204Y-57325495D01*
X46854804Y-57301227D01*
X46860765Y-57277428D01*
X46869030Y-57254329D01*
X46879520Y-57232150D01*
X46892132Y-57211107D01*
X46906747Y-57191401D01*
X46923223Y-57173223D01*
X46941401Y-57156747D01*
X46961107Y-57142132D01*
X46982150Y-57129520D01*
X47004329Y-57119030D01*
X47027428Y-57110765D01*
X47051227Y-57104804D01*
X47075495Y-57101204D01*
X47099999Y-57100000D01*
X47750001Y-57100000D01*
X47774505Y-57101204D01*
X47774505Y-57101204D01*
G37*
D22*
G04 #@! TD*
G04 #@! TO.P,R1,2*
G04 #@! TO.N,Net-(J2-Pad4)*
X47425000Y-57800000D03*
D19*
G04 #@! TO.N,Net-(J2-Pad5)*
G04 #@! TO.C,R2*
G36*
X47774505Y-59701204D02*
X47798773Y-59704804D01*
X47822572Y-59710765D01*
X47845671Y-59719030D01*
X47867850Y-59729520D01*
X47888893Y-59742132D01*
X47908599Y-59756747D01*
X47926777Y-59773223D01*
X47943253Y-59791401D01*
X47957868Y-59811107D01*
X47970480Y-59832150D01*
X47980970Y-59854329D01*
X47989235Y-59877428D01*
X47995196Y-59901227D01*
X47998796Y-59925495D01*
X48000000Y-59949999D01*
X48000000Y-60850001D01*
X47998796Y-60874505D01*
X47995196Y-60898773D01*
X47989235Y-60922572D01*
X47980970Y-60945671D01*
X47970480Y-60967850D01*
X47957868Y-60988893D01*
X47943253Y-61008599D01*
X47926777Y-61026777D01*
X47908599Y-61043253D01*
X47888893Y-61057868D01*
X47867850Y-61070480D01*
X47845671Y-61080970D01*
X47822572Y-61089235D01*
X47798773Y-61095196D01*
X47774505Y-61098796D01*
X47750001Y-61100000D01*
X47099999Y-61100000D01*
X47075495Y-61098796D01*
X47051227Y-61095196D01*
X47027428Y-61089235D01*
X47004329Y-61080970D01*
X46982150Y-61070480D01*
X46961107Y-61057868D01*
X46941401Y-61043253D01*
X46923223Y-61026777D01*
X46906747Y-61008599D01*
X46892132Y-60988893D01*
X46879520Y-60967850D01*
X46869030Y-60945671D01*
X46860765Y-60922572D01*
X46854804Y-60898773D01*
X46851204Y-60874505D01*
X46850000Y-60850001D01*
X46850000Y-59949999D01*
X46851204Y-59925495D01*
X46854804Y-59901227D01*
X46860765Y-59877428D01*
X46869030Y-59854329D01*
X46879520Y-59832150D01*
X46892132Y-59811107D01*
X46906747Y-59791401D01*
X46923223Y-59773223D01*
X46941401Y-59756747D01*
X46961107Y-59742132D01*
X46982150Y-59729520D01*
X47004329Y-59719030D01*
X47027428Y-59710765D01*
X47051227Y-59704804D01*
X47075495Y-59701204D01*
X47099999Y-59700000D01*
X47750001Y-59700000D01*
X47774505Y-59701204D01*
X47774505Y-59701204D01*
G37*
D22*
G04 #@! TD*
G04 #@! TO.P,R2,2*
G04 #@! TO.N,Net-(J2-Pad5)*
X47425000Y-60400000D03*
D19*
G04 #@! TO.N,GND*
G04 #@! TO.C,R2*
G36*
X45724505Y-59701204D02*
X45748773Y-59704804D01*
X45772572Y-59710765D01*
X45795671Y-59719030D01*
X45817850Y-59729520D01*
X45838893Y-59742132D01*
X45858599Y-59756747D01*
X45876777Y-59773223D01*
X45893253Y-59791401D01*
X45907868Y-59811107D01*
X45920480Y-59832150D01*
X45930970Y-59854329D01*
X45939235Y-59877428D01*
X45945196Y-59901227D01*
X45948796Y-59925495D01*
X45950000Y-59949999D01*
X45950000Y-60850001D01*
X45948796Y-60874505D01*
X45945196Y-60898773D01*
X45939235Y-60922572D01*
X45930970Y-60945671D01*
X45920480Y-60967850D01*
X45907868Y-60988893D01*
X45893253Y-61008599D01*
X45876777Y-61026777D01*
X45858599Y-61043253D01*
X45838893Y-61057868D01*
X45817850Y-61070480D01*
X45795671Y-61080970D01*
X45772572Y-61089235D01*
X45748773Y-61095196D01*
X45724505Y-61098796D01*
X45700001Y-61100000D01*
X45049999Y-61100000D01*
X45025495Y-61098796D01*
X45001227Y-61095196D01*
X44977428Y-61089235D01*
X44954329Y-61080970D01*
X44932150Y-61070480D01*
X44911107Y-61057868D01*
X44891401Y-61043253D01*
X44873223Y-61026777D01*
X44856747Y-61008599D01*
X44842132Y-60988893D01*
X44829520Y-60967850D01*
X44819030Y-60945671D01*
X44810765Y-60922572D01*
X44804804Y-60898773D01*
X44801204Y-60874505D01*
X44800000Y-60850001D01*
X44800000Y-59949999D01*
X44801204Y-59925495D01*
X44804804Y-59901227D01*
X44810765Y-59877428D01*
X44819030Y-59854329D01*
X44829520Y-59832150D01*
X44842132Y-59811107D01*
X44856747Y-59791401D01*
X44873223Y-59773223D01*
X44891401Y-59756747D01*
X44911107Y-59742132D01*
X44932150Y-59729520D01*
X44954329Y-59719030D01*
X44977428Y-59710765D01*
X45001227Y-59704804D01*
X45025495Y-59701204D01*
X45049999Y-59700000D01*
X45700001Y-59700000D01*
X45724505Y-59701204D01*
X45724505Y-59701204D01*
G37*
D22*
G04 #@! TD*
G04 #@! TO.P,R2,1*
G04 #@! TO.N,GND*
X45375000Y-60400000D03*
D19*
G04 #@! TO.N,GND*
G04 #@! TO.C,R3*
G36*
X45724505Y-62201204D02*
X45748773Y-62204804D01*
X45772572Y-62210765D01*
X45795671Y-62219030D01*
X45817850Y-62229520D01*
X45838893Y-62242132D01*
X45858599Y-62256747D01*
X45876777Y-62273223D01*
X45893253Y-62291401D01*
X45907868Y-62311107D01*
X45920480Y-62332150D01*
X45930970Y-62354329D01*
X45939235Y-62377428D01*
X45945196Y-62401227D01*
X45948796Y-62425495D01*
X45950000Y-62449999D01*
X45950000Y-63350001D01*
X45948796Y-63374505D01*
X45945196Y-63398773D01*
X45939235Y-63422572D01*
X45930970Y-63445671D01*
X45920480Y-63467850D01*
X45907868Y-63488893D01*
X45893253Y-63508599D01*
X45876777Y-63526777D01*
X45858599Y-63543253D01*
X45838893Y-63557868D01*
X45817850Y-63570480D01*
X45795671Y-63580970D01*
X45772572Y-63589235D01*
X45748773Y-63595196D01*
X45724505Y-63598796D01*
X45700001Y-63600000D01*
X45049999Y-63600000D01*
X45025495Y-63598796D01*
X45001227Y-63595196D01*
X44977428Y-63589235D01*
X44954329Y-63580970D01*
X44932150Y-63570480D01*
X44911107Y-63557868D01*
X44891401Y-63543253D01*
X44873223Y-63526777D01*
X44856747Y-63508599D01*
X44842132Y-63488893D01*
X44829520Y-63467850D01*
X44819030Y-63445671D01*
X44810765Y-63422572D01*
X44804804Y-63398773D01*
X44801204Y-63374505D01*
X44800000Y-63350001D01*
X44800000Y-62449999D01*
X44801204Y-62425495D01*
X44804804Y-62401227D01*
X44810765Y-62377428D01*
X44819030Y-62354329D01*
X44829520Y-62332150D01*
X44842132Y-62311107D01*
X44856747Y-62291401D01*
X44873223Y-62273223D01*
X44891401Y-62256747D01*
X44911107Y-62242132D01*
X44932150Y-62229520D01*
X44954329Y-62219030D01*
X44977428Y-62210765D01*
X45001227Y-62204804D01*
X45025495Y-62201204D01*
X45049999Y-62200000D01*
X45700001Y-62200000D01*
X45724505Y-62201204D01*
X45724505Y-62201204D01*
G37*
D22*
G04 #@! TD*
G04 #@! TO.P,R3,1*
G04 #@! TO.N,GND*
X45375000Y-62900000D03*
D19*
G04 #@! TO.N,RC3*
G04 #@! TO.C,R3*
G36*
X47774505Y-62201204D02*
X47798773Y-62204804D01*
X47822572Y-62210765D01*
X47845671Y-62219030D01*
X47867850Y-62229520D01*
X47888893Y-62242132D01*
X47908599Y-62256747D01*
X47926777Y-62273223D01*
X47943253Y-62291401D01*
X47957868Y-62311107D01*
X47970480Y-62332150D01*
X47980970Y-62354329D01*
X47989235Y-62377428D01*
X47995196Y-62401227D01*
X47998796Y-62425495D01*
X48000000Y-62449999D01*
X48000000Y-63350001D01*
X47998796Y-63374505D01*
X47995196Y-63398773D01*
X47989235Y-63422572D01*
X47980970Y-63445671D01*
X47970480Y-63467850D01*
X47957868Y-63488893D01*
X47943253Y-63508599D01*
X47926777Y-63526777D01*
X47908599Y-63543253D01*
X47888893Y-63557868D01*
X47867850Y-63570480D01*
X47845671Y-63580970D01*
X47822572Y-63589235D01*
X47798773Y-63595196D01*
X47774505Y-63598796D01*
X47750001Y-63600000D01*
X47099999Y-63600000D01*
X47075495Y-63598796D01*
X47051227Y-63595196D01*
X47027428Y-63589235D01*
X47004329Y-63580970D01*
X46982150Y-63570480D01*
X46961107Y-63557868D01*
X46941401Y-63543253D01*
X46923223Y-63526777D01*
X46906747Y-63508599D01*
X46892132Y-63488893D01*
X46879520Y-63467850D01*
X46869030Y-63445671D01*
X46860765Y-63422572D01*
X46854804Y-63398773D01*
X46851204Y-63374505D01*
X46850000Y-63350001D01*
X46850000Y-62449999D01*
X46851204Y-62425495D01*
X46854804Y-62401227D01*
X46860765Y-62377428D01*
X46869030Y-62354329D01*
X46879520Y-62332150D01*
X46892132Y-62311107D01*
X46906747Y-62291401D01*
X46923223Y-62273223D01*
X46941401Y-62256747D01*
X46961107Y-62242132D01*
X46982150Y-62229520D01*
X47004329Y-62219030D01*
X47027428Y-62210765D01*
X47051227Y-62204804D01*
X47075495Y-62201204D01*
X47099999Y-62200000D01*
X47750001Y-62200000D01*
X47774505Y-62201204D01*
X47774505Y-62201204D01*
G37*
D22*
G04 #@! TD*
G04 #@! TO.P,R3,2*
G04 #@! TO.N,RC3*
X47425000Y-62900000D03*
D19*
G04 #@! TO.N,RC5*
G04 #@! TO.C,R4*
G36*
X47774505Y-64701204D02*
X47798773Y-64704804D01*
X47822572Y-64710765D01*
X47845671Y-64719030D01*
X47867850Y-64729520D01*
X47888893Y-64742132D01*
X47908599Y-64756747D01*
X47926777Y-64773223D01*
X47943253Y-64791401D01*
X47957868Y-64811107D01*
X47970480Y-64832150D01*
X47980970Y-64854329D01*
X47989235Y-64877428D01*
X47995196Y-64901227D01*
X47998796Y-64925495D01*
X48000000Y-64949999D01*
X48000000Y-65850001D01*
X47998796Y-65874505D01*
X47995196Y-65898773D01*
X47989235Y-65922572D01*
X47980970Y-65945671D01*
X47970480Y-65967850D01*
X47957868Y-65988893D01*
X47943253Y-66008599D01*
X47926777Y-66026777D01*
X47908599Y-66043253D01*
X47888893Y-66057868D01*
X47867850Y-66070480D01*
X47845671Y-66080970D01*
X47822572Y-66089235D01*
X47798773Y-66095196D01*
X47774505Y-66098796D01*
X47750001Y-66100000D01*
X47099999Y-66100000D01*
X47075495Y-66098796D01*
X47051227Y-66095196D01*
X47027428Y-66089235D01*
X47004329Y-66080970D01*
X46982150Y-66070480D01*
X46961107Y-66057868D01*
X46941401Y-66043253D01*
X46923223Y-66026777D01*
X46906747Y-66008599D01*
X46892132Y-65988893D01*
X46879520Y-65967850D01*
X46869030Y-65945671D01*
X46860765Y-65922572D01*
X46854804Y-65898773D01*
X46851204Y-65874505D01*
X46850000Y-65850001D01*
X46850000Y-64949999D01*
X46851204Y-64925495D01*
X46854804Y-64901227D01*
X46860765Y-64877428D01*
X46869030Y-64854329D01*
X46879520Y-64832150D01*
X46892132Y-64811107D01*
X46906747Y-64791401D01*
X46923223Y-64773223D01*
X46941401Y-64756747D01*
X46961107Y-64742132D01*
X46982150Y-64729520D01*
X47004329Y-64719030D01*
X47027428Y-64710765D01*
X47051227Y-64704804D01*
X47075495Y-64701204D01*
X47099999Y-64700000D01*
X47750001Y-64700000D01*
X47774505Y-64701204D01*
X47774505Y-64701204D01*
G37*
D22*
G04 #@! TD*
G04 #@! TO.P,R4,2*
G04 #@! TO.N,RC5*
X47425000Y-65400000D03*
D19*
G04 #@! TO.N,GND*
G04 #@! TO.C,R4*
G36*
X45724505Y-64701204D02*
X45748773Y-64704804D01*
X45772572Y-64710765D01*
X45795671Y-64719030D01*
X45817850Y-64729520D01*
X45838893Y-64742132D01*
X45858599Y-64756747D01*
X45876777Y-64773223D01*
X45893253Y-64791401D01*
X45907868Y-64811107D01*
X45920480Y-64832150D01*
X45930970Y-64854329D01*
X45939235Y-64877428D01*
X45945196Y-64901227D01*
X45948796Y-64925495D01*
X45950000Y-64949999D01*
X45950000Y-65850001D01*
X45948796Y-65874505D01*
X45945196Y-65898773D01*
X45939235Y-65922572D01*
X45930970Y-65945671D01*
X45920480Y-65967850D01*
X45907868Y-65988893D01*
X45893253Y-66008599D01*
X45876777Y-66026777D01*
X45858599Y-66043253D01*
X45838893Y-66057868D01*
X45817850Y-66070480D01*
X45795671Y-66080970D01*
X45772572Y-66089235D01*
X45748773Y-66095196D01*
X45724505Y-66098796D01*
X45700001Y-66100000D01*
X45049999Y-66100000D01*
X45025495Y-66098796D01*
X45001227Y-66095196D01*
X44977428Y-66089235D01*
X44954329Y-66080970D01*
X44932150Y-66070480D01*
X44911107Y-66057868D01*
X44891401Y-66043253D01*
X44873223Y-66026777D01*
X44856747Y-66008599D01*
X44842132Y-65988893D01*
X44829520Y-65967850D01*
X44819030Y-65945671D01*
X44810765Y-65922572D01*
X44804804Y-65898773D01*
X44801204Y-65874505D01*
X44800000Y-65850001D01*
X44800000Y-64949999D01*
X44801204Y-64925495D01*
X44804804Y-64901227D01*
X44810765Y-64877428D01*
X44819030Y-64854329D01*
X44829520Y-64832150D01*
X44842132Y-64811107D01*
X44856747Y-64791401D01*
X44873223Y-64773223D01*
X44891401Y-64756747D01*
X44911107Y-64742132D01*
X44932150Y-64729520D01*
X44954329Y-64719030D01*
X44977428Y-64710765D01*
X45001227Y-64704804D01*
X45025495Y-64701204D01*
X45049999Y-64700000D01*
X45700001Y-64700000D01*
X45724505Y-64701204D01*
X45724505Y-64701204D01*
G37*
D22*
G04 #@! TD*
G04 #@! TO.P,R4,1*
G04 #@! TO.N,GND*
X45375000Y-65400000D03*
D19*
G04 #@! TO.N,Net-(R5-Pad1)*
G04 #@! TO.C,R5*
G36*
X52174505Y-64701204D02*
X52198773Y-64704804D01*
X52222572Y-64710765D01*
X52245671Y-64719030D01*
X52267850Y-64729520D01*
X52288893Y-64742132D01*
X52308599Y-64756747D01*
X52326777Y-64773223D01*
X52343253Y-64791401D01*
X52357868Y-64811107D01*
X52370480Y-64832150D01*
X52380970Y-64854329D01*
X52389235Y-64877428D01*
X52395196Y-64901227D01*
X52398796Y-64925495D01*
X52400000Y-64949999D01*
X52400000Y-65850001D01*
X52398796Y-65874505D01*
X52395196Y-65898773D01*
X52389235Y-65922572D01*
X52380970Y-65945671D01*
X52370480Y-65967850D01*
X52357868Y-65988893D01*
X52343253Y-66008599D01*
X52326777Y-66026777D01*
X52308599Y-66043253D01*
X52288893Y-66057868D01*
X52267850Y-66070480D01*
X52245671Y-66080970D01*
X52222572Y-66089235D01*
X52198773Y-66095196D01*
X52174505Y-66098796D01*
X52150001Y-66100000D01*
X51499999Y-66100000D01*
X51475495Y-66098796D01*
X51451227Y-66095196D01*
X51427428Y-66089235D01*
X51404329Y-66080970D01*
X51382150Y-66070480D01*
X51361107Y-66057868D01*
X51341401Y-66043253D01*
X51323223Y-66026777D01*
X51306747Y-66008599D01*
X51292132Y-65988893D01*
X51279520Y-65967850D01*
X51269030Y-65945671D01*
X51260765Y-65922572D01*
X51254804Y-65898773D01*
X51251204Y-65874505D01*
X51250000Y-65850001D01*
X51250000Y-64949999D01*
X51251204Y-64925495D01*
X51254804Y-64901227D01*
X51260765Y-64877428D01*
X51269030Y-64854329D01*
X51279520Y-64832150D01*
X51292132Y-64811107D01*
X51306747Y-64791401D01*
X51323223Y-64773223D01*
X51341401Y-64756747D01*
X51361107Y-64742132D01*
X51382150Y-64729520D01*
X51404329Y-64719030D01*
X51427428Y-64710765D01*
X51451227Y-64704804D01*
X51475495Y-64701204D01*
X51499999Y-64700000D01*
X52150001Y-64700000D01*
X52174505Y-64701204D01*
X52174505Y-64701204D01*
G37*
D22*
G04 #@! TD*
G04 #@! TO.P,R5,1*
G04 #@! TO.N,Net-(R5-Pad1)*
X51825000Y-65400000D03*
D19*
G04 #@! TO.N,+5V*
G04 #@! TO.C,R5*
G36*
X50124505Y-64701204D02*
X50148773Y-64704804D01*
X50172572Y-64710765D01*
X50195671Y-64719030D01*
X50217850Y-64729520D01*
X50238893Y-64742132D01*
X50258599Y-64756747D01*
X50276777Y-64773223D01*
X50293253Y-64791401D01*
X50307868Y-64811107D01*
X50320480Y-64832150D01*
X50330970Y-64854329D01*
X50339235Y-64877428D01*
X50345196Y-64901227D01*
X50348796Y-64925495D01*
X50350000Y-64949999D01*
X50350000Y-65850001D01*
X50348796Y-65874505D01*
X50345196Y-65898773D01*
X50339235Y-65922572D01*
X50330970Y-65945671D01*
X50320480Y-65967850D01*
X50307868Y-65988893D01*
X50293253Y-66008599D01*
X50276777Y-66026777D01*
X50258599Y-66043253D01*
X50238893Y-66057868D01*
X50217850Y-66070480D01*
X50195671Y-66080970D01*
X50172572Y-66089235D01*
X50148773Y-66095196D01*
X50124505Y-66098796D01*
X50100001Y-66100000D01*
X49449999Y-66100000D01*
X49425495Y-66098796D01*
X49401227Y-66095196D01*
X49377428Y-66089235D01*
X49354329Y-66080970D01*
X49332150Y-66070480D01*
X49311107Y-66057868D01*
X49291401Y-66043253D01*
X49273223Y-66026777D01*
X49256747Y-66008599D01*
X49242132Y-65988893D01*
X49229520Y-65967850D01*
X49219030Y-65945671D01*
X49210765Y-65922572D01*
X49204804Y-65898773D01*
X49201204Y-65874505D01*
X49200000Y-65850001D01*
X49200000Y-64949999D01*
X49201204Y-64925495D01*
X49204804Y-64901227D01*
X49210765Y-64877428D01*
X49219030Y-64854329D01*
X49229520Y-64832150D01*
X49242132Y-64811107D01*
X49256747Y-64791401D01*
X49273223Y-64773223D01*
X49291401Y-64756747D01*
X49311107Y-64742132D01*
X49332150Y-64729520D01*
X49354329Y-64719030D01*
X49377428Y-64710765D01*
X49401227Y-64704804D01*
X49425495Y-64701204D01*
X49449999Y-64700000D01*
X50100001Y-64700000D01*
X50124505Y-64701204D01*
X50124505Y-64701204D01*
G37*
D22*
G04 #@! TD*
G04 #@! TO.P,R5,2*
G04 #@! TO.N,+5V*
X49775000Y-65400000D03*
D19*
G04 #@! TO.N,Net-(J3-Pad4)*
G04 #@! TO.C,R6*
G36*
X56274505Y-57101204D02*
X56298773Y-57104804D01*
X56322572Y-57110765D01*
X56345671Y-57119030D01*
X56367850Y-57129520D01*
X56388893Y-57142132D01*
X56408599Y-57156747D01*
X56426777Y-57173223D01*
X56443253Y-57191401D01*
X56457868Y-57211107D01*
X56470480Y-57232150D01*
X56480970Y-57254329D01*
X56489235Y-57277428D01*
X56495196Y-57301227D01*
X56498796Y-57325495D01*
X56500000Y-57349999D01*
X56500000Y-58250001D01*
X56498796Y-58274505D01*
X56495196Y-58298773D01*
X56489235Y-58322572D01*
X56480970Y-58345671D01*
X56470480Y-58367850D01*
X56457868Y-58388893D01*
X56443253Y-58408599D01*
X56426777Y-58426777D01*
X56408599Y-58443253D01*
X56388893Y-58457868D01*
X56367850Y-58470480D01*
X56345671Y-58480970D01*
X56322572Y-58489235D01*
X56298773Y-58495196D01*
X56274505Y-58498796D01*
X56250001Y-58500000D01*
X55599999Y-58500000D01*
X55575495Y-58498796D01*
X55551227Y-58495196D01*
X55527428Y-58489235D01*
X55504329Y-58480970D01*
X55482150Y-58470480D01*
X55461107Y-58457868D01*
X55441401Y-58443253D01*
X55423223Y-58426777D01*
X55406747Y-58408599D01*
X55392132Y-58388893D01*
X55379520Y-58367850D01*
X55369030Y-58345671D01*
X55360765Y-58322572D01*
X55354804Y-58298773D01*
X55351204Y-58274505D01*
X55350000Y-58250001D01*
X55350000Y-57349999D01*
X55351204Y-57325495D01*
X55354804Y-57301227D01*
X55360765Y-57277428D01*
X55369030Y-57254329D01*
X55379520Y-57232150D01*
X55392132Y-57211107D01*
X55406747Y-57191401D01*
X55423223Y-57173223D01*
X55441401Y-57156747D01*
X55461107Y-57142132D01*
X55482150Y-57129520D01*
X55504329Y-57119030D01*
X55527428Y-57110765D01*
X55551227Y-57104804D01*
X55575495Y-57101204D01*
X55599999Y-57100000D01*
X56250001Y-57100000D01*
X56274505Y-57101204D01*
X56274505Y-57101204D01*
G37*
D22*
G04 #@! TD*
G04 #@! TO.P,R6,2*
G04 #@! TO.N,Net-(J3-Pad4)*
X55925000Y-57800000D03*
D19*
G04 #@! TO.N,+5V*
G04 #@! TO.C,R6*
G36*
X54224505Y-57101204D02*
X54248773Y-57104804D01*
X54272572Y-57110765D01*
X54295671Y-57119030D01*
X54317850Y-57129520D01*
X54338893Y-57142132D01*
X54358599Y-57156747D01*
X54376777Y-57173223D01*
X54393253Y-57191401D01*
X54407868Y-57211107D01*
X54420480Y-57232150D01*
X54430970Y-57254329D01*
X54439235Y-57277428D01*
X54445196Y-57301227D01*
X54448796Y-57325495D01*
X54450000Y-57349999D01*
X54450000Y-58250001D01*
X54448796Y-58274505D01*
X54445196Y-58298773D01*
X54439235Y-58322572D01*
X54430970Y-58345671D01*
X54420480Y-58367850D01*
X54407868Y-58388893D01*
X54393253Y-58408599D01*
X54376777Y-58426777D01*
X54358599Y-58443253D01*
X54338893Y-58457868D01*
X54317850Y-58470480D01*
X54295671Y-58480970D01*
X54272572Y-58489235D01*
X54248773Y-58495196D01*
X54224505Y-58498796D01*
X54200001Y-58500000D01*
X53549999Y-58500000D01*
X53525495Y-58498796D01*
X53501227Y-58495196D01*
X53477428Y-58489235D01*
X53454329Y-58480970D01*
X53432150Y-58470480D01*
X53411107Y-58457868D01*
X53391401Y-58443253D01*
X53373223Y-58426777D01*
X53356747Y-58408599D01*
X53342132Y-58388893D01*
X53329520Y-58367850D01*
X53319030Y-58345671D01*
X53310765Y-58322572D01*
X53304804Y-58298773D01*
X53301204Y-58274505D01*
X53300000Y-58250001D01*
X53300000Y-57349999D01*
X53301204Y-57325495D01*
X53304804Y-57301227D01*
X53310765Y-57277428D01*
X53319030Y-57254329D01*
X53329520Y-57232150D01*
X53342132Y-57211107D01*
X53356747Y-57191401D01*
X53373223Y-57173223D01*
X53391401Y-57156747D01*
X53411107Y-57142132D01*
X53432150Y-57129520D01*
X53454329Y-57119030D01*
X53477428Y-57110765D01*
X53501227Y-57104804D01*
X53525495Y-57101204D01*
X53549999Y-57100000D01*
X54200001Y-57100000D01*
X54224505Y-57101204D01*
X54224505Y-57101204D01*
G37*
D22*
G04 #@! TD*
G04 #@! TO.P,R6,1*
G04 #@! TO.N,+5V*
X53875000Y-57800000D03*
D19*
G04 #@! TO.N,+5V*
G04 #@! TO.C,R7*
G36*
X50024505Y-57101204D02*
X50048773Y-57104804D01*
X50072572Y-57110765D01*
X50095671Y-57119030D01*
X50117850Y-57129520D01*
X50138893Y-57142132D01*
X50158599Y-57156747D01*
X50176777Y-57173223D01*
X50193253Y-57191401D01*
X50207868Y-57211107D01*
X50220480Y-57232150D01*
X50230970Y-57254329D01*
X50239235Y-57277428D01*
X50245196Y-57301227D01*
X50248796Y-57325495D01*
X50250000Y-57349999D01*
X50250000Y-58250001D01*
X50248796Y-58274505D01*
X50245196Y-58298773D01*
X50239235Y-58322572D01*
X50230970Y-58345671D01*
X50220480Y-58367850D01*
X50207868Y-58388893D01*
X50193253Y-58408599D01*
X50176777Y-58426777D01*
X50158599Y-58443253D01*
X50138893Y-58457868D01*
X50117850Y-58470480D01*
X50095671Y-58480970D01*
X50072572Y-58489235D01*
X50048773Y-58495196D01*
X50024505Y-58498796D01*
X50000001Y-58500000D01*
X49349999Y-58500000D01*
X49325495Y-58498796D01*
X49301227Y-58495196D01*
X49277428Y-58489235D01*
X49254329Y-58480970D01*
X49232150Y-58470480D01*
X49211107Y-58457868D01*
X49191401Y-58443253D01*
X49173223Y-58426777D01*
X49156747Y-58408599D01*
X49142132Y-58388893D01*
X49129520Y-58367850D01*
X49119030Y-58345671D01*
X49110765Y-58322572D01*
X49104804Y-58298773D01*
X49101204Y-58274505D01*
X49100000Y-58250001D01*
X49100000Y-57349999D01*
X49101204Y-57325495D01*
X49104804Y-57301227D01*
X49110765Y-57277428D01*
X49119030Y-57254329D01*
X49129520Y-57232150D01*
X49142132Y-57211107D01*
X49156747Y-57191401D01*
X49173223Y-57173223D01*
X49191401Y-57156747D01*
X49211107Y-57142132D01*
X49232150Y-57129520D01*
X49254329Y-57119030D01*
X49277428Y-57110765D01*
X49301227Y-57104804D01*
X49325495Y-57101204D01*
X49349999Y-57100000D01*
X50000001Y-57100000D01*
X50024505Y-57101204D01*
X50024505Y-57101204D01*
G37*
D22*
G04 #@! TD*
G04 #@! TO.P,R7,1*
G04 #@! TO.N,+5V*
X49675000Y-57800000D03*
D19*
G04 #@! TO.N,Net-(J3-Pad3)*
G04 #@! TO.C,R7*
G36*
X52074505Y-57101204D02*
X52098773Y-57104804D01*
X52122572Y-57110765D01*
X52145671Y-57119030D01*
X52167850Y-57129520D01*
X52188893Y-57142132D01*
X52208599Y-57156747D01*
X52226777Y-57173223D01*
X52243253Y-57191401D01*
X52257868Y-57211107D01*
X52270480Y-57232150D01*
X52280970Y-57254329D01*
X52289235Y-57277428D01*
X52295196Y-57301227D01*
X52298796Y-57325495D01*
X52300000Y-57349999D01*
X52300000Y-58250001D01*
X52298796Y-58274505D01*
X52295196Y-58298773D01*
X52289235Y-58322572D01*
X52280970Y-58345671D01*
X52270480Y-58367850D01*
X52257868Y-58388893D01*
X52243253Y-58408599D01*
X52226777Y-58426777D01*
X52208599Y-58443253D01*
X52188893Y-58457868D01*
X52167850Y-58470480D01*
X52145671Y-58480970D01*
X52122572Y-58489235D01*
X52098773Y-58495196D01*
X52074505Y-58498796D01*
X52050001Y-58500000D01*
X51399999Y-58500000D01*
X51375495Y-58498796D01*
X51351227Y-58495196D01*
X51327428Y-58489235D01*
X51304329Y-58480970D01*
X51282150Y-58470480D01*
X51261107Y-58457868D01*
X51241401Y-58443253D01*
X51223223Y-58426777D01*
X51206747Y-58408599D01*
X51192132Y-58388893D01*
X51179520Y-58367850D01*
X51169030Y-58345671D01*
X51160765Y-58322572D01*
X51154804Y-58298773D01*
X51151204Y-58274505D01*
X51150000Y-58250001D01*
X51150000Y-57349999D01*
X51151204Y-57325495D01*
X51154804Y-57301227D01*
X51160765Y-57277428D01*
X51169030Y-57254329D01*
X51179520Y-57232150D01*
X51192132Y-57211107D01*
X51206747Y-57191401D01*
X51223223Y-57173223D01*
X51241401Y-57156747D01*
X51261107Y-57142132D01*
X51282150Y-57129520D01*
X51304329Y-57119030D01*
X51327428Y-57110765D01*
X51351227Y-57104804D01*
X51375495Y-57101204D01*
X51399999Y-57100000D01*
X52050001Y-57100000D01*
X52074505Y-57101204D01*
X52074505Y-57101204D01*
G37*
D22*
G04 #@! TD*
G04 #@! TO.P,R7,2*
G04 #@! TO.N,Net-(J3-Pad3)*
X51725000Y-57800000D03*
D23*
G04 #@! TO.N,GND*
X48870800Y-72519700D03*
X51056000Y-72519700D03*
G04 #@! TO.N,Net-(R8-Pad1)*
X51992000Y-69009900D03*
G04 #@! TO.N,Net-(R9-Pad1)*
X48252100Y-67629200D03*
G04 #@! TO.N,Net-(R10-Pad1)*
X46376900Y-67165000D03*
G04 #@! TO.N,Net-(R11-Pad1)*
X49870200Y-67173000D03*
G04 #@! TD*
D24*
G04 #@! TO.N,Net-(D1-Pad2)*
X51056000Y-75378500D02*
X51814000Y-74620500D01*
X51814000Y-74620500D02*
X51814000Y-71553000D01*
X51814000Y-71553000D02*
X50666000Y-70405000D01*
D25*
G04 #@! TO.N,GND*
X45375000Y-62900000D02*
X45375000Y-60400000D01*
X45375000Y-65400000D02*
X45375000Y-62900000D01*
X45375000Y-57800000D02*
X44449200Y-56874200D01*
X44449200Y-56874200D02*
X44449200Y-49231100D01*
X44449200Y-49231100D02*
X46100000Y-47580300D01*
X45375000Y-60400000D02*
X45375000Y-57800000D01*
X46100000Y-46380000D02*
X46100000Y-47580300D01*
X40900000Y-67360000D02*
X42150300Y-67360000D01*
X45375000Y-65400000D02*
X44110300Y-65400000D01*
X44110300Y-65400000D02*
X42150300Y-67360000D01*
X45306000Y-73753500D02*
X47256000Y-73753500D01*
X48870800Y-73753500D02*
X48870800Y-72519700D01*
X48870800Y-73753500D02*
X47256000Y-73753500D01*
X49156000Y-73753500D02*
X48870800Y-73753500D01*
X67300000Y-61080000D02*
X66049700Y-61080000D01*
X63700000Y-61000000D02*
X65969700Y-61000000D01*
X65969700Y-61000000D02*
X66049700Y-61080000D01*
X51056000Y-73753500D02*
X51056000Y-72519700D01*
D24*
G04 #@! TO.N,Net-(D2-Pad2)*
X49156000Y-75378500D02*
X49907800Y-74626700D01*
X49907800Y-74626700D02*
X49907800Y-71246800D01*
X49907800Y-71246800D02*
X49066000Y-70405000D01*
G04 #@! TO.N,Net-(D3-Pad2)*
X47256000Y-75378500D02*
X48217200Y-76339700D01*
X48217200Y-76339700D02*
X51494200Y-76339700D01*
X51494200Y-76339700D02*
X52275300Y-75558600D01*
X52275300Y-75558600D02*
X52275300Y-70688500D01*
X52275300Y-70688500D02*
X51135600Y-69548800D01*
X51135600Y-69548800D02*
X48322200Y-69548800D01*
X48322200Y-69548800D02*
X47466000Y-70405000D01*
G04 #@! TO.N,Net-(D4-Pad2)*
X45306000Y-75378500D02*
X44548200Y-74620700D01*
X44548200Y-74620700D02*
X44548200Y-71722800D01*
X44548200Y-71722800D02*
X45866000Y-70405000D01*
D25*
G04 #@! TO.N,+5V*
X55180000Y-71760000D02*
X53368400Y-69948400D01*
X53368400Y-69948400D02*
X53368400Y-68617600D01*
X53368400Y-68617600D02*
X52510100Y-67759300D01*
X52510100Y-67759300D02*
X52231300Y-67759300D01*
X52231300Y-67759300D02*
X49872000Y-65400000D01*
X49872000Y-65400000D02*
X49775000Y-65400000D01*
X62800000Y-71760000D02*
X55180000Y-71760000D01*
X53875000Y-58901400D02*
X50776400Y-58901400D01*
X50776400Y-58901400D02*
X49675000Y-57800000D01*
X53875000Y-58901400D02*
X53875000Y-59299700D01*
X53875000Y-59299700D02*
X54775000Y-60199700D01*
X53875000Y-57800000D02*
X53875000Y-58901400D01*
X54775000Y-60818800D02*
X60308200Y-60818800D01*
X60308200Y-60818800D02*
X62587000Y-58540000D01*
X62587000Y-58540000D02*
X67300000Y-58540000D01*
X54775000Y-60818800D02*
X54775000Y-60199700D01*
X54775000Y-61500000D02*
X54775000Y-60818800D01*
X46100000Y-54000000D02*
X46100000Y-55200300D01*
X49675000Y-57800000D02*
X47075300Y-55200300D01*
X47075300Y-55200300D02*
X46100000Y-55200300D01*
D24*
G04 #@! TO.N,Net-(J2-Pad4)*
X48640000Y-47505300D02*
X44974600Y-51170700D01*
X44974600Y-51170700D02*
X44974600Y-55349600D01*
X44974600Y-55349600D02*
X47425000Y-57800000D01*
X48640000Y-46380000D02*
X48640000Y-47505300D01*
G04 #@! TO.N,Net-(Q1-Pad2)*
X61340000Y-46380000D02*
X61340000Y-47505300D01*
X61340000Y-47505300D02*
X60214700Y-48630600D01*
X60214700Y-48630600D02*
X60214700Y-56985300D01*
X60214700Y-56985300D02*
X58700000Y-58500000D01*
G04 #@! TO.N,Net-(J2-Pad5)*
X55180000Y-67111800D02*
X55180000Y-69220000D01*
X47425000Y-60400000D02*
X48468200Y-60400000D01*
X48468200Y-60400000D02*
X55180000Y-67111800D01*
X67300000Y-66160000D02*
X56131800Y-66160000D01*
X56131800Y-66160000D02*
X55180000Y-67111800D01*
G04 #@! TO.N,RC3*
X68481800Y-62431800D02*
X68481800Y-66699500D01*
X68481800Y-66699500D02*
X65961300Y-69220000D01*
X65961300Y-69220000D02*
X62800000Y-69220000D01*
X61340000Y-54000000D02*
X67472000Y-54000000D01*
X67472000Y-54000000D02*
X68481800Y-55009800D01*
X68481800Y-55009800D02*
X68481800Y-62431800D01*
X47425000Y-62900000D02*
X46512700Y-61987700D01*
X46512700Y-61987700D02*
X46512700Y-59711700D01*
X46512700Y-59711700D02*
X46881700Y-59342700D01*
X46881700Y-59342700D02*
X48308500Y-59342700D01*
X48308500Y-59342700D02*
X51741200Y-62775400D01*
X51741200Y-62775400D02*
X55775200Y-62775400D01*
X55775200Y-62775400D02*
X56547700Y-62002900D01*
X56547700Y-62002900D02*
X61967300Y-62002900D01*
X61967300Y-62002900D02*
X62471700Y-62507300D01*
X62471700Y-62507300D02*
X66738000Y-62507300D01*
X66738000Y-62507300D02*
X66813500Y-62431800D01*
X66813500Y-62431800D02*
X68481800Y-62431800D01*
G04 #@! TO.N,RC5*
X55180000Y-74300000D02*
X52843100Y-71963100D01*
X52843100Y-71963100D02*
X52843100Y-68835200D01*
X52843100Y-68835200D02*
X52292500Y-68284600D01*
X52292500Y-68284600D02*
X52013700Y-68284600D01*
X52013700Y-68284600D02*
X50155500Y-66426400D01*
X50155500Y-66426400D02*
X48451400Y-66426400D01*
X48451400Y-66426400D02*
X47425000Y-65400000D01*
G04 #@! TO.N,Net-(J3-Pad3)*
X53453900Y-50311400D02*
X56260000Y-47505300D01*
X51725000Y-57800000D02*
X52450000Y-57075000D01*
X52450000Y-57075000D02*
X52450000Y-51315300D01*
X52450000Y-51315300D02*
X53453900Y-50311400D01*
X40900000Y-63644700D02*
X41267300Y-63644700D01*
X41267300Y-63644700D02*
X43590900Y-61321100D01*
X43590900Y-61321100D02*
X43590900Y-47260700D01*
X43590900Y-47260700D02*
X45609600Y-45242000D01*
X45609600Y-45242000D02*
X49145100Y-45242000D01*
X49145100Y-45242000D02*
X49765400Y-45862300D01*
X49765400Y-45862300D02*
X49765400Y-46623000D01*
X49765400Y-46623000D02*
X53453900Y-50311400D01*
X40900000Y-64820000D02*
X40900000Y-63644700D01*
X56260000Y-46380000D02*
X56260000Y-47505300D01*
G04 #@! TO.N,Net-(J3-Pad4)*
X57674700Y-46380000D02*
X57674700Y-46187900D01*
X57674700Y-46187900D02*
X56241400Y-44754600D01*
X56241400Y-44754600D02*
X45460000Y-44754600D01*
X45460000Y-44754600D02*
X42075300Y-48139300D01*
X42075300Y-48139300D02*
X42075300Y-59929400D01*
X42075300Y-59929400D02*
X40900000Y-61104700D01*
X55925000Y-57800000D02*
X57674700Y-56050300D01*
X57674700Y-56050300D02*
X57674700Y-46380000D01*
X58800000Y-46380000D02*
X57674700Y-46380000D01*
X40900000Y-62280000D02*
X40900000Y-61104700D01*
G04 #@! TO.N,Net-(R5-Pad1)*
X40900000Y-52720000D02*
X40900000Y-53895300D01*
X51825000Y-65400000D02*
X50788400Y-64363400D01*
X50788400Y-64363400D02*
X46861400Y-64363400D01*
X46861400Y-64363400D02*
X46400000Y-64824800D01*
X46400000Y-64824800D02*
X46400000Y-66001700D01*
X46400000Y-66001700D02*
X43835900Y-68565800D01*
X43835900Y-68565800D02*
X40412900Y-68565800D01*
X40412900Y-68565800D02*
X39724700Y-67877600D01*
X39724700Y-67877600D02*
X39724700Y-54703200D01*
X39724700Y-54703200D02*
X40532600Y-53895300D01*
X40532600Y-53895300D02*
X40900000Y-53895300D01*
G04 #@! TO.N,Net-(R8-Pad1)*
X50666000Y-68655000D02*
X51637100Y-68655000D01*
X51637100Y-68655000D02*
X51992000Y-69009900D01*
G04 #@! TO.N,Net-(R9-Pad1)*
X48252100Y-67629200D02*
X49066000Y-68443100D01*
X49066000Y-68443100D02*
X49066000Y-68655000D01*
G04 #@! TO.N,Net-(R10-Pad1)*
X47466000Y-68655000D02*
X46614700Y-69506300D01*
X46614700Y-69506300D02*
X45374800Y-69506300D01*
X45374800Y-69506300D02*
X45055600Y-69187100D01*
X45055600Y-69187100D02*
X45055600Y-68108800D01*
X45055600Y-68108800D02*
X45999400Y-67165000D01*
X45999400Y-67165000D02*
X46376900Y-67165000D01*
G04 #@! TO.N,Net-(R11-Pad1)*
X45866000Y-68655000D02*
X46000800Y-68655000D01*
X46000800Y-68655000D02*
X47752000Y-66903800D01*
X47752000Y-66903800D02*
X49601000Y-66903800D01*
X49601000Y-66903800D02*
X49870200Y-67173000D01*
G04 #@! TO.N,Net-(J2-Pad1)*
X53720000Y-54000000D02*
X53720000Y-55125300D01*
X67300000Y-56000000D02*
X63740200Y-56000000D01*
X63740200Y-56000000D02*
X59703900Y-60036300D01*
X59703900Y-60036300D02*
X56571600Y-60036300D01*
X56571600Y-60036300D02*
X54845300Y-58310000D01*
X54845300Y-58310000D02*
X54845300Y-56250600D01*
X54845300Y-56250600D02*
X53720000Y-55125300D01*
G04 #@! TD*
D26*
G04 #@! TO.N,GND*
G36*
X48489848Y-71510078D02*
X48828500Y-71577440D01*
X49147801Y-71577440D01*
X49147801Y-72506000D01*
X49028998Y-72506000D01*
X49028998Y-72664748D01*
X48870250Y-72506000D01*
X48604690Y-72506000D01*
X48371301Y-72602673D01*
X48206000Y-72767975D01*
X48040699Y-72602673D01*
X47807310Y-72506000D01*
X47541750Y-72506000D01*
X47383000Y-72664750D01*
X47383000Y-73626500D01*
X48157250Y-73626500D01*
X48206000Y-73577750D01*
X48254750Y-73626500D01*
X49029000Y-73626500D01*
X49029000Y-73606500D01*
X49147800Y-73606500D01*
X49147800Y-73900500D01*
X49029000Y-73900500D01*
X49029000Y-73880500D01*
X48254750Y-73880500D01*
X48206000Y-73929250D01*
X48157250Y-73880500D01*
X47383000Y-73880500D01*
X47383000Y-73900500D01*
X47129000Y-73900500D01*
X47129000Y-73880500D01*
X46354750Y-73880500D01*
X46281000Y-73954250D01*
X46207250Y-73880500D01*
X45433000Y-73880500D01*
X45433000Y-73900500D01*
X45308200Y-73900500D01*
X45308200Y-73606500D01*
X45433000Y-73606500D01*
X45433000Y-73626500D01*
X46207250Y-73626500D01*
X46281000Y-73552750D01*
X46354750Y-73626500D01*
X47129000Y-73626500D01*
X47129000Y-72664750D01*
X46970250Y-72506000D01*
X46704690Y-72506000D01*
X46471301Y-72602673D01*
X46292673Y-72781302D01*
X46281000Y-72809483D01*
X46269327Y-72781302D01*
X46090699Y-72602673D01*
X45857310Y-72506000D01*
X45591750Y-72506000D01*
X45433002Y-72664748D01*
X45433002Y-72506000D01*
X45308200Y-72506000D01*
X45308200Y-72037601D01*
X45768362Y-71577440D01*
X46103500Y-71577440D01*
X46442152Y-71510078D01*
X46666000Y-71360507D01*
X46889848Y-71510078D01*
X47228500Y-71577440D01*
X47703500Y-71577440D01*
X48042152Y-71510078D01*
X48266000Y-71360507D01*
X48489848Y-71510078D01*
X48489848Y-71510078D01*
G37*
X48489848Y-71510078D02*
X48828500Y-71577440D01*
X49147801Y-71577440D01*
X49147801Y-72506000D01*
X49028998Y-72506000D01*
X49028998Y-72664748D01*
X48870250Y-72506000D01*
X48604690Y-72506000D01*
X48371301Y-72602673D01*
X48206000Y-72767975D01*
X48040699Y-72602673D01*
X47807310Y-72506000D01*
X47541750Y-72506000D01*
X47383000Y-72664750D01*
X47383000Y-73626500D01*
X48157250Y-73626500D01*
X48206000Y-73577750D01*
X48254750Y-73626500D01*
X49029000Y-73626500D01*
X49029000Y-73606500D01*
X49147800Y-73606500D01*
X49147800Y-73900500D01*
X49029000Y-73900500D01*
X49029000Y-73880500D01*
X48254750Y-73880500D01*
X48206000Y-73929250D01*
X48157250Y-73880500D01*
X47383000Y-73880500D01*
X47383000Y-73900500D01*
X47129000Y-73900500D01*
X47129000Y-73880500D01*
X46354750Y-73880500D01*
X46281000Y-73954250D01*
X46207250Y-73880500D01*
X45433000Y-73880500D01*
X45433000Y-73900500D01*
X45308200Y-73900500D01*
X45308200Y-73606500D01*
X45433000Y-73606500D01*
X45433000Y-73626500D01*
X46207250Y-73626500D01*
X46281000Y-73552750D01*
X46354750Y-73626500D01*
X47129000Y-73626500D01*
X47129000Y-72664750D01*
X46970250Y-72506000D01*
X46704690Y-72506000D01*
X46471301Y-72602673D01*
X46292673Y-72781302D01*
X46281000Y-72809483D01*
X46269327Y-72781302D01*
X46090699Y-72602673D01*
X45857310Y-72506000D01*
X45591750Y-72506000D01*
X45433002Y-72664748D01*
X45433002Y-72506000D01*
X45308200Y-72506000D01*
X45308200Y-72037601D01*
X45768362Y-71577440D01*
X46103500Y-71577440D01*
X46442152Y-71510078D01*
X46666000Y-71360507D01*
X46889848Y-71510078D01*
X47228500Y-71577440D01*
X47703500Y-71577440D01*
X48042152Y-71510078D01*
X48266000Y-71360507D01*
X48489848Y-71510078D01*
G36*
X51054000Y-73900500D02*
X50929000Y-73900500D01*
X50929000Y-73880500D01*
X50909000Y-73880500D01*
X50909000Y-73626500D01*
X50929000Y-73626500D01*
X50929000Y-73606500D01*
X51054000Y-73606500D01*
X51054000Y-73900500D01*
X51054000Y-73900500D01*
G37*
X51054000Y-73900500D02*
X50929000Y-73900500D01*
X50929000Y-73880500D01*
X50909000Y-73880500D01*
X50909000Y-73626500D01*
X50929000Y-73626500D01*
X50929000Y-73606500D01*
X51054000Y-73606500D01*
X51054000Y-73900500D01*
G36*
X51054001Y-71867803D02*
X51054001Y-72506000D01*
X50928998Y-72506000D01*
X50928998Y-72664748D01*
X50770250Y-72506000D01*
X50667800Y-72506000D01*
X50667800Y-71577440D01*
X50763638Y-71577440D01*
X51054001Y-71867803D01*
X51054001Y-71867803D01*
G37*
X51054001Y-71867803D02*
X51054001Y-72506000D01*
X50928998Y-72506000D01*
X50928998Y-72664748D01*
X50770250Y-72506000D01*
X50667800Y-72506000D01*
X50667800Y-71577440D01*
X50763638Y-71577440D01*
X51054001Y-71867803D01*
G36*
X45502000Y-57673000D02*
X45522000Y-57673000D01*
X45522000Y-57927000D01*
X45502000Y-57927000D01*
X45502000Y-58976250D01*
X45625750Y-59100000D01*
X45502000Y-59223750D01*
X45502000Y-60273000D01*
X45522000Y-60273000D01*
X45522000Y-60527000D01*
X45502000Y-60527000D01*
X45502000Y-61576250D01*
X45575750Y-61650000D01*
X45502000Y-61723750D01*
X45502000Y-62773000D01*
X45522000Y-62773000D01*
X45522000Y-63027000D01*
X45502000Y-63027000D01*
X45502000Y-64076250D01*
X45575750Y-64150000D01*
X45502000Y-64223750D01*
X45502000Y-65273000D01*
X45522000Y-65273000D01*
X45522000Y-65527000D01*
X45502000Y-65527000D01*
X45502000Y-65547000D01*
X45248000Y-65547000D01*
X45248000Y-65527000D01*
X44323750Y-65527000D01*
X44165000Y-65685750D01*
X44165000Y-66226310D01*
X44261673Y-66459699D01*
X44440302Y-66638327D01*
X44615855Y-66711044D01*
X43521099Y-67805800D01*
X42304651Y-67805800D01*
X42341476Y-67716890D01*
X42220155Y-67487000D01*
X41027000Y-67487000D01*
X41027000Y-67507000D01*
X40773000Y-67507000D01*
X40773000Y-67487000D01*
X40753000Y-67487000D01*
X40753000Y-67233000D01*
X40773000Y-67233000D01*
X40773000Y-67213000D01*
X41027000Y-67213000D01*
X41027000Y-67233000D01*
X42220155Y-67233000D01*
X42341476Y-67003110D01*
X42171645Y-66593076D01*
X41781358Y-66164817D01*
X41651522Y-66103843D01*
X41970625Y-65890625D01*
X42298839Y-65399418D01*
X42414092Y-64820000D01*
X42298839Y-64240582D01*
X42077491Y-63909311D01*
X42801052Y-63185750D01*
X44165000Y-63185750D01*
X44165000Y-63726310D01*
X44261673Y-63959699D01*
X44440302Y-64138327D01*
X44468483Y-64150000D01*
X44440302Y-64161673D01*
X44261673Y-64340301D01*
X44165000Y-64573690D01*
X44165000Y-65114250D01*
X44323750Y-65273000D01*
X45248000Y-65273000D01*
X45248000Y-64223750D01*
X45174250Y-64150000D01*
X45248000Y-64076250D01*
X45248000Y-63027000D01*
X44323750Y-63027000D01*
X44165000Y-63185750D01*
X42801052Y-63185750D01*
X44075373Y-61911429D01*
X44138829Y-61869029D01*
X44306804Y-61617637D01*
X44325520Y-61523546D01*
X44440302Y-61638327D01*
X44468483Y-61650000D01*
X44440302Y-61661673D01*
X44261673Y-61840301D01*
X44165000Y-62073690D01*
X44165000Y-62614250D01*
X44323750Y-62773000D01*
X45248000Y-62773000D01*
X45248000Y-61723750D01*
X45174250Y-61650000D01*
X45248000Y-61576250D01*
X45248000Y-60527000D01*
X45228000Y-60527000D01*
X45228000Y-60273000D01*
X45248000Y-60273000D01*
X45248000Y-59223750D01*
X45124250Y-59100000D01*
X45248000Y-58976250D01*
X45248000Y-57927000D01*
X45228000Y-57927000D01*
X45228000Y-57673000D01*
X45248000Y-57673000D01*
X45248000Y-57653000D01*
X45502000Y-57653000D01*
X45502000Y-57673000D01*
X45502000Y-57673000D01*
G37*
X45502000Y-57673000D02*
X45522000Y-57673000D01*
X45522000Y-57927000D01*
X45502000Y-57927000D01*
X45502000Y-58976250D01*
X45625750Y-59100000D01*
X45502000Y-59223750D01*
X45502000Y-60273000D01*
X45522000Y-60273000D01*
X45522000Y-60527000D01*
X45502000Y-60527000D01*
X45502000Y-61576250D01*
X45575750Y-61650000D01*
X45502000Y-61723750D01*
X45502000Y-62773000D01*
X45522000Y-62773000D01*
X45522000Y-63027000D01*
X45502000Y-63027000D01*
X45502000Y-64076250D01*
X45575750Y-64150000D01*
X45502000Y-64223750D01*
X45502000Y-65273000D01*
X45522000Y-65273000D01*
X45522000Y-65527000D01*
X45502000Y-65527000D01*
X45502000Y-65547000D01*
X45248000Y-65547000D01*
X45248000Y-65527000D01*
X44323750Y-65527000D01*
X44165000Y-65685750D01*
X44165000Y-66226310D01*
X44261673Y-66459699D01*
X44440302Y-66638327D01*
X44615855Y-66711044D01*
X43521099Y-67805800D01*
X42304651Y-67805800D01*
X42341476Y-67716890D01*
X42220155Y-67487000D01*
X41027000Y-67487000D01*
X41027000Y-67507000D01*
X40773000Y-67507000D01*
X40773000Y-67487000D01*
X40753000Y-67487000D01*
X40753000Y-67233000D01*
X40773000Y-67233000D01*
X40773000Y-67213000D01*
X41027000Y-67213000D01*
X41027000Y-67233000D01*
X42220155Y-67233000D01*
X42341476Y-67003110D01*
X42171645Y-66593076D01*
X41781358Y-66164817D01*
X41651522Y-66103843D01*
X41970625Y-65890625D01*
X42298839Y-65399418D01*
X42414092Y-64820000D01*
X42298839Y-64240582D01*
X42077491Y-63909311D01*
X42801052Y-63185750D01*
X44165000Y-63185750D01*
X44165000Y-63726310D01*
X44261673Y-63959699D01*
X44440302Y-64138327D01*
X44468483Y-64150000D01*
X44440302Y-64161673D01*
X44261673Y-64340301D01*
X44165000Y-64573690D01*
X44165000Y-65114250D01*
X44323750Y-65273000D01*
X45248000Y-65273000D01*
X45248000Y-64223750D01*
X45174250Y-64150000D01*
X45248000Y-64076250D01*
X45248000Y-63027000D01*
X44323750Y-63027000D01*
X44165000Y-63185750D01*
X42801052Y-63185750D01*
X44075373Y-61911429D01*
X44138829Y-61869029D01*
X44306804Y-61617637D01*
X44325520Y-61523546D01*
X44440302Y-61638327D01*
X44468483Y-61650000D01*
X44440302Y-61661673D01*
X44261673Y-61840301D01*
X44165000Y-62073690D01*
X44165000Y-62614250D01*
X44323750Y-62773000D01*
X45248000Y-62773000D01*
X45248000Y-61723750D01*
X45174250Y-61650000D01*
X45248000Y-61576250D01*
X45248000Y-60527000D01*
X45228000Y-60527000D01*
X45228000Y-60273000D01*
X45248000Y-60273000D01*
X45248000Y-59223750D01*
X45124250Y-59100000D01*
X45248000Y-58976250D01*
X45248000Y-57927000D01*
X45228000Y-57927000D01*
X45228000Y-57673000D01*
X45248000Y-57673000D01*
X45248000Y-57653000D01*
X45502000Y-57653000D01*
X45502000Y-57673000D01*
G36*
X66229375Y-59610625D02*
X66548478Y-59823843D01*
X66418642Y-59884817D01*
X66028355Y-60313076D01*
X65858524Y-60723110D01*
X65979845Y-60953000D01*
X67173000Y-60953000D01*
X67173000Y-60933000D01*
X67427000Y-60933000D01*
X67427000Y-60953000D01*
X67447000Y-60953000D01*
X67447000Y-61207000D01*
X67427000Y-61207000D01*
X67427000Y-61227000D01*
X67173000Y-61227000D01*
X67173000Y-61207000D01*
X65979845Y-61207000D01*
X65858524Y-61436890D01*
X65987092Y-61747300D01*
X65346984Y-61747300D01*
X65514894Y-61305110D01*
X65493504Y-60587354D01*
X65259984Y-60023586D01*
X64975486Y-59904120D01*
X63879605Y-61000000D01*
X63893748Y-61014142D01*
X63714142Y-61193748D01*
X63700000Y-61179605D01*
X63685858Y-61193748D01*
X63506252Y-61014142D01*
X63520395Y-61000000D01*
X63506252Y-60985858D01*
X63685858Y-60806252D01*
X63700000Y-60820395D01*
X64795880Y-59724514D01*
X64676414Y-59440016D01*
X64505195Y-59375000D01*
X66071935Y-59375000D01*
X66229375Y-59610625D01*
X66229375Y-59610625D01*
G37*
X66229375Y-59610625D02*
X66548478Y-59823843D01*
X66418642Y-59884817D01*
X66028355Y-60313076D01*
X65858524Y-60723110D01*
X65979845Y-60953000D01*
X67173000Y-60953000D01*
X67173000Y-60933000D01*
X67427000Y-60933000D01*
X67427000Y-60953000D01*
X67447000Y-60953000D01*
X67447000Y-61207000D01*
X67427000Y-61207000D01*
X67427000Y-61227000D01*
X67173000Y-61227000D01*
X67173000Y-61207000D01*
X65979845Y-61207000D01*
X65858524Y-61436890D01*
X65987092Y-61747300D01*
X65346984Y-61747300D01*
X65514894Y-61305110D01*
X65493504Y-60587354D01*
X65259984Y-60023586D01*
X64975486Y-59904120D01*
X63879605Y-61000000D01*
X63893748Y-61014142D01*
X63714142Y-61193748D01*
X63700000Y-61179605D01*
X63685858Y-61193748D01*
X63506252Y-61014142D01*
X63520395Y-61000000D01*
X63506252Y-60985858D01*
X63685858Y-60806252D01*
X63700000Y-60820395D01*
X64795880Y-59724514D01*
X64676414Y-59440016D01*
X64505195Y-59375000D01*
X66071935Y-59375000D01*
X66229375Y-59610625D01*
G36*
X44363043Y-55802301D02*
X44426672Y-55897529D01*
X44490128Y-55939929D01*
X45015199Y-56465000D01*
X44673691Y-56465000D01*
X44440302Y-56561673D01*
X44350900Y-56651074D01*
X44350900Y-55784129D01*
X44363043Y-55802301D01*
X44363043Y-55802301D01*
G37*
X44363043Y-55802301D02*
X44426672Y-55897529D01*
X44490128Y-55939929D01*
X45015199Y-56465000D01*
X44673691Y-56465000D01*
X44440302Y-56561673D01*
X44350900Y-56651074D01*
X44350900Y-55784129D01*
X44363043Y-55802301D01*
G36*
X46227000Y-46253000D02*
X46247000Y-46253000D01*
X46247000Y-46507000D01*
X46227000Y-46507000D01*
X46227000Y-47649915D01*
X46449039Y-47771904D01*
X46837423Y-47611041D01*
X47252389Y-47235134D01*
X47349053Y-47030892D01*
X47605423Y-47414577D01*
X47635694Y-47434803D01*
X44490130Y-50580369D01*
X44426671Y-50622771D01*
X44350900Y-50736171D01*
X44350900Y-47575501D01*
X44865262Y-47061139D01*
X44947611Y-47235134D01*
X45362577Y-47611041D01*
X45750961Y-47771904D01*
X45973000Y-47649915D01*
X45973000Y-46507000D01*
X45953000Y-46507000D01*
X45953000Y-46253000D01*
X45973000Y-46253000D01*
X45973000Y-46233000D01*
X46227000Y-46233000D01*
X46227000Y-46253000D01*
X46227000Y-46253000D01*
G37*
X46227000Y-46253000D02*
X46247000Y-46253000D01*
X46247000Y-46507000D01*
X46227000Y-46507000D01*
X46227000Y-47649915D01*
X46449039Y-47771904D01*
X46837423Y-47611041D01*
X47252389Y-47235134D01*
X47349053Y-47030892D01*
X47605423Y-47414577D01*
X47635694Y-47434803D01*
X44490130Y-50580369D01*
X44426671Y-50622771D01*
X44350900Y-50736171D01*
X44350900Y-47575501D01*
X44865262Y-47061139D01*
X44947611Y-47235134D01*
X45362577Y-47611041D01*
X45750961Y-47771904D01*
X45973000Y-47649915D01*
X45973000Y-46507000D01*
X45953000Y-46507000D01*
X45953000Y-46253000D01*
X45973000Y-46253000D01*
X45973000Y-46233000D01*
X46227000Y-46233000D01*
X46227000Y-46253000D01*
G04 #@! TD*
M02*
