G04 #@! TF.GenerationSoftware,KiCad,Pcbnew,(5.0.0)*
G04 #@! TF.CreationDate,2019-09-23T14:44:06+09:00*
G04 #@! TF.ProjectId,ir_read_mod,69725F726561645F6D6F642E6B696361,rev?*
G04 #@! TF.SameCoordinates,Original*
G04 #@! TF.FileFunction,Copper,L2,Bot,Signal*
G04 #@! TF.FilePolarity,Positive*
%FSLAX46Y46*%
G04 Gerber Fmt 4.6, Leading zero omitted, Abs format (unit mm)*
G04 Created by KiCad (PCBNEW (5.0.0)) date 09/23/19 14:44:06*
%MOMM*%
%LPD*%
G01*
G04 APERTURE LIST*
G04 #@! TA.AperFunction,ComponentPad*
%ADD10C,1.800000*%
G04 #@! TD*
G04 #@! TA.AperFunction,ComponentPad*
%ADD11R,1.800000X1.800000*%
G04 #@! TD*
G04 #@! TA.AperFunction,ComponentPad*
%ADD12C,2.340000*%
G04 #@! TD*
G04 #@! TA.AperFunction,ComponentPad*
%ADD13O,1.600000X1.600000*%
G04 #@! TD*
G04 #@! TA.AperFunction,ComponentPad*
%ADD14R,1.600000X1.600000*%
G04 #@! TD*
G04 #@! TA.AperFunction,ComponentPad*
%ADD15O,2.100000X1.900000*%
G04 #@! TD*
G04 #@! TA.AperFunction,ComponentPad*
%ADD16R,2.100000X1.900000*%
G04 #@! TD*
G04 #@! TA.AperFunction,ComponentPad*
%ADD17O,1.700000X1.700000*%
G04 #@! TD*
G04 #@! TA.AperFunction,ComponentPad*
%ADD18R,1.700000X1.700000*%
G04 #@! TD*
G04 #@! TA.AperFunction,ViaPad*
%ADD19C,0.800000*%
G04 #@! TD*
G04 #@! TA.AperFunction,Conductor*
%ADD20C,0.400000*%
G04 #@! TD*
G04 #@! TA.AperFunction,Conductor*
%ADD21C,0.250000*%
G04 #@! TD*
G04 #@! TA.AperFunction,Conductor*
%ADD22C,0.254000*%
G04 #@! TD*
G04 APERTURE END LIST*
D10*
G04 #@! TO.P,Q1,2*
G04 #@! TO.N,Net-(Q1-Pad2)*
X52235000Y-61500000D03*
D11*
G04 #@! TO.P,Q1,1*
G04 #@! TO.N,+5V*
X54775000Y-61500000D03*
G04 #@! TD*
D12*
G04 #@! TO.P,RV1,1*
G04 #@! TO.N,Net-(Q1-Pad2)*
X58700000Y-58500000D03*
G04 #@! TO.P,RV1,2*
G04 #@! TO.N,GND*
X63700000Y-61000000D03*
G04 #@! TO.P,RV1,3*
G04 #@! TO.N,N/C*
X58700000Y-63500000D03*
G04 #@! TD*
D13*
G04 #@! TO.P,U1,14*
G04 #@! TO.N,GND*
X46100000Y-46380000D03*
G04 #@! TO.P,U1,7*
G04 #@! TO.N,RC3*
X61340000Y-54000000D03*
G04 #@! TO.P,U1,13*
G04 #@! TO.N,Net-(J2-Pad4)*
X48640000Y-46380000D03*
G04 #@! TO.P,U1,6*
G04 #@! TO.N,Net-(R11-Pad1)*
X58800000Y-54000000D03*
G04 #@! TO.P,U1,12*
G04 #@! TO.N,Net-(J2-Pad5)*
X51180000Y-46380000D03*
G04 #@! TO.P,U1,5*
G04 #@! TO.N,RC5*
X56260000Y-54000000D03*
G04 #@! TO.P,U1,11*
G04 #@! TO.N,Net-(R8-Pad1)*
X53720000Y-46380000D03*
G04 #@! TO.P,U1,4*
G04 #@! TO.N,Net-(J2-Pad1)*
X53720000Y-54000000D03*
G04 #@! TO.P,U1,10*
G04 #@! TO.N,Net-(J3-Pad3)*
X56260000Y-46380000D03*
G04 #@! TO.P,U1,3*
G04 #@! TO.N,Net-(R9-Pad1)*
X51180000Y-54000000D03*
G04 #@! TO.P,U1,9*
G04 #@! TO.N,Net-(J3-Pad4)*
X58800000Y-46380000D03*
G04 #@! TO.P,U1,2*
G04 #@! TO.N,Net-(R10-Pad1)*
X48640000Y-54000000D03*
G04 #@! TO.P,U1,8*
G04 #@! TO.N,Net-(Q1-Pad2)*
X61340000Y-46380000D03*
D14*
G04 #@! TO.P,U1,1*
G04 #@! TO.N,+5V*
X46100000Y-54000000D03*
G04 #@! TD*
D15*
G04 #@! TO.P,SW1,2*
G04 #@! TO.N,Net-(J2-Pad5)*
X55180000Y-69220000D03*
G04 #@! TO.P,SW1,4*
G04 #@! TO.N,RC3*
X62800000Y-69220000D03*
G04 #@! TO.P,SW1,C*
G04 #@! TO.N,+5V*
X55180000Y-71760000D03*
X62800000Y-71760000D03*
G04 #@! TO.P,SW1,8*
G04 #@! TO.N,RC5*
X55180000Y-74300000D03*
D16*
G04 #@! TO.P,SW1,1*
G04 #@! TO.N,Net-(J2-Pad4)*
X62800000Y-74300000D03*
G04 #@! TD*
D17*
G04 #@! TO.P,SW2,3*
G04 #@! TO.N,Net-(R5-Pad1)*
X40900000Y-52720000D03*
G04 #@! TO.P,SW2,2*
G04 #@! TO.N,Net-(J2-Pad1)*
X40900000Y-55260000D03*
D18*
G04 #@! TO.P,SW2,1*
G04 #@! TO.N,N/C*
X40900000Y-57800000D03*
G04 #@! TD*
D17*
G04 #@! TO.P,J2,5*
G04 #@! TO.N,Net-(J2-Pad5)*
X67300000Y-66160000D03*
G04 #@! TO.P,J2,4*
G04 #@! TO.N,Net-(J2-Pad4)*
X67300000Y-63620000D03*
G04 #@! TO.P,J2,3*
G04 #@! TO.N,GND*
X67300000Y-61080000D03*
G04 #@! TO.P,J2,2*
G04 #@! TO.N,+5V*
X67300000Y-58540000D03*
D18*
G04 #@! TO.P,J2,1*
G04 #@! TO.N,Net-(J2-Pad1)*
X67300000Y-56000000D03*
G04 #@! TD*
D17*
G04 #@! TO.P,J3,4*
G04 #@! TO.N,Net-(J3-Pad4)*
X40900000Y-62280000D03*
G04 #@! TO.P,J3,3*
G04 #@! TO.N,Net-(J3-Pad3)*
X40900000Y-64820000D03*
G04 #@! TO.P,J3,2*
G04 #@! TO.N,GND*
X40900000Y-67360000D03*
D18*
G04 #@! TO.P,J3,1*
G04 #@! TO.N,+5V*
X40900000Y-69900000D03*
G04 #@! TD*
D19*
G04 #@! TO.N,GND*
X48870800Y-72519700D03*
X51056000Y-72519700D03*
G04 #@! TO.N,Net-(R8-Pad1)*
X51992000Y-69009900D03*
G04 #@! TO.N,Net-(R9-Pad1)*
X48252100Y-67629200D03*
G04 #@! TO.N,Net-(R10-Pad1)*
X46376900Y-67165000D03*
G04 #@! TO.N,Net-(R11-Pad1)*
X49870200Y-67173000D03*
G04 #@! TD*
D20*
G04 #@! TO.N,GND*
X42150300Y-67360000D02*
X47310000Y-72519700D01*
X47310000Y-72519700D02*
X48870800Y-72519700D01*
X40900000Y-67360000D02*
X42150300Y-67360000D01*
X48870800Y-72519700D02*
X51056000Y-72519700D01*
X63700000Y-61000000D02*
X57884500Y-66815500D01*
X57884500Y-66815500D02*
X57884500Y-73662800D01*
X57884500Y-73662800D02*
X55881300Y-75666000D01*
X55881300Y-75666000D02*
X54202300Y-75666000D01*
X54202300Y-75666000D02*
X51056000Y-72519700D01*
G04 #@! TO.N,+5V*
X54775000Y-62800300D02*
X51191700Y-66383600D01*
X51191700Y-66383600D02*
X51191700Y-69421000D01*
X51191700Y-69421000D02*
X53530700Y-71760000D01*
X53530700Y-71760000D02*
X53729700Y-71760000D01*
X40900000Y-69900000D02*
X40900000Y-68649700D01*
X46100000Y-54000000D02*
X46100000Y-55200300D01*
X46100000Y-55200300D02*
X39649700Y-61650600D01*
X39649700Y-61650600D02*
X39649700Y-67946500D01*
X39649700Y-67946500D02*
X40352900Y-68649700D01*
X40352900Y-68649700D02*
X40900000Y-68649700D01*
X55180000Y-71760000D02*
X53729700Y-71760000D01*
X54775000Y-61500000D02*
X54775000Y-62800300D01*
D21*
G04 #@! TO.N,Net-(J2-Pad4)*
X66124700Y-67382500D02*
X66124700Y-65603200D01*
X66124700Y-65603200D02*
X66932600Y-64795300D01*
X66932600Y-64795300D02*
X67300000Y-64795300D01*
X62800000Y-74300000D02*
X66124700Y-70975300D01*
X66124700Y-70975300D02*
X66124700Y-67382500D01*
X49765300Y-46380000D02*
X49765300Y-46098700D01*
X49765300Y-46098700D02*
X51083700Y-44780300D01*
X51083700Y-44780300D02*
X56266900Y-44780300D01*
X56266900Y-44780300D02*
X57530000Y-46043400D01*
X57530000Y-46043400D02*
X57530000Y-47910900D01*
X57530000Y-47910900D02*
X65833300Y-56214200D01*
X65833300Y-56214200D02*
X65833300Y-58808700D01*
X65833300Y-58808700D02*
X66834600Y-59810000D01*
X66834600Y-59810000D02*
X67711500Y-59810000D01*
X67711500Y-59810000D02*
X68945300Y-61043800D01*
X68945300Y-61043800D02*
X68945300Y-66227500D01*
X68945300Y-66227500D02*
X67790300Y-67382500D01*
X67790300Y-67382500D02*
X66124700Y-67382500D01*
X48640000Y-46380000D02*
X49765300Y-46380000D01*
X67300000Y-63620000D02*
X67300000Y-64795300D01*
G04 #@! TO.N,Net-(Q1-Pad2)*
X58700000Y-58500000D02*
X55235000Y-58500000D01*
X55235000Y-58500000D02*
X52235000Y-61500000D01*
G04 #@! TO.N,Net-(J2-Pad5)*
X52305300Y-46380000D02*
X52305300Y-46098600D01*
X52305300Y-46098600D02*
X53149200Y-45254700D01*
X53149200Y-45254700D02*
X54203900Y-45254700D01*
X54203900Y-45254700D02*
X54990000Y-46040800D01*
X54990000Y-46040800D02*
X54990000Y-46707500D01*
X54990000Y-46707500D02*
X58828400Y-50545900D01*
X58828400Y-50545900D02*
X59520200Y-50545900D01*
X59520200Y-50545900D02*
X65220900Y-56246600D01*
X65220900Y-56246600D02*
X65220900Y-60681700D01*
X65220900Y-60681700D02*
X66889200Y-62350000D01*
X66889200Y-62350000D02*
X67693500Y-62350000D01*
X67693500Y-62350000D02*
X68487900Y-63144400D01*
X68487900Y-63144400D02*
X68487900Y-64972100D01*
X68487900Y-64972100D02*
X67300000Y-66160000D01*
X51180000Y-46380000D02*
X52305300Y-46380000D01*
G04 #@! TO.N,RC5*
X55180000Y-74300000D02*
X49134200Y-68254200D01*
X49134200Y-68254200D02*
X49134200Y-61125800D01*
X49134200Y-61125800D02*
X56260000Y-54000000D01*
G04 #@! TO.N,Net-(R8-Pad1)*
X53720000Y-46380000D02*
X53720000Y-47505300D01*
X51992000Y-69009900D02*
X51992000Y-68061100D01*
X51992000Y-68061100D02*
X60214600Y-59838500D01*
X60214600Y-59838500D02*
X60214600Y-53718600D01*
X60214600Y-53718600D02*
X54001300Y-47505300D01*
X54001300Y-47505300D02*
X53720000Y-47505300D01*
G04 #@! TO.N,Net-(R9-Pad1)*
X51180000Y-55125300D02*
X48252100Y-58053200D01*
X48252100Y-58053200D02*
X48252100Y-67629200D01*
X51180000Y-54000000D02*
X51180000Y-55125300D01*
G04 #@! TO.N,Net-(R10-Pad1)*
X48640000Y-54000000D02*
X48640000Y-55125300D01*
X46376900Y-67165000D02*
X46376900Y-57388400D01*
X46376900Y-57388400D02*
X48640000Y-55125300D01*
G04 #@! TO.N,Net-(R11-Pad1)*
X49870200Y-67173000D02*
X49870200Y-62060700D01*
X49870200Y-62060700D02*
X57674700Y-54256200D01*
X57674700Y-54256200D02*
X57674700Y-54000000D01*
X58800000Y-54000000D02*
X57674700Y-54000000D01*
G04 #@! TO.N,Net-(J2-Pad1)*
X53720000Y-54000000D02*
X52594700Y-54000000D01*
X40900000Y-55260000D02*
X42075300Y-55260000D01*
X42075300Y-55260000D02*
X44460600Y-52874700D01*
X44460600Y-52874700D02*
X51750800Y-52874700D01*
X51750800Y-52874700D02*
X52594700Y-53718600D01*
X52594700Y-53718600D02*
X52594700Y-54000000D01*
G04 #@! TD*
D22*
G04 #@! TO.N,GND*
G36*
X49536222Y-45252977D02*
X49199909Y-45028260D01*
X48781333Y-44945000D01*
X48498667Y-44945000D01*
X48080091Y-45028260D01*
X47605423Y-45345423D01*
X47349053Y-45729108D01*
X47252389Y-45524866D01*
X46837423Y-45148959D01*
X46449039Y-44988096D01*
X46227000Y-45110085D01*
X46227000Y-46253000D01*
X46247000Y-46253000D01*
X46247000Y-46507000D01*
X46227000Y-46507000D01*
X46227000Y-47649915D01*
X46449039Y-47771904D01*
X46837423Y-47611041D01*
X47252389Y-47235134D01*
X47349053Y-47030892D01*
X47605423Y-47414577D01*
X48080091Y-47731740D01*
X48498667Y-47815000D01*
X48781333Y-47815000D01*
X49199909Y-47731740D01*
X49674577Y-47414577D01*
X49860786Y-47135896D01*
X49947667Y-47118614D01*
X50145423Y-47414577D01*
X50620091Y-47731740D01*
X51038667Y-47815000D01*
X51321333Y-47815000D01*
X51739909Y-47731740D01*
X52214577Y-47414577D01*
X52400786Y-47135896D01*
X52487667Y-47118614D01*
X52685423Y-47414577D01*
X52964104Y-47600786D01*
X53004096Y-47801837D01*
X53172071Y-48053229D01*
X53423463Y-48221204D01*
X53645148Y-48265300D01*
X53696766Y-48275568D01*
X58137804Y-52716606D01*
X57765423Y-52965423D01*
X57579214Y-53244104D01*
X57492333Y-53261386D01*
X57294577Y-52965423D01*
X56819909Y-52648260D01*
X56401333Y-52565000D01*
X56118667Y-52565000D01*
X55700091Y-52648260D01*
X55225423Y-52965423D01*
X54990000Y-53317758D01*
X54754577Y-52965423D01*
X54279909Y-52648260D01*
X53861333Y-52565000D01*
X53578667Y-52565000D01*
X53160091Y-52648260D01*
X52823838Y-52872937D01*
X52341131Y-52390230D01*
X52298729Y-52326771D01*
X52047337Y-52158796D01*
X51825652Y-52114700D01*
X51825647Y-52114700D01*
X51750800Y-52099812D01*
X51675953Y-52114700D01*
X44535448Y-52114700D01*
X44460600Y-52099812D01*
X44385752Y-52114700D01*
X44385748Y-52114700D01*
X44164063Y-52158796D01*
X43912671Y-52326771D01*
X43870271Y-52390227D01*
X42010879Y-54249620D01*
X41970625Y-54189375D01*
X41672239Y-53990000D01*
X41970625Y-53790625D01*
X42298839Y-53299418D01*
X42414092Y-52720000D01*
X42298839Y-52140582D01*
X41970625Y-51649375D01*
X41479418Y-51321161D01*
X41046256Y-51235000D01*
X40753744Y-51235000D01*
X40320582Y-51321161D01*
X39829375Y-51649375D01*
X39501161Y-52140582D01*
X39385908Y-52720000D01*
X39501161Y-53299418D01*
X39829375Y-53790625D01*
X40127761Y-53990000D01*
X39829375Y-54189375D01*
X39501161Y-54680582D01*
X39385908Y-55260000D01*
X39501161Y-55839418D01*
X39829375Y-56330625D01*
X39847619Y-56342816D01*
X39802235Y-56351843D01*
X39592191Y-56492191D01*
X39451843Y-56702235D01*
X39402560Y-56950000D01*
X39402560Y-58650000D01*
X39451843Y-58897765D01*
X39592191Y-59107809D01*
X39802235Y-59248157D01*
X40050000Y-59297440D01*
X40821993Y-59297440D01*
X39117420Y-61002013D01*
X39047699Y-61048599D01*
X38863148Y-61324800D01*
X38814700Y-61568364D01*
X38814700Y-61568367D01*
X38798343Y-61650600D01*
X38814700Y-61732833D01*
X38814701Y-67864262D01*
X38798343Y-67946500D01*
X38863148Y-68272300D01*
X38901068Y-68329051D01*
X39047700Y-68548501D01*
X39117418Y-68595085D01*
X39430727Y-68908394D01*
X39402560Y-69050000D01*
X39402560Y-70750000D01*
X39451843Y-70997765D01*
X39592191Y-71207809D01*
X39802235Y-71348157D01*
X40050000Y-71397440D01*
X41750000Y-71397440D01*
X41997765Y-71348157D01*
X42207809Y-71207809D01*
X42348157Y-70997765D01*
X42397440Y-70750000D01*
X42397440Y-69050000D01*
X42348157Y-68802235D01*
X42207809Y-68592191D01*
X41997765Y-68451843D01*
X41894292Y-68431261D01*
X42171645Y-68126924D01*
X42341476Y-67716890D01*
X42220155Y-67487000D01*
X41027000Y-67487000D01*
X41027000Y-67507000D01*
X40773000Y-67507000D01*
X40773000Y-67487000D01*
X40753000Y-67487000D01*
X40753000Y-67233000D01*
X40773000Y-67233000D01*
X40773000Y-67213000D01*
X41027000Y-67213000D01*
X41027000Y-67233000D01*
X42220155Y-67233000D01*
X42341476Y-67003110D01*
X42171645Y-66593076D01*
X41781358Y-66164817D01*
X41651522Y-66103843D01*
X41970625Y-65890625D01*
X42298839Y-65399418D01*
X42414092Y-64820000D01*
X42298839Y-64240582D01*
X41970625Y-63749375D01*
X41672239Y-63550000D01*
X41970625Y-63350625D01*
X42298839Y-62859418D01*
X42414092Y-62280000D01*
X42298839Y-61700582D01*
X41970625Y-61209375D01*
X41551705Y-60929462D01*
X46632283Y-55848885D01*
X46702001Y-55802301D01*
X46886552Y-55526101D01*
X46902289Y-55446985D01*
X47147765Y-55398157D01*
X47357809Y-55257809D01*
X47498157Y-55047765D01*
X47524785Y-54913894D01*
X47605423Y-55034577D01*
X47635694Y-55054804D01*
X45892428Y-56798071D01*
X45828972Y-56840471D01*
X45786572Y-56903927D01*
X45786571Y-56903928D01*
X45660997Y-57091863D01*
X45602012Y-57388400D01*
X45616901Y-57463252D01*
X45616900Y-66461289D01*
X45499469Y-66578720D01*
X45341900Y-66959126D01*
X45341900Y-67370874D01*
X45499469Y-67751280D01*
X45790620Y-68042431D01*
X46171026Y-68200000D01*
X46582774Y-68200000D01*
X46963180Y-68042431D01*
X47217100Y-67788511D01*
X47217100Y-67835074D01*
X47374669Y-68215480D01*
X47665820Y-68506631D01*
X48046226Y-68664200D01*
X48457974Y-68664200D01*
X48486277Y-68652477D01*
X48586271Y-68802129D01*
X48649730Y-68844531D01*
X53570339Y-73765142D01*
X53463949Y-74300000D01*
X53586964Y-74918436D01*
X53937279Y-75442721D01*
X54461564Y-75793036D01*
X54923897Y-75885000D01*
X55436103Y-75885000D01*
X55898436Y-75793036D01*
X56422721Y-75442721D01*
X56773036Y-74918436D01*
X56896051Y-74300000D01*
X56773036Y-73681564D01*
X56422721Y-73157279D01*
X56232234Y-73030000D01*
X56422721Y-72902721D01*
X56773036Y-72378436D01*
X56896051Y-71760000D01*
X56773036Y-71141564D01*
X56422721Y-70617279D01*
X56232234Y-70490000D01*
X56422721Y-70362721D01*
X56773036Y-69838436D01*
X56896051Y-69220000D01*
X56773036Y-68601564D01*
X56422721Y-68077279D01*
X55898436Y-67726964D01*
X55436103Y-67635000D01*
X54923897Y-67635000D01*
X54461564Y-67726964D01*
X53937279Y-68077279D01*
X53586964Y-68601564D01*
X53463949Y-69220000D01*
X53586964Y-69838436D01*
X53937279Y-70362721D01*
X54127766Y-70490000D01*
X53937279Y-70617279D01*
X53789706Y-70838138D01*
X52708589Y-69757022D01*
X52869431Y-69596180D01*
X53027000Y-69215774D01*
X53027000Y-68804026D01*
X52869431Y-68423620D01*
X52786856Y-68341045D01*
X57004503Y-64123399D01*
X57169795Y-64522450D01*
X57677550Y-65030205D01*
X58340963Y-65305000D01*
X59059037Y-65305000D01*
X59722450Y-65030205D01*
X60230205Y-64522450D01*
X60505000Y-63859037D01*
X60505000Y-63140963D01*
X60230205Y-62477550D01*
X60028141Y-62275486D01*
X62604120Y-62275486D01*
X62723586Y-62559984D01*
X63394890Y-62814894D01*
X64112646Y-62793504D01*
X64676414Y-62559984D01*
X64795880Y-62275486D01*
X63700000Y-61179605D01*
X62604120Y-62275486D01*
X60028141Y-62275486D01*
X59722450Y-61969795D01*
X59323400Y-61804503D01*
X60433013Y-60694890D01*
X61885106Y-60694890D01*
X61906496Y-61412646D01*
X62140016Y-61976414D01*
X62424514Y-62095880D01*
X63520395Y-61000000D01*
X62424514Y-59904120D01*
X62140016Y-60023586D01*
X61885106Y-60694890D01*
X60433013Y-60694890D01*
X60699076Y-60428827D01*
X60762529Y-60386429D01*
X60804927Y-60322976D01*
X60804929Y-60322974D01*
X60930503Y-60135038D01*
X60930504Y-60135037D01*
X60974600Y-59913352D01*
X60974600Y-59913348D01*
X60989488Y-59838501D01*
X60974600Y-59763654D01*
X60974600Y-55390430D01*
X61198667Y-55435000D01*
X61481333Y-55435000D01*
X61899909Y-55351740D01*
X62374577Y-55034577D01*
X62598681Y-54699182D01*
X64460900Y-56561402D01*
X64460901Y-59358181D01*
X64005110Y-59185106D01*
X63287354Y-59206496D01*
X62723586Y-59440016D01*
X62604120Y-59724514D01*
X63700000Y-60820395D01*
X63714142Y-60806252D01*
X63893748Y-60985858D01*
X63879605Y-61000000D01*
X64975486Y-62095880D01*
X65259984Y-61976414D01*
X65309751Y-61845353D01*
X66143017Y-62678619D01*
X65901161Y-63040582D01*
X65785908Y-63620000D01*
X65901161Y-64199418D01*
X66122469Y-64530629D01*
X65640228Y-65012871D01*
X65576772Y-65055271D01*
X65534372Y-65118727D01*
X65534371Y-65118728D01*
X65408797Y-65306663D01*
X65349812Y-65603200D01*
X65364701Y-65678052D01*
X65364700Y-67307648D01*
X65349811Y-67382500D01*
X65364701Y-67457357D01*
X65364700Y-70660498D01*
X64474432Y-71550767D01*
X64393036Y-71141564D01*
X64042721Y-70617279D01*
X63852234Y-70490000D01*
X64042721Y-70362721D01*
X64393036Y-69838436D01*
X64516051Y-69220000D01*
X64393036Y-68601564D01*
X64042721Y-68077279D01*
X63518436Y-67726964D01*
X63056103Y-67635000D01*
X62543897Y-67635000D01*
X62081564Y-67726964D01*
X61557279Y-68077279D01*
X61206964Y-68601564D01*
X61083949Y-69220000D01*
X61206964Y-69838436D01*
X61557279Y-70362721D01*
X61747766Y-70490000D01*
X61557279Y-70617279D01*
X61206964Y-71141564D01*
X61083949Y-71760000D01*
X61206964Y-72378436D01*
X61470593Y-72772986D01*
X61292191Y-72892191D01*
X61151843Y-73102235D01*
X61102560Y-73350000D01*
X61102560Y-75250000D01*
X61151843Y-75497765D01*
X61292191Y-75707809D01*
X61502235Y-75848157D01*
X61750000Y-75897440D01*
X63850000Y-75897440D01*
X64097765Y-75848157D01*
X64307809Y-75707809D01*
X64409625Y-75555431D01*
X65765000Y-75555431D01*
X65765000Y-76444569D01*
X66105259Y-77266026D01*
X66733974Y-77894741D01*
X67555431Y-78235000D01*
X68444569Y-78235000D01*
X69266026Y-77894741D01*
X69894741Y-77266026D01*
X70235000Y-76444569D01*
X70235000Y-75555431D01*
X69894741Y-74733974D01*
X69266026Y-74105259D01*
X68444569Y-73765000D01*
X67555431Y-73765000D01*
X66733974Y-74105259D01*
X66105259Y-74733974D01*
X65765000Y-75555431D01*
X64409625Y-75555431D01*
X64448157Y-75497765D01*
X64497440Y-75250000D01*
X64497440Y-73677361D01*
X66609173Y-71565629D01*
X66672629Y-71523229D01*
X66789609Y-71348157D01*
X66840604Y-71271838D01*
X66866517Y-71141564D01*
X66884700Y-71050152D01*
X66884700Y-71050148D01*
X66899588Y-70975300D01*
X66884700Y-70900452D01*
X66884700Y-68142500D01*
X67715453Y-68142500D01*
X67790300Y-68157388D01*
X67865147Y-68142500D01*
X67865152Y-68142500D01*
X68086837Y-68098404D01*
X68338229Y-67930429D01*
X68380631Y-67866970D01*
X69429773Y-66817829D01*
X69493229Y-66775429D01*
X69615074Y-66593076D01*
X69661204Y-66524038D01*
X69674631Y-66456537D01*
X69705300Y-66302352D01*
X69705300Y-66302348D01*
X69720188Y-66227500D01*
X69705300Y-66152652D01*
X69705300Y-61118648D01*
X69720188Y-61043800D01*
X69705300Y-60968952D01*
X69705300Y-60968948D01*
X69661204Y-60747263D01*
X69661204Y-60747262D01*
X69535629Y-60559327D01*
X69493229Y-60495871D01*
X69429773Y-60453471D01*
X68457263Y-59480962D01*
X68698839Y-59119418D01*
X68814092Y-58540000D01*
X68698839Y-57960582D01*
X68370625Y-57469375D01*
X68352381Y-57457184D01*
X68397765Y-57448157D01*
X68607809Y-57307809D01*
X68748157Y-57097765D01*
X68797440Y-56850000D01*
X68797440Y-55150000D01*
X68748157Y-54902235D01*
X68607809Y-54692191D01*
X68397765Y-54551843D01*
X68150000Y-54502560D01*
X66450000Y-54502560D01*
X66202235Y-54551843D01*
X65992191Y-54692191D01*
X65851843Y-54902235D01*
X65809419Y-55115516D01*
X58471714Y-47777813D01*
X58658667Y-47815000D01*
X58941333Y-47815000D01*
X59359909Y-47731740D01*
X59834577Y-47414577D01*
X60070000Y-47062242D01*
X60305423Y-47414577D01*
X60780091Y-47731740D01*
X61198667Y-47815000D01*
X61481333Y-47815000D01*
X61899909Y-47731740D01*
X62374577Y-47414577D01*
X62691740Y-46939909D01*
X62768217Y-46555431D01*
X65765000Y-46555431D01*
X65765000Y-47444569D01*
X66105259Y-48266026D01*
X66733974Y-48894741D01*
X67555431Y-49235000D01*
X68444569Y-49235000D01*
X69266026Y-48894741D01*
X69894741Y-48266026D01*
X70235000Y-47444569D01*
X70235000Y-46555431D01*
X69894741Y-45733974D01*
X69266026Y-45105259D01*
X68444569Y-44765000D01*
X67555431Y-44765000D01*
X66733974Y-45105259D01*
X66105259Y-45733974D01*
X65765000Y-46555431D01*
X62768217Y-46555431D01*
X62803113Y-46380000D01*
X62691740Y-45820091D01*
X62374577Y-45345423D01*
X61899909Y-45028260D01*
X61481333Y-44945000D01*
X61198667Y-44945000D01*
X60780091Y-45028260D01*
X60305423Y-45345423D01*
X60070000Y-45697758D01*
X59834577Y-45345423D01*
X59359909Y-45028260D01*
X58941333Y-44945000D01*
X58658667Y-44945000D01*
X58240091Y-45028260D01*
X57850187Y-45288785D01*
X57271401Y-44710000D01*
X70290001Y-44710000D01*
X70290000Y-78290000D01*
X36710000Y-78290000D01*
X36710000Y-75555431D01*
X36765000Y-75555431D01*
X36765000Y-76444569D01*
X37105259Y-77266026D01*
X37733974Y-77894741D01*
X38555431Y-78235000D01*
X39444569Y-78235000D01*
X40266026Y-77894741D01*
X40894741Y-77266026D01*
X41235000Y-76444569D01*
X41235000Y-75555431D01*
X40894741Y-74733974D01*
X40266026Y-74105259D01*
X39444569Y-73765000D01*
X38555431Y-73765000D01*
X37733974Y-74105259D01*
X37105259Y-74733974D01*
X36765000Y-75555431D01*
X36710000Y-75555431D01*
X36710000Y-46555431D01*
X36765000Y-46555431D01*
X36765000Y-47444569D01*
X37105259Y-48266026D01*
X37733974Y-48894741D01*
X38555431Y-49235000D01*
X39444569Y-49235000D01*
X40266026Y-48894741D01*
X40894741Y-48266026D01*
X41235000Y-47444569D01*
X41235000Y-46729041D01*
X44708086Y-46729041D01*
X44947611Y-47235134D01*
X45362577Y-47611041D01*
X45750961Y-47771904D01*
X45973000Y-47649915D01*
X45973000Y-46507000D01*
X44829371Y-46507000D01*
X44708086Y-46729041D01*
X41235000Y-46729041D01*
X41235000Y-46555431D01*
X41017757Y-46030959D01*
X44708086Y-46030959D01*
X44829371Y-46253000D01*
X45973000Y-46253000D01*
X45973000Y-45110085D01*
X45750961Y-44988096D01*
X45362577Y-45148959D01*
X44947611Y-45524866D01*
X44708086Y-46030959D01*
X41017757Y-46030959D01*
X40894741Y-45733974D01*
X40266026Y-45105259D01*
X39444569Y-44765000D01*
X38555431Y-44765000D01*
X37733974Y-45105259D01*
X37105259Y-45733974D01*
X36765000Y-46555431D01*
X36710000Y-46555431D01*
X36710000Y-44710000D01*
X50079198Y-44710000D01*
X49536222Y-45252977D01*
X49536222Y-45252977D01*
G37*
X49536222Y-45252977D02*
X49199909Y-45028260D01*
X48781333Y-44945000D01*
X48498667Y-44945000D01*
X48080091Y-45028260D01*
X47605423Y-45345423D01*
X47349053Y-45729108D01*
X47252389Y-45524866D01*
X46837423Y-45148959D01*
X46449039Y-44988096D01*
X46227000Y-45110085D01*
X46227000Y-46253000D01*
X46247000Y-46253000D01*
X46247000Y-46507000D01*
X46227000Y-46507000D01*
X46227000Y-47649915D01*
X46449039Y-47771904D01*
X46837423Y-47611041D01*
X47252389Y-47235134D01*
X47349053Y-47030892D01*
X47605423Y-47414577D01*
X48080091Y-47731740D01*
X48498667Y-47815000D01*
X48781333Y-47815000D01*
X49199909Y-47731740D01*
X49674577Y-47414577D01*
X49860786Y-47135896D01*
X49947667Y-47118614D01*
X50145423Y-47414577D01*
X50620091Y-47731740D01*
X51038667Y-47815000D01*
X51321333Y-47815000D01*
X51739909Y-47731740D01*
X52214577Y-47414577D01*
X52400786Y-47135896D01*
X52487667Y-47118614D01*
X52685423Y-47414577D01*
X52964104Y-47600786D01*
X53004096Y-47801837D01*
X53172071Y-48053229D01*
X53423463Y-48221204D01*
X53645148Y-48265300D01*
X53696766Y-48275568D01*
X58137804Y-52716606D01*
X57765423Y-52965423D01*
X57579214Y-53244104D01*
X57492333Y-53261386D01*
X57294577Y-52965423D01*
X56819909Y-52648260D01*
X56401333Y-52565000D01*
X56118667Y-52565000D01*
X55700091Y-52648260D01*
X55225423Y-52965423D01*
X54990000Y-53317758D01*
X54754577Y-52965423D01*
X54279909Y-52648260D01*
X53861333Y-52565000D01*
X53578667Y-52565000D01*
X53160091Y-52648260D01*
X52823838Y-52872937D01*
X52341131Y-52390230D01*
X52298729Y-52326771D01*
X52047337Y-52158796D01*
X51825652Y-52114700D01*
X51825647Y-52114700D01*
X51750800Y-52099812D01*
X51675953Y-52114700D01*
X44535448Y-52114700D01*
X44460600Y-52099812D01*
X44385752Y-52114700D01*
X44385748Y-52114700D01*
X44164063Y-52158796D01*
X43912671Y-52326771D01*
X43870271Y-52390227D01*
X42010879Y-54249620D01*
X41970625Y-54189375D01*
X41672239Y-53990000D01*
X41970625Y-53790625D01*
X42298839Y-53299418D01*
X42414092Y-52720000D01*
X42298839Y-52140582D01*
X41970625Y-51649375D01*
X41479418Y-51321161D01*
X41046256Y-51235000D01*
X40753744Y-51235000D01*
X40320582Y-51321161D01*
X39829375Y-51649375D01*
X39501161Y-52140582D01*
X39385908Y-52720000D01*
X39501161Y-53299418D01*
X39829375Y-53790625D01*
X40127761Y-53990000D01*
X39829375Y-54189375D01*
X39501161Y-54680582D01*
X39385908Y-55260000D01*
X39501161Y-55839418D01*
X39829375Y-56330625D01*
X39847619Y-56342816D01*
X39802235Y-56351843D01*
X39592191Y-56492191D01*
X39451843Y-56702235D01*
X39402560Y-56950000D01*
X39402560Y-58650000D01*
X39451843Y-58897765D01*
X39592191Y-59107809D01*
X39802235Y-59248157D01*
X40050000Y-59297440D01*
X40821993Y-59297440D01*
X39117420Y-61002013D01*
X39047699Y-61048599D01*
X38863148Y-61324800D01*
X38814700Y-61568364D01*
X38814700Y-61568367D01*
X38798343Y-61650600D01*
X38814700Y-61732833D01*
X38814701Y-67864262D01*
X38798343Y-67946500D01*
X38863148Y-68272300D01*
X38901068Y-68329051D01*
X39047700Y-68548501D01*
X39117418Y-68595085D01*
X39430727Y-68908394D01*
X39402560Y-69050000D01*
X39402560Y-70750000D01*
X39451843Y-70997765D01*
X39592191Y-71207809D01*
X39802235Y-71348157D01*
X40050000Y-71397440D01*
X41750000Y-71397440D01*
X41997765Y-71348157D01*
X42207809Y-71207809D01*
X42348157Y-70997765D01*
X42397440Y-70750000D01*
X42397440Y-69050000D01*
X42348157Y-68802235D01*
X42207809Y-68592191D01*
X41997765Y-68451843D01*
X41894292Y-68431261D01*
X42171645Y-68126924D01*
X42341476Y-67716890D01*
X42220155Y-67487000D01*
X41027000Y-67487000D01*
X41027000Y-67507000D01*
X40773000Y-67507000D01*
X40773000Y-67487000D01*
X40753000Y-67487000D01*
X40753000Y-67233000D01*
X40773000Y-67233000D01*
X40773000Y-67213000D01*
X41027000Y-67213000D01*
X41027000Y-67233000D01*
X42220155Y-67233000D01*
X42341476Y-67003110D01*
X42171645Y-66593076D01*
X41781358Y-66164817D01*
X41651522Y-66103843D01*
X41970625Y-65890625D01*
X42298839Y-65399418D01*
X42414092Y-64820000D01*
X42298839Y-64240582D01*
X41970625Y-63749375D01*
X41672239Y-63550000D01*
X41970625Y-63350625D01*
X42298839Y-62859418D01*
X42414092Y-62280000D01*
X42298839Y-61700582D01*
X41970625Y-61209375D01*
X41551705Y-60929462D01*
X46632283Y-55848885D01*
X46702001Y-55802301D01*
X46886552Y-55526101D01*
X46902289Y-55446985D01*
X47147765Y-55398157D01*
X47357809Y-55257809D01*
X47498157Y-55047765D01*
X47524785Y-54913894D01*
X47605423Y-55034577D01*
X47635694Y-55054804D01*
X45892428Y-56798071D01*
X45828972Y-56840471D01*
X45786572Y-56903927D01*
X45786571Y-56903928D01*
X45660997Y-57091863D01*
X45602012Y-57388400D01*
X45616901Y-57463252D01*
X45616900Y-66461289D01*
X45499469Y-66578720D01*
X45341900Y-66959126D01*
X45341900Y-67370874D01*
X45499469Y-67751280D01*
X45790620Y-68042431D01*
X46171026Y-68200000D01*
X46582774Y-68200000D01*
X46963180Y-68042431D01*
X47217100Y-67788511D01*
X47217100Y-67835074D01*
X47374669Y-68215480D01*
X47665820Y-68506631D01*
X48046226Y-68664200D01*
X48457974Y-68664200D01*
X48486277Y-68652477D01*
X48586271Y-68802129D01*
X48649730Y-68844531D01*
X53570339Y-73765142D01*
X53463949Y-74300000D01*
X53586964Y-74918436D01*
X53937279Y-75442721D01*
X54461564Y-75793036D01*
X54923897Y-75885000D01*
X55436103Y-75885000D01*
X55898436Y-75793036D01*
X56422721Y-75442721D01*
X56773036Y-74918436D01*
X56896051Y-74300000D01*
X56773036Y-73681564D01*
X56422721Y-73157279D01*
X56232234Y-73030000D01*
X56422721Y-72902721D01*
X56773036Y-72378436D01*
X56896051Y-71760000D01*
X56773036Y-71141564D01*
X56422721Y-70617279D01*
X56232234Y-70490000D01*
X56422721Y-70362721D01*
X56773036Y-69838436D01*
X56896051Y-69220000D01*
X56773036Y-68601564D01*
X56422721Y-68077279D01*
X55898436Y-67726964D01*
X55436103Y-67635000D01*
X54923897Y-67635000D01*
X54461564Y-67726964D01*
X53937279Y-68077279D01*
X53586964Y-68601564D01*
X53463949Y-69220000D01*
X53586964Y-69838436D01*
X53937279Y-70362721D01*
X54127766Y-70490000D01*
X53937279Y-70617279D01*
X53789706Y-70838138D01*
X52708589Y-69757022D01*
X52869431Y-69596180D01*
X53027000Y-69215774D01*
X53027000Y-68804026D01*
X52869431Y-68423620D01*
X52786856Y-68341045D01*
X57004503Y-64123399D01*
X57169795Y-64522450D01*
X57677550Y-65030205D01*
X58340963Y-65305000D01*
X59059037Y-65305000D01*
X59722450Y-65030205D01*
X60230205Y-64522450D01*
X60505000Y-63859037D01*
X60505000Y-63140963D01*
X60230205Y-62477550D01*
X60028141Y-62275486D01*
X62604120Y-62275486D01*
X62723586Y-62559984D01*
X63394890Y-62814894D01*
X64112646Y-62793504D01*
X64676414Y-62559984D01*
X64795880Y-62275486D01*
X63700000Y-61179605D01*
X62604120Y-62275486D01*
X60028141Y-62275486D01*
X59722450Y-61969795D01*
X59323400Y-61804503D01*
X60433013Y-60694890D01*
X61885106Y-60694890D01*
X61906496Y-61412646D01*
X62140016Y-61976414D01*
X62424514Y-62095880D01*
X63520395Y-61000000D01*
X62424514Y-59904120D01*
X62140016Y-60023586D01*
X61885106Y-60694890D01*
X60433013Y-60694890D01*
X60699076Y-60428827D01*
X60762529Y-60386429D01*
X60804927Y-60322976D01*
X60804929Y-60322974D01*
X60930503Y-60135038D01*
X60930504Y-60135037D01*
X60974600Y-59913352D01*
X60974600Y-59913348D01*
X60989488Y-59838501D01*
X60974600Y-59763654D01*
X60974600Y-55390430D01*
X61198667Y-55435000D01*
X61481333Y-55435000D01*
X61899909Y-55351740D01*
X62374577Y-55034577D01*
X62598681Y-54699182D01*
X64460900Y-56561402D01*
X64460901Y-59358181D01*
X64005110Y-59185106D01*
X63287354Y-59206496D01*
X62723586Y-59440016D01*
X62604120Y-59724514D01*
X63700000Y-60820395D01*
X63714142Y-60806252D01*
X63893748Y-60985858D01*
X63879605Y-61000000D01*
X64975486Y-62095880D01*
X65259984Y-61976414D01*
X65309751Y-61845353D01*
X66143017Y-62678619D01*
X65901161Y-63040582D01*
X65785908Y-63620000D01*
X65901161Y-64199418D01*
X66122469Y-64530629D01*
X65640228Y-65012871D01*
X65576772Y-65055271D01*
X65534372Y-65118727D01*
X65534371Y-65118728D01*
X65408797Y-65306663D01*
X65349812Y-65603200D01*
X65364701Y-65678052D01*
X65364700Y-67307648D01*
X65349811Y-67382500D01*
X65364701Y-67457357D01*
X65364700Y-70660498D01*
X64474432Y-71550767D01*
X64393036Y-71141564D01*
X64042721Y-70617279D01*
X63852234Y-70490000D01*
X64042721Y-70362721D01*
X64393036Y-69838436D01*
X64516051Y-69220000D01*
X64393036Y-68601564D01*
X64042721Y-68077279D01*
X63518436Y-67726964D01*
X63056103Y-67635000D01*
X62543897Y-67635000D01*
X62081564Y-67726964D01*
X61557279Y-68077279D01*
X61206964Y-68601564D01*
X61083949Y-69220000D01*
X61206964Y-69838436D01*
X61557279Y-70362721D01*
X61747766Y-70490000D01*
X61557279Y-70617279D01*
X61206964Y-71141564D01*
X61083949Y-71760000D01*
X61206964Y-72378436D01*
X61470593Y-72772986D01*
X61292191Y-72892191D01*
X61151843Y-73102235D01*
X61102560Y-73350000D01*
X61102560Y-75250000D01*
X61151843Y-75497765D01*
X61292191Y-75707809D01*
X61502235Y-75848157D01*
X61750000Y-75897440D01*
X63850000Y-75897440D01*
X64097765Y-75848157D01*
X64307809Y-75707809D01*
X64409625Y-75555431D01*
X65765000Y-75555431D01*
X65765000Y-76444569D01*
X66105259Y-77266026D01*
X66733974Y-77894741D01*
X67555431Y-78235000D01*
X68444569Y-78235000D01*
X69266026Y-77894741D01*
X69894741Y-77266026D01*
X70235000Y-76444569D01*
X70235000Y-75555431D01*
X69894741Y-74733974D01*
X69266026Y-74105259D01*
X68444569Y-73765000D01*
X67555431Y-73765000D01*
X66733974Y-74105259D01*
X66105259Y-74733974D01*
X65765000Y-75555431D01*
X64409625Y-75555431D01*
X64448157Y-75497765D01*
X64497440Y-75250000D01*
X64497440Y-73677361D01*
X66609173Y-71565629D01*
X66672629Y-71523229D01*
X66789609Y-71348157D01*
X66840604Y-71271838D01*
X66866517Y-71141564D01*
X66884700Y-71050152D01*
X66884700Y-71050148D01*
X66899588Y-70975300D01*
X66884700Y-70900452D01*
X66884700Y-68142500D01*
X67715453Y-68142500D01*
X67790300Y-68157388D01*
X67865147Y-68142500D01*
X67865152Y-68142500D01*
X68086837Y-68098404D01*
X68338229Y-67930429D01*
X68380631Y-67866970D01*
X69429773Y-66817829D01*
X69493229Y-66775429D01*
X69615074Y-66593076D01*
X69661204Y-66524038D01*
X69674631Y-66456537D01*
X69705300Y-66302352D01*
X69705300Y-66302348D01*
X69720188Y-66227500D01*
X69705300Y-66152652D01*
X69705300Y-61118648D01*
X69720188Y-61043800D01*
X69705300Y-60968952D01*
X69705300Y-60968948D01*
X69661204Y-60747263D01*
X69661204Y-60747262D01*
X69535629Y-60559327D01*
X69493229Y-60495871D01*
X69429773Y-60453471D01*
X68457263Y-59480962D01*
X68698839Y-59119418D01*
X68814092Y-58540000D01*
X68698839Y-57960582D01*
X68370625Y-57469375D01*
X68352381Y-57457184D01*
X68397765Y-57448157D01*
X68607809Y-57307809D01*
X68748157Y-57097765D01*
X68797440Y-56850000D01*
X68797440Y-55150000D01*
X68748157Y-54902235D01*
X68607809Y-54692191D01*
X68397765Y-54551843D01*
X68150000Y-54502560D01*
X66450000Y-54502560D01*
X66202235Y-54551843D01*
X65992191Y-54692191D01*
X65851843Y-54902235D01*
X65809419Y-55115516D01*
X58471714Y-47777813D01*
X58658667Y-47815000D01*
X58941333Y-47815000D01*
X59359909Y-47731740D01*
X59834577Y-47414577D01*
X60070000Y-47062242D01*
X60305423Y-47414577D01*
X60780091Y-47731740D01*
X61198667Y-47815000D01*
X61481333Y-47815000D01*
X61899909Y-47731740D01*
X62374577Y-47414577D01*
X62691740Y-46939909D01*
X62768217Y-46555431D01*
X65765000Y-46555431D01*
X65765000Y-47444569D01*
X66105259Y-48266026D01*
X66733974Y-48894741D01*
X67555431Y-49235000D01*
X68444569Y-49235000D01*
X69266026Y-48894741D01*
X69894741Y-48266026D01*
X70235000Y-47444569D01*
X70235000Y-46555431D01*
X69894741Y-45733974D01*
X69266026Y-45105259D01*
X68444569Y-44765000D01*
X67555431Y-44765000D01*
X66733974Y-45105259D01*
X66105259Y-45733974D01*
X65765000Y-46555431D01*
X62768217Y-46555431D01*
X62803113Y-46380000D01*
X62691740Y-45820091D01*
X62374577Y-45345423D01*
X61899909Y-45028260D01*
X61481333Y-44945000D01*
X61198667Y-44945000D01*
X60780091Y-45028260D01*
X60305423Y-45345423D01*
X60070000Y-45697758D01*
X59834577Y-45345423D01*
X59359909Y-45028260D01*
X58941333Y-44945000D01*
X58658667Y-44945000D01*
X58240091Y-45028260D01*
X57850187Y-45288785D01*
X57271401Y-44710000D01*
X70290001Y-44710000D01*
X70290000Y-78290000D01*
X36710000Y-78290000D01*
X36710000Y-75555431D01*
X36765000Y-75555431D01*
X36765000Y-76444569D01*
X37105259Y-77266026D01*
X37733974Y-77894741D01*
X38555431Y-78235000D01*
X39444569Y-78235000D01*
X40266026Y-77894741D01*
X40894741Y-77266026D01*
X41235000Y-76444569D01*
X41235000Y-75555431D01*
X40894741Y-74733974D01*
X40266026Y-74105259D01*
X39444569Y-73765000D01*
X38555431Y-73765000D01*
X37733974Y-74105259D01*
X37105259Y-74733974D01*
X36765000Y-75555431D01*
X36710000Y-75555431D01*
X36710000Y-46555431D01*
X36765000Y-46555431D01*
X36765000Y-47444569D01*
X37105259Y-48266026D01*
X37733974Y-48894741D01*
X38555431Y-49235000D01*
X39444569Y-49235000D01*
X40266026Y-48894741D01*
X40894741Y-48266026D01*
X41235000Y-47444569D01*
X41235000Y-46729041D01*
X44708086Y-46729041D01*
X44947611Y-47235134D01*
X45362577Y-47611041D01*
X45750961Y-47771904D01*
X45973000Y-47649915D01*
X45973000Y-46507000D01*
X44829371Y-46507000D01*
X44708086Y-46729041D01*
X41235000Y-46729041D01*
X41235000Y-46555431D01*
X41017757Y-46030959D01*
X44708086Y-46030959D01*
X44829371Y-46253000D01*
X45973000Y-46253000D01*
X45973000Y-45110085D01*
X45750961Y-44988096D01*
X45362577Y-45148959D01*
X44947611Y-45524866D01*
X44708086Y-46030959D01*
X41017757Y-46030959D01*
X40894741Y-45733974D01*
X40266026Y-45105259D01*
X39444569Y-44765000D01*
X38555431Y-44765000D01*
X37733974Y-45105259D01*
X37105259Y-45733974D01*
X36765000Y-46555431D01*
X36710000Y-46555431D01*
X36710000Y-44710000D01*
X50079198Y-44710000D01*
X49536222Y-45252977D01*
G36*
X67427000Y-60953000D02*
X67447000Y-60953000D01*
X67447000Y-61207000D01*
X67427000Y-61207000D01*
X67427000Y-61227000D01*
X67173000Y-61227000D01*
X67173000Y-61207000D01*
X67153000Y-61207000D01*
X67153000Y-60953000D01*
X67173000Y-60953000D01*
X67173000Y-60933000D01*
X67427000Y-60933000D01*
X67427000Y-60953000D01*
X67427000Y-60953000D01*
G37*
X67427000Y-60953000D02*
X67447000Y-60953000D01*
X67447000Y-61207000D01*
X67427000Y-61207000D01*
X67427000Y-61227000D01*
X67173000Y-61227000D01*
X67173000Y-61207000D01*
X67153000Y-61207000D01*
X67153000Y-60953000D01*
X67173000Y-60953000D01*
X67173000Y-60933000D01*
X67427000Y-60933000D01*
X67427000Y-60953000D01*
G04 #@! TD*
M02*
