M48
;DRILL file {KiCad (5.0.0)} date 08/04/19 18:22:59
;FORMAT={-:-/ absolute / metric / decimal}
FMAT,2
METRIC,TZ
T1C0.800
T2C0.900
T3C1.000
T4C1.300
T5C3.200
%
G90
G05
M71
T1
X69.5Y-62.78
X69.5Y-70.4
X57.1Y-41.9
X64.72Y-41.9
X72.5Y-52.78
X72.5Y-60.4
X45.9Y-47.4
X45.9Y-49.94
X45.9Y-52.48
X45.9Y-55.02
X45.9Y-57.56
X45.9Y-60.1
X45.9Y-62.64
X53.52Y-47.4
X53.52Y-49.94
X53.52Y-52.48
X53.52Y-55.02
X53.52Y-57.56
X53.52Y-60.1
X53.52Y-62.64
X75.5Y-52.78
X75.5Y-60.4
X69.5Y-52.78
X69.5Y-60.4
X57.1Y-45.
X64.72Y-45.
X72.55Y-62.78
X72.55Y-70.4
T2
X63.26Y-59.6
X65.8Y-59.6
X56.4Y-69.
X58.94Y-69.
X56.76Y-59.6
X59.3Y-59.6
X43.4Y-69.
X45.94Y-69.
X49.9Y-69.
X52.44Y-69.
X62.9Y-69.
X65.44Y-69.
T3
X68.2Y-40.05
X59.6Y-38.3
X62.14Y-38.3
X42.45Y-52.35
X42.45Y-54.89
X42.45Y-57.43
X42.45Y-59.97
X42.45Y-62.51
X42.45Y-43.27
X42.45Y-45.81
X42.45Y-48.35
X68.3Y-44.85
X68.3Y-47.39
X68.3Y-49.93
X75.92Y-44.85
X75.92Y-47.39
X75.92Y-49.93
X46.3Y-42.2
X48.84Y-42.2
X51.38Y-42.2
X53.92Y-42.2
T4
X59.1Y-53.3
X61.6Y-48.3
X64.1Y-53.3
T5
X39.4Y-74.4
X39.4Y-38.4
X75.4Y-74.4
X75.4Y-38.4
T0
M30
